<?xml version="1.0" encoding="UTF-8" standalone="no"?>
<!DOCTYPE svg  PUBLIC '-//W3C//DTD SVG 1.1//EN'  'http://www.w3.org/Graphics/SVG/1.1/DTD/svg11.dtd'>
<svg xmlns="http://www.w3.org/2000/svg">
<defs>
<font id="PFBeauSansPro-Regular" horiz-adv-x="590">
<font-face underline-position="-50" font-weight="400" descent="-200" panose-1="2 0 5 0 0 0 0 2 0 4" units-per-em="1000" unicode-range="U+0020-25CA" bbox="-155 -223 1245 908" x-height="525" underline-thickness="50" font-family="PFBeauSansPro" ascent="800" cap-height="701"/>
<missing-glyph horiz-adv-x="1000"/>
<glyph glyph-name=".notdef" horiz-adv-x="1000"/>
<glyph glyph-name=".null" horiz-adv-x="0"/>
<glyph glyph-name="nonmarkingreturn" horiz-adv-x="333"/>
<glyph glyph-name="space" horiz-adv-x="270" unicode=" "/>
<glyph glyph-name="exclam" horiz-adv-x="270" unicode="!" d="M201 57q0 -28 -18.5 -47t-47.5 -19t-47.5 18.5t-18.5 47.5q0 27 19 46.5t47 19.5q29 0 47.5 -19t18.5 -47zM165 216q-1 -9 -5 -12.5t-17 -3.5h-20q-18 0 -18 13l-20 471q0 5 3.5 10.5t12.5 5.5h67q10 0 13.5 -5.5t2.5 -10.5z"/>
<glyph glyph-name="quotedbl" horiz-adv-x="355" unicode='&quot;' d="M279 456q-2 -9 -5.5 -12.5t-16.5 -3.5h-20q-10 0 -13.5 3.5t-4.5 10.5l-23 233q0 5 3.5 10.5t12.5 5.5h74q10 0 13.5 -5.5t2.5 -10.5zM136 456q-2 -9 -6 -12.5t-15 -3.5h-21q-10 0 -13.5 3.5t-4.5 10.5l-23 233q-1 5 2.5 10.5t12.5 5.5h75q10 0 13.5 -5.5t2.5 -10.5z"/>
<glyph glyph-name="numbersign" d="M53 146q-11 0 -11 9q0 2 1 4l5 28q2 7 5 10.5t11 3.5h85l38 186h-89q-8 0 -10 3t-1 11l6 28q2 7 4.5 10.5t10.5 3.5h90l26 128q2 8 4.5 10t9.5 2h34q8 0 12 -2t2 -10l-26 -128h148l26 128q2 8 4.5 10t8.5 2h35q8 0 11.5 -2t2.5 -10l-27 -128h86q15 0 13 -14l-7 -28 q-2 -8 -4.5 -11t-10.5 -3h-88l-38 -186h89q15 0 12 -14l-5 -28q-2 -8 -5 -10.5t-11 -2.5h-91q0 -3 -4 -23t-9 -44t-9 -44t-5 -23q-2 -8 -3.5 -10t-9.5 -2h-35q-7 0 -11 2t-2 10l26 134h-147q-1 -3 -5 -23t-9 -44t-9 -44t-4 -23q-2 -8 -4 -10t-10 -2h-35q-7 0 -11 2t-2 10 l27 134h-85zM359 201l38 186h-148l-38 -186h148z" unicode="#"/>
<glyph glyph-name="dollar" d="M168 511q0 -28 14.5 -47t43.5 -36v161q-58 -22 -58 -78zM442 176q0 35 -21.5 59.5t-61.5 44.5v-202q36 11 59.5 35.5t23.5 62.5zM226 761q0 10 4 12t12 2h15q9 0 12.5 -2t3.5 -12v-859q0 -9 -3.5 -11t-12.5 -2h-15q-8 0 -12 2t-4 11v92q-45 5 -88 16.5t-79 30.5 q-8 3 -8 10q0 4 3 9l22 51q4 11 16 6q32 -14 66.5 -23.5t67.5 -15.5v256q-73 31 -109.5 69.5t-36.5 100.5q0 65 37 111t109 62v84zM359 -98q0 -9 -4 -11t-13 -2h-15q-8 0 -12 2t-4 11v859q0 10 4 12t12 2h15q9 0 13 -2t4 -12v-80q64 -8 125 -34q11 -5 6 -15l-20 -55 q-4 -11 -13 -6q-29 10 -52.5 16t-45.5 10v-226q34 -14 65 -30.5t54.5 -39t37.5 -51.5t14 -69q0 -41 -13 -72.5t-35.5 -54.5t-54 -38t-68.5 -21v-93z" unicode="$"/>
<glyph glyph-name="percent" horiz-adv-x="890" unicode="%" d="M273 -8q-8 -14 -21 -14h-31q-7 0 -10.5 3t1.5 11l409 690q5 8 8 11t11 3h35q5 0 9 -3t-1 -11zM317 469q0 27 -4.5 54t-16.5 48t-32 34t-50 13q-29 0 -48.5 -13t-31 -34t-16.5 -47.5t-5 -53.5t4.5 -54t16 -48.5t31.5 -34.5t51 -13q30 0 49.5 13.5t31 34.5t16 47.5 t4.5 53.5zM391 470q0 -94 -43 -151.5t-134 -57.5q-89 0 -132 56t-43 152q0 47 11 85.5t33 66t55 42.5t78 15q47 0 80 -14.5t54 -41.5t31 -65.5t10 -86.5zM776 202q0 27 -4.5 53.5t-16.5 47.5t-32 34t-50 13q-29 0 -48.5 -13t-31 -34t-16.5 -47t-5 -53t4.5 -54t16 -48.5 t31.5 -34.5t51 -13q30 0 49.5 13.5t31 34.5t16 47.5t4.5 53.5zM850 203q0 -95 -43 -152t-134 -57q-89 0 -132 55.5t-43 152.5q0 94 44 151t133 57q47 0 80 -14.5t54 -41.5t31 -65.5t10 -85.5z"/>
<glyph glyph-name="ampersand" horiz-adv-x="729" unicode="&amp;" d="M397 560q0 14 -4.5 28.5t-14 26t-24.5 19t-35 7.5q-39 0 -61.5 -23t-22.5 -59q0 -34 21 -69t43 -61q15 10 32.5 22.5t32 29t24 36t9.5 43.5zM275 334q-24 -15 -46 -32.5t-39.5 -38.5t-27.5 -45t-10 -52q0 -56 29.5 -79.5t75.5 -23.5q42 0 82.5 29.5t68.5 74.5zM566 0 q-9 0 -15 2t-11 9l-82 93q-38 -50 -89 -83t-121 -33q-85 0 -132 45.5t-47 124.5q0 37 12.5 70.5t33.5 63.5t50 55t62 45q-32 37 -54 80.5t-22 81.5q0 36 13 65t36 50t53 32t65 11q34 0 64 -10.5t51.5 -29.5t34 -45.5t12.5 -58.5q0 -36 -11.5 -64.5t-31 -52.5t-44 -43.5 t-51.5 -35.5q32 -43 57 -72.5t51 -62.5q30 55 71.5 99.5t98.5 61.5q11 4 21.5 6t22.5 3q10 0 12 -9l8 -48q1 -2 1 -4q0 -4 -3.5 -6t-8.5 -3q-38 -6 -64.5 -22t-45.5 -38t-33.5 -48.5t-27.5 -53.5q10 -14 32.5 -40.5t45.5 -52.5q26 -31 58 -66q3 -4 2.5 -10t-8.5 -6h-66z"/>
<glyph glyph-name="quotesingle" horiz-adv-x="215" unicode="&apos;" d="M137 456q-1 -9 -5 -12.5t-16 -3.5h-21q-10 0 -13.5 3.5t-4.5 10.5l-22 233q-1 5 2.5 10.5t12.5 5.5h74q11 0 14 -5.5t2 -10.5z"/>
<glyph glyph-name="parenleft" horiz-adv-x="290" unicode="(" d="M235 -78q-4 -3 -8 -3t-7 4q-39 37 -73.5 80.5t-60.5 93t-41 106t-15 119.5q0 64 15 121t40.5 107.5t60 93.5t73.5 81q5 5 9 5l7 -3l30 -21q5 -4 5 -6q0 -3 -4 -7q-69 -80 -103.5 -169t-34.5 -197q0 -115 35 -204t103 -166q4 -5 4 -7q0 -3 -4 -5z"/>
<glyph glyph-name="parenright" horiz-adv-x="294" unicode=")" d="M64 727q4 3 7 3q4 0 8 -4q39 -38 73.5 -81t60 -93t40.5 -106t15 -119q0 -65 -15 -122t-40.5 -107t-59.5 -93.5t-73 -80.5q-4 -5 -9 -5l-7 3l-31 22q-4 3 -4 6t3 6q69 80 103.5 169t34.5 197q0 115 -35 203.5t-103 166.5q-4 4 -4 6q0 3 4 6z"/>
<glyph glyph-name="asterisk" horiz-adv-x="477" unicode="*" d="M282 496l85 -99q6 -7 5 -11t-7 -9l-32 -24q-8 -6 -12 -6q-1 0 -3.5 0.5t-7.5 8.5l-67 111l-69 -114q-5 -8 -10 -8q-4 0 -8 4l-36 27q-11 8 -3 20l84 100l-122 32q-11 3 -11 12q0 3 1 6l12 39q4 16 20 8l118 -49l-11 132q-1 5 2 8.5t11 3.5h43q9 0 11.5 -4t1.5 -9 l-11 -131l119 51q14 5 19 -7l13 -42q1 -4 1 -6q0 -3 -2 -6t-7 -4z"/>
<glyph glyph-name="plus" d="M67 302q-10 0 -12.5 3.5t-2.5 12.5v52q0 8 2.5 12.5t12.5 4.5h185v190q0 10 4 12.5t12 2.5h55q8 0 11.5 -2.5t3.5 -12.5v-190h185q9 0 11.5 -4.5t2.5 -12.5v-52q0 -9 -2.5 -12.5t-11.5 -3.5h-185v-191q0 -10 -3.5 -12.5t-11.5 -2.5h-55q-8 0 -12 2.5t-4 12.5v191h-185z " unicode="+"/>
<glyph glyph-name="comma" horiz-adv-x="238" unicode="," d="M126 -108q-3 -9 -6 -13t-13 -4h-30q-20 0 -18 15l15 225q1 6 4.5 11.5t13.5 5.5h84q11 0 14.5 -4.5t3.5 -8.5q0 -2 -1 -4z"/>
<glyph glyph-name="hyphen" horiz-adv-x="361" unicode="-" d="M65 236q-10 0 -12.5 4t-2.5 12v68q0 8 2.5 12t12.5 4h232q9 0 11.5 -4t2.5 -12v-68q0 -8 -2.5 -12t-11.5 -4h-232z"/>
<glyph glyph-name="period" horiz-adv-x="258" unicode="." d="M200 59q0 -30 -20 -50.5t-51 -20.5q-30 0 -50.5 20t-20.5 51q0 30 20.5 50.5t50.5 20.5q31 0 51 -20t20 -51z"/>
<glyph glyph-name="slash" horiz-adv-x="433" unicode="/" d="M103 -82q-6 -14 -21 -14h-54q-7 0 -10.5 2.5t-3.5 6.5q0 2 1 5l319 846q4 14 19 14h58q5 0 8.5 -2.5t3.5 -6.5q0 -2 -1 -5z"/>
<glyph glyph-name="zero" d="M469 335q0 50 -8 99t-28 88t-54 63t-86 24q-51 0 -84 -24t-53 -62.5t-28 -87t-8 -98.5t7.5 -99t27.5 -88t53.5 -63.5t86.5 -24.5q51 0 84.5 24.5t53.5 63.5t28 87.5t8 97.5zM557 337q0 -78 -15.5 -142.5t-48 -110t-82 -70.5t-118.5 -25q-66 0 -115.5 24.5t-82 69.5 t-48.5 109t-16 143t16 143t49 109.5t82.5 70.5t116.5 25q70 0 120 -24.5t81.5 -69.5t46 -109t14.5 -143z" unicode="0"/>
<glyph glyph-name="one" d="M480 16q0 -8 -2.5 -12t-12.5 -4h-328q-9 0 -11.5 4t-2.5 12v46q0 9 2.5 13t11.5 4h119v505l-115 -18q-10 -2 -13 1t-3 11v39q0 9 3 13.5t13 7.5l145 43q11 3 21 3t22.5 -4.5t12.5 -27.5v-573h123q10 0 12.5 -4t2.5 -13v-46z" unicode="1"/>
<glyph glyph-name="two" d="M128 0q-41 0 -56 16.5t-15 53.5q0 32 21 77t66 92q38 40 80 70.5t74 50.5q33 20 56 37t38 33.5t21.5 33.5t6.5 38q0 48 -38.5 73.5t-101.5 25.5q-38 0 -78.5 -13t-75.5 -39q-14 -9 -22 1l-31 41q-7 12 5 21q44 33 97.5 52t109.5 19q46 0 86.5 -11t71 -32.5t48.5 -54.5 t18 -77q0 -37 -11 -66.5t-32.5 -55t-52 -48.5t-69.5 -45q-29 -17 -59.5 -39.5t-57.5 -49.5t-47.5 -58.5t-30.5 -66.5h346q10 0 12.5 -4t2.5 -13v-46q0 -8 -2.5 -12t-12.5 -4h-367z" unicode="2"/>
<glyph glyph-name="three" d="M267 -11q-58 0 -117 13t-104 51q-5 4 -5 10q0 4 2 8l30 44q8 12 24 2q37 -25 78.5 -36.5t82.5 -11.5q82 0 121.5 36.5t39.5 98.5q0 23 -10 43.5t-29 36t-46.5 24.5t-61.5 9h-28q-13 0 -20 5t-7 21v27q0 27 24 27h22q64 0 100.5 28.5t36.5 79.5q0 28 -12 46.5t-31 30 t-42.5 16.5t-47.5 5q-43 0 -84.5 -12t-73.5 -34q-15 -10 -24 2l-27 39q-7 10 2 18q40 33 98.5 50.5t115.5 17.5q45 0 84 -11t68 -32.5t46 -53t17 -72.5q0 -54 -30 -96t-81 -59v-5q59 -9 95.5 -52.5t36.5 -105.5q0 -44 -16.5 -82t-48 -66t-76.5 -44t-102 -16z" unicode="3"/>
<glyph glyph-name="four" d="M381 568l-2 1l-258 -339l1 -4h259v342zM70 151q-18 0 -33 8.5t-15 35.5v11q0 16 4.5 29t16.5 29l292 381q11 15 24.5 28t32.5 13h29q27 0 37.5 -11.5t10.5 -38.5v-410h72q17 0 17 -15v-44q0 -9 -3.5 -12t-13.5 -3h-72v-137q0 -10 -4 -12.5t-12 -2.5h-56q-8 0 -12 2.5 t-4 12.5v136h-311z" unicode="4"/>
<glyph glyph-name="five" d="M537 218q0 -54 -18 -96.5t-52 -72.5t-81.5 -46t-105.5 -16q-63 0 -123.5 13.5t-105.5 51.5q-5 4 -5 9q0 4 3 9l29 44q9 12 25 2q37 -25 81.5 -36.5t92.5 -11.5q78 0 125 38.5t47 107.5q0 35 -12.5 59.5t-33.5 39.5t-47.5 22t-54.5 7t-49.5 -3t-40 -8.5t-36.5 -13 t-39 -16.5q-11 -5 -20 -4.5t-20 4.5l-15 6q-11 5 -18 14.5t-5 28.5l25 263q3 32 21 45.5t39 13.5h332q10 0 12.5 -4t2.5 -12v-46q0 -9 -3 -13t-12 -4h-307l-22 -204q42 19 85.5 25t80.5 6q47 0 88 -14t71.5 -40.5t48 -64t17.5 -83.5z" unicode="5"/>
<glyph glyph-name="six" d="M467 205q0 28 -9 52.5t-27.5 42.5t-47 28t-66.5 10q-48 0 -92.5 -6.5t-97.5 -22.5q-1 -14 -1 -21v-14q0 -46 13.5 -84.5t37.5 -66t57.5 -43t74.5 -15.5q72 0 115 36t43 104zM556 211q0 -57 -21 -99t-55.5 -69.5t-79.5 -40.5t-93 -13q-130 0 -199.5 82t-69.5 232 q0 81 17.5 151t56 121.5t100 81t149.5 29.5q25 0 56.5 -4t54.5 -13q7 -3 9.5 -7t-0.5 -12l-15 -47q-4 -13 -21 -9q-14 5 -38.5 9.5t-46.5 4.5q-100 0 -157.5 -59.5t-68.5 -161.5q41 15 91.5 22.5t92.5 7.5q48 0 91 -12.5t76 -38t52 -64t19 -91.5z" unicode="6"/>
<glyph glyph-name="seven" d="M473 672q17 0 31 -7.5t14 -28.5v-23q0 -14 -4 -26t-12 -27l-287 -542q-5 -10 -10.5 -14t-16.5 -4h-61q-8 0 -11.5 6t1.5 15l303 573h-362q-10 0 -12.5 3.5t-2.5 13.5v45q0 9 2.5 12.5t12.5 3.5h415z" unicode="7"/>
<glyph glyph-name="eight" d="M449 193q0 32 -13 55.5t-34.5 39.5t-50 23.5t-59.5 7.5q-29 0 -57 -8.5t-50 -25t-36 -40.5t-14 -56q0 -24 8.5 -46.5t27 -40.5t48.5 -28.5t73 -10.5q45 0 75 12t48 30.5t26 41.5t8 46zM426 497q0 48 -35 79.5t-100 31.5q-33 0 -57.5 -9t-41 -24.5t-25 -36.5t-8.5 -44 t11 -42t29 -32.5t42 -20.5t50 -7q25 0 49.5 7.5t43.5 21.5t30.5 33t11.5 43zM539 186q0 -33 -14 -67.5t-43.5 -63.5t-76 -47.5t-112.5 -18.5q-64 0 -110.5 15.5t-77 42.5t-45 62.5t-14.5 75.5q0 29 9.5 56.5t26.5 50.5t40.5 41t52.5 27v2q-29 10 -49 27t-32 36.5t-17 39.5 t-5 35q0 43 17 77t46.5 58t70 37t87.5 13q50 0 91 -13.5t69.5 -37.5t44 -56.5t15.5 -70.5q0 -16 -5.5 -36.5t-18 -41t-32 -38.5t-47.5 -29v-2q34 -10 58.5 -27.5t40 -41t23 -50.5t7.5 -55z" unicode="8"/>
<glyph glyph-name="nine" d="M120 470q0 -28 10 -52.5t29 -42.5t47 -28t63 -10q48 0 93 6.5t97 22.5q1 14 1 21v14q0 46 -14.5 84.5t-39.5 66t-58 43t-70 15.5q-31 0 -59.5 -9t-50.5 -27t-35 -44t-13 -60zM31 464q0 57 20.5 99t55 69.5t79.5 40.5t94 13q130 0 199.5 -82t69.5 -232q0 -81 -18 -151 t-57 -121.5t-100.5 -81t-148.5 -29.5q-24 0 -55.5 4t-54.5 13q-8 3 -10.5 7t0.5 12l16 48q2 6 5.5 9t12.5 0q6 -2 16.5 -4.5t22.5 -5t24.5 -4t23.5 -1.5q100 0 158 60t69 161q-41 -15 -87.5 -22t-88.5 -7q-48 0 -92.5 12t-78.5 37.5t-54.5 64t-20.5 91.5z" unicode="9"/>
<glyph glyph-name="colon" horiz-adv-x="268" unicode=":" d="M205 61q0 -30 -20.5 -50t-50.5 -20t-50 20t-20 49q0 30 20 50.5t50 20.5q31 0 51 -19.5t20 -50.5zM205 451q0 -30 -20.5 -50.5t-50.5 -20.5t-50 20t-20 51q0 29 20 49.5t50 20.5q31 0 51 -20t20 -50z"/>
<glyph glyph-name="semicolon" horiz-adv-x="262" unicode=";" d="M134 -108q-3 -9 -6.5 -13t-13.5 -4h-29q-21 0 -19 15l15 225q1 6 5 11.5t13 5.5h85q10 0 14 -5.5t2 -11.5zM215 450q0 -29 -20.5 -49.5t-49.5 -20.5q-31 0 -51 20t-20 50q0 29 20 50t51 21q30 0 50 -20.5t20 -50.5z"/>
<glyph glyph-name="less" d="M521 595q5 2 8 2q3 1 5 -1q4 -4 3 -12v-50q0 -16 -14 -24l-359 -164l354 -158q10 -8 14 -12t4 -15v-55q0 -4 -4 -8q-2 -2 -4 -2t-6 1l-446 205q-10 6 -16 10t-8 14v31q0 13 5 19t19 12z" unicode="&lt;"/>
<glyph glyph-name="equal" d="M516 229q0 -9 -2.5 -12.5t-11.5 -3.5h-414q-9 0 -11.5 3.5t-2.5 12.5v48q0 8 2.5 12t11.5 4h414q9 0 11.5 -4t2.5 -12v-48zM516 406q0 -8 -2.5 -12t-11.5 -4h-414q-9 0 -11.5 4t-2.5 12v49q0 8 2.5 11.5t11.5 3.5h414q9 0 11.5 -3.5t2.5 -11.5v-49z" unicode="="/>
<glyph glyph-name="greater" d="M513 388q14 -6 19 -12t5 -19v-31q-1 -10 -7 -14t-17 -10l-446 -205q-4 -1 -6 -1q-3 0 -5 2q-4 4 -4 8v55q0 11 4 15t15 12l353 158l-358 164q-14 8 -14 24v50q0 8 4 12q2 2 4 1q3 0 7 -2z" unicode="&gt;"/>
<glyph glyph-name="question" horiz-adv-x="525" unicode="?" d="M292 58q0 -29 -19.5 -49t-48.5 -20t-49 19.5t-20 49.5q0 29 21 48.5t50 19.5q8 0 19.5 -3t22 -10.5t17.5 -21t7 -33.5zM263 708q48 0 88 -11t69.5 -33.5t45.5 -55.5t16 -76q0 -29 -9 -53t-24 -45.5t-34 -40t-39 -35.5t-39 -33t-34 -33t-24.5 -35.5t-9.5 -39.5v-27 q0 -14 -14 -14h-61q-13 0 -13 13v31q0 34 12 60t30.5 47.5t41 40t44.5 36.5q32 27 57 57t25 71q0 16 -6 33.5t-21 31t-39.5 22.5t-61.5 9q-38 0 -79 -13.5t-76 -39.5q-14 -9 -23 1l-27 42q-3 5 -3 9q0 6 7 12q22 18 48.5 31t53.5 21.5t52.5 12.5t46.5 4z"/>
<glyph glyph-name="at" horiz-adv-x="970" unicode="@" d="M475 331q-14 0 -31.5 -2t-33.5 -9.5t-26.5 -22.5t-10.5 -42q0 -36 25 -49.5t55 -13.5q21 0 50.5 8.5t58.5 28.5v102h-87zM638 250q0 -9 1.5 -21.5t8.5 -24t20.5 -19t37.5 -7.5q57 0 88.5 47t31.5 122q0 73 -22.5 131t-64.5 98.5t-101 62.5t-132 22q-81 0 -147 -26.5 t-113.5 -72t-73 -107t-25.5 -131.5q0 -75 25.5 -136t71.5 -105t109.5 -68t140.5 -24q17 0 51.5 4t72.5 17q8 2 12.5 1t7.5 -10l11 -29q2 -9 -1.5 -13.5t-11.5 -7.5q-35 -14 -72.5 -20t-72.5 -6q-95 0 -171.5 29t-130.5 81.5t-83.5 125.5t-29.5 161q0 86 32.5 159.5t90 127 t136.5 84t171 30.5q88 0 159.5 -25.5t122.5 -74t79 -118t28 -157.5q0 -53 -14.5 -96.5t-41.5 -75t-64 -49t-82 -17.5q-51 0 -81 18.5t-39 45.5q-23 -18 -61 -32.5t-73 -14.5q-72 0 -107 33t-35 93q0 28 9.5 53.5t30.5 45.5t54.5 32t80.5 12h90v13q0 18 -3.5 32t-13 24.5 t-27 16t-44.5 5.5t-57 -5.5t-51 -11.5q-8 -2 -13 -1t-7 10l-8 34q-2 5 -0.5 10t11.5 10q58 21 135 21q80 0 117 -36t37 -103v-167z"/>
<glyph glyph-name="A" horiz-adv-x="618" unicode="A" d="M357 452l-47 147h-5l-45 -142l-68 -214h232zM524 0q-9 0 -14.5 2t-9.5 13l-50 147h-282l-50 -147q-5 -15 -21 -15h-68q-10 0 -12 4.5t-2 7.5t1 7l226 643q8 24 18 31.5t33 8.5h30q27 0 36.5 -9t17.5 -31l225 -643q2 -4 2 -7t-2 -7.5t-12 -4.5h-66z"/>
<glyph glyph-name="B" horiz-adv-x="645" unicode="B" d="M475 384q31 -11 53 -29.5t35.5 -42t20 -50.5t6.5 -54q0 -47 -17.5 -85t-48 -65.5t-72 -42.5t-89.5 -15h-237q-27 0 -39 12t-12 38v600q0 26 11 38.5t40 12.5l223 1q46 0 84.5 -9.5t66.5 -30.5t44 -53.5t16 -78.5q0 -45 -23 -82.5t-62 -56.5v-7zM167 419h184q16 0 36 4.5 t37.5 16t29 32t11.5 52.5q0 42 -28.5 68t-77.5 26h-192v-199zM496 215q0 57 -36.5 92t-106.5 35h-186v-258h186q43 0 71 13t44 32.5t22 42.5t6 43z"/>
<glyph glyph-name="C" horiz-adv-x="598" unicode="C" d="M369 75q44 0 84 10t75 26q11 5 16 1t7 -9l19 -42q4 -9 4 -14q0 -2 -1 -4.5t-8 -7.5q-24 -14 -51.5 -23t-55 -14t-54.5 -7t-51 -2q-70 0 -125.5 21t-93.5 64t-58.5 109t-20.5 157q0 84 22 152.5t62 117t96.5 74.5t124.5 26q43 0 89 -7.5t97 -33.5q6 -3 8 -8t-3 -15 l-23 -46q-3 -6 -6.5 -8.5t-11.5 1.5q-70 31 -146 31q-57 0 -97.5 -24t-67 -63.5t-38.5 -91t-12 -105.5q0 -55 10.5 -103t36 -84t68 -57t105.5 -21z"/>
<glyph glyph-name="D" horiz-adv-x="675" unicode="D" d="M126 0q-27 0 -39 12t-12 38v600q0 26 11 38.5t40 12.5l180 1q78 0 136.5 -24t98 -69.5t59.5 -110t20 -143.5t-18.5 -144t-56 -112t-94.5 -73t-135 -26h-190zM526 353q0 55 -11 103t-37.5 84t-69.5 57t-107 21h-133v-534h137q63 0 105.5 20t68 56t36.5 85.5t11 107.5z"/>
<glyph glyph-name="E" horiz-adv-x="579" unicode="E" d="M541 21q0 -11 -3.5 -16t-15.5 -5h-278q-49 0 -81.5 14t-52 37t-27.5 54t-8 66v358q0 34 9 65.5t29.5 55t52.5 37.5t78 14h273q11 0 14.5 -5t3.5 -16v-42q0 -11 -3.5 -15.5t-14.5 -4.5h-272q-42 0 -60.5 -18.5t-18.5 -57.5v-130h318q11 0 14.5 -5t3.5 -16v-38 q0 -10 -3.5 -15t-14.5 -5h-318v-174q0 -34 18 -54.5t61 -20.5h277q12 0 15.5 -5t3.5 -16v-42z"/>
<glyph glyph-name="F" horiz-adv-x="569" unicode="F" d="M166 19q0 -12 -4.5 -15.5t-15.5 -3.5h-50q-11 0 -16 3.5t-5 15.5v510q0 34 8.5 65.5t28 55t52 37.5t80.5 14h275q12 0 15.5 -5t3.5 -16v-41q0 -12 -3.5 -16.5t-15.5 -4.5h-274q-42 0 -60.5 -18t-18.5 -57v-140h316q11 0 14.5 -4.5t3.5 -15.5v-39q0 -10 -3.5 -15.5 t-14.5 -5.5h-316v-304z"/>
<glyph glyph-name="G" horiz-adv-x="652" unicode="G" d="M363 72q9 0 24.5 1t35 3.5t40.5 7t40 12.5v225q-10 2 -20.5 2.5t-20.5 0.5q-35 0 -72.5 -7.5t-73.5 -24.5q-11 -4 -15.5 -4.5t-9.5 7.5l-19 45q-7 12 7 22q32 21 78 33t92 12q26 0 43 -1t34 -4q38 -7 52 -24.5t14 -55.5v-252q0 -21 -16 -30q-27 -17 -59 -27t-62.5 -15 t-57.5 -7t-44 -2q-70 0 -125 21t-93.5 64.5t-59 110t-20.5 157.5q0 84 21.5 152t61 116t96.5 74t128 26q42 0 92 -7.5t101 -33.5q5 -3 7 -8t-3 -15l-22 -50q-4 -7 -7.5 -9t-11.5 1q-33 16 -74.5 24t-79.5 8q-59 0 -100 -23.5t-66.5 -62.5t-37 -89.5t-11.5 -104.5 q0 -57 10 -106t34 -85t65.5 -56.5t104.5 -20.5z"/>
<glyph glyph-name="H" horiz-adv-x="688" unicode="H" d="M521 683q0 11 4.5 14t14.5 3h54q11 0 15 -3t4 -14v-666q0 -11 -4 -14t-15 -3h-54q-10 0 -14.5 3t-4.5 14v312h-353v-312q0 -11 -4 -14t-15 -3h-55q-9 0 -14 3t-5 14v666q0 11 5 14t14 3h55q11 0 15 -3t4 -14v-274h353v274z"/>
<glyph glyph-name="I" horiz-adv-x="268" unicode="I" d="M88 683q0 11 4.5 14t14.5 3h54q11 0 15 -3t4 -14v-666q0 -11 -4 -14t-15 -3h-54q-10 0 -14.5 3t-4.5 14v666z"/>
<glyph glyph-name="J" horiz-adv-x="566" unicode="J" d="M393 683q0 11 5 14t14 3h54q11 0 15 -3t4 -14v-412q0 -134 -62.5 -208t-198.5 -74q-22 0 -48 2.5t-53.5 8.5t-55 16t-51.5 25q-7 4 -8.5 6.5t-1.5 4.5q0 4 4 12l24 46q6 13 22 4q35 -19 80 -30.5t91 -11.5q91 0 129 51.5t38 152.5z"/>
<glyph glyph-name="K" horiz-adv-x="631" unicode="K" d="M75 683q0 11 5 14t14 3h52q11 0 15 -3t4 -14v-354l4 -1l101 127l186 233q10 12 32 12h74q8 0 10.5 -4.5t-2.5 -9.5l-191 -235l242 -431q3 -7 3 -11q0 -9 -12 -9h-64q-15 0 -22 2.5t-15 15.5l-196 357l-150 -186v-172q0 -11 -4 -14t-15 -3h-52q-9 0 -14 3t-5 14v666z"/>
<glyph glyph-name="L" horiz-adv-x="552" unicode="L" d="M541 17q0 -9 -2.5 -13t-11.5 -4h-286q-48 0 -79.5 14t-51 37t-27.5 54t-8 66v513q0 11 4.5 14.5t13.5 3.5h54q11 0 15 -3.5t4 -14.5v-519q0 -82 83 -82h278q9 0 11.5 -4t2.5 -12v-50z"/>
<glyph glyph-name="M" horiz-adv-x="810" unicode="M" d="M647 538h-5q-2 -3 -10 -23.5t-17.5 -44.5t-17.5 -45t-9 -24q-3 -8 -12 -29.5t-20.5 -50t-24.5 -60.5t-25 -60.5t-21 -50t-12 -28.5q-8 -23 -18 -31.5t-33 -8.5h-33q-23 0 -33.5 8.5t-18.5 31.5q-3 8 -12.5 29.5t-21 49.5t-25 60t-25 60t-21 49.5t-12.5 29.5l-51 128h-6 v-511q0 -11 -4 -14t-15 -3h-50q-10 0 -14.5 3t-4.5 14v634q0 23 10 36.5t39 13.5h27q22 0 33.5 -7.5t21.5 -32.5l138 -342q2 -4 10.5 -26.5t19 -49t19 -49t10.5 -26.5h4q1 4 10 26t19 47.5t18.5 47.5t10.5 26l15 37.5t25.5 63.5t31 76.5t30.5 75.5t24 60.5t13 32.5 q10 25 22 32.5t33 7.5h27q30 0 39.5 -13.5t9.5 -36.5v-634q0 -11 -4 -14t-15 -3h-50q-10 0 -14.5 3t-4.5 14v521z"/>
<glyph glyph-name="N" horiz-adv-x="691" unicode="N" d="M526 684q0 11 4.5 14t14.5 3h52q10 0 14.5 -3t4.5 -14v-634q0 -25 -10 -37.5t-39 -12.5h-26q-23 0 -32.5 9t-23.5 31l-238 394l-79 136h-3v-553q0 -11 -4 -14t-15 -3h-52q-9 0 -14 3t-5 14v634q0 25 10.5 37.5t38.5 12.5h26q22 0 31.5 -9t23.5 -31l233 -385l85 -145h3 v553z"/>
<glyph glyph-name="O" horiz-adv-x="705" unicode="O" d="M556 349q0 55 -8.5 105.5t-31 89.5t-61.5 62t-100 23q-54 0 -93 -22t-64.5 -60t-38 -88t-12.5 -106q0 -62 10 -113.5t33.5 -89t62.5 -58.5t98 -21q58 0 97.5 23t63.5 62t34 89t10 104zM650 353q0 -176 -75.5 -270t-224.5 -94q-148 0 -221.5 93t-73.5 267q0 87 22.5 154.5 t62 113.5t94 70t118.5 24q73 0 129 -24.5t93.5 -71t56.5 -112.5t19 -150z"/>
<glyph glyph-name="P" horiz-adv-x="605" unicode="P" d="M478 489q0 21 -6.5 43.5t-22.5 41t-44 31t-70 12.5h-169v-255h171q71 0 106 33.5t35 93.5zM75 651q0 26 11 38.5t39 12.5h233q47 0 86.5 -15t68 -42.5t44.5 -66t16 -84.5q0 -27 -9 -64t-33.5 -70t-68 -56t-111.5 -23h-186v-264q0 -11 -4 -14t-15 -3h-52q-10 0 -14.5 3 t-4.5 14v634z"/>
<glyph glyph-name="Q" horiz-adv-x="705" unicode="Q" d="M330 -136q-9 0 -11.5 4.5t-2.5 12.5v45q0 9 2.5 12.5t11.5 3.5h110q39 0 75 -5t66.5 -13.5t55 -19t39.5 -21.5q9 -6 9 -11q0 -4 -3 -10l-23 -37q-6 -11 -15 -11q-5 0 -11 3q-39 23 -94.5 35t-120.5 12h-88zM556 349q0 55 -8.5 105.5t-31 89t-61.5 61.5t-100 23 q-54 0 -93 -22t-64.5 -59.5t-38 -87.5t-12.5 -106q0 -62 10 -113.5t33.5 -89t62.5 -58.5t97 -21q59 0 98.5 23t63.5 62t34 89t10 104zM650 353q0 -176 -75.5 -270t-224.5 -94q-148 0 -221.5 93t-73.5 267q0 87 22.5 154.5t62 113.5t94 70t118.5 24q73 0 129 -24.5t93.5 -71 t56.5 -112.5t19 -150z"/>
<glyph glyph-name="R" horiz-adv-x="626" unicode="R" d="M474 501q0 20 -6 40.5t-21 37.5t-40 27.5t-63 10.5h-174v-236h167q36 0 62 9.5t42.5 26t24.5 38t8 46.5zM75 651q0 26 11 38.5t40 12.5h229q48 0 86.5 -14.5t66.5 -41t43 -62.5t15 -79q0 -60 -30 -105.5t-83 -65.5v-4q41 -13 59 -38.5t28 -62.5l58 -211q1 -3 1 -6 t-1 -7.5t-12 -4.5h-66q-5 0 -10.5 2t-7.5 11l-53 191q-8 29 -21 48t-30.5 30t-39 15t-46.5 4h-143v-284q0 -11 -4 -14t-15 -3h-56q-10 0 -14.5 3t-4.5 14v634z"/>
<glyph glyph-name="S" horiz-adv-x="570" unicode="S" d="M542 187q0 -50 -19 -87t-52 -62t-78 -37t-97 -12q-29 0 -61 2.5t-65 8.5t-65.5 16t-62.5 25q-7 4 -7 10q0 4 3 10l24 53q5 11 16 6q52 -23 107.5 -35.5t101.5 -12.5q76 0 118.5 28.5t42.5 82.5q0 26 -10.5 45.5t-31 36t-51.5 31t-72 29.5q-55 20 -96.5 40t-69 43.5 t-41.5 52.5t-14 67q0 82 56.5 133t165.5 51q50 0 105.5 -9.5t103.5 -30.5q11 -5 7 -17l-22 -56q-3 -7 -5.5 -8t-7.5 1q-51 20 -97.5 28.5t-86.5 8.5q-60 0 -93 -26.5t-33 -67.5q0 -25 11 -43t32.5 -33t54.5 -29t78 -32q42 -16 80 -33.5t67 -41.5t46.5 -57t17.5 -79z"/>
<glyph glyph-name="T" horiz-adv-x="547" unicode="T" d="M224 619h-195q-9 0 -11.5 3.5t-2.5 12.5v49q0 8 2.5 12t11.5 4h490q9 0 11.5 -4t2.5 -12v-49q0 -9 -2.5 -12.5t-11.5 -3.5h-201v-602q0 -11 -4 -14t-14 -3h-57q-10 0 -14.5 3t-4.5 14v602z"/>
<glyph glyph-name="U" horiz-adv-x="680" unicode="U" d="M74 683q0 11 4.5 14t12.5 3h60q9 0 13 -3t4 -14v-376q0 -61 7.5 -105.5t30.5 -74t65 -43.5t111 -14q17 0 53 2t80 10v601q0 11 4 14t13 3h59q9 0 11.5 -3t2.5 -14v-595q0 -35 -15.5 -57.5t-58.5 -30.5q-38 -7 -79.5 -9.5t-73.5 -2.5q-83 0 -141 15.5t-94 52t-52 97 t-16 150.5z"/>
<glyph glyph-name="V" horiz-adv-x="629" unicode="V" d="M384 37q-7 -20 -15.5 -28t-28.5 -9h-43q-22 0 -33 7t-19 30l-228 651q-1 2 -1 5q0 2 1.5 5t7.5 3h72q12 0 17 -12q0 -2 10 -31.5t24.5 -74t32 -97t34 -101t29 -86t17.5 -50.5q1 -3 8.5 -26t16.5 -50t17 -50.5t10 -27.5h5l48 153l149 441q4 9 8.5 10.5t12.5 1.5h69 q8 0 8 -6q0 -3 -1 -7z"/>
<glyph glyph-name="W" horiz-adv-x="832" unicode="W" d="M415 597l-33 -154l-91 -399q-5 -20 -14.5 -32t-29.5 -12h-43q-21 0 -33.5 7t-17.5 30l-137 651q-1 3 -1 6q0 7 9 7h71q15 0 17 -12l79 -418l29 -162h6l35 162l86 386q4 18 14.5 31t38.5 13h39q23 0 33 -12t15 -32l84 -382l35 -166h5l32 167l79 413q3 12 17 12h69 q9 0 9 -7q0 -2 -1 -6l-138 -651q-5 -23 -17.5 -30t-33.5 -7h-43q-20 0 -29.5 11.5t-14.5 32.5l-90 400l-32 153h-3z"/>
<glyph glyph-name="X" horiz-adv-x="561" unicode="X" d="M549 13q1 -2 1 -5q0 -2 -1 -5t-8 -3h-73q-11 0 -16 3t-10 11l-163 275l-163 -275q-5 -8 -10.5 -11t-16.5 -3h-69q-8 0 -9 2.5t-1 4.5q0 3 2 6l215 348l-200 328q-2 3 -0.5 7.5t8.5 4.5h69q13 0 17.5 -2.5t9.5 -11.5l151 -251l149 251q5 8 10.5 11t16.5 3h66q7 0 8.5 -4.5 t-1.5 -9.5l-199 -324z"/>
<glyph glyph-name="Y" horiz-adv-x="564" unicode="Y" d="M329 280v-265q0 -10 -3.5 -12.5t-11.5 -2.5h-58q-8 0 -12 2.5t-4 12.5v265l-228 410q-1 2 -1 4t1 4.5t8 2.5h74q8 0 12 -2.5t8 -10.5l91 -172l78 -154h4l82 160l88 166q6 13 20 13h69q6 0 7 -3t1 -5t-1 -3z"/>
<glyph glyph-name="Z" horiz-adv-x="608" unicode="Z" d="M512 701q26 0 39.5 -10.5t13.5 -36.5v-19q0 -18 -7.5 -31.5t-19.5 -27.5q-8 -10 -39 -47.5t-73 -89t-90 -109.5t-90 -109t-73 -88.5t-39 -47.5q2 -2 2 -6h421q9 0 11.5 -3.5t2.5 -12.5v-47q0 -8 -2.5 -12t-11.5 -4h-479q-49 0 -49 44v14q0 18 5 29.5t16 24.5q8 11 40 50 t76 91.5t93 112t93 112t75.5 91l40.5 49.5l-2 3h-370q-10 0 -12.5 4t-2.5 12v48q0 8 2.5 12t12.5 4h416z"/>
<glyph glyph-name="bracketleft" horiz-adv-x="308" unicode="[" d="M281 -69q0 -8 -2.5 -12.5t-11.5 -4.5h-188q-9 0 -11.5 4.5t-2.5 12.5v773q0 8 2.5 12t11.5 4h188q9 0 11.5 -4t2.5 -12v-36q0 -8 -2.5 -11.5t-11.5 -3.5h-116v-671h116q9 0 11.5 -3.5t2.5 -11.5v-36z"/>
<glyph glyph-name="backslash" horiz-adv-x="433" unicode="\" d="M422 -82q1 -3 1 -5q0 -4 -3.5 -6.5t-10.5 -2.5h-55q-14 0 -20 14l-319 846q-1 3 -1 5q0 4 4 6.5t8 2.5h57q8 0 12 -3t8 -11z"/>
<glyph glyph-name="bracketright" horiz-adv-x="308" unicode="]" d="M266 -69q0 -8 -2.5 -12t-11.5 -4h-187q-9 0 -11.5 4t-2.5 12v36q0 8 2.5 11.5t11.5 3.5h115v671h-115q-9 0 -11.5 3.5t-2.5 11.5v36q0 8 2.5 12t11.5 4h187q9 0 11.5 -4t2.5 -12v-773z"/>
<glyph glyph-name="asciicircum" horiz-adv-x="525" unicode="^" d="M218 701q7 11 13 18t17 7h17q14 0 19.5 -4.5t13.5 -17.5l186 -310q3 -5 3 -8q0 -2 -2.5 -4.5t-9.5 -2.5h-58q-9 0 -14.5 3t-9.5 11l-132 226h-3q-3 -5 -12.5 -22t-23 -40t-29 -49t-29 -49t-23 -40.5t-12.5 -22.5q-6 -11 -11 -14.5t-16 -3.5h-61q-9 0 -10.5 3t-1.5 5 q0 4 3 8z"/>
<glyph glyph-name="underscore" horiz-adv-x="500" unicode="_" d="M0 -126q-9 0 -11.5 3.5t-2.5 12.5v22q0 8 2.5 12t11.5 4h500q9 0 11.5 -4t2.5 -12v-22q0 -9 -2.5 -12.5t-11.5 -3.5h-500z"/>
<glyph glyph-name="grave" horiz-adv-x="507" unicode="`" d="M290 584q-4 -1 -7 -1h-3q-4 1 -10 9l-106 150q-3 4 -3 8q0 6 9 8l70 18h2q12 0 17 -10l65 -154q4 -7 4 -10q0 -4 -9 -7z"/>
<glyph glyph-name="a" horiz-adv-x="538" unicode="a" d="M384 258h-116q-18 0 -41.5 -2.5t-44.5 -13t-35.5 -31t-14.5 -56.5q0 -27 10 -45.5t27 -29t40 -15t50 -4.5q9 0 23.5 0.5t32 3t35.5 6t34 9.5v178zM473 49q0 -20 -15 -26q-45 -20 -97.5 -27t-100.5 -7q-65 0 -106.5 13.5t-65.5 36.5t-33.5 53t-9.5 63q0 34 11.5 66.5 t37.5 57t67.5 39.5t101.5 15h122v22q0 24 -4.5 43t-17.5 33t-36.5 21.5t-60.5 7.5q-35 0 -74.5 -6t-64.5 -14q-8 -3 -13 -2t-7 9l-12 43q-2 5 -0.5 9.5t9.5 7.5q38 16 87 22.5t90 6.5q100 0 146 -44.5t46 -129.5v-313z"/>
<glyph glyph-name="b" horiz-adv-x="560" unicode="b" d="M152 80q29 -10 61 -13.5t56 -3.5q34 0 63 11.5t50 35.5t32.5 61.5t11.5 91.5q0 99 -39 148t-108 49q-19 0 -54 -3.5t-73 -16.5v-360zM515 269q0 -61 -14.5 -112.5t-44.5 -88.5t-76 -58t-109 -21q-47 0 -98 7.5t-96 26.5q-12 4 -12 18v675q0 10 4 12.5t12 2.5h56 q8 0 11.5 -2.5t3.5 -12.5v-201q32 10 70.5 15.5t66.5 5.5q59 0 101.5 -20t70.5 -55t41 -84.5t13 -107.5z"/>
<glyph glyph-name="c" horiz-adv-x="478" unicode="c" d="M284 64q34 0 66.5 9t54.5 20q9 5 13 2.5t7 -7.5l20 -42q3 -5 3 -9q0 -7 -8 -12q-38 -21 -83 -28.5t-86 -7.5q-110 0 -168 67.5t-58 200.5q0 64 16.5 115.5t47 88t74.5 56t99 19.5q40 0 76.5 -8t70.5 -27q14 -8 6 -21l-21 -41q-3 -6 -6.5 -8.5t-12.5 2.5q-24 11 -52 18 t-60 7q-40 0 -68.5 -16.5t-47 -44.5t-27 -64t-8.5 -76t7 -75t24.5 -61.5t46.5 -41.5t74 -15z"/>
<glyph glyph-name="d" horiz-adv-x="559" unicode="d" d="M135 254q0 -53 11 -89t31 -58.5t49 -32.5t65 -10q25 0 58.5 5t56.5 13v362q-38 11 -64 14t-49 3q-34 0 -63 -12t-50 -37t-33 -64t-12 -94zM45 254q0 56 14 107t44 90t75.5 62t108.5 23q23 0 54.5 -2.5t64.5 -12.5v195q0 10 3.5 12.5t12.5 2.5h56q8 0 12 -2.5t4 -12.5 v-673q0 -13 -12 -18q-52 -23 -106.5 -29.5t-99.5 -6.5q-63 0 -106.5 18.5t-71.5 53t-40.5 83.5t-12.5 110z"/>
<glyph glyph-name="e" horiz-adv-x="538" unicode="e" d="M413 307q0 31 -6 59.5t-21.5 50t-42 34t-66.5 12.5q-33 0 -58.5 -13t-43 -34.5t-27.5 -49.5t-12 -59h277zM276 536q57 0 98.5 -16t68 -45.5t39.5 -70t13 -89.5q0 -24 -6 -39t-16.5 -23.5t-24 -12t-28.5 -3.5h-287q0 -47 13 -80t34.5 -53.5t50 -29.5t61.5 -9t65 8.5 t53 19.5q12 7 19 -5l21 -42q7 -14 -6 -20q-36 -22 -77.5 -29.5t-81.5 -7.5q-56 0 -100.5 16t-75.5 49t-47.5 84t-16.5 122q0 66 17.5 117.5t48.5 86.5t73 53.5t92 18.5z"/>
<glyph glyph-name="f" horiz-adv-x="339" unicode="f" d="M343 663q-3 -11 -15 -8q-20 4 -38 5.5t-32 1.5q-43 0 -58 -18.5t-15 -47.5v-71h127q10 0 12.5 -3.5t2.5 -11.5v-40q0 -6 -2.5 -10t-12.5 -4h-127v-442q0 -9 -4 -11.5t-12 -2.5h-55q-9 0 -12.5 2.5t-3.5 11.5v442h-75q-10 0 -12.5 4t-2.5 10v23q0 8 3 11.5t12 5.5 q2 0 13.5 2.5t24 5t24 4.5t13.5 2v70q0 67 34 106t112 39q17 0 44.5 -2.5t56.5 -11.5q9 -2 9 -9q0 -3 -1 -7z"/>
<glyph glyph-name="g" horiz-adv-x="559" unicode="g" d="M288 535q48 0 99 -7t96 -26q12 -5 12 -19v-442q0 -67 -16 -113t-48 -77t-79.5 -48t-109.5 -26h-5q-4 0 -7 1.5t-5 9.5l-7 55q0 11 11 13q43 6 75.5 16t55 27t34 42t11.5 63v6q-32 -10 -69.5 -16t-64.5 -6q-59 0 -101.5 20t-70.5 55t-41 84t-13 108q0 61 14.5 112.5 t44 88.5t75.5 58t109 21zM407 444q-29 10 -61 13.5t-55 3.5q-35 0 -64 -11.5t-49.5 -35.5t-32 -61.5t-11.5 -91.5q0 -99 39 -148t108 -49q19 0 53.5 4t72.5 16v360z"/>
<glyph glyph-name="h" horiz-adv-x="562" unicode="h" d="M498 15q0 -10 -4 -12.5t-12 -2.5h-56q-9 0 -12.5 2.5t-3.5 12.5v285q0 160 -136 160q-29 0 -63 -5t-59 -16v-424q0 -10 -4 -12.5t-12 -2.5h-55q-8 0 -12 2.5t-4 12.5v701q0 10 4 12.5t12 2.5h55q8 0 12 -2.5t4 -12.5v-203q32 13 70 18t67 5q56 0 95.5 -16.5t65 -47 t37 -74t11.5 -98.5v-285z"/>
<glyph glyph-name="i" horiz-adv-x="259" unicode="i" d="M172 15q0 -10 -3.5 -12.5t-12.5 -2.5h-54q-8 0 -12.5 2.5t-4.5 12.5v495q0 10 4.5 12.5t12.5 2.5h54q9 0 12.5 -2.5t3.5 -12.5v-495zM188 665q0 -24 -17 -41t-41 -17t-41.5 17t-17.5 41q0 25 17.5 42t41.5 17t41 -17t17 -42z"/>
<glyph glyph-name="j" horiz-adv-x="274" unicode="j" d="M184 70q0 -70 -13.5 -119t-36.5 -83t-55 -54.5t-68 -33.5q-3 -1 -6 -1q-8 0 -10 9l-18 52q-1 3 -1 5q0 3 2.5 6t8.5 6q35 16 56.5 37t33 46.5t15.5 54t4 59.5v456q0 10 4.5 12.5t12.5 2.5h55q9 0 12.5 -2.5t3.5 -12.5v-440zM198 665q0 -24 -17 -41t-41 -17t-41 17t-17 41 q0 25 17 42t41 17t41 -17t17 -42z"/>
<glyph glyph-name="k" horiz-adv-x="494" unicode="k" d="M155 276l202 241q3 4 6.5 6t11.5 2h77q5 0 6.5 -4.5t-1.5 -7.5l-134 -161l155 -341q1 -2 1 -4q0 -7 -9 -7h-65q-16 0 -20 11l-122 271l-112 -129v-138q0 -10 -3.5 -12.5t-12.5 -2.5h-55q-8 0 -12 2.5t-4 12.5v701q0 10 4 12.5t12 2.5h55q9 0 12.5 -2.5t3.5 -12.5v-438z "/>
<glyph glyph-name="l" horiz-adv-x="273" unicode="l" d="M253 20v-6q0 -4 -1 -6.5t-9 -6.5q-17 -8 -38.5 -10t-37.5 -2q-51 0 -71.5 24.5t-20.5 75.5v627q0 10 4 12.5t12 2.5h56q9 0 12.5 -2.5t3.5 -12.5v-602q0 -29 7.5 -38.5t27.5 -9.5q10 0 19 0.5t17 1.5q7 1 10 -0.5t4 -8.5z"/>
<glyph glyph-name="m" horiz-adv-x="889" unicode="m" d="M604 536q61 0 102.5 -17.5t67.5 -50t37.5 -77.5t11.5 -99v-278q0 -9 -3.5 -11.5t-11.5 -2.5h-55q-8 0 -12 2.5t-4 11.5v264q0 93 -32.5 136.5t-112.5 43.5q-15 0 -32.5 -2.5t-35.5 -7t-34.5 -10.5t-29.5 -13q14 -29 18.5 -63.5t4.5 -79.5v-268q0 -9 -4 -11.5t-13 -2.5 h-54q-8 0 -12 2.5t-4 11.5v269q0 41 -6.5 73.5t-23.5 55t-46.5 34.5t-76.5 12q-13 0 -40 -1.5t-51 -6.5v-436q0 -9 -3.5 -11.5t-12.5 -2.5h-54q-8 0 -12.5 2.5t-4.5 11.5v435q0 30 13 47t36 26t55 11.5t70 2.5q61 0 101.5 -13t72.5 -42h1q37 26 85.5 40.5t104.5 14.5z"/>
<glyph glyph-name="n" horiz-adv-x="562" unicode="n" d="M497 15q0 -10 -3.5 -12.5t-12.5 -2.5h-55q-8 0 -12 2.5t-4 12.5v265q0 45 -7.5 78.5t-26 56t-50 33.5t-79.5 11q-11 0 -37 -1.5t-58 -6.5v-436q0 -10 -4 -12.5t-12 -2.5h-55q-8 0 -12 2.5t-4 12.5v436q0 34 13.5 52.5t49.5 23.5q11 2 27.5 3.5t34.5 3t35 2t29 0.5 q64 0 110 -14t75.5 -44.5t43.5 -78.5t14 -116v-268z"/>
<glyph glyph-name="o" horiz-adv-x="557" unicode="o" d="M424 262q0 39 -6 75.5t-22 64t-44 44.5t-72 17q-38 0 -66 -16t-46 -43t-27 -63t-9 -76q0 -45 7 -82.5t24 -64t44.5 -41.5t69.5 -15t70.5 17t45.5 45t24 64t7 74zM512 265q0 -134 -60.5 -205t-175.5 -71q-113 0 -172 69t-59 204q0 66 17.5 117t49 86t74.5 53t93 18 q114 0 173.5 -72t59.5 -199z"/>
<glyph glyph-name="p" horiz-adv-x="559" unicode="p" d="M423 263q0 55 -11 93t-31.5 61t-49 33.5t-64.5 10.5q-26 0 -59 -5t-56 -14v-360q38 -11 65.5 -14.5t50.5 -3.5q34 0 62.5 10.5t49 34t32 61.5t11.5 93zM514 263q0 -57 -14.5 -106.5t-43 -87t-72.5 -59t-102 -21.5q-28 0 -60.5 3t-69.5 14v-194q0 -9 -3.5 -11.5 t-11.5 -2.5h-56q-8 0 -12 2.5t-4 11.5v670q0 13 12 17q50 22 103 29.5t101 7.5q60 0 104 -20.5t72.5 -57t42.5 -86.5t14 -109z"/>
<glyph glyph-name="q" horiz-adv-x="560" unicode="q" d="M407 445q-29 10 -60.5 13.5t-55.5 3.5q-35 0 -63.5 -11.5t-49.5 -35.5t-32.5 -61.5t-11.5 -91.5q0 -99 39 -148t108 -49q19 0 53.5 3.5t72.5 16.5v360zM45 256q0 61 14.5 112.5t44.5 88.5t75.5 58t108.5 21q48 0 99 -7.5t96 -26.5q12 -4 12 -18v-675q0 -10 -4 -12.5 t-12 -2.5h-56q-9 0 -12.5 2.5t-3.5 12.5v201q-32 -10 -70.5 -15.5t-65.5 -5.5q-59 0 -101.5 20t-70.5 55t-41 84t-13 108z"/>
<glyph glyph-name="r" horiz-adv-x="416" unicode="r" d="M379 403q-5 -7 -8.5 -5.5t-8.5 4.5q-28 27 -64 41.5t-78 14.5q-28 0 -59 -6v-437q0 -10 -4 -12.5t-12 -2.5h-55q-8 0 -11.5 2.5t-3.5 12.5v440q0 36 12 53t50 23q20 2 39 3.5t38 1.5q59 0 109 -16t92 -53q4 -4 4 -9q0 -4 -3 -7z"/>
<glyph glyph-name="s" horiz-adv-x="464" unicode="s" d="M426 142q0 -39 -14.5 -67.5t-40 -47.5t-60 -28.5t-73.5 -9.5q-47 0 -100 9t-94 31q-6 3 -7.5 6.5t-1.5 5.5q0 4 2 9l19 41q3 8 7.5 10t14.5 -2q40 -19 82.5 -27.5t77.5 -8.5q48 0 76 19.5t28 55.5q0 37 -32 58t-91 42q-42 15 -72.5 30t-50 32.5t-28.5 39.5t-9 52 q0 63 45.5 103.5t132.5 40.5q41 0 79.5 -6.5t77.5 -22.5q12 -6 8 -19l-19 -47q-3 -6 -6.5 -6t-8.5 2q-40 15 -69.5 20t-63.5 5q-45 0 -68 -19t-23 -46q0 -17 6.5 -29.5t20.5 -23t37 -20.5t55 -22q31 -12 60.5 -25t52 -31.5t36.5 -43.5t14 -60z"/>
<glyph glyph-name="t" horiz-adv-x="369" unicode="t" d="M31 456q-9 0 -11.5 4t-2.5 10v29q0 13 14 17l78 15l16 96q2 10 6 13t12 7l33 12q3 1 6 1t6 -2t3 -12v-121h111q9 0 11.5 -4t2.5 -11v-40q0 -8 -2.5 -11t-11.5 -3h-111v-324q0 -35 15.5 -50.5t51.5 -15.5q13 0 36.5 2.5t40.5 4.5q9 2 11.5 -0.5t3.5 -7.5l9 -45q1 -4 1 -7 q0 -7 -9 -10q-29 -9 -61 -11.5t-46 -2.5q-78 0 -109 33.5t-31 103.5v330h-73z"/>
<glyph glyph-name="u" horiz-adv-x="554" unicode="u" d="M65 511q0 10 4 12.5t12 2.5h55q8 0 12 -2.5t4 -12.5v-267q0 -45 6 -78.5t22.5 -55.5t47 -32.5t79.5 -10.5q11 0 36.5 1.5t58.5 6.5v436q0 10 3.5 12.5t12.5 2.5h55q8 0 12 -2.5t4 -12.5v-437q0 -64 -63 -76q-14 -2 -31 -3.5t-34 -2.5t-33 -1.5t-28 -0.5 q-65 0 -109.5 13.5t-72.5 43t-40.5 77t-12.5 115.5v272z"/>
<glyph glyph-name="v" horiz-adv-x="492" unicode="v" d="M318 39q-8 -24 -17.5 -34t-32.5 -10h-39q-19 0 -30 8t-21 35l-164 477q-1 2 -1 4q0 6 9 6h67q11 0 14 -9l94 -276l50 -163h5l48 161l91 278q3 9 14 9h66q10 0 8 -10z"/>
<glyph glyph-name="w" horiz-adv-x="730" unicode="w" d="M363 404l-44 -165l-63 -203q-6 -19 -16 -30t-33 -11h-38q-17 0 -29 8t-18 37l-105 476q-1 2 -1 4q0 7 9 7h67q7 0 9 -2.5t4 -7.5l57 -289l27 -138h5l37 126l72 251q4 14 14 26t35 12h30q22 0 30 -11t13 -30l69 -233l43 -148h5l27 147l57 287q2 5 4 7.5t9 2.5h67q9 0 9 -7 q0 -2 -1 -4l-106 -476q-7 -29 -20.5 -37t-30.5 -8h-35q-23 0 -32.5 8.5t-16.5 32.5l-63 208l-43 160h-4z"/>
<glyph glyph-name="x" horiz-adv-x="469" unicode="x" d="M284 282l175 -268q2 -4 2 -9t-8 -5h-73q-11 0 -15 3.5t-7 8.5l-125 202l-128 -201q-4 -6 -8.5 -9.5t-14.5 -3.5h-64q-10 0 -10 6q0 3 3 9l174 263l-151 232q-3 4 -2 9.5t9 5.5h67q10 0 14.5 -3.5t7.5 -8.5l107 -172l108 172q4 5 8.5 8.5t12.5 3.5h65q9 0 9.5 -5t-1.5 -8z "/>
<glyph glyph-name="y" horiz-adv-x="490" unicode="y" d="M277 -86q-23 -69 -59 -96t-92 -27q-14 0 -35 2t-46 9q-16 4 -12 16l11 44q2 8 6 9.5t11 -0.5q19 -5 28.5 -6.5t22.5 -1.5q34 0 55 13.5t34 53.5q1 3 5 14t8.5 23.5t8 23.5t4.5 14h-19q-14 0 -24.5 4.5t-18.5 30.5l-154 474q-1 2 -1 4q0 7 10 7h67q11 0 14 -10 q2 -7 8.5 -27.5t15.5 -48t19 -59t19 -59t15.5 -48.5t8.5 -27l51 -176h6q3 8 12 36t18.5 59.5t18 57t9.5 27.5t6.5 18.5t14 41.5t18.5 54.5t19.5 58.5t18 53.5t13.5 38.5q3 10 14 10h64q10 0 10 -7q0 -2 -1 -4z"/>
<glyph glyph-name="z" horiz-adv-x="460" unicode="z" d="M399 525q23 0 32.5 -9t9.5 -29v-15q0 -11 -3.5 -22.5t-12.5 -22.5l-307 -354l1 -2h306q11 0 13.5 -4t2.5 -10v-42q0 -8 -3 -11.5t-13 -3.5h-367q-23 0 -31 10t-8 24v15q0 13 3.5 26t14.5 25l305 351l-1 3h-282q-9 0 -12 3t-3 11v42q0 7 2.5 11t12.5 4h340z"/>
<glyph glyph-name="braceleft" horiz-adv-x="354" unicode="{" d="M295 -93q0 -8 -8 -8q-32 1 -61.5 10t-52 28t-35.5 49t-13 73v138q0 48 -14 70.5t-43 29.5q-6 2 -8.5 4t-2.5 9v40q0 7 2 9.5t10 4.5q29 6 42.5 28.5t13.5 70.5v101q0 43 12 73.5t33 50t50.5 28.5t65.5 10q6 0 7.5 -2t1.5 -6v-49q0 -5 -1.5 -7.5t-7.5 -3.5 q-38 -2 -56 -23.5t-18 -50.5v-123q0 -48 -18 -81t-50 -48v-4q29 -14 48.5 -45t19.5 -81v-157q0 -30 17.5 -51.5t55.5 -24.5q7 -1 8.5 -3t1.5 -7v-52z"/>
<glyph glyph-name="bar" horiz-adv-x="213" unicode="|" d="M150 -121q0 -10 -3.5 -12.5t-12.5 -2.5h-53q-8 0 -12 2.5t-4 12.5v884q0 10 4 12.5t12 2.5h53q9 0 12.5 -2.5t3.5 -12.5v-884z"/>
<glyph glyph-name="braceright" horiz-adv-x="354" unicode="}" d="M297 310q0 -7 -3 -9t-8 -4q-30 -7 -44 -29.5t-14 -70.5v-133q0 -43 -12.5 -74t-34.5 -51t-51 -29.5t-63 -10.5q-9 0 -9 8v52q0 9 11 10q39 4 55.5 26t16.5 54v153q0 50 19.5 81t48.5 45v4q-30 14 -49 45.5t-19 79.5v124q0 30 -17.5 52.5t-55.5 24.5q-10 1 -10 11v49 q0 8 10 8q36 -1 65.5 -9.5t50.5 -27.5t32.5 -49.5t11.5 -75.5v-101q0 -48 13.5 -71t42.5 -28q13 -3 13 -14v-40z"/>
<glyph glyph-name="asciitilde" d="M524 316q-25 -42 -55 -63t-74 -21q-26 0 -52.5 9.5t-52 21.5t-49.5 21.5t-46 9.5q-24 0 -44.5 -11.5t-38.5 -31.5q-9 -9 -18 -2l-26 20q-6 5 -6 10q0 4 3 7q32 41 63.5 59.5t68.5 18.5q26 0 53 -10t53 -22t50.5 -22t45.5 -10q26 0 41 14.5t32 38.5q7 11 19 2l29 -19 q6 -5 6 -12q0 -4 -2 -8z" unicode="~"/>
<glyph glyph-name="exclamdown" horiz-adv-x="270" unicode="¡" d="M72 459q0 28 19 47.5t47 19.5q29 0 48 -19t19 -48q0 -27 -19.5 -46.5t-47.5 -19.5t-47 19t-19 47zM109 300q1 10 5.5 13t15.5 3h21q17 0 18 -13l19 -471q1 -5 -2.5 -10.5t-12.5 -5.5h-68q-10 0 -13 5.5t-3 10.5z"/>
<glyph glyph-name="cent" d="M183 257q0 -36 5.5 -67.5t19 -57t36 -42.5t56.5 -23v387q-31 -7 -53 -25.5t-36.5 -45t-21 -59t-6.5 -67.5zM300 -10q-100 7 -152 74t-52 193q0 59 14 107.5t40.5 84.5t64 57.5t85.5 27.5v90q0 8 3 10.5t9 2.5h20q7 0 9.5 -2.5t2.5 -10.5v-88q37 -2 70.5 -10t65.5 -25 q14 -8 6 -21l-21 -41q-3 -6 -6.5 -8.5t-12.5 2.5q-23 10 -48 16.5t-54 8.5v-394q32 1 62 9.5t50 19.5q9 5 13 2.5t7 -7.5l20 -42q3 -5 3 -9q0 -7 -8 -12q-34 -19 -72 -26t-75 -9v-90q0 -8 -2.5 -10.5t-9.5 -2.5h-20q-6 0 -9 2.5t-3 10.5v90z" unicode="¢"/>
<glyph glyph-name="sterling" d="M355 676q40 0 80.5 -7.5t73.5 -25.5q14 -7 6 -21l-19 -39q-3 -6 -7 -7.5t-13 2.5q-24 10 -56 17t-63 7q-59 0 -93.5 -25t-34.5 -76q0 -10 2 -25.5t4.5 -32t5 -32.5t4.5 -26h197q9 0 11.5 -4t2.5 -12v-32q0 -9 -2.5 -13t-11.5 -4h-188q3 -27 3 -58q0 -22 -2 -46.5 t-8 -48.5t-17 -47t-29 -41h314q9 0 11.5 -4.5t2.5 -12.5v-46q0 -8 -2.5 -12t-11.5 -4h-407q-19 0 -26 7t-7 19v16q0 19 6.5 27t19.5 19q45 38 57.5 82t12.5 87q0 9 -0.5 26t-2.5 37h-81q-9 0 -11.5 4t-2.5 13v32q0 8 2.5 12t11.5 4h73q-1 9 -4 23t-6.5 29.5t-6 31t-2.5 26.5 q0 48 16 82t44.5 56t67.5 32.5t86 10.5z" unicode="£"/>
<glyph glyph-name="currency" horiz-adv-x="511" unicode="¤" d="M129 284q0 -26 10 -49t27 -40t39.5 -26.5t48.5 -9.5t49 9.5t40 26.5t27 40t10 49q0 25 -10 48t-27 39.5t-40 26.5t-49 10t-48.5 -10t-39.5 -26.5t-27 -39.5t-10 -48zM49 285q0 35 10.5 65.5t29.5 56.5l-46 48q-6 6 -6 11q0 4 4 9l29 28q6 6 10 6l2 -1q2 0 7 -5l49 -50 q25 17 54 27t61 10q33 0 63 -10t55 -27l54 53q6 6 11 6t10 -5l28 -28q6 -7 5.5 -11t-5.5 -10l-54 -53q18 -26 28.5 -56.5t10.5 -63.5q0 -35 -10.5 -65.5t-28.5 -56.5l52 -51q8 -8 8 -13q0 -4 -6 -10l-27 -29q-11 -8 -22 4l-53 53q-52 -37 -119 -37q-64 0 -111 32l-53 -54 q-6 -7 -9 -8h-3q-5 0 -11 6l-29 28q-4 4 -4 8q0 6 8 13l51 52q-20 26 -31.5 58t-11.5 70z"/>
<glyph glyph-name="yen" d="M505 247q9 0 12 -4t3 -12v-28q0 -9 -3 -12.5t-12 -3.5h-169v-173q0 -9 -3 -11.5t-12 -2.5h-56q-8 0 -11.5 2.5t-3.5 11.5v173h-157q-9 0 -12 3.5t-3 12.5v28q0 8 2.5 12t12.5 4h412zM93 301q-9 0 -12 3.5t-3 12.5v27q0 8 2.5 12t12.5 4h111l-147 301q-1 2 -1 4t1 4.5 t8 2.5h68q7 0 11 -2t7 -10l81 -172l61 -140h3l59 140l78 172q4 12 19 12h67q6 0 6.5 -3t0.5 -5v-3l-145 -301h124q9 0 12 -4t3 -12v-27q0 -9 -3 -12.5t-12 -3.5h-412z" unicode="¥"/>
<glyph glyph-name="brokenbar" horiz-adv-x="213" unicode="¦" d="M150 359q0 -9 -3.5 -11.5t-12.5 -2.5h-53q-8 0 -12 2.5t-4 11.5v400q0 9 4 11.5t12 2.5h53q9 0 12.5 -2.5t3.5 -11.5v-400zM150 -121q0 -10 -3.5 -12.5t-12.5 -2.5h-53q-8 0 -12 2.5t-4 12.5v400q0 9 4 11.5t12 2.5h53q9 0 12.5 -2.5t3.5 -11.5v-400z"/>
<glyph glyph-name="section" horiz-adv-x="553" unicode="§" d="M449 18q0 -29 -13.5 -55.5t-39 -47t-63.5 -32.5t-87 -12q-34 0 -72 7t-68 21q-11 8 -6 19l19 38q2 5 5.5 7t11.5 -1q22 -9 51 -15.5t56 -6.5q60 0 87 22.5t27 53.5q0 28 -29 59.5t-73 66.5q-36 27 -70 55t-60 56.5t-42 57.5t-16 60q0 37 22 73t57 59q-16 18 -25 40.5 t-9 45.5q0 30 11 56.5t34.5 47t59 32.5t84.5 12q35 0 74 -6.5t68 -20.5q11 -8 6 -18l-19 -39q-2 -5 -5.5 -7t-11.5 1q-21 9 -49.5 15.5t-55.5 6.5q-61 0 -87 -19.5t-26 -51.5t32.5 -63.5t82.5 -70.5q40 -32 73 -60t57 -54.5t37 -53.5t13 -57q0 -35 -22 -70t-58 -58 q17 -21 28 -45.5t11 -47.5zM266 398q-20 17 -38 31t-28 25q-21 -14 -35 -35t-14 -44q0 -18 8.5 -34t26.5 -35t44.5 -41.5t62.5 -52.5q16 -14 37 -31.5t34 -25.5q17 12 29 31.5t12 39.5q0 22 -9 40.5t-26.5 38t-43.5 42t-60 51.5z"/>
<glyph glyph-name="dieresis" horiz-adv-x="562" unicode="¨" d="M241 670q0 -21 -17 -37.5t-37 -16.5q-21 0 -38 16.5t-17 37.5q0 20 17 36.5t38 16.5q20 0 37 -16.5t17 -36.5zM422 670q0 -21 -17 -37.5t-37 -16.5q-22 0 -38.5 16.5t-16.5 37.5q0 20 16.5 36.5t37.5 16.5t38 -16t17 -37z"/>
<glyph glyph-name="copyright" horiz-adv-x="821" unicode="©" d="M416 112q-45 0 -80 17t-59 47t-37 72t-13 93q0 52 13.5 94t38 72t59.5 46.5t78 16.5q41 0 74.5 -13t57.5 -41q2 -4 3 -7.5t-5 -8.5l-5 -5l-8.5 -8.5t-9 -8t-5.5 -4.5q-5 -5 -9 -3t-9 7q-17 16 -37 25t-47 9q-64 0 -95.5 -48t-31.5 -123q0 -37 8 -68.5t24 -54t39.5 -35 t55.5 -12.5q31 0 51 10.5t35 24.5q8 10 16 3l29 -24q6 -5 5.5 -9t-3.5 -8q-24 -27 -56.5 -41.5t-76.5 -14.5zM724 349q0 68 -23.5 126t-65.5 100t-99 66t-124 24q-66 0 -123 -24t-99 -66t-66 -100t-24 -126t24 -125.5t66 -99.5t99 -66t123 -24q67 0 124 24t99 66t65.5 99.5 t23.5 125.5zM773 349q0 -77 -27.5 -143t-76 -114t-114.5 -75.5t-143 -27.5t-143 27.5t-114.5 75.5t-76 114t-27.5 143t27.5 143.5t76 115t114.5 76t143 27.5t143 -27.5t114.5 -76t76 -115t27.5 -143.5z"/>
<glyph glyph-name="ordfeminine" horiz-adv-x="372" unicode="ª" d="M183 430q-11 0 -25.5 -1.5t-27.5 -7t-22 -17t-9 -32.5q0 -31 23 -41.5t56 -10.5q11 0 34 1.5t44 8.5v100h-73zM178 260q-45 0 -74.5 9.5t-47 25t-24 35.5t-6.5 42q0 24 8.5 45.5t27 38.5t47.5 27t71 10h77v9q0 24 -14.5 41t-59.5 17q-23 0 -49 -4t-43 -9q-7 -2 -13 -2 t-8 8l-9 33q-3 12 10 18q25 10 59 14t63 4q71 0 103.5 -30t32.5 -87v-200q0 -16 -15 -22q-31 -11 -67.5 -17t-68.5 -6z"/>
<glyph glyph-name="guillemotleft" horiz-adv-x="483" unicode="«" d="M312 242l122 -192q3 -5 3 -9q0 -3 -2.5 -6.5t-11.5 -3.5h-52q-15 0 -21 5t-11 13l-100 158q-4 7 -8.5 18t-4.5 19q0 13 5 23t10 18l96 157q5 8 11.5 13t20.5 5h50q10 0 13.5 -6t-1.5 -14zM149 242l122 -192q3 -5 3 -9q0 -3 -2.5 -6.5t-12.5 -3.5h-51q-16 0 -22 5t-11 13 l-100 158q-4 7 -8.5 18t-4.5 19q0 13 5 23t10 18l96 157q5 8 11.5 13t21.5 5h50q9 0 12.5 -6t-1.5 -14z"/>
<glyph glyph-name="logicalnot" d="M67 302q-10 0 -12.5 3.5t-2.5 12.5v52q0 8 2.5 12.5t12.5 4.5h456q9 0 11.5 -4.5t2.5 -12.5v-259q0 -10 -3.5 -12.5t-12.5 -2.5h-55q-8 0 -12 2.5t-4 12.5v191h-383z" unicode="¬"/>
<glyph glyph-name="sfthyphen" horiz-adv-x="361" unicode="­" d="M65 236q-10 0 -12.5 4t-2.5 12v68q0 8 2.5 12t12.5 4h232q9 0 11.5 -4t2.5 -12v-68q0 -8 -2.5 -12t-11.5 -4h-232z"/>
<glyph glyph-name="registered" horiz-adv-x="552" unicode="®" d="M335 538q0 15 -10.5 28.5t-36.5 13.5h-64v-83h61q26 0 38 12t12 29zM224 354q0 -6 -2.5 -7.5t-8.5 -1.5h-23q-5 0 -7 1.5t-2 7.5v242q0 24 22 24h89q38 0 61.5 -22.5t23.5 -57.5q0 -21 -11.5 -39t-28.5 -29q15 -6 21 -16.5t9 -23.5l22 -76q2 -2 0.5 -6.5t-9.5 -4.5h-24 q-9 0 -10 8l-21 72q-5 20 -18 27.5t-31 7.5h-52v-106zM460 480q0 40 -14 75t-38.5 61t-58 40.5t-72.5 14.5q-40 0 -74 -14.5t-59 -40.5t-39 -61t-14 -75q0 -39 14 -73.5t39 -60t59 -40.5t74 -15q39 0 72.5 15t58 40.5t38.5 60t14 73.5zM501 480q0 -48 -17.5 -89t-48 -72 t-71.5 -48.5t-87 -17.5q-48 0 -89.5 17.5t-72 48.5t-47.5 72t-17 89t17 90t47.5 73t72 48.5t89.5 17.5t89 -17.5t71 -48.5t47 -73t17 -90z"/>
<glyph glyph-name="macron" horiz-adv-x="330" unicode="¯" d="M45 581q-10 0 -12.5 4t-2.5 12v38q0 8 2.5 12t12.5 4h240q10 0 12.5 -4t2.5 -12v-38q0 -8 -2.5 -12t-12.5 -4h-240z"/>
<glyph glyph-name="degree" horiz-adv-x="371" unicode="°" d="M273 562q0 37 -25 62.5t-62 25.5t-61.5 -25.5t-24.5 -62.5q0 -39 24.5 -65t61.5 -26t62 26t25 65zM325 562q0 -31 -10.5 -56.5t-29.5 -44t-44.5 -28.5t-55.5 -10t-55.5 10t-44 28.5t-29.5 44t-11 56.5q0 30 11 55.5t30 43.5t44.5 28.5t55.5 10.5t55.5 -10.5t44 -28.5 t29 -43.5t10.5 -55.5z"/>
<glyph glyph-name="plusminus" d="M70 336q-10 0 -12.5 4t-2.5 12v52q0 8 2.5 12t12.5 4h185v191q0 10 3.5 12.5t11.5 2.5h56q8 0 11.5 -2.5t3.5 -12.5v-191h184q10 0 12.5 -4t2.5 -12v-52q0 -8 -2.5 -12t-12.5 -4h-184v-191q0 -9 -3.5 -11.5t-11.5 -2.5h-56q-8 0 -11.5 2.5t-3.5 11.5v191h-185zM66 -1 q-10 0 -12.5 3t-2.5 11v57q0 7 2.5 10t12.5 3h456q9 0 11.5 -3t2.5 -10v-57q0 -8 -2.5 -11t-11.5 -3h-456z" unicode="±"/>
<glyph glyph-name="twosuperior" horiz-adv-x="383" unicode="²" d="M90 357q-32 0 -45 10.5t-13 38.5q0 20 13.5 47t42.5 55q26 25 53.5 43t47.5 30q39 22 56 37.5t17 36.5q0 24 -21.5 36.5t-57.5 12.5q-23 0 -47 -8t-46 -21q-7 -5 -13.5 -6.5t-11.5 6.5q0 1 -3 5.5t-6.5 9.5t-6 9.5t-2.5 5.5q-8 11 6 22q28 17 63 29t70 12q30 0 57.5 -7 t48 -20.5t32.5 -34t12 -48.5q0 -44 -30 -74.5t-79 -57.5q-16 -9 -33.5 -20.5t-33 -25t-28.5 -29t-20 -31.5h209q12 0 14 -4t2 -11v-32q0 -5 -2 -10.5t-14 -5.5h-231z"/>
<glyph glyph-name="threesuperior" horiz-adv-x="383" unicode="³" d="M271 572q32 -10 48 -35.5t16 -57.5q0 -55 -42.5 -91.5t-119.5 -36.5q-38 0 -77 8.5t-68 30.5q-7 5 -7 11q0 4 3 9l19 30q8 9 23 1q21 -12 49 -19.5t55 -7.5q48 0 69.5 20t21.5 48q0 24 -19 42t-64 18h-22q-11 0 -17 3.5t-6 17.5v16q0 22 22 22h17q36 0 57.5 15t21.5 41 q0 13 -7 22.5t-18 14.5t-24 7.5t-26 2.5q-26 0 -51 -6t-45 -17q-10 -5 -15 -6.5t-10 6.5l-17 30q-3 5 -3 9.5t8 10.5q30 20 68 29t76 9q29 0 54.5 -7t44 -20.5t29 -33.5t10.5 -45q0 -29 -14 -52t-40 -36v-3z"/>
<glyph glyph-name="acute" horiz-adv-x="465" unicode="´" d="M209 595q-9 3 -9 7q0 3 4 10l66 154q2 5 6 8q3 2 9 2h4l69 -18q9 -2 9 -8q0 -4 -3 -8l-106 -150q-5 -8 -9 -9h-3q-4 0 -9 1z"/>
<glyph glyph-name="mu" horiz-adv-x="554" unicode="µ" d="M65 511q0 10 4 12.5t12 2.5h55q8 0 12 -2.5t4 -12.5v-338q0 -27 5 -47t21 -33t46.5 -19.5t82.5 -6.5q14 0 38 1t57 7v436q0 10 3.5 12.5t12.5 2.5h55q8 0 12 -2.5t4 -12.5v-436q0 -66 -63 -76q-29 -5 -64 -7t-63 -2q-18 0 -39.5 1.5t-41.5 5t-37.5 8.5t-29.5 12v-205 q0 -9 -4 -11.5t-12 -2.5h-54q-8 0 -12 2.5t-4 11.5v699z"/>
<glyph glyph-name="mu" horiz-adv-x="554" unicode="μ" d="M65 511q0 10 4 12.5t12 2.5h55q8 0 12 -2.5t4 -12.5v-338q0 -27 5 -47t21 -33t46.5 -19.5t82.5 -6.5q14 0 38 1t57 7v436q0 10 3.5 12.5t12.5 2.5h55q8 0 12 -2.5t4 -12.5v-436q0 -66 -63 -76q-29 -5 -64 -7t-63 -2q-18 0 -39.5 1.5t-41.5 5t-37.5 8.5t-29.5 12v-205 q0 -9 -4 -11.5t-12 -2.5h-54q-8 0 -12 2.5t-4 11.5v699z"/>
<glyph glyph-name="paragraph" horiz-adv-x="503" unicode="¶" d="M452 50q0 -44 -8 -79t-29 -60.5t-58 -40.5t-94 -19q-4 0 -6.5 1.5t-3.5 7.5l-4 44q-1 4 1 8t7 5q41 5 66.5 15.5t39.5 27t18.5 38.5t4.5 51v643q0 9 11 9h45q10 0 10 -9v-642zM238 338q-41 0 -74.5 14t-57.5 38t-37.5 57t-13.5 72q0 37 13.5 70t38 58t58 39.5t73.5 14.5 h87q10 0 10 -9v-344q0 -10 -10 -10h-87z"/>
<glyph glyph-name="periodcentered" horiz-adv-x="263" unicode="·" d="M201 298q0 -30 -20.5 -50.5t-50.5 -20.5t-50 20t-20 51q0 29 20 49.5t50 20.5q31 0 51 -20t20 -50z"/>
<glyph glyph-name="cedilla" horiz-adv-x="488" unicode="¸" d="M280 -55q28 -2 46.5 -9t30 -17.5t16.5 -24t5 -26.5q0 -14 -6 -28.5t-18.5 -26t-32.5 -19t-47 -7.5q-25 0 -49 5t-38 12q-8 3 -8 10q0 3 2 6l7 20q4 8 7 8t9 -2q15 -6 30.5 -8.5t29.5 -2.5q52 0 52 34q0 19 -17.5 27t-40.5 8h-17t-10 4q-6 3 -5.5 9.5t2.5 13.5l28 79 q2 7 10 7h31q5 0 5.5 -2.5t-0.5 -4.5z"/>
<glyph glyph-name="onesuperior" horiz-adv-x="383" unicode="¹" d="M317 374q0 -10 -3 -13.5t-15 -3.5h-208q-11 0 -14 3.5t-3 13.5v31q0 9 3 12t14 3h67v274l-66 -12q-7 -1 -11.5 1t-4.5 12v27q0 9 2 13t12 7l95 24q8 2 16 2t19 -3.5t11 -23.5v-321h68q12 0 15 -3t3 -12v-31z"/>
<glyph glyph-name="ordmasculine" horiz-adv-x="384" unicode="º" d="M283 441q0 24 -4 46t-14 38.5t-27.5 26.5t-44.5 10q-24 0 -42 -9.5t-29 -25.5t-16.5 -37.5t-5.5 -46.5q0 -53 19.5 -87.5t71.5 -34.5q27 0 44.5 10t28 27t15 38.5t4.5 44.5zM357 443q0 -88 -42.5 -135.5t-123.5 -47.5q-80 0 -122 46t-42 135q0 44 12.5 78t34.5 57 t52.5 35t66.5 12q80 0 122 -47.5t42 -132.5z"/>
<glyph glyph-name="guillemotright" horiz-adv-x="483" unicode="»" d="M52 440q-5 8 -1.5 14t13.5 6h50q15 0 21 -5t11 -13l96 -157q5 -8 10.5 -18t5.5 -23q0 -8 -4.5 -19t-9.5 -18l-99 -158q-5 -8 -11.5 -13t-21.5 -5h-52q-10 0 -12.5 3.5t-2.5 6.5q0 4 3 9l123 192zM216 440q-5 8 -1.5 14t12.5 6h50q15 0 21 -5t12 -13l96 -157q4 -8 9.5 -18 t5.5 -23q0 -8 -4.5 -19t-9.5 -18l-99 -158q-5 -8 -11.5 -13t-21.5 -5h-51q-10 0 -12.5 3.5t-2.5 6.5q0 4 3 9l123 192z"/>
<glyph glyph-name="onequarter" horiz-adv-x="890" unicode="¼" d="M539 147h133v163l-3 1l-131 -160zM268 -8q-8 -14 -21 -14h-31q-7 0 -10.5 3t1.5 11l409 690q5 8 8 11t11 3h35q5 0 9 -3t-1 -11zM332 284q0 -10 -3 -13.5t-15 -3.5h-208q-11 0 -14 3.5t-3 13.5v31q0 9 3 12t14 3h67v274l-66 -12q-7 -1 -11.5 1t-4.5 12v27q0 9 2 13t12 7 l95 24q8 2 16 2t19 -3.5t11 -23.5v-321h68q12 0 15 -3t3 -12v-31zM479 86q-13 1 -24 6t-11 25v12q0 11 3.5 18.5t11.5 17.5l187 221q8 11 18 18.5t24 7.5h22q19 0 27 -7.5t8 -27.5v-230h40q11 0 13 -4.5t2 -13.5v-24q0 -8 -2 -13t-13 -5h-40v-72q0 -11 -4.5 -13t-15.5 -2 h-35q-9 0 -13.5 2t-4.5 13v71h-193z"/>
<glyph glyph-name="onehalf" horiz-adv-x="890" unicode="½" d="M564 0q-32 0 -45 10.5t-13 37.5q0 20 13.5 47t42.5 55q26 25 53.5 43t47.5 31q39 21 56 36.5t17 36.5q0 24 -21.5 36.5t-57.5 12.5q-23 0 -47 -8t-46 -21q-7 -5 -13.5 -6.5t-11.5 7.5l-3 4q-3 4 -6.5 10t-5.5 10l-3 5q-8 12 6 22q28 18 63 29.5t70 11.5q30 0 57.5 -7 t48 -20.5t32.5 -34t12 -48.5q0 -44 -30 -74t-79 -57q-32 -18 -66.5 -45.5t-48.5 -61.5h209q12 0 14 -4t2 -11v-32q0 -5 -2 -10t-14 -5h-231zM249 -8q-8 -14 -21 -14h-31q-7 0 -10.5 3t1.5 11l409 690q5 8 8 11t11 3h35q5 0 8 -2t3 -5t-3 -7zM322 284q0 -10 -3 -13.5 t-15 -3.5h-208q-11 0 -14 3.5t-3 13.5v31q0 9 3 12t14 3h67v274l-66 -12q-7 -1 -11.5 1t-4.5 12v27q0 9 2 13t12 7l95 24q8 2 16 2t19 -3.5t11 -23.5v-321h68q12 0 15 -3t3 -12v-31z"/>
<glyph glyph-name="threequarters" horiz-adv-x="890" unicode="¾" d="M571 147h133v163l-3 1l-131 -160zM286 -8q-8 -14 -21 -14h-31q-7 0 -10.5 3t1.5 11l409 690q5 8 8 11t11 3h35q5 0 9 -3t-1 -11zM309 482q32 -10 48 -35.5t16 -57.5q0 -55 -42.5 -91.5t-119.5 -36.5q-38 0 -77 8.5t-68 30.5q-7 5 -7 11q0 4 3 9l19 30q8 9 23 1 q21 -12 49 -19.5t55 -7.5q48 0 69.5 20t21.5 48q0 24 -19 42t-64 18h-22q-11 0 -17 3.5t-6 17.5v16q0 22 22 22h17q36 0 57.5 15t21.5 41q0 13 -7 22.5t-18 14.5t-24 7.5t-26 2.5q-26 0 -51 -6t-45 -17q-10 -5 -15 -6.5t-10 6.5l-17 30q-3 5 -3 9.5t8 10.5q30 20 68 29t76 9 q29 0 54.5 -7t44 -20.5t29 -33.5t10.5 -45q0 -29 -14 -52t-40 -36v-3zM511 86q-13 1 -24 6t-11 25v12q0 11 3.5 18.5t11.5 17.5l187 221q8 11 18 18.5t24 7.5h22q19 0 27 -7.5t8 -27.5v-230h40q11 0 13 -4.5t2 -13.5v-24q0 -8 -2 -13t-13 -5h-40v-72q0 -11 -4.5 -13 t-15.5 -2h-35q-9 0 -13.5 2t-4.5 13v71h-193z"/>
<glyph glyph-name="questiondown" horiz-adv-x="523" unicode="¿" d="M240 457q0 29 20 48.5t49 19.5t49 -19.5t20 -48.5t-21 -49t-50 -20q-8 0 -19.5 3t-22 11t-18 21.5t-7.5 33.5zM270 -194q-48 0 -88 11t-69 33.5t-45.5 55.5t-16.5 77q0 31 10.5 56.5t27.5 47.5t38 41.5t42 37.5q37 31 65.5 61.5t29.5 70.5v27q0 5 3 9.5t11 4.5h61 q13 0 13 -13v-32q0 -34 -12 -60.5t-31 -48.5t-42.5 -40.5t-45.5 -36.5q-32 -26 -55.5 -55.5t-23.5 -70.5q0 -17 6 -33.5t21 -30.5t39.5 -22.5t61.5 -8.5q38 0 79 13t76 39q14 11 23 -1l27 -42q3 -4 3 -8q0 -6 -7 -12q-22 -18 -48 -31t-53 -21.5t-53 -13t-47 -4.5z"/>
<glyph glyph-name="Agrave" horiz-adv-x="618" unicode="À" d="M337 748q-4 -5 -8.5 -5t-12.5 4l-165 75q-10 4 -2 16l42 59q4 6 8 6l3 -1q4 -2 9 -6l141 -101q7 -5 7 -8.5t-4 -9.5zM357 452l-47 147h-5l-45 -142l-68 -214h232zM524 0q-9 0 -14.5 2t-9.5 13l-50 147h-282l-50 -147q-5 -15 -21 -15h-68q-10 0 -12 4.5t-2 7.5t1 7 l226 643q8 24 18 31.5t33 8.5h30q27 0 36.5 -9t17.5 -31l225 -643q2 -4 2 -7t-2 -7.5t-12 -4.5h-66z"/>
<glyph glyph-name="Aacute" horiz-adv-x="618" unicode="Á" d="M264 777q-4 6 -3.5 9.5t7.5 8.5l140 101q5 4 8 5t4 1q5 0 9 -7l42 -57q8 -11 -2 -16l-169 -77q-9 -4 -12 -2t-7 7zM357 452l-47 147h-5l-45 -142l-68 -214h232zM524 0q-9 0 -14.5 2t-9.5 13l-50 147h-282l-50 -147q-5 -15 -21 -15h-68q-10 0 -12 4.5t-2 7.5t1 7l226 643 q8 24 18 31.5t33 8.5h30q27 0 36.5 -9t17.5 -31l225 -643q2 -4 2 -7t-2 -7.5t-12 -4.5h-66z"/>
<glyph glyph-name="Acircumflex" horiz-adv-x="618" unicode="Â" d="M456 745q-4 -5 -8.5 -3.5t-12.5 5.5l-129 65l-128 -67q-6 -3 -9.5 -2.5t-8.5 5.5l-16 18q-7 9 0 15l124 100q21 17 39 17q8 0 18 -2.5t24 -14.5l119 -100q10 -9 2 -19zM357 452l-47 147h-5l-45 -142l-68 -214h232zM524 0q-9 0 -14.5 2t-9.5 13l-50 147h-282l-50 -147 q-5 -15 -21 -15h-68q-10 0 -12 4.5t-2 7.5t1 7l226 643q8 24 18 31.5t33 8.5h30q27 0 36.5 -9t17.5 -31l225 -643q2 -4 2 -7t-2 -7.5t-12 -4.5h-66z"/>
<glyph glyph-name="Atilde" horiz-adv-x="618" unicode="Ã" d="M375 752q-18 0 -34.5 5.5t-32.5 12t-31.5 12t-31.5 5.5q-14 0 -25.5 -8t-19.5 -20q-3 -5 -7 -7t-12 2l-34 15q-8 3 -10.5 6t1.5 10q17 30 43 50t62 20q17 0 33.5 -5.5t32 -12t29.5 -12t28 -5.5q16 0 28 8t18 21q4 8 5.5 8.5t3.5 0.5q3 0 8 -1l38 -15q8 -2 11 -5t0 -10 q-17 -36 -41 -55.5t-62 -19.5zM357 452l-47 147h-5l-45 -142l-68 -214h232zM524 0q-9 0 -14.5 2t-9.5 13l-50 147h-282l-50 -147q-5 -15 -21 -15h-68q-10 0 -12 4.5t-2 7.5t1 7l226 643q8 24 18 31.5t33 8.5h30q27 0 36.5 -9t17.5 -31l225 -643q2 -4 2 -7t-2 -7.5t-12 -4.5 h-66z"/>
<glyph glyph-name="Adieresis" horiz-adv-x="618" unicode="Ä" d="M271 800q0 -21 -17 -37.5t-37 -16.5q-21 0 -38 16.5t-17 37.5q0 20 17 36.5t38 16.5q20 0 37 -16.5t17 -36.5zM452 800q0 -21 -17 -37.5t-37 -16.5q-22 0 -38.5 16.5t-16.5 37.5q0 20 16.5 36.5t37.5 16.5t38 -16t17 -37zM357 452l-47 147h-5l-45 -142l-68 -214h232z M524 0q-9 0 -14.5 2t-9.5 13l-50 147h-282l-50 -147q-5 -15 -21 -15h-68q-10 0 -12 4.5t-2 7.5t1 7l226 643q8 24 18 31.5t33 8.5h30q27 0 36.5 -9t17.5 -31l225 -643q2 -4 2 -7t-2 -7.5t-12 -4.5h-66z"/>
<glyph glyph-name="Aring" horiz-adv-x="618" unicode="Å" d="M362 815q0 23 -14.5 37.5t-37.5 14.5t-38 -14.5t-15 -37.5t15 -37.5t38 -14.5t37.5 14.5t14.5 37.5zM407 815q0 -41 -28 -67t-69 -26q-42 0 -70 25.5t-28 67.5q0 40 28 66.5t70 26.5q41 0 69 -26t28 -67zM357 452l-47 147h-5l-45 -142l-68 -214h232zM524 0q-9 0 -14.5 2 t-9.5 13l-50 147h-282l-50 -147q-5 -15 -21 -15h-68q-10 0 -12 4.5t-2 7.5t1 7l226 643q8 24 18 31.5t33 8.5h30q27 0 36.5 -9t17.5 -31l225 -643q2 -4 2 -7t-2 -7.5t-12 -4.5h-66z"/>
<glyph glyph-name="AE" horiz-adv-x="853" unicode="Æ" d="M189 237h184v289q0 27 4 55.5t12 40.5q-25 0 -41.5 -4.5t-28 -12t-17.5 -18t-10 -21.5l-36 -110zM791 701q10 0 12.5 -4.5t2.5 -12.5v-50q0 -9 -2.5 -12.5t-12.5 -3.5h-245q-45 0 -64 -19.5t-19 -61.5v-126h298q10 0 12.5 -4t2.5 -13v-46q0 -8 -2.5 -12.5t-12.5 -4.5 h-298v-168q0 -35 18.5 -57.5t64.5 -22.5h253q10 0 12.5 -4t2.5 -12v-52q0 -8 -2.5 -11.5t-12.5 -3.5h-261q-44 0 -75 11.5t-51 32.5t-29.5 51t-10.5 68h-207l-49 -150q-4 -13 -19 -13h-71q-10 0 -10 8q0 3 1 6l199 579q7 20 18 39.5t30.5 34.5t48.5 24.5t72 9.5h406z"/>
<glyph glyph-name="Ccedilla" horiz-adv-x="598" unicode="Ç" d="M346 -55q28 -2 46.5 -9t30 -17.5t16.5 -24t5 -26.5q0 -14 -6 -28.5t-18.5 -26t-32.5 -19t-47 -7.5q-25 0 -49 5t-38 12q-11 5 -6 16l7 20q4 8 7 8t9 -2q15 -6 30.5 -8.5t29.5 -2.5q52 0 52 34q0 19 -17.5 27t-40.5 8h-17t-10 4q-6 3 -5.5 9.5t2.5 13.5l21 60 q-123 10 -191.5 95t-68.5 254q0 84 22 152.5t62 117t96.5 74.5t124.5 26q43 0 89 -7.5t97 -33.5q6 -3 8 -8t-3 -15l-23 -46q-3 -6 -6.5 -8.5t-11.5 1.5q-70 31 -146 31q-57 0 -97.5 -24t-67 -63.5t-38.5 -91t-12 -105.5q0 -55 10.5 -103t36 -84t68 -57t105.5 -21q44 0 84 10 t75 26q11 5 16 1t7 -9l19 -42q4 -9 4 -14q0 -2 -1 -4.5t-8 -7.5q-48 -27 -102 -36t-102 -10z"/>
<glyph glyph-name="Egrave" horiz-adv-x="579" unicode="È" d="M373 748q-4 -5 -8.5 -5t-12.5 4l-165 75q-10 4 -2 16l42 59q4 6 8 6l3 -1q4 -2 9 -6l141 -101q7 -5 7 -8.5t-4 -9.5zM541 21q0 -11 -3.5 -16t-15.5 -5h-278q-49 0 -81.5 14t-52 37t-27.5 54t-8 66v358q0 34 9 65.5t29.5 55t52.5 37.5t78 14h273q11 0 14.5 -5t3.5 -16v-42 q0 -11 -3.5 -15.5t-14.5 -4.5h-272q-42 0 -60.5 -18.5t-18.5 -57.5v-130h318q11 0 14.5 -5t3.5 -16v-38q0 -10 -3.5 -15t-14.5 -5h-318v-174q0 -34 18 -54.5t61 -20.5h277q12 0 15.5 -5t3.5 -16v-42z"/>
<glyph glyph-name="Eacute" horiz-adv-x="579" unicode="É" d="M264 777q-4 6 -3.5 9.5t7.5 8.5l140 101q5 4 8 5t4 1q5 0 9 -7l42 -57q8 -11 -2 -16l-169 -77q-9 -4 -12 -2t-7 7zM541 21q0 -11 -3.5 -16t-15.5 -5h-278q-49 0 -81.5 14t-52 37t-27.5 54t-8 66v358q0 34 9 65.5t29.5 55t52.5 37.5t78 14h273q11 0 14.5 -5t3.5 -16v-42 q0 -11 -3.5 -15.5t-14.5 -4.5h-272q-42 0 -60.5 -18.5t-18.5 -57.5v-130h318q11 0 14.5 -5t3.5 -16v-38q0 -10 -3.5 -15t-14.5 -5h-318v-174q0 -34 18 -54.5t61 -20.5h277q12 0 15.5 -5t3.5 -16v-42z"/>
<glyph glyph-name="Ecircumflex" horiz-adv-x="579" unicode="Ê" d="M473 745q-4 -5 -8.5 -3.5t-12.5 5.5l-129 65l-128 -67q-6 -3 -9.5 -2.5t-8.5 5.5l-16 18q-7 9 0 15l124 100q21 17 39 17q8 0 18 -2.5t24 -14.5l119 -100q10 -9 2 -19zM541 21q0 -11 -3.5 -16t-15.5 -5h-278q-49 0 -81.5 14t-52 37t-27.5 54t-8 66v358q0 34 9 65.5 t29.5 55t52.5 37.5t78 14h273q11 0 14.5 -5t3.5 -16v-42q0 -11 -3.5 -15.5t-14.5 -4.5h-272q-42 0 -60.5 -18.5t-18.5 -57.5v-130h318q11 0 14.5 -5t3.5 -16v-38q0 -10 -3.5 -15t-14.5 -5h-318v-174q0 -34 18 -54.5t61 -20.5h277q12 0 15.5 -5t3.5 -16v-42z"/>
<glyph glyph-name="Edieresis" horiz-adv-x="579" unicode="Ë" d="M290 799q0 -21 -17 -37.5t-37 -16.5q-21 0 -38 16.5t-17 37.5q0 20 17 36.5t38 16.5q20 0 37 -16.5t17 -36.5zM471 799q0 -21 -17 -37.5t-37 -16.5q-22 0 -38.5 16.5t-16.5 37.5q0 20 16.5 36.5t37.5 16.5t38 -16t17 -37zM541 21q0 -11 -3.5 -16t-15.5 -5h-278 q-49 0 -81.5 14t-52 37t-27.5 54t-8 66v358q0 34 9 65.5t29.5 55t52.5 37.5t78 14h273q11 0 14.5 -5t3.5 -16v-42q0 -11 -3.5 -15.5t-14.5 -4.5h-272q-42 0 -60.5 -18.5t-18.5 -57.5v-130h318q11 0 14.5 -5t3.5 -16v-38q0 -10 -3.5 -15t-14.5 -5h-318v-174q0 -34 18 -54.5 t61 -20.5h277q12 0 15.5 -5t3.5 -16v-42z"/>
<glyph glyph-name="Igrave" horiz-adv-x="268" unicode="Ì" d="M155 748q-4 -5 -8.5 -5t-12.5 4l-165 75q-6 2 -6 7q0 4 4 9l42 59q4 6 8 6l3 -1q4 -2 9 -6l141 -101q7 -5 7 -8.5t-4 -9.5zM88 683q0 11 4.5 14t14.5 3h54q11 0 15 -3t4 -14v-666q0 -11 -4 -14t-15 -3h-54q-10 0 -14.5 3t-4.5 14v666z"/>
<glyph glyph-name="Iacute" horiz-adv-x="268" unicode="Í" d="M108 777q-4 6 -3.5 9.5t7.5 8.5l140 101q5 4 8 5t4 1q5 0 9 -7l42 -57q4 -5 4 -9q0 -5 -6 -7l-169 -77q-9 -4 -12 -2t-7 7zM88 683q0 11 4.5 14t14.5 3h54q11 0 15 -3t4 -14v-666q0 -11 -4 -14t-15 -3h-54q-10 0 -14.5 3t-4.5 14v666z"/>
<glyph glyph-name="Icircumflex" horiz-adv-x="268" unicode="Î" d="M286 745q-4 -5 -8.5 -3.5t-12.5 5.5l-129 65l-128 -67q-6 -3 -9.5 -2.5t-8.5 5.5l-16 18q-4 4 -4 8t4 7l124 100q21 17 39 17q8 0 18 -2.5t24 -14.5l119 -100q6 -5 6 -10q0 -4 -4 -9zM88 683q0 11 4.5 14t14.5 3h54q11 0 15 -3t4 -14v-666q0 -11 -4 -14t-15 -3h-54 q-10 0 -14.5 3t-4.5 14v666z"/>
<glyph glyph-name="Idieresis" horiz-adv-x="268" unicode="Ï" d="M101 802q0 -21 -17 -37.5t-37 -16.5q-21 0 -38 16.5t-17 37.5q0 20 17 36.5t38 16.5q20 0 37 -16.5t17 -36.5zM282 802q0 -21 -17 -37.5t-37 -16.5q-22 0 -38.5 16.5t-16.5 37.5q0 20 16.5 36.5t37.5 16.5t38 -16t17 -37zM88 683q0 11 4.5 14t14.5 3h54q11 0 15 -3t4 -14 v-666q0 -11 -4 -14t-15 -3h-54q-10 0 -14.5 3t-4.5 14v666z"/>
<glyph glyph-name="Eth" horiz-adv-x="675" unicode="Ð" d="M525 353q0 55 -11 103t-37.5 84t-69.5 57t-107 21h-131v-224h163q9 0 11.5 -4t2.5 -12v-41q0 -9 -2.5 -13t-11.5 -4h-163v-236h135q63 0 105.5 20t68 56t36.5 85.5t11 107.5zM126 0q-27 0 -39 12t-12 38v270h-51q-10 0 -12.5 4t-2.5 13v41q0 8 2.5 12t12.5 4h51v256 q0 26 11 38.5t40 12.5l180 1q78 0 136.5 -24t98 -69.5t59.5 -110t20 -143.5t-18.5 -144t-56 -112t-94.5 -73t-135 -26h-190z"/>
<glyph glyph-name="Ntilde" horiz-adv-x="691" unicode="Ñ" d="M430 762q-18 0 -34.5 5.5t-32.5 12t-31.5 12t-31.5 5.5q-14 0 -25.5 -8t-19.5 -20q-3 -5 -7 -7t-12 2l-34 15q-8 3 -10.5 6t1.5 10q17 30 43 50t62 20q17 0 33.5 -5.5t32 -12t29.5 -12t28 -5.5q16 0 28 8t18 21q4 8 5.5 8.5t3.5 0.5q3 0 8 -1l38 -15q8 -2 11 -5t0 -10 q-17 -36 -41 -55.5t-62 -19.5zM526 684q0 11 4.5 14t14.5 3h52q10 0 14.5 -3t4.5 -14v-634q0 -25 -10 -37.5t-39 -12.5h-26q-23 0 -32.5 9t-23.5 31l-238 394l-79 136h-3v-553q0 -11 -4 -14t-15 -3h-52q-9 0 -14 3t-5 14v634q0 25 10.5 37.5t38.5 12.5h26q22 0 31.5 -9 t23.5 -31l233 -385l85 -145h3v553z"/>
<glyph glyph-name="Ograve" horiz-adv-x="705" unicode="Ò" d="M399 748q-4 -5 -8.5 -5t-12.5 4l-165 75q-10 4 -2 16l42 59q4 6 8 6l3 -1q4 -2 9 -6l141 -101q7 -5 7 -8.5t-4 -9.5zM556 349q0 55 -8.5 105.5t-31 89.5t-61.5 62t-100 23q-54 0 -93 -22t-64.5 -60t-38 -88t-12.5 -106q0 -62 10 -113.5t33.5 -89t62.5 -58.5t98 -21 q58 0 97.5 23t63.5 62t34 89t10 104zM650 353q0 -176 -75.5 -270t-224.5 -94q-148 0 -221.5 93t-73.5 267q0 87 22.5 154.5t62 113.5t94 70t118.5 24q73 0 129 -24.5t93.5 -71t56.5 -112.5t19 -150z"/>
<glyph glyph-name="Oacute" horiz-adv-x="705" unicode="Ó" d="M306 777q-4 6 -3.5 9.5t7.5 8.5l140 101q5 4 8 5t4 1q5 0 9 -7l42 -57q8 -11 -2 -16l-169 -77q-9 -4 -12 -2t-7 7zM556 349q0 55 -8.5 105.5t-31 89.5t-61.5 62t-100 23q-54 0 -93 -22t-64.5 -60t-38 -88t-12.5 -106q0 -62 10 -113.5t33.5 -89t62.5 -58.5t98 -21 q58 0 97.5 23t63.5 62t34 89t10 104zM650 353q0 -176 -75.5 -270t-224.5 -94q-148 0 -221.5 93t-73.5 267q0 87 22.5 154.5t62 113.5t94 70t118.5 24q73 0 129 -24.5t93.5 -71t56.5 -112.5t19 -150z"/>
<glyph glyph-name="Ocircumflex" horiz-adv-x="705" unicode="Ô" d="M502 745q-4 -5 -8.5 -3.5t-12.5 5.5l-129 65l-128 -67q-6 -3 -9.5 -2.5t-8.5 5.5l-16 18q-7 9 0 15l124 100q21 17 39 17q8 0 18 -2.5t24 -14.5l119 -100q10 -9 2 -19zM556 349q0 55 -8.5 105.5t-31 89.5t-61.5 62t-100 23q-54 0 -93 -22t-64.5 -60t-38 -88t-12.5 -106 q0 -62 10 -113.5t33.5 -89t62.5 -58.5t98 -21q58 0 97.5 23t63.5 62t34 89t10 104zM650 353q0 -176 -75.5 -270t-224.5 -94q-148 0 -221.5 93t-73.5 267q0 87 22.5 154.5t62 113.5t94 70t118.5 24q73 0 129 -24.5t93.5 -71t56.5 -112.5t19 -150z"/>
<glyph glyph-name="Otilde" horiz-adv-x="705" unicode="Õ" d="M423 765q-18 0 -34.5 5.5t-32.5 12t-31.5 12t-31.5 5.5q-14 0 -25.5 -8t-19.5 -20q-3 -5 -7 -7t-12 2l-34 15q-8 3 -10.5 6t1.5 10q17 30 43 50t62 20q17 0 33.5 -5.5t32 -12t29.5 -12t28 -5.5q16 0 28 8t18 21q4 8 5.5 8.5t3.5 0.5q3 0 8 -1l38 -15q8 -2 11 -5t0 -10 q-17 -36 -41 -55.5t-62 -19.5zM556 349q0 55 -8.5 105.5t-31 89.5t-61.5 62t-100 23q-54 0 -93 -22t-64.5 -60t-38 -88t-12.5 -106q0 -62 10 -113.5t33.5 -89t62.5 -58.5t98 -21q58 0 97.5 23t63.5 62t34 89t10 104zM650 353q0 -176 -75.5 -270t-224.5 -94q-148 0 -221.5 93 t-73.5 267q0 87 22.5 154.5t62 113.5t94 70t118.5 24q73 0 129 -24.5t93.5 -71t56.5 -112.5t19 -150z"/>
<glyph glyph-name="Odieresis" horiz-adv-x="705" unicode="Ö" d="M319 806q0 -21 -17 -37.5t-37 -16.5q-21 0 -38 16.5t-17 37.5q0 20 17 36.5t38 16.5q20 0 37 -16.5t17 -36.5zM500 806q0 -21 -17 -37.5t-37 -16.5q-22 0 -38.5 16.5t-16.5 37.5q0 20 16.5 36.5t37.5 16.5t38 -16t17 -37zM556 349q0 55 -8.5 105.5t-31 89.5t-61.5 62 t-100 23q-54 0 -93 -22t-64.5 -60t-38 -88t-12.5 -106q0 -62 10 -113.5t33.5 -89t62.5 -58.5t98 -21q58 0 97.5 23t63.5 62t34 89t10 104zM650 353q0 -176 -75.5 -270t-224.5 -94q-148 0 -221.5 93t-73.5 267q0 87 22.5 154.5t62 113.5t94 70t118.5 24q73 0 129 -24.5 t93.5 -71t56.5 -112.5t19 -150z"/>
<glyph glyph-name="multiply" d="M74 505q-7 7 -6 11t7 10l37 38q6 4 10 6t12 -5l160 -161l163 163q6 6 11 6h1q5 -1 10 -7l39 -39q7 -7 7 -11t-6 -10l-164 -163l161 -160q8 -7 6 -12t-8 -10l-36 -37q-6 -6 -10 -7t-12 6l-160 160l-164 -163q-6 -7 -10 -7h-1q-4 1 -10 7l-40 39q-6 7 -6 12q0 4 6 10 l163 164z" unicode="×"/>
<glyph glyph-name="Oslash" horiz-adv-x="705" unicode="Ø" d="M147 353q0 -56 8 -103t28 -83l308 409q-23 25 -56.5 39t-79.5 14q-54 0 -93 -22t-64.5 -60t-38 -88t-12.5 -106zM556 349q0 52 -7.5 100.5t-27.5 86.5l-311 -410q24 -26 59.5 -40.5t84.5 -14.5q59 0 98 23t62 62t32.5 89t9.5 104zM650 353q0 -176 -75.5 -270t-224.5 -94 q-123 0 -194 65l-42 -55q-5 -7 -9 -6.5t-9 4.5l-19 12q-9 6 -1 18l47 63q-68 91 -68 259q0 87 22.5 154.5t62 113.5t94 70t118.5 24q118 0 192 -65l49 65q5 7 10 7q4 0 9 -5l18 -13q5 -5 5.5 -8t-4.5 -10l-54 -70q37 -47 55 -112t18 -147z"/>
<glyph glyph-name="Ugrave" horiz-adv-x="680" unicode="Ù" d="M396 748q-4 -5 -8.5 -5t-12.5 4l-165 75q-10 4 -2 16l42 59q4 6 8 6l4 -1q3 -2 8 -6l141 -101q7 -5 7 -8.5t-4 -9.5zM74 683q0 11 4.5 14t12.5 3h60q9 0 13 -3t4 -14v-376q0 -61 7.5 -105.5t30.5 -74t65 -43.5t111 -14q17 0 53 2t80 10v601q0 11 4 14t13 3h59 q9 0 11.5 -3t2.5 -14v-595q0 -35 -15.5 -57.5t-58.5 -30.5q-38 -7 -79.5 -9.5t-73.5 -2.5q-83 0 -141 15.5t-94 52t-52 97t-16 150.5z"/>
<glyph glyph-name="Uacute" horiz-adv-x="680" unicode="Ú" d="M283 777q-4 6 -3.5 9.5t7.5 8.5l140 101q5 4 8 5t4 1q5 0 9 -7l42 -57q8 -11 -2 -16l-169 -77q-9 -4 -12 -2t-7 7zM74 683q0 11 4.5 14t12.5 3h60q9 0 13 -3t4 -14v-376q0 -61 7.5 -105.5t30.5 -74t65 -43.5t111 -14q17 0 53 2t80 10v601q0 11 4 14t13 3h59q9 0 11.5 -3 t2.5 -14v-595q0 -35 -15.5 -57.5t-58.5 -30.5q-38 -7 -79.5 -9.5t-73.5 -2.5q-83 0 -141 15.5t-94 52t-52 97t-16 150.5z"/>
<glyph glyph-name="Ucircumflex" horiz-adv-x="680" unicode="Û" d="M492 745q-4 -5 -8.5 -3.5t-12.5 5.5l-129 65l-128 -67q-6 -3 -9.5 -2.5t-8.5 5.5l-16 18q-7 9 0 15l124 100q21 17 39 17q8 0 18 -2.5t24 -14.5l119 -100q10 -9 2 -19zM74 683q0 11 4.5 14t12.5 3h60q9 0 13 -3t4 -14v-376q0 -61 7.5 -105.5t30.5 -74t65 -43.5t111 -14 q17 0 53 2t80 10v601q0 11 4 14t13 3h59q9 0 11.5 -3t2.5 -14v-595q0 -35 -15.5 -57.5t-58.5 -30.5q-38 -7 -79.5 -9.5t-73.5 -2.5q-83 0 -141 15.5t-94 52t-52 97t-16 150.5z"/>
<glyph glyph-name="Udieresis" horiz-adv-x="680" unicode="Ü" d="M306 794q0 -21 -17 -37.5t-37 -16.5q-21 0 -38 16.5t-17 37.5q0 20 17 36.5t38 16.5q20 0 37 -16.5t17 -36.5zM487 794q0 -21 -17 -37.5t-37 -16.5q-22 0 -38.5 16.5t-16.5 37.5q0 20 16.5 36.5t37.5 16.5t38 -16t17 -37zM74 683q0 11 4.5 14t12.5 3h60q9 0 13 -3t4 -14 v-376q0 -61 7.5 -105.5t30.5 -74t65 -43.5t111 -14q17 0 53 2t80 10v601q0 11 4 14t13 3h59q9 0 11.5 -3t2.5 -14v-595q0 -35 -15.5 -57.5t-58.5 -30.5q-38 -7 -79.5 -9.5t-73.5 -2.5q-83 0 -141 15.5t-94 52t-52 97t-16 150.5z"/>
<glyph glyph-name="Yacute" horiz-adv-x="564" unicode="Ý" d="M243 777q-4 6 -3.5 9.5t7.5 8.5l140 101q5 4 8 5t4 1q5 0 9 -7l42 -57q8 -11 -2 -16l-169 -77q-9 -4 -12 -2t-7 7zM329 280v-265q0 -10 -3.5 -12.5t-11.5 -2.5h-58q-8 0 -12 2.5t-4 12.5v265l-228 410q-1 2 -1 4t1 4.5t8 2.5h74q8 0 12 -2.5t8 -10.5l91 -172l78 -154h4 l82 160l88 166q6 13 20 13h69q6 0 7 -3t1 -5t-1 -3z"/>
<glyph glyph-name="Thorn" horiz-adv-x="605" unicode="Þ" d="M169 241h168q70 0 105 34t35 93q0 21 -6.5 43.5t-22.5 41.5t-43.5 31.5t-69.5 12.5h-166v-256zM75 685q0 10 3.5 12.5t11.5 2.5h61q9 0 12.5 -2.5t3.5 -12.5v-104h190q47 0 86.5 -15t68 -42.5t44.5 -65.5t16 -84q0 -27 -9 -63.5t-33 -70t-67 -57t-112 -23.5h-182 q0 -37 -0.5 -73t-0.5 -73q0 -14 -12 -14h-72q-1 0 -2 1l-1 1q-4 0 -5 3t-1 5v675z"/>
<glyph glyph-name="germandbls" horiz-adv-x="555" unicode="ß" d="M66 496q0 53 14 95t41 71t64.5 44t84.5 15q53 0 91 -15.5t62 -40.5t35 -56.5t11 -64.5q0 -16 -4 -36t-14 -39.5t-25.5 -36t-39.5 -26.5v-3q27 -7 49.5 -25t39 -43.5t26 -56.5t9.5 -63q0 -59 -20 -104t-54 -75t-78 -44t-91 -14h-7q-7 0 -9.5 1.5t-2.5 9.5v44q0 12 11 12 q35 0 65 10.5t51.5 31.5t34 51.5t12.5 70.5q0 27 -7.5 54t-24 48.5t-43.5 35t-67 13.5q-15 0 -23 6t-8 21v16q0 30 28 30t48.5 8.5t33 23.5t18.5 34t6 40q0 19 -6 38.5t-19.5 35.5t-35 26.5t-52.5 10.5q-34 0 -56.5 -13t-36 -33.5t-19 -45.5t-5.5 -48v-495q0 -10 -3.5 -12.5 t-11.5 -2.5h-55q-8 0 -12 2.5t-4 12.5z"/>
<glyph glyph-name="agrave" horiz-adv-x="538" unicode="à" d="M288 584q-6 -2 -10.5 -1t-9.5 9l-106 150q-4 5 -3 9.5t9 6.5l70 18h2q12 0 17 -10l65 -154q5 -9 3.5 -12t-8.5 -5zM384 258h-116q-18 0 -41.5 -2.5t-44.5 -13t-35.5 -31t-14.5 -56.5q0 -27 10 -45.5t27 -29t40 -15t50 -4.5q9 0 23.5 0.5t32 3t35.5 6t34 9.5v178zM473 49 q0 -20 -15 -26q-45 -20 -97.5 -27t-100.5 -7q-65 0 -106.5 13.5t-65.5 36.5t-33.5 53t-9.5 63q0 34 11.5 66.5t37.5 57t67.5 39.5t101.5 15h122v22q0 24 -4.5 43t-17.5 33t-36.5 21.5t-60.5 7.5q-35 0 -74.5 -6t-64.5 -14q-8 -3 -13 -2t-7 9l-12 43q-2 5 -0.5 9.5t9.5 7.5 q38 16 87 22.5t90 6.5q100 0 146 -44.5t46 -129.5v-313z"/>
<glyph glyph-name="aacute" horiz-adv-x="538" unicode="á" d="M233 595q-7 2 -8.5 5t3.5 12l66 154q2 5 5.5 7.5t9.5 2.5h4l69 -18q8 -2 9 -6.5t-3 -9.5l-106 -150q-5 -8 -9 -9t-12 1zM384 258h-116q-18 0 -41.5 -2.5t-44.5 -13t-35.5 -31t-14.5 -56.5q0 -27 10 -45.5t27 -29t40 -15t50 -4.5q9 0 23.5 0.5t32 3t35.5 6t34 9.5v178z M473 49q0 -20 -15 -26q-45 -20 -97.5 -27t-100.5 -7q-65 0 -106.5 13.5t-65.5 36.5t-33.5 53t-9.5 63q0 34 11.5 66.5t37.5 57t67.5 39.5t101.5 15h122v22q0 24 -4.5 43t-17.5 33t-36.5 21.5t-60.5 7.5q-35 0 -74.5 -6t-64.5 -14q-8 -3 -13 -2t-7 9l-12 43q-2 5 -0.5 9.5 t9.5 7.5q38 16 87 22.5t90 6.5q100 0 146 -44.5t46 -129.5v-313z"/>
<glyph glyph-name="acircumflex" horiz-adv-x="538" unicode="â" d="M432 580q-9 -6 -20 2l-129 94l-128 -96q-11 -8 -20 2l-18 19q-8 6 -1 14l129 130q19 18 38 18q13 0 22 -3.5t20 -14.5l123 -128q7 -8 6.5 -12.5t-5.5 -9.5zM384 258h-116q-18 0 -41.5 -2.5t-44.5 -13t-35.5 -31t-14.5 -56.5q0 -27 10 -45.5t27 -29t40 -15t50 -4.5 q9 0 23.5 0.5t32 3t35.5 6t34 9.5v178zM473 49q0 -20 -15 -26q-45 -20 -97.5 -27t-100.5 -7q-65 0 -106.5 13.5t-65.5 36.5t-33.5 53t-9.5 63q0 34 11.5 66.5t37.5 57t67.5 39.5t101.5 15h122v22q0 24 -4.5 43t-17.5 33t-36.5 21.5t-60.5 7.5q-35 0 -74.5 -6t-64.5 -14 q-8 -3 -13 -2t-7 9l-12 43q-2 5 -0.5 9.5t9.5 7.5q38 16 87 22.5t90 6.5q100 0 146 -44.5t46 -129.5v-313z"/>
<glyph glyph-name="atilde" horiz-adv-x="538" unicode="ã" d="M346 622q-18 0 -34.5 5.5t-32.5 12t-31.5 12t-31.5 5.5q-14 0 -25.5 -8t-19.5 -20q-3 -5 -7 -7t-12 2l-34 15q-8 3 -10.5 6t1.5 10q17 30 43 50t62 20q17 0 33.5 -5.5t32 -12t29.5 -12t28 -5.5q16 0 28 8t18 21q4 8 5.5 8.5t3.5 0.5q3 0 8 -1l38 -15q8 -2 11 -5t0 -10 q-17 -36 -41 -55.5t-62 -19.5zM384 258h-116q-18 0 -41.5 -2.5t-44.5 -13t-35.5 -31t-14.5 -56.5q0 -27 10 -45.5t27 -29t40 -15t50 -4.5q9 0 23.5 0.5t32 3t35.5 6t34 9.5v178zM473 49q0 -20 -15 -26q-45 -20 -97.5 -27t-100.5 -7q-65 0 -106.5 13.5t-65.5 36.5t-33.5 53 t-9.5 63q0 34 11.5 66.5t37.5 57t67.5 39.5t101.5 15h122v22q0 24 -4.5 43t-17.5 33t-36.5 21.5t-60.5 7.5q-35 0 -74.5 -6t-64.5 -14q-8 -3 -13 -2t-7 9l-12 43q-2 5 -0.5 9.5t9.5 7.5q38 16 87 22.5t90 6.5q100 0 146 -44.5t46 -129.5v-313z"/>
<glyph glyph-name="adieresis" horiz-adv-x="538" unicode="ä" d="M248 671q0 -21 -17 -37.5t-37 -16.5q-21 0 -38 16.5t-17 37.5q0 20 17 36.5t38 16.5q20 0 37 -16.5t17 -36.5zM429 671q0 -21 -17 -37.5t-37 -16.5q-22 0 -38.5 16.5t-16.5 37.5q0 20 16.5 36.5t37.5 16.5t38 -16t17 -37zM384 258h-116q-18 0 -41.5 -2.5t-44.5 -13 t-35.5 -31t-14.5 -56.5q0 -27 10 -45.5t27 -29t40 -15t50 -4.5q9 0 23.5 0.5t32 3t35.5 6t34 9.5v178zM473 49q0 -20 -15 -26q-45 -20 -97.5 -27t-100.5 -7q-65 0 -106.5 13.5t-65.5 36.5t-33.5 53t-9.5 63q0 34 11.5 66.5t37.5 57t67.5 39.5t101.5 15h122v22q0 24 -4.5 43 t-17.5 33t-36.5 21.5t-60.5 7.5q-35 0 -74.5 -6t-64.5 -14q-8 -3 -13 -2t-7 9l-12 43q-2 5 -0.5 9.5t9.5 7.5q38 16 87 22.5t90 6.5q100 0 146 -44.5t46 -129.5v-313z"/>
<glyph glyph-name="aring" horiz-adv-x="538" unicode="å" d="M342 678q0 23 -14.5 37.5t-37.5 14.5t-38 -14.5t-15 -37.5t15 -37.5t38 -14.5t37.5 14.5t14.5 37.5zM387 678q0 -41 -28 -67t-69 -26q-42 0 -70 25.5t-28 67.5q0 40 28 66.5t70 26.5q41 0 69 -26t28 -67zM384 258h-116q-18 0 -41.5 -2.5t-44.5 -13t-35.5 -31t-14.5 -56.5 q0 -27 10 -45.5t27 -29t40 -15t50 -4.5q9 0 23.5 0.5t32 3t35.5 6t34 9.5v178zM473 49q0 -20 -15 -26q-45 -20 -97.5 -27t-100.5 -7q-65 0 -106.5 13.5t-65.5 36.5t-33.5 53t-9.5 63q0 34 11.5 66.5t37.5 57t67.5 39.5t101.5 15h122v22q0 24 -4.5 43t-17.5 33t-36.5 21.5 t-60.5 7.5q-35 0 -74.5 -6t-64.5 -14q-8 -3 -13 -2t-7 9l-12 43q-2 5 -0.5 9.5t9.5 7.5q38 16 87 22.5t90 6.5q100 0 146 -44.5t46 -129.5v-313z"/>
<glyph glyph-name="ae" horiz-adv-x="863" unicode="æ" d="M737 316q0 26 -6 52.5t-21 47.5t-41.5 34t-67.5 13q-63 0 -99.5 -41.5t-41.5 -105.5h277zM403 96q-17 29 -25 64.5t-9 85.5h-114q-20 0 -41.5 -4t-39.5 -15t-30 -30.5t-12 -51.5q0 -42 27.5 -64.5t81.5 -22.5q9 0 28 1.5t42 5.5t47 11.5t45 19.5zM603 536 q54 0 93.5 -15.5t66.5 -43t40.5 -66.5t15.5 -86v-7q0 -19 -5.5 -33t-16 -23t-24.5 -12.5t-29 -3.5h-287q1 -56 13.5 -91t34 -55t50 -27.5t61.5 -7.5t65 8.5t53 19.5q12 7 19 -5l21 -42q7 -15 -5 -20q-37 -22 -78.5 -29.5t-81.5 -7.5q-47 0 -86.5 14t-69.5 37 q-48 -28 -107.5 -39.5t-107.5 -11.5q-65 0 -103 14.5t-58 37.5t-26 51t-6 54q0 30 9.5 60.5t32.5 55t61.5 39.5t96.5 15h128q4 22 4 41q0 46 -27 74.5t-95 28.5q-35 0 -73 -6t-64 -14q-8 -3 -12.5 -2t-6.5 9l-12 43q-3 12 8 17q38 16 86 22.5t88 6.5q66 0 106 -20t59 -60 q31 39 74.5 59.5t94.5 20.5z"/>
<glyph glyph-name="ccedilla" horiz-adv-x="478" unicode="ç" d="M278 -55q28 -2 46.5 -9t30 -17.5t16.5 -24t5 -26.5q0 -14 -6 -28.5t-18.5 -26t-32.5 -19t-47 -7.5q-25 0 -49 5t-38 12q-11 5 -6 16l7 20q4 8 7 8t9 -2q15 -6 30.5 -8.5t29.5 -2.5q52 0 52 34q0 19 -17.5 27t-40.5 8h-17t-10 4q-6 3 -5.5 9.5t2.5 13.5l21 59 q-99 8 -150.5 75t-51.5 192q0 64 16.5 115.5t47 88t74.5 56t99 19.5q40 0 76.5 -8t70.5 -27q14 -8 6 -21l-21 -41q-3 -6 -6.5 -8.5t-12.5 2.5q-24 11 -52 18t-60 7q-40 0 -68.5 -16.5t-47 -44.5t-27 -64t-8.5 -76t7 -75t24.5 -61.5t46.5 -41.5t74 -15q34 0 66.5 9t54.5 20 q9 5 13 2.5t7 -7.5l20 -42q3 -5 3 -9q0 -7 -8 -12q-34 -19 -72 -26t-75 -9z"/>
<glyph glyph-name="egrave" horiz-adv-x="538" unicode="è" d="M290 584q-6 -2 -10.5 -1t-9.5 9l-106 150q-4 5 -3 9.5t9 6.5l70 18h2q12 0 17 -10l65 -154q5 -9 3.5 -12t-8.5 -5zM413 307q0 31 -6 59.5t-21.5 50t-42 34t-66.5 12.5q-33 0 -58.5 -13t-43 -34.5t-27.5 -49.5t-12 -59h277zM276 536q57 0 98.5 -16t68 -45.5t39.5 -70 t13 -89.5q0 -24 -6 -39t-16.5 -23.5t-24 -12t-28.5 -3.5h-287q0 -47 13 -80t34.5 -53.5t50 -29.5t61.5 -9t65 8.5t53 19.5q12 7 19 -5l21 -42q7 -14 -6 -20q-36 -22 -77.5 -29.5t-81.5 -7.5q-56 0 -100.5 16t-75.5 49t-47.5 84t-16.5 122q0 66 17.5 117.5t48.5 86.5t73 53.5 t92 18.5z"/>
<glyph glyph-name="eacute" horiz-adv-x="538" unicode="é" d="M234 595q-7 2 -8.5 5t3.5 12l66 154q2 5 5.5 7.5t9.5 2.5h4l69 -18q8 -2 9 -6.5t-3 -9.5l-106 -150q-5 -8 -9 -9t-12 1zM413 307q0 31 -6 59.5t-21.5 50t-42 34t-66.5 12.5q-33 0 -58.5 -13t-43 -34.5t-27.5 -49.5t-12 -59h277zM276 536q57 0 98.5 -16t68 -45.5t39.5 -70 t13 -89.5q0 -24 -6 -39t-16.5 -23.5t-24 -12t-28.5 -3.5h-287q0 -47 13 -80t34.5 -53.5t50 -29.5t61.5 -9t65 8.5t53 19.5q12 7 19 -5l21 -42q7 -14 -6 -20q-36 -22 -77.5 -29.5t-81.5 -7.5q-56 0 -100.5 16t-75.5 49t-47.5 84t-16.5 122q0 66 17.5 117.5t48.5 86.5t73 53.5 t92 18.5z"/>
<glyph glyph-name="ecircumflex" horiz-adv-x="538" unicode="ê" d="M428 580q-9 -6 -20 2l-129 94l-128 -96q-11 -8 -20 2l-18 19q-8 6 -1 14l129 130q19 18 38 18q13 0 22 -3.5t20 -14.5l123 -128q7 -8 6.5 -12.5t-5.5 -9.5zM413 307q0 31 -6 59.5t-21.5 50t-42 34t-66.5 12.5q-33 0 -58.5 -13t-43 -34.5t-27.5 -49.5t-12 -59h277z M276 536q57 0 98.5 -16t68 -45.5t39.5 -70t13 -89.5q0 -24 -6 -39t-16.5 -23.5t-24 -12t-28.5 -3.5h-287q0 -47 13 -80t34.5 -53.5t50 -29.5t61.5 -9t65 8.5t53 19.5q12 7 19 -5l21 -42q7 -14 -6 -20q-36 -22 -77.5 -29.5t-81.5 -7.5q-56 0 -100.5 16t-75.5 49t-47.5 84 t-16.5 122q0 66 17.5 117.5t48.5 86.5t73 53.5t92 18.5z"/>
<glyph glyph-name="edieresis" horiz-adv-x="538" unicode="ë" d="M244 670q0 -21 -17 -37.5t-37 -16.5q-21 0 -38 16.5t-17 37.5q0 20 17 36.5t38 16.5q20 0 37 -16.5t17 -36.5zM425 670q0 -21 -17 -37.5t-37 -16.5q-22 0 -38.5 16.5t-16.5 37.5q0 20 16.5 36.5t37.5 16.5t38 -16t17 -37zM413 307q0 31 -6 59.5t-21.5 50t-42 34 t-66.5 12.5q-33 0 -58.5 -13t-43 -34.5t-27.5 -49.5t-12 -59h277zM276 536q57 0 98.5 -16t68 -45.5t39.5 -70t13 -89.5q0 -24 -6 -39t-16.5 -23.5t-24 -12t-28.5 -3.5h-287q0 -47 13 -80t34.5 -53.5t50 -29.5t61.5 -9t65 8.5t53 19.5q12 7 19 -5l21 -42q7 -14 -6 -20 q-36 -22 -77.5 -29.5t-81.5 -7.5q-56 0 -100.5 16t-75.5 49t-47.5 84t-16.5 122q0 66 17.5 117.5t48.5 86.5t73 53.5t92 18.5z"/>
<glyph glyph-name="igrave" horiz-adv-x="267" unicode="ì" d="M140 584q-6 -2 -10.5 -1t-9.5 9l-106 150q-3 4 -3 8q0 6 9 8l70 18h2q12 0 17 -10l65 -154q4 -7 4 -10q0 -4 -9 -7zM177 15q0 -10 -4 -12.5t-12 -2.5h-55q-8 0 -12 2.5t-4 12.5v495q0 10 4 12.5t12 2.5h55q8 0 12 -2.5t4 -12.5v-495z"/>
<glyph glyph-name="iacute" horiz-adv-x="267" unicode="í" d="M108 595q-7 2 -8.5 5t3.5 12l66 154q2 5 5.5 7.5t9.5 2.5h4l69 -18q9 -2 9 -8q0 -4 -3 -8l-106 -150q-5 -8 -9 -9t-12 1zM177 15q0 -10 -4 -12.5t-12 -2.5h-55q-8 0 -12 2.5t-4 12.5v495q0 10 4 12.5t12 2.5h55q8 0 12 -2.5t4 -12.5v-495z"/>
<glyph glyph-name="icircumflex" horiz-adv-x="267" unicode="î" d="M285 579q-9 -6 -20 2l-129 94l-128 -96q-11 -8 -20 2l-18 19q-4 3 -4 7q0 3 3 7l129 130q19 18 38 18q13 0 22 -3.5t20 -14.5l123 -128q7 -7 7 -12t-6 -10zM177 15q0 -10 -4 -12.5t-12 -2.5h-55q-8 0 -12 2.5t-4 12.5v495q0 10 4 12.5t12 2.5h55q8 0 12 -2.5t4 -12.5 v-495z"/>
<glyph glyph-name="idieresis" horiz-adv-x="267" unicode="ï" d="M99 670q0 -21 -17 -37.5t-37 -16.5q-21 0 -38 16.5t-17 37.5q0 20 17 36.5t38 16.5q20 0 37 -16.5t17 -36.5zM280 670q0 -21 -17 -37.5t-37 -16.5q-22 0 -38.5 16.5t-16.5 37.5q0 20 16.5 36.5t37.5 16.5t38 -16t17 -37zM177 15q0 -10 -4 -12.5t-12 -2.5h-55 q-8 0 -12 2.5t-4 12.5v495q0 10 4 12.5t12 2.5h55q8 0 12 -2.5t4 -12.5v-495z"/>
<glyph glyph-name="eth" horiz-adv-x="548" unicode="ð" d="M280 405q-42 0 -70.5 -15.5t-46 -40t-24.5 -54.5t-7 -59q0 -27 4 -57.5t18.5 -56.5t41.5 -43t73 -17t75 18t46 47t23.5 65t6.5 72q0 30 -2.5 57t-7.5 45q-37 24 -71.5 31.5t-58.5 7.5zM394 455q-13 38 -34.5 74t-49.5 64l-61 -54q-7 -6 -11.5 -4.5t-9.5 7.5l-12 12 q-5 5 -6.5 10t5.5 11l59 51q-20 17 -42.5 32t-46.5 29q-11 6 -9 11.5t4 9.5l14 22q7 13 14 13q1 0 5 -0.5t9 -2.5q57 -28 106 -66l68 57q6 7 10.5 5.5t10.5 -8.5l10 -12q6 -7 7.5 -10.5t-5.5 -9.5l-65 -56q69 -68 104 -159.5t35 -192.5q0 -45 -8.5 -97t-34 -96.5t-71 -73.5 t-120.5 -29q-68 0 -111.5 21.5t-68.5 56t-34.5 77.5t-9.5 85t12.5 85.5t40 79t70.5 57.5t103 22q29 0 59.5 -6t59.5 -18z"/>
<glyph glyph-name="ntilde" horiz-adv-x="562" unicode="ñ" d="M325 622q-18 0 -34.5 5.5t-32.5 12t-31.5 12t-31.5 5.5q-14 0 -25.5 -8t-19.5 -20q-3 -5 -7 -7t-12 2l-34 15q-8 3 -10.5 6t1.5 10q17 30 43 50t62 20q17 0 33.5 -5.5t32 -12t29.5 -12t28 -5.5q16 0 28 8t18 21q4 8 5.5 8.5t3.5 0.5q3 0 8 -1l38 -15q8 -2 11 -5t0 -10 q-17 -36 -41 -55.5t-62 -19.5zM497 15q0 -10 -3.5 -12.5t-12.5 -2.5h-55q-8 0 -12 2.5t-4 12.5v265q0 45 -7.5 78.5t-26 56t-50 33.5t-79.5 11q-11 0 -37 -1.5t-58 -6.5v-436q0 -10 -4 -12.5t-12 -2.5h-55q-8 0 -12 2.5t-4 12.5v436q0 34 13.5 52.5t49.5 23.5q11 2 27.5 3.5 t34.5 3t35 2t29 0.5q64 0 110 -14t75.5 -44.5t43.5 -78.5t14 -116v-268z"/>
<glyph glyph-name="ograve" horiz-adv-x="557" unicode="ò" d="M294 584q-6 -2 -10.5 -1t-9.5 9l-106 150q-4 5 -3 9.5t9 6.5l70 18h2q12 0 17 -10l65 -154q5 -9 3.5 -12t-8.5 -5zM424 262q0 39 -6 75.5t-22 64t-44 44.5t-72 17q-38 0 -66 -16t-46 -43t-27 -63t-9 -76q0 -45 7 -82.5t24 -64t44.5 -41.5t69.5 -15t70.5 17t45.5 45t24 64 t7 74zM512 265q0 -134 -60.5 -205t-175.5 -71q-113 0 -172 69t-59 204q0 66 17.5 117t49 86t74.5 53t93 18q114 0 173.5 -72t59.5 -199z"/>
<glyph glyph-name="oacute" horiz-adv-x="557" unicode="ó" d="M242 595q-7 2 -8.5 5t3.5 12l66 154q2 5 5.5 7.5t9.5 2.5h4l69 -18q8 -2 9 -6.5t-3 -9.5l-106 -150q-5 -8 -9 -9t-12 1zM424 262q0 39 -6 75.5t-22 64t-44 44.5t-72 17q-38 0 -66 -16t-46 -43t-27 -63t-9 -76q0 -45 7 -82.5t24 -64t44.5 -41.5t69.5 -15t70.5 17t45.5 45 t24 64t7 74zM512 265q0 -134 -60.5 -205t-175.5 -71q-113 0 -172 69t-59 204q0 66 17.5 117t49 86t74.5 53t93 18q114 0 173.5 -72t59.5 -199z"/>
<glyph glyph-name="ocircumflex" horiz-adv-x="557" unicode="ô" d="M432 580q-9 -6 -20 2l-129 94l-128 -96q-11 -8 -20 2l-18 19q-8 6 -1 14l129 130q19 18 38 18q13 0 22 -3.5t20 -14.5l123 -128q7 -8 6.5 -12.5t-5.5 -9.5zM424 262q0 39 -6 75.5t-22 64t-44 44.5t-72 17q-38 0 -66 -16t-46 -43t-27 -63t-9 -76q0 -45 7 -82.5t24 -64 t44.5 -41.5t69.5 -15t70.5 17t45.5 45t24 64t7 74zM512 265q0 -134 -60.5 -205t-175.5 -71q-113 0 -172 69t-59 204q0 66 17.5 117t49 86t74.5 53t93 18q114 0 173.5 -72t59.5 -199z"/>
<glyph glyph-name="otilde" horiz-adv-x="557" unicode="õ" d="M349 621q-18 0 -34.5 5.5t-32.5 12t-31.5 12t-31.5 5.5q-14 0 -25.5 -8t-19.5 -20q-3 -5 -7 -7t-12 2l-34 15q-8 3 -10.5 6t1.5 10q17 30 43 50t62 20q17 0 33.5 -5.5t32 -12t29.5 -12t28 -5.5q16 0 28 8t18 21q4 8 5.5 8.5t3.5 0.5q3 0 8 -1l38 -15q8 -2 11 -5t0 -10 q-17 -36 -41 -55.5t-62 -19.5zM424 262q0 39 -6 75.5t-22 64t-44 44.5t-72 17q-38 0 -66 -16t-46 -43t-27 -63t-9 -76q0 -45 7 -82.5t24 -64t44.5 -41.5t69.5 -15t70.5 17t45.5 45t24 64t7 74zM512 265q0 -134 -60.5 -205t-175.5 -71q-113 0 -172 69t-59 204q0 66 17.5 117 t49 86t74.5 53t93 18q114 0 173.5 -72t59.5 -199z"/>
<glyph glyph-name="odieresis" horiz-adv-x="557" unicode="ö" d="M241 670q0 -21 -17 -37.5t-37 -16.5q-21 0 -38 16.5t-17 37.5q0 20 17 36.5t38 16.5q20 0 37 -16.5t17 -36.5zM422 670q0 -21 -17 -37.5t-37 -16.5q-22 0 -38.5 16.5t-16.5 37.5q0 20 16.5 36.5t37.5 16.5t38 -16t17 -37zM424 262q0 39 -6 75.5t-22 64t-44 44.5t-72 17 q-38 0 -66 -16t-46 -43t-27 -63t-9 -76q0 -45 7 -82.5t24 -64t44.5 -41.5t69.5 -15t70.5 17t45.5 45t24 64t7 74zM512 265q0 -134 -60.5 -205t-175.5 -71q-113 0 -172 69t-59 204q0 66 17.5 117t49 86t74.5 53t93 18q114 0 173.5 -72t59.5 -199z"/>
<glyph glyph-name="divide" d="M67 302q-10 0 -12.5 3.5t-2.5 12.5v52q0 8 2.5 12.5t12.5 4.5h456q9 0 11.5 -4.5t2.5 -12.5v-52q0 -9 -2.5 -12.5t-11.5 -3.5h-456zM368 153q0 -30 -20.5 -50t-50.5 -20t-50 20t-20 49q0 30 20 51t50 21q31 0 51 -20t20 -51zM368 527q0 -30 -20.5 -50.5t-50.5 -20.5 t-50 20t-20 51q0 29 20 49.5t50 20.5q31 0 51 -20t20 -50z" unicode="÷"/>
<glyph glyph-name="oslash" horiz-adv-x="557" unicode="ø" d="M132 265q0 -34 4 -64t14 -54l233 273q-17 20 -42 31.5t-61 11.5q-38 0 -66 -16t-46 -43t-27 -63t-9 -76zM424 262q0 32 -4 61.5t-14 55.5l-234 -274q35 -43 105 -43q42 0 70.5 17t45.5 45t24 64t7 74zM84 3q-8 -9 -15 -1l-17 15q-10 7 0 16l37 44q-44 66 -44 185 q0 66 17.5 117t49 86t74.5 53t93 18q97 0 157 -55l39 45q5 5 8 4.5t8 -3.5l17 -16q4 -2 4 -6t-4 -8l-43 -50q47 -70 47 -182q0 -134 -60.5 -205t-175.5 -71q-50 0 -89.5 13.5t-67.5 40.5z"/>
<glyph glyph-name="ugrave" horiz-adv-x="554" unicode="ù" d="M291 584q-6 -2 -10.5 -1t-9.5 9l-106 150q-4 5 -3 9.5t9 6.5l70 18h2q12 0 17 -10l65 -154q5 -9 3.5 -12t-8.5 -5zM65 511q0 10 4 12.5t12 2.5h55q8 0 12 -2.5t4 -12.5v-267q0 -45 6 -78.5t22.5 -55.5t47 -32.5t79.5 -10.5q11 0 36.5 1.5t58.5 6.5v436q0 10 3.5 12.5 t12.5 2.5h55q8 0 12 -2.5t4 -12.5v-437q0 -64 -63 -76q-14 -2 -31 -3.5t-34 -2.5t-33 -1.5t-28 -0.5q-65 0 -109.5 13.5t-72.5 43t-40.5 77t-12.5 115.5v272z"/>
<glyph glyph-name="uacute" horiz-adv-x="554" unicode="ú" d="M247 595q-7 2 -8.5 5t3.5 12l66 154q2 5 5.5 7.5t9.5 2.5h4l69 -18q8 -2 9 -6.5t-3 -9.5l-106 -150q-5 -8 -9 -9t-12 1zM65 511q0 10 4 12.5t12 2.5h55q8 0 12 -2.5t4 -12.5v-267q0 -45 6 -78.5t22.5 -55.5t47 -32.5t79.5 -10.5q11 0 36.5 1.5t58.5 6.5v436 q0 10 3.5 12.5t12.5 2.5h55q8 0 12 -2.5t4 -12.5v-437q0 -64 -63 -76q-14 -2 -31 -3.5t-34 -2.5t-33 -1.5t-28 -0.5q-65 0 -109.5 13.5t-72.5 43t-40.5 77t-12.5 115.5v272z"/>
<glyph glyph-name="ucircumflex" horiz-adv-x="554" unicode="û" d="M434 580q-9 -6 -20 2l-129 94l-128 -96q-11 -8 -20 2l-18 19q-8 6 -1 14l129 130q19 18 38 18q13 0 22 -3.5t20 -14.5l123 -128q7 -8 6.5 -12.5t-5.5 -9.5zM65 511q0 10 4 12.5t12 2.5h55q8 0 12 -2.5t4 -12.5v-267q0 -45 6 -78.5t22.5 -55.5t47 -32.5t79.5 -10.5 q11 0 36.5 1.5t58.5 6.5v436q0 10 3.5 12.5t12.5 2.5h55q8 0 12 -2.5t4 -12.5v-437q0 -64 -63 -76q-14 -2 -31 -3.5t-34 -2.5t-33 -1.5t-28 -0.5q-65 0 -109.5 13.5t-72.5 43t-40.5 77t-12.5 115.5v272z"/>
<glyph glyph-name="udieresis" horiz-adv-x="554" unicode="ü" d="M248 670q0 -21 -17 -37.5t-37 -16.5q-21 0 -38 16.5t-17 37.5q0 20 17 36.5t38 16.5q20 0 37 -16.5t17 -36.5zM429 670q0 -21 -17 -37.5t-37 -16.5q-22 0 -38.5 16.5t-16.5 37.5q0 20 16.5 36.5t37.5 16.5t38 -16t17 -37zM65 511q0 10 4 12.5t12 2.5h55q8 0 12 -2.5 t4 -12.5v-267q0 -45 6 -78.5t22.5 -55.5t47 -32.5t79.5 -10.5q11 0 36.5 1.5t58.5 6.5v436q0 10 3.5 12.5t12.5 2.5h55q8 0 12 -2.5t4 -12.5v-437q0 -64 -63 -76q-14 -2 -31 -3.5t-34 -2.5t-33 -1.5t-28 -0.5q-65 0 -109.5 13.5t-72.5 43t-40.5 77t-12.5 115.5v272z"/>
<glyph glyph-name="yacute" horiz-adv-x="490" unicode="ý" d="M225 595q-7 2 -8.5 5t3.5 12l66 154q2 5 5.5 7.5t9.5 2.5h4l69 -18q8 -2 9 -6.5t-3 -9.5l-106 -150q-5 -8 -9 -9t-12 1zM277 -86q-23 -69 -59 -96t-92 -27q-14 0 -35 2t-46 9q-16 4 -12 16l11 44q2 8 6 9.5t11 -0.5q19 -5 28.5 -6.5t22.5 -1.5q34 0 55 13.5t34 53.5 q1 3 5 14t8.5 23.5t8 23.5t4.5 14h-19q-14 0 -24.5 4.5t-18.5 30.5l-154 474q-1 2 -1 4q0 7 10 7h67q11 0 14 -10q2 -7 8.5 -27.5t15.5 -48t19 -59t19 -59t15.5 -48.5t8.5 -27l51 -176h6q3 8 12 36t18.5 59.5t18 57t9.5 27.5t6.5 18.5t14 41.5t18.5 54.5t19.5 58.5t18 53.5 t13.5 38.5q3 10 14 10h64q10 0 10 -7q0 -2 -1 -4z"/>
<glyph glyph-name="thorn" horiz-adv-x="559" unicode="þ" d="M423 263q0 55 -11 93t-31.5 61t-49 33.5t-64.5 10.5q-26 0 -58.5 -5t-55.5 -14v-40.5v-68v-80.5v-78.5t-0.5 -62t-0.5 -30.5q38 -11 65.5 -14.5t50.5 -3.5q34 0 62.5 10.5t49 34t32 61.5t11.5 93zM514 263q0 -57 -14.5 -106.5t-43 -87t-72.5 -59t-102 -21.5 q-28 0 -60.5 3t-69.5 14v-194q0 -9 -3.5 -11.5t-11.5 -2.5h-56q-8 0 -12 2.5t-4 11.5v905q0 9 4 11.5t12 2.5h56q8 0 12 -2.5t4 -11.5v-194q32 8 64.5 10.5t63.5 2.5q60 0 104 -20.5t72.5 -57t42.5 -86.5t14 -109z"/>
<glyph glyph-name="OE" horiz-adv-x="904" unicode="Œ" d="M425 530q0 23 3.5 44t11.5 40q-16 5 -33.5 8.5t-37.5 3.5q-52 0 -90 -21t-63 -57.5t-37 -87t-12 -110.5t10.5 -111t34 -88.5t62 -59t95.5 -21.5q40 0 72 12q-9 19 -12.5 41t-3.5 45v362zM874 16q0 -8 -2.5 -12t-11.5 -4h-269q-53 0 -89 19q-29 -14 -62.5 -22t-70.5 -8 q-84 0 -140.5 30t-90.5 80.5t-48.5 115.5t-14.5 135q0 82 20.5 148.5t59 114t92.5 73t122 25.5q75 0 132 -30q37 20 90 20h266q10 0 12.5 -4t2.5 -12v-51q0 -9 -2.5 -12.5t-12.5 -3.5h-259q-44 0 -63.5 -19.5t-19.5 -61.5v-125h308q9 0 11.5 -4t2.5 -13v-47q0 -8 -2.5 -12 t-11.5 -4h-308v-168q0 -35 19 -57.5t64 -22.5h262q9 0 11.5 -4t2.5 -13v-51z"/>
<glyph glyph-name="oe" horiz-adv-x="919" unicode="œ" d="M794 307q0 31 -6 59.5t-21 50t-41.5 34t-67.5 12.5q-33 0 -58 -13t-42.5 -34.5t-27.5 -49.5t-12 -59h276zM424 262q0 39 -6 75.5t-22 64t-44 44.5t-72 17q-38 0 -66 -16t-46 -43t-27 -63t-9 -76q0 -45 7 -82.5t24 -64t44.5 -41.5t69.5 -15t70.5 17t45.5 45t24 64t7 74z M658 536q57 0 98 -16t68 -45.5t40 -70t13 -89.5q0 -47 -22.5 -62.5t-53.5 -15.5h-286q0 -47 12.5 -80t34 -53.5t50 -29.5t60.5 -9q34 0 66 8.5t53 19.5q14 7 19 -5l21 -42q7 -15 -5 -20q-37 -22 -78.5 -29.5t-81.5 -7.5q-68 0 -118.5 24t-79.5 75q-58 -99 -192 -99 q-113 0 -172 69t-59 204q0 66 17.5 117t49 86t74.5 53t93 18q68 0 116.5 -26.5t77.5 -77.5q29 51 77 77.5t108 26.5z"/>
<glyph glyph-name="Scaron" horiz-adv-x="570" unicode="Š" d="M466 877q5 -5 5.5 -9.5t-7.5 -10.5l-123 -98q-13 -10 -23.5 -13t-18.5 -3t-17.5 4t-20.5 12l-129 100q-4 4 -2.5 6.5t3.5 6.5l16 23q4 6 7 6t9 -3l134 -70l131 69q8 4 11 4t7 -4zM542 187q0 -50 -19 -87t-52 -62t-78 -37t-97 -12q-29 0 -61 2.5t-65 8.5t-65.5 16 t-62.5 25q-7 4 -7 10q0 4 3 10l24 53q5 11 16 6q52 -23 107.5 -35.5t101.5 -12.5q76 0 118.5 28.5t42.5 82.5q0 26 -10.5 45.5t-31 36t-51.5 31t-72 29.5q-55 20 -96.5 40t-69 43.5t-41.5 52.5t-14 67q0 82 56.5 133t165.5 51q50 0 105.5 -9.5t103.5 -30.5q11 -5 7 -17 l-22 -56q-3 -7 -5.5 -8t-7.5 1q-51 20 -97.5 28.5t-86.5 8.5q-60 0 -93 -26.5t-33 -67.5q0 -25 11 -43t32.5 -33t54.5 -29t78 -32q42 -16 80 -33.5t67 -41.5t46.5 -57t17.5 -79z"/>
<glyph glyph-name="scaron" horiz-adv-x="464" unicode="š" d="M398 748q5 -5 5.5 -9.5t-6.5 -12.5l-123 -128q-11 -11 -20 -14.5t-22 -3.5q-19 0 -38 18l-129 130q-7 8 1 14l19 18q5 5 11 5q4 0 9 -3l127 -95l129 94q6 5 12 5q4 0 8 -3zM426 142q0 -39 -14.5 -67.5t-40 -47.5t-60 -28.5t-73.5 -9.5q-47 0 -100 9t-94 31q-6 3 -7.5 6.5 t-1.5 5.5q0 4 2 9l19 41q3 8 7.5 10t14.5 -2q40 -19 82.5 -27.5t77.5 -8.5q48 0 76 19.5t28 55.5q0 37 -32 58t-91 42q-42 15 -72.5 30t-50 32.5t-28.5 39.5t-9 52q0 63 45.5 103.5t132.5 40.5q41 0 79.5 -6.5t77.5 -22.5q12 -6 8 -19l-19 -47q-3 -6 -6.5 -6t-8.5 2 q-40 15 -69.5 20t-63.5 5q-45 0 -68 -19t-23 -46q0 -17 6.5 -29.5t20.5 -23t37 -20.5t55 -22q31 -12 60.5 -25t52 -31.5t36.5 -43.5t14 -60z"/>
<glyph glyph-name="Ydieresis" horiz-adv-x="564" unicode="Ÿ" d="M248 817q0 -21 -17 -37.5t-37 -16.5q-21 0 -38 16.5t-17 37.5q0 20 17 36.5t38 16.5q20 0 37 -16.5t17 -36.5zM429 817q0 -21 -17 -37.5t-37 -16.5q-22 0 -38.5 16.5t-16.5 37.5q0 20 16.5 36.5t37.5 16.5t38 -16t17 -37zM329 280v-265q0 -10 -3.5 -12.5t-11.5 -2.5h-58 q-8 0 -12 2.5t-4 12.5v265l-228 410q-1 2 -1 4t1 4.5t8 2.5h74q8 0 12 -2.5t8 -10.5l91 -172l78 -154h4l82 160l88 166q6 13 20 13h69q6 0 7 -3t1 -5t-1 -3z"/>
<glyph glyph-name="circumflex" horiz-adv-x="567" unicode="ˆ" d="M432 579q-4 -3 -8 -3q-6 0 -12 5l-129 94l-128 -96q-5 -4 -9 -4q-6 0 -11 6l-18 19q-4 3 -4 7q0 3 3 7l129 130q19 18 38 18q13 0 22 -3.5t20 -14.5l123 -128q7 -7 7 -12t-6 -10z"/>
<glyph glyph-name="tilde" horiz-adv-x="565" unicode="˜" d="M352 620q-18 0 -34.5 5.5t-32.5 12t-31.5 12t-31.5 5.5q-14 0 -25.5 -8t-19.5 -20q-3 -5 -5.5 -6.5t-4.5 -1.5q-4 0 -9 3l-34 15q-8 3 -9.5 5t-1.5 4q0 3 2 7q17 30 43 50t62 20q17 0 33.5 -5.5t32 -12t29.5 -12t28 -5.5q16 0 28 8t18 21q4 8 5.5 8.5t3.5 0.5q3 0 8 -1 l38 -15q8 -2 10 -4t2 -5q0 -2 -1 -6q-17 -36 -41 -55.5t-62 -19.5z"/>
<glyph glyph-name="Alpha" horiz-adv-x="618" unicode="Α" d="M357 452l-47 147h-5l-45 -142l-68 -214h232zM524 0q-9 0 -14.5 2t-9.5 13l-50 147h-282l-50 -147q-5 -15 -21 -15h-68q-10 0 -12 4.5t-2 7.5t1 7l226 643q8 24 18 31.5t33 8.5h30q27 0 36.5 -9t17.5 -31l225 -643q2 -4 2 -7t-2 -7.5t-12 -4.5h-66z"/>
<glyph glyph-name="Beta" horiz-adv-x="645" unicode="Β" d="M475 384q31 -11 53 -29.5t35.5 -42t20 -50.5t6.5 -54q0 -47 -17.5 -85t-48 -65.5t-72 -42.5t-89.5 -15h-237q-27 0 -39 12t-12 38v600q0 26 11 38.5t40 12.5l223 1q46 0 84.5 -9.5t66.5 -30.5t44 -53.5t16 -78.5q0 -45 -23 -82.5t-62 -56.5v-7zM167 419h184q16 0 36 4.5 t37.5 16t29 32t11.5 52.5q0 42 -28.5 68t-77.5 26h-192v-199zM496 215q0 57 -36.5 92t-106.5 35h-186v-258h186q43 0 71 13t44 32.5t22 42.5t6 43z"/>
<glyph glyph-name="Gamma" horiz-adv-x="542" unicode="Γ" d="M166 19q0 -12 -4.5 -15.5t-15.5 -3.5h-50q-11 0 -16 3.5t-5 15.5v510q0 34 8.5 65.5t28 55t52 37.5t80.5 14h268q12 0 15.5 -5t3.5 -16v-41q0 -12 -3.5 -16.5t-15.5 -4.5h-267q-42 0 -60.5 -18t-18.5 -57v-524z"/>
<glyph glyph-name="Epsilon" horiz-adv-x="579" unicode="Ε" d="M541 21q0 -11 -3.5 -16t-15.5 -5h-278q-49 0 -81.5 14t-52 37t-27.5 54t-8 66v358q0 34 9 65.5t29.5 55t52.5 37.5t78 14h273q11 0 14.5 -5t3.5 -16v-42q0 -11 -3.5 -15.5t-14.5 -4.5h-272q-42 0 -60.5 -18.5t-18.5 -57.5v-130h318q11 0 14.5 -5t3.5 -16v-38 q0 -10 -3.5 -15t-14.5 -5h-318v-174q0 -34 18 -54.5t61 -20.5h277q12 0 15.5 -5t3.5 -16v-42z"/>
<glyph glyph-name="Zeta" horiz-adv-x="608" unicode="Ζ" d="M512 701q26 0 39.5 -10.5t13.5 -36.5v-19q0 -18 -7.5 -31.5t-19.5 -27.5q-8 -10 -39 -47.5t-73 -89t-90 -109.5t-90 -109t-73 -88.5t-39 -47.5q2 -2 2 -6h421q9 0 11.5 -3.5t2.5 -12.5v-47q0 -8 -2.5 -12t-11.5 -4h-479q-49 0 -49 44v14q0 18 5 29.5t16 24.5q8 11 40 50 t76 91.5t93 112t93 112t75.5 91l40.5 49.5l-2 3h-370q-10 0 -12.5 4t-2.5 12v48q0 8 2.5 12t12.5 4h416z"/>
<glyph glyph-name="Eta" horiz-adv-x="688" unicode="Η" d="M521 683q0 11 4.5 14t14.5 3h54q11 0 15 -3t4 -14v-666q0 -11 -4 -14t-15 -3h-54q-10 0 -14.5 3t-4.5 14v312h-353v-312q0 -11 -4 -14t-15 -3h-55q-9 0 -14 3t-5 14v666q0 11 5 14t14 3h55q11 0 15 -3t4 -14v-274h353v274z"/>
<glyph glyph-name="Theta" horiz-adv-x="715" unicode="Θ" d="M566 349q0 55 -9.5 105.5t-33.5 89.5t-63.5 62t-99.5 23q-51 0 -91 -22t-67 -60t-41 -88t-14 -106q0 -62 11 -113.5t35.5 -89t64.5 -58.5t98 -21t98 23t65 62t36 89t11 104zM660 353q0 -176 -78 -270t-227 -94q-148 0 -224 93t-76 267q0 87 23 154.5t63.5 113.5t96 70 t119.5 24q73 0 130 -24.5t95 -71t58 -112.5t20 -150zM497 405q10 0 12.5 -3.5t2.5 -12.5v-47q0 -8 -2.5 -12t-12.5 -4h-277q-9 0 -11.5 4t-2.5 12v47q0 9 2.5 12.5t11.5 3.5h277z"/>
<glyph glyph-name="Iota" horiz-adv-x="268" unicode="Ι" d="M88 683q0 11 4.5 14t14.5 3h54q11 0 15 -3t4 -14v-666q0 -11 -4 -14t-15 -3h-54q-10 0 -14.5 3t-4.5 14v666z"/>
<glyph glyph-name="Kappa" horiz-adv-x="631" unicode="Κ" d="M75 683q0 11 5 14t14 3h52q11 0 15 -3t4 -14v-354l4 -1l101 127l186 233q10 12 32 12h74q8 0 10.5 -4.5t-2.5 -9.5l-191 -235l242 -431q3 -7 3 -11q0 -9 -12 -9h-64q-15 0 -22 2.5t-15 15.5l-196 357l-150 -186v-172q0 -11 -4 -14t-15 -3h-52q-9 0 -14 3t-5 14v666z"/>
<glyph glyph-name="Lambda" horiz-adv-x="624" unicode="Λ" d="M357 451l-47 146h-5l-45 -141q-5 -14 -17.5 -52t-28 -86t-32 -101t-30.5 -97t-23.5 -73.5t-10.5 -31.5q-5 -15 -21 -15h-68q-10 0 -12 4.5t-2 7.5t1 7l226 643q8 24 18 31.5t33 8.5h30q27 0 36.5 -9t17.5 -31l225 -643q2 -4 2 -7t-2 -7.5t-12 -4.5h-66q-9 0 -14.5 2 t-9.5 13z"/>
<glyph glyph-name="Mu" horiz-adv-x="810" unicode="Μ" d="M647 538h-5q-2 -3 -10 -23.5t-17.5 -44.5t-17.5 -45t-9 -24q-3 -8 -12 -29.5t-20.5 -50t-24.5 -60.5t-25 -60.5t-21 -50t-12 -28.5q-8 -23 -18 -31.5t-33 -8.5h-33q-23 0 -33.5 8.5t-18.5 31.5q-3 8 -12.5 29.5t-21 49.5t-25 60t-25 60t-21 49.5t-12.5 29.5l-51 128h-6 v-511q0 -11 -4 -14t-15 -3h-50q-10 0 -14.5 3t-4.5 14v634q0 23 10 36.5t39 13.5h27q22 0 33.5 -7.5t21.5 -32.5l138 -342q2 -4 10.5 -26.5t19 -49t19 -49t10.5 -26.5h4q1 4 10 26t19 47.5t18.5 47.5t10.5 26l15 37.5t25.5 63.5t31 76.5t30.5 75.5t24 60.5t13 32.5 q10 25 22 32.5t33 7.5h27q30 0 39.5 -13.5t9.5 -36.5v-634q0 -11 -4 -14t-15 -3h-50q-10 0 -14.5 3t-4.5 14v521z"/>
<glyph glyph-name="Nu" horiz-adv-x="691" unicode="Ν" d="M526 684q0 11 4.5 14t14.5 3h52q10 0 14.5 -3t4.5 -14v-634q0 -25 -10 -37.5t-39 -12.5h-26q-23 0 -32.5 9t-23.5 31l-238 394l-79 136h-3v-553q0 -11 -4 -14t-15 -3h-52q-9 0 -14 3t-5 14v634q0 25 10.5 37.5t38.5 12.5h26q22 0 31.5 -9t23.5 -31l233 -385l85 -145h3 v553z"/>
<glyph glyph-name="Xi" horiz-adv-x="586" unicode="Ξ" d="M52 0q-9 0 -11.5 3.5t-2.5 11.5v55q0 9 2.5 12.5t11.5 3.5h480q10 0 12.5 -3.5t2.5 -12.5v-55q0 -8 -2.5 -11.5t-12.5 -3.5h-480zM487 412q10 0 12.5 -4t2.5 -13v-46q0 -8 -2.5 -12.5t-12.5 -4.5h-393q-9 0 -11.5 4.5t-2.5 12.5v46q0 9 2.5 13t11.5 4h393zM523 701 q9 0 11.5 -4.5t2.5 -12.5v-52q0 -10 -2.5 -13t-11.5 -3h-464q-9 0 -11.5 3t-2.5 13v52q0 8 2.5 12.5t11.5 4.5h464z"/>
<glyph glyph-name="Omicron" horiz-adv-x="705" unicode="Ο" d="M556 349q0 55 -8.5 105.5t-31 89.5t-61.5 62t-100 23q-54 0 -93 -22t-64.5 -60t-38 -88t-12.5 -106q0 -62 10 -113.5t33.5 -89t62.5 -58.5t98 -21q58 0 97.5 23t63.5 62t34 89t10 104zM650 353q0 -176 -75.5 -270t-224.5 -94q-148 0 -221.5 93t-73.5 267q0 87 22.5 154.5 t62 113.5t94 70t118.5 24q73 0 129 -24.5t93.5 -71t56.5 -112.5t19 -150z"/>
<glyph glyph-name="Pi" horiz-adv-x="686" unicode="Π" d="M611 15q0 -10 -3.5 -12.5t-12.5 -2.5h-59q-8 0 -12.5 2.5t-4.5 12.5v604h-352v-604q0 -10 -3.5 -12.5t-12.5 -2.5h-60q-8 0 -12 2.5t-4 12.5v623q0 32 16.5 47.5t42.5 15.5h418q28 0 43.5 -15.5t15.5 -47.5v-623z"/>
<glyph glyph-name="Rho" horiz-adv-x="605" unicode="Ρ" d="M478 489q0 21 -6.5 43.5t-22.5 41t-44 31t-70 12.5h-169v-255h171q71 0 106 33.5t35 93.5zM75 651q0 26 11 38.5t39 12.5h233q47 0 86.5 -15t68 -42.5t44.5 -66t16 -84.5q0 -27 -9 -64t-33.5 -70t-68 -56t-111.5 -23h-186v-264q0 -11 -4 -14t-15 -3h-52q-10 0 -14.5 3 t-4.5 14v634z"/>
<glyph glyph-name="Sigma" horiz-adv-x="576" unicode="Σ" d="M144 83h400q11 0 13.5 -4t2.5 -14v-47q0 -10 -2.5 -14t-13.5 -4h-471q-18 0 -30.5 7.5t-12.5 30.5v13q0 20 5.5 32.5t17.5 27.5l206 253l-197 219q-16 19 -19.5 30.5t-3.5 20.5v22q0 14 5 22.5t13 13.5t18 7t20 2h429q11 0 13.5 -4.5t2.5 -13.5v-48q0 -9 -2.5 -13 t-13.5 -4h-378l-2 -4l174 -188q17 -17 25.5 -30.5t9.5 -27.5t-6.5 -27.5t-24.5 -33.5l-180 -220z"/>
<glyph glyph-name="Tau" horiz-adv-x="547" unicode="Τ" d="M224 619h-195q-9 0 -11.5 3.5t-2.5 12.5v49q0 8 2.5 12t11.5 4h490q9 0 11.5 -4t2.5 -12v-49q0 -9 -2.5 -12.5t-11.5 -3.5h-201v-602q0 -11 -4 -14t-14 -3h-57q-10 0 -14.5 3t-4.5 14v602z"/>
<glyph glyph-name="Upsilon" horiz-adv-x="564" unicode="Υ" d="M329 280v-265q0 -10 -3.5 -12.5t-11.5 -2.5h-58q-8 0 -12 2.5t-4 12.5v265l-228 410q-1 2 -1 4t1 4.5t8 2.5h74q8 0 12 -2.5t8 -10.5l91 -172l78 -154h4l82 160l88 166q6 13 20 13h69q6 0 7 -3t1 -5t-1 -3z"/>
<glyph glyph-name="Phi" horiz-adv-x="831" unicode="Φ" d="M459 15q0 -10 -4 -12.5t-12 -2.5h-61q-8 0 -12 2.5t-4 12.5v43q-150 13 -230.5 92.5t-80.5 209.5q0 64 22.5 117t63.5 92t98.5 63t126.5 30v23q0 10 4 12.5t12 2.5h61q8 0 12 -2.5t4 -12.5v-23q76 -6 135 -29t99.5 -62t61.5 -92.5t21 -118.5t-23 -118t-65 -91.5 t-100.5 -62.5t-128.5 -30v-43zM366 586q-54 -5 -95.5 -24.5t-70 -49.5t-43 -69t-14.5 -83t13 -83t40.5 -68.5t69.5 -49t100 -24.5v451zM459 134q58 4 101.5 23t71.5 49t42 69.5t14 84.5t-13.5 84.5t-41.5 69.5t-71 49.5t-103 23.5v-453z"/>
<glyph glyph-name="Chi" horiz-adv-x="561" unicode="Χ" d="M549 13q1 -2 1 -5q0 -2 -1 -5t-8 -3h-73q-11 0 -16 3t-10 11l-163 275l-163 -275q-5 -8 -10.5 -11t-16.5 -3h-69q-8 0 -9 2.5t-1 4.5q0 3 2 6l215 348l-200 328q-2 3 -0.5 7.5t8.5 4.5h69q13 0 17.5 -2.5t9.5 -11.5l151 -251l149 251q5 8 10.5 11t16.5 3h66q7 0 8.5 -4.5 t-1.5 -9.5l-199 -324z"/>
<glyph glyph-name="Psi" horiz-adv-x="798" unicode="Ψ" d="M645 685q0 10 4 12.5t13 2.5h60q9 0 12.5 -2.5t3.5 -12.5v-205q0 -69 -21.5 -123t-60.5 -91.5t-93.5 -59t-121.5 -26.5v-165q0 -10 -3.5 -12.5t-12.5 -2.5h-59q-8 0 -12 2.5t-4 12.5v165q-143 8 -216.5 86t-73.5 216v203q0 10 4 12.5t12 2.5h60q9 0 12.5 -2.5t3.5 -12.5 v-218q0 -87 46.5 -142.5t151.5 -62.5v423q0 10 4 12.5t12 2.5h59q9 0 12.5 -2.5t3.5 -12.5v-424q98 8 151 59t53 144v221z"/>
<glyph glyph-name="alpha" horiz-adv-x="560" unicode="α" d="M135 254q0 -52 10.5 -88t31 -58.5t50 -33t68.5 -10.5q23 0 56 4t56 13v364q-30 9 -59 12.5t-53 3.5q-70 0 -115 -49t-45 -158zM45 254q0 56 13.5 107t43.5 90t79 62t120 23q33 0 77 -4.5t93 -17.5q17 -5 20.5 -12.5t3.5 -18.5v-439q0 -15 -13 -20q-25 -11 -52.5 -18 t-54 -10.5t-51.5 -5t-44 -1.5q-63 0 -107.5 19t-73 53.5t-41.5 83.5t-13 109z"/>
<glyph glyph-name="beta" horiz-adv-x="554" unicode="β" d="M269 661q-35 0 -57 -13.5t-35.5 -34t-18.5 -45.5t-5 -48v-440q29 -11 62.5 -14t58.5 -3q72 0 109.5 43t37.5 110q0 26 -6.5 52t-23 48t-44.5 36t-70 16q-14 1 -22.5 6t-8.5 21v15q0 27 28 30q31 1 51.5 11t33.5 25t18.5 34t5.5 39q0 19 -5.5 38.5t-19 36t-35.5 27 t-54 10.5zM269 733q54 0 92.5 -15.5t62.5 -41t35 -57.5t11 -65q0 -15 -4 -35t-14.5 -40t-27.5 -37.5t-42 -27.5v-3q30 -7 54 -25t40 -43.5t24.5 -56.5t8.5 -62q0 -57 -18 -100.5t-50.5 -73.5t-77 -45.5t-96.5 -15.5q-51 0 -101.5 8.5t-86.5 25.5q-10 5 -12 10t-2 14v455 q0 107 53.5 169t150.5 62z"/>
<glyph glyph-name="gamma" horiz-adv-x="493" unicode="γ" d="M309 284l80 228q5 13 16 13h65q8 0 8 -8q0 -3 -1 -7l-184 -501v-195q0 -16 -16 -16h-54q-17 0 -17 16v195l-147 430q-4 9 -8 14t-21 3q-8 -1 -11.5 -0.5t-5.5 6.5l-8 43q-1 4 -1 6q0 3 2 5.5t10 5.5q15 6 30 9t23 3q15 0 25 -3t17 -10t12 -18.5t10 -27.5l64 -195l52 -165 h3z"/>
<glyph glyph-name="delta" horiz-adv-x="557" unicode="δ" d="M291 734q41 0 79 -6.5t76 -22.5q13 -6 9 -19l-19 -46q-3 -7 -7 -7t-9 2q-40 15 -68.5 20t-62.5 5q-41 0 -62 -18t-21 -46q0 -17 6.5 -29t21 -22.5t36.5 -21t53 -23.5q31 -14 64.5 -35.5t61 -53.5t45 -74.5t17.5 -96.5q0 -56 -15.5 -102t-45.5 -79t-74 -51.5t-100 -18.5 q-111 0 -170.5 64.5t-59.5 177.5q0 37 10 73.5t28.5 69.5t45.5 59.5t62 43.5v3q-36 22 -53.5 48t-17.5 63q0 64 44 103.5t126 39.5zM133 239q0 -37 8 -69t25.5 -56t45.5 -38t67 -14q38 0 65.5 14.5t45 39t26 56t8.5 65.5q0 31 -7.5 61t-25 56.5t-45 48t-67.5 35.5 q-33 -6 -60 -26t-46 -48.5t-29.5 -61t-10.5 -63.5z"/>
<glyph glyph-name="epsilon" horiz-adv-x="458" unicode="ε" d="M250 536q41 0 82.5 -8.5t75.5 -27.5q13 -8 6 -21l-20 -41q-3 -6 -6 -8.5t-13 2.5q-26 11 -58 19t-64 8q-30 0 -51 -7t-34 -17.5t-18.5 -23t-5.5 -24.5q0 -41 32.5 -56t96.5 -19q17 -2 25 -7t8 -19v-18q0 -16 -10 -20.5t-23 -5.5q-65 -3 -102.5 -26t-37.5 -70q0 -17 6 -32 t20 -27t38 -19.5t59 -7.5q17 0 36 3t38 8t35 11.5t27 12.5q9 5 12.5 2.5t6.5 -8.5l19 -37q3 -5 3 -10q0 -7 -7 -11q-21 -12 -45 -20t-47.5 -13t-45.5 -7t-39 -2q-53 0 -91.5 11.5t-63 31t-36.5 46.5t-12 59q0 23 7.5 45.5t21.5 41t33 32t42 18.5v2q-48 11 -70 42t-23 69 q0 31 12 58t36.5 47t60.5 32t84 12z"/>
<glyph glyph-name="zeta" horiz-adv-x="443" unicode="ζ" d="M133 222q0 -24 8 -40.5t23.5 -29t40 -23t57.5 -23.5q57 -22 91 -38t52.5 -30t24.5 -27t6 -29q0 -15 -7.5 -33t-21 -37.5t-30.5 -39t-36 -37.5q-7 -6 -13 -6l-7 2l-33 26q-8 7 -1 18q5 7 15 19t20 24.5t17.5 24t7.5 17.5q-1 15 -24.5 30t-80.5 37q-53 20 -90.5 38.5 t-61.5 39.5t-35 46t-11 59q0 38 19.5 85.5t60 103t103 118.5t148.5 131l-1 3h-282q-10 0 -13 3.5t-3 10.5v43q0 6 2.5 10.5t13.5 4.5h338q23 0 33 -10.5t10 -30.5v-14q0 -13 -4 -24t-17 -22q-89 -72 -149.5 -134t-98.5 -112.5t-54.5 -89t-16.5 -64.5z"/>
<glyph glyph-name="eta" horiz-adv-x="562" unicode="η" d="M497 15q0 -10 -3.5 -12.5t-12.5 -2.5h-55q-8 0 -12 2.5t-4 12.5v265q0 45 -7.5 78.5t-26 56t-50 33.5t-79.5 11q-11 0 -37 -1.5t-58 -6.5v-436q0 -10 -4 -12.5t-12 -2.5h-55q-8 0 -12 2.5t-4 12.5v436q0 67 63 76q11 2 27.5 3.5t34.5 3t35 2t29 0.5q64 0 110 -14 t75.5 -44.5t43.5 -78.5t14 -116v-268z"/>
<glyph glyph-name="theta" horiz-adv-x="558" unicode="θ" d="M128 340q2 -140 35.5 -210.5t114.5 -70.5q39 0 67.5 19.5t46.5 56t27 88.5t9 117h-300zM428 411q-3 114 -39.5 180.5t-112.5 66.5q-37 0 -64 -18t-45 -51t-28 -78.5t-11 -99.5h300zM513 363q0 -191 -61 -282.5t-176 -91.5q-114 0 -172.5 90t-58.5 282q0 189 61 279.5 t171 90.5q118 0 177 -92.5t59 -275.5z"/>
<glyph glyph-name="iota" horiz-adv-x="268" unicode="ι" d="M252 20v-7t-0.5 -5.5t-8.5 -6.5q-18 -8 -39.5 -10t-37.5 -2q-51 0 -71 24.5t-20 75.5v421q0 10 3 12.5t12 2.5h56q9 0 12.5 -2.5t3.5 -12.5v-396q0 -29 7.5 -38.5t27.5 -9.5q9 0 18.5 0.5t17.5 1.5q7 1 10 -0.5t4 -8.5z"/>
<glyph glyph-name="kappa" horiz-adv-x="489" unicode="κ" d="M156 274l202 243q3 4 6.5 6t11.5 2h76q5 0 6.5 -4.5t-1.5 -7.5l-163 -192l184 -310q1 -2 1 -4q0 -7 -9 -7h-69q-9 0 -13 2.5t-8 8.5l-141 246l-88 -104v-138q0 -10 -3.5 -12.5t-12.5 -2.5h-55q-8 0 -12 2.5t-4 12.5v495q0 10 4 12.5t12 2.5h55q9 0 12.5 -2.5t3.5 -12.5 v-234z"/>
<glyph glyph-name="lambda" horiz-adv-x="557" unicode="λ" d="M492 15q0 -10 -4 -12.5t-12 -2.5h-56q-9 0 -12.5 2.5t-3.5 12.5v351q-23 9 -54 13.5t-60 4.5q-75 0 -109 -34.5t-34 -113.5v-221q0 -10 -4 -12.5t-12 -2.5h-55q-8 0 -12 2.5t-4 12.5v221q0 50 12.5 91.5t39 71t68 46t100.5 16.5q31 0 64 -4.5t60 -13.5v45q0 83 -50 124 t-157 53q-10 1 -9 11l9 55q3 10 11 10h3q65 -6 117 -22.5t88.5 -47.5t56 -78.5t19.5 -116.5v-461z"/>
<glyph glyph-name="nu" horiz-adv-x="492" unicode="ν" d="M318 39q-8 -24 -17.5 -34t-32.5 -10h-39q-19 0 -30 8t-21 35l-164 477q-1 2 -1 4q0 6 9 6h67q11 0 14 -9l94 -276l50 -163h5l48 161l91 278q3 9 14 9h66q10 0 8 -10z"/>
<glyph glyph-name="xi" horiz-adv-x="418" unicode="ξ" d="M278 654q-58 0 -95 -28.5t-37 -86.5q0 -35 13.5 -56.5t38 -33t59 -16t75.5 -5.5q20 -1 27 -9t7 -22v-14q0 -15 -9 -21.5t-25 -7.5q-42 -2 -79.5 -9.5t-65 -25t-43.5 -45.5t-16 -71q0 -29 13.5 -49.5t35.5 -36t50.5 -27t58.5 -22.5q31 -11 58 -22t47 -24t31.5 -29.5 t11.5 -37.5q0 -30 -25 -68.5t-63 -73.5q-6 -6 -12 -6q-3 0 -6 2l-36 28q-10 6 -1 17q6 7 14 17.5t15.5 21t13 20.5t5.5 16q0 20 -29 37t-78 34q-35 12 -69 27t-61.5 38t-44.5 56t-17 81q0 24 8 52.5t24 54t40.5 46.5t57.5 30v4q-32 10 -53.5 26t-34.5 36t-18.5 42.5 t-5.5 45.5q0 41 15 76t42.5 61t68 40.5t91.5 14.5q41 0 83.5 -9t74.5 -28q9 -5 9 -13q0 -4 -2 -8l-19 -41q-3 -8 -8.5 -7.5t-11.5 2.5q-29 13 -60 20t-63 7z"/>
<glyph glyph-name="omicron" horiz-adv-x="557" unicode="ο" d="M424 262q0 39 -6 75.5t-22 64t-44 44.5t-72 17q-38 0 -66 -16t-46 -43t-27 -63t-9 -76q0 -45 7 -82.5t24 -64t44.5 -41.5t69.5 -15t70.5 17t45.5 45t24 64t7 74zM512 265q0 -134 -60.5 -205t-175.5 -71q-113 0 -172 69t-59 204q0 66 17.5 117t49 86t74.5 53t93 18 q114 0 173.5 -72t59.5 -199z"/>
<glyph glyph-name="pi" horiz-adv-x="573" unicode="π" d="M152 15q0 -10 -4 -12.5t-12 -2.5h-55q-8 0 -12 2.5t-4 12.5v469q0 11 9 26t33 15h359q24 0 33 -15t9 -26v-469q0 -10 -3.5 -12.5t-12.5 -2.5h-55q-8 0 -12 2.5t-4 12.5v434h-269v-434z"/>
<glyph glyph-name="rho" horiz-adv-x="572" unicode="ρ" d="M152 -188q0 -9 -4 -11.5t-12 -2.5h-55q-8 0 -12 2.5t-4 11.5v491q0 67 19.5 111.5t51 71.5t71.5 38.5t82 11.5q113 0 175 -70t62 -203q0 -57 -15 -107t-45.5 -87t-75.5 -58.5t-105 -21.5q-27 0 -62.5 2.5t-69.5 15.5zM435 263q0 45 -8.5 81.5t-26.5 62.5t-47 40t-70 14 q-38 0 -63 -13t-40 -34t-21 -48.5t-6 -56.5v-226q27 -11 60 -14.5t57 -3.5h3q78 0 120 49t42 149z"/>
<glyph glyph-name="sigma1" horiz-adv-x="467" unicode="ς" d="M280 536q41 0 78 -8t71 -27q6 -4 7.5 -7t1.5 -5q0 -4 -3 -9l-21 -41q-3 -6 -6.5 -8.5t-12.5 2.5q-24 11 -50.5 18t-54.5 7h-8q-40 -1 -68.5 -17t-46.5 -42t-26.5 -59.5t-8.5 -69.5q0 -33 6 -57.5t19.5 -43.5t35.5 -34t55 -29q51 -23 84 -38.5t52 -28t26 -24.5t7 -28 q0 -30 -25.5 -68t-62.5 -74q-5 -4 -8 -5.5t-4 -1.5q-4 0 -8 4l-35 28q-9 7 -1 18q5 7 13.5 17t16.5 20.5t13.5 20.5t5.5 16q0 15 -22.5 27t-77.5 36q-53 22 -87 46.5t-54 54t-28 65t-8 79.5q0 60 16.5 109.5t47 84t74 53.5t97.5 19z"/>
<glyph glyph-name="sigma" horiz-adv-x="580" unicode="σ" d="M425 257q0 43 -7.5 78.5t-25 61.5t-45.5 40.5t-69 14.5q-35 0 -62 -14.5t-46 -40t-28.5 -60.5t-9.5 -77q0 -93 34 -146t115 -53q37 0 64.5 15t45 41.5t26 62.5t8.5 77zM540 525q9 0 11.5 -4t2.5 -11v-45q0 -8 -2.5 -11.5t-11.5 -3.5h-91l-3 -4q32 -31 49.5 -77.5 t17.5 -108.5q0 -130 -64 -200.5t-173 -70.5q-116 0 -173.5 70t-57.5 198q0 66 18.5 116t50 84t74.5 51t93 17h259z"/>
<glyph glyph-name="tau" horiz-adv-x="407" unicode="τ" d="M223 132q0 -35 15.5 -50.5t51.5 -15.5q13 0 35 1.5t41 5.5q9 2 12 -0.5t4 -7.5l9 -45q1 -4 1 -7q0 -7 -9 -10q-30 -9 -61.5 -11.5t-45.5 -2.5q-78 0 -109 33.5t-31 103.5v324h-107q-9 0 -11.5 4.5t-2.5 10.5v44q0 8 2.5 12t11.5 4h328q9 0 11.5 -4t2.5 -11v-45 q0 -8 -2.5 -11.5t-11.5 -3.5h-134v-318z"/>
<glyph glyph-name="upsilon" horiz-adv-x="574" unicode="υ" d="M422 510q0 10 4 12.5t12 2.5h55q9 0 12.5 -2.5t3.5 -12.5v-287q0 -60 -15.5 -104t-44 -73t-69 -43t-90.5 -14q-115 0 -170 56.5t-55 165.5v299q0 10 4 12.5t12 2.5h55q8 0 12 -2.5t4 -12.5v-307q0 -66 31.5 -103.5t99.5 -37.5q39 0 65.5 11t43 30t23.5 45t7 55v307z"/>
<glyph glyph-name="phi" horiz-adv-x="699" unicode="φ" d="M568 268q0 97 -36 143.5t-114 46.5h-12.5t-15.5 -2v-393q50 4 84 22.5t55 46.5t30 63t9 73zM302 460q0 35 15.5 49.5t39.5 18.5q39 6 70 6q61 0 104.5 -19.5t70.5 -54.5t39.5 -83t12.5 -104q0 -60 -17.5 -110t-51 -87.5t-82.5 -60t-113 -26.5v-177q0 -9 -3.5 -11.5 t-12.5 -2.5h-57q-8 0 -11.5 2.5t-3.5 11.5v177q-67 4 -115.5 26.5t-80 58.5t-46.5 84t-15 105q0 55 15 98.5t39 76t53.5 53.5t58.5 30q6 2 10 2t8 -8l22 -44q5 -11 -10 -20q-54 -27 -82.5 -75t-28.5 -115q0 -36 8.5 -69.5t28.5 -60.5t53 -45t82 -23v397z"/>
<glyph glyph-name="chi" horiz-adv-x="469" unicode="χ" d="M284 282l175 -268q2 -4 2 -9t-8 -5h-73q-11 0 -15 3.5t-7 8.5l-125 202l-128 -201q-4 -6 -8.5 -9.5t-14.5 -3.5h-64q-10 0 -10 6q0 3 3 9l174 263l-151 232q-3 4 -2 9.5t9 5.5h67q10 0 14.5 -3.5t7.5 -8.5l107 -172l108 172q4 5 8.5 8.5t12.5 3.5h65q9 0 9.5 -5t-1.5 -8z "/>
<glyph glyph-name="psi" horiz-adv-x="718" unicode="ψ" d="M653 252q0 -119 -61.5 -186.5t-189.5 -75.5v-178q0 -9 -3.5 -11.5t-11.5 -2.5h-56q-8 0 -11.5 2.5t-3.5 11.5v178q-71 7 -119 28t-77 54.5t-42 80t-13 104.5v253q0 10 4 12.5t12 2.5h56q8 0 12 -2.5t4 -12.5v-252q0 -36 7.5 -68.5t26.5 -58.5t50.5 -43t78.5 -21v443 q0 10 3.5 12.5t11.5 2.5h56q8 0 11.5 -2.5t3.5 -12.5v-444q46 4 77 19t50 39.5t27.5 56.5t8.5 69v260q0 10 4 12.5t12 2.5h56q9 0 12.5 -2.5t3.5 -12.5v-258z"/>
<glyph glyph-name="afii10023" horiz-adv-x="579" unicode="Ё" d="M287 810q0 -21 -17 -37.5t-37 -16.5q-21 0 -38 16.5t-17 37.5q0 20 17 36.5t38 16.5q20 0 37 -16.5t17 -36.5zM468 810q0 -21 -17 -37.5t-37 -16.5q-22 0 -38.5 16.5t-16.5 37.5q0 20 16.5 36.5t37.5 16.5t38 -16t17 -37zM541 21q0 -11 -3.5 -16t-15.5 -5h-278 q-49 0 -81.5 14t-52 37t-27.5 54t-8 66v358q0 34 9 65.5t29.5 55t52.5 37.5t78 14h273q11 0 14.5 -5t3.5 -16v-42q0 -11 -3.5 -15.5t-14.5 -4.5h-272q-42 0 -60.5 -18.5t-18.5 -57.5v-130h318q11 0 14.5 -5t3.5 -16v-38q0 -10 -3.5 -15t-14.5 -5h-318v-174q0 -34 18 -54.5 t61 -20.5h277q12 0 15.5 -5t3.5 -16v-42z"/>
<glyph glyph-name="afii10051" horiz-adv-x="782" unicode="Ђ" d="M735 229q0 -31 -6.5 -69t-23.5 -77.5t-47.5 -77t-79.5 -67.5q-6 -3 -10 -3t-8 6l-31 46q-2 5 -1.5 8.5t6.5 7.5q54 32 82 90.5t28 134.5q0 81 -46.5 123t-119.5 42q-38 0 -80.5 -8t-80.5 -22v-348q0 -10 -3.5 -12.5t-11.5 -2.5h-63q-8 0 -12 2.5t-4 12.5v603h-194 q-9 0 -11.5 4t-2.5 12v50q0 8 2.5 12t11.5 4h555q10 0 12.5 -3.5t2.5 -11.5v-51q0 -8 -2.5 -11.5t-12.5 -3.5l-267 -1v-175q42 13 89.5 20t85.5 7q58 0 103 -17t76 -48t47.5 -76t16.5 -100z"/>
<glyph glyph-name="afii10052" horiz-adv-x="542" unicode="Ѓ" d="M250 777q-4 6 -3.5 9.5t7.5 8.5l140 101q5 4 8 5t4 1q5 0 9 -7l42 -57q8 -11 -2 -16l-169 -77q-9 -4 -12 -2t-7 7zM166 19q0 -12 -4.5 -15.5t-15.5 -3.5h-50q-11 0 -16 3.5t-5 15.5v510q0 34 8.5 65.5t28 55t52 37.5t80.5 14h268q12 0 15.5 -5t3.5 -16v-41 q0 -12 -3.5 -16.5t-15.5 -4.5h-267q-42 0 -60.5 -18t-18.5 -57v-524z"/>
<glyph glyph-name="afii10053" horiz-adv-x="598" unicode="Є" d="M369 75q44 0 84 10t75 26q11 5 16 1t7 -9l19 -42q4 -9 4 -14q0 -2 -1 -4.5t-8 -7.5q-24 -14 -51.5 -23t-55 -14t-54.5 -7t-51 -2q-70 0 -125.5 21t-93.5 64t-58.5 109t-20.5 157q0 84 22 152.5t62 117t96.5 74.5t124.5 26q43 0 89 -7.5t97 -33.5q6 -3 8 -8t-3 -15 l-23 -46q-3 -6 -6.5 -8.5t-11.5 1.5q-70 31 -146 31q-48 0 -85.5 -16.5t-64 -46t-42 -69.5t-19.5 -87h289q10 0 12.5 -4t2.5 -13v-46q0 -8 -2.5 -12.5t-12.5 -4.5h-293q1 -54 12.5 -99.5t37.5 -79t67.5 -52.5t102.5 -19z"/>
<glyph glyph-name="afii10054" horiz-adv-x="570" unicode="Ѕ" d="M542 187q0 -50 -19 -87t-52 -62t-78 -37t-97 -12q-29 0 -61 2.5t-65 8.5t-65.5 16t-62.5 25q-7 4 -7 10q0 4 3 10l24 53q5 11 16 6q52 -23 107.5 -35.5t101.5 -12.5q76 0 118.5 28.5t42.5 82.5q0 26 -10.5 45.5t-31 36t-51.5 31t-72 29.5q-55 20 -96.5 40t-69 43.5 t-41.5 52.5t-14 67q0 82 56.5 133t165.5 51q50 0 105.5 -9.5t103.5 -30.5q11 -5 7 -17l-22 -56q-3 -7 -5.5 -8t-7.5 1q-51 20 -97.5 28.5t-86.5 8.5q-60 0 -93 -26.5t-33 -67.5q0 -25 11 -43t32.5 -33t54.5 -29t78 -32q42 -16 80 -33.5t67 -41.5t46.5 -57t17.5 -79z"/>
<glyph glyph-name="afii10055" horiz-adv-x="268" unicode="І" d="M88 683q0 11 4.5 14t14.5 3h54q11 0 15 -3t4 -14v-666q0 -11 -4 -14t-15 -3h-54q-10 0 -14.5 3t-4.5 14v666z"/>
<glyph glyph-name="afii10056" horiz-adv-x="268" unicode="Ї" d="M98 807q0 -21 -17 -37.5t-37 -16.5q-21 0 -38 16.5t-17 37.5q0 20 17 36.5t38 16.5q20 0 37 -16.5t17 -36.5zM279 807q0 -21 -17 -37.5t-37 -16.5q-22 0 -38.5 16.5t-16.5 37.5q0 20 16.5 36.5t37.5 16.5t38 -16t17 -37zM88 683q0 11 4.5 14t14.5 3h54q11 0 15 -3t4 -14 v-666q0 -11 -4 -14t-15 -3h-54q-10 0 -14.5 3t-4.5 14v666z"/>
<glyph glyph-name="afii10057" horiz-adv-x="566" unicode="Ј" d="M393 683q0 11 5 14t14 3h54q11 0 15 -3t4 -14v-412q0 -134 -62.5 -208t-198.5 -74q-22 0 -48 2.5t-53.5 8.5t-55 16t-51.5 25q-7 4 -8.5 6.5t-1.5 4.5q0 4 4 12l24 46q6 13 22 4q35 -19 80 -30.5t91 -11.5q91 0 129 51.5t38 152.5z"/>
<glyph glyph-name="afii10058" horiz-adv-x="997" unicode="Љ" d="M866 222q0 28 -9.5 52t-27.5 42t-44.5 28.5t-61.5 10.5h-184v-271h182q43 0 71.5 14t44.5 35t22.5 45t6.5 44zM480 701q59 0 59 -63v-205h181q82 0 129.5 -24t72.5 -58t32 -71.5t7 -64.5q0 -47 -18 -86.5t-49 -68t-73 -44.5t-90 -16h-234q-28 0 -39.5 12t-11.5 38v569 h-188l-8 -108q-8 -114 -16.5 -203t-29 -154t-58.5 -107t-106 -61q-3 -1 -6 -1l-6 1q-6 2 -10 13l-10 43q-2 6 -2 10q0 5 3.5 7.5t8.5 4.5q46 19 71.5 50t39 82.5t20 128t14.5 187.5l10 126q2 34 17.5 48.5t41.5 14.5h248z"/>
<glyph glyph-name="afii10059" horiz-adv-x="1021" unicode="Њ" d="M890 217q0 56 -36 91t-107 35h-181v-259h179q43 0 71.5 13t44.5 33t22.5 43.5t6.5 43.5zM524 0q-28 0 -40 12t-12 38v293h-303v-328q0 -10 -4 -12.5t-12 -2.5h-62q-8 0 -12 2.5t-4 12.5v670q0 10 4 12.5t12 2.5h62q8 0 12 -2.5t4 -12.5v-264h303v265q0 10 4.5 12.5 t12.5 2.5h61q8 0 12 -2.5t4 -12.5v-265h179q54 0 93.5 -10.5t66 -28t42.5 -40t25 -46t11.5 -46t2.5 -40.5q0 -47 -18 -85.5t-49 -66.5t-73 -43t-90 -15h-232z"/>
<glyph glyph-name="afii10060" horiz-adv-x="783" unicode="Ћ" d="M317 15q0 -10 -3.5 -12.5t-11.5 -2.5h-62q-8 0 -12 2.5t-4 12.5v604h-195q-9 0 -11.5 3.5t-2.5 12.5v49q0 8 2.5 12t11.5 4h548q10 0 12.5 -4t2.5 -12v-49q0 -9 -2.5 -12.5t-12.5 -3.5h-260v-177q48 14 93 21t78 7q119 0 177 -61t58 -174v-220q0 -10 -4 -12.5t-12 -2.5 h-59q-8 0 -12 2.5t-4 12.5v216q0 82 -41 122t-117 40q-31 0 -75.5 -8.5t-81.5 -22.5v-347z"/>
<glyph glyph-name="afii10061" horiz-adv-x="615" unicode="Ќ" d="M237 780q-4 6 -3.5 9.5t7.5 8.5l140 101q5 4 8 5t4 1q5 0 9 -7l42 -57q8 -11 -2 -16l-169 -77q-9 -4 -12 -2t-7 7zM422 375q26 -8 43 -20t28.5 -28t18.5 -35t13 -42l63 -232q1 -2 1 -5t-1.5 -8t-12.5 -5h-61q-5 0 -11 2t-8 11l-60 223q-8 29 -19 47.5t-27 29.5t-36 15 t-46 4h-142v-317q0 -10 -3.5 -12.5t-12.5 -2.5h-58q-8 0 -12 2.5t-4 12.5v670q0 10 4 12.5t12 2.5h59q9 0 12.5 -2.5t2.5 -12.5v-270h133q16 0 34 3.5t34.5 14t30.5 30.5t23 53l45 173q2 9 7.5 11t10.5 2h55q12 0 13.5 -7t-0.5 -12l-44 -179q-11 -43 -31 -74.5t-54 -49.5v-5 z"/>
<glyph glyph-name="afii10062" horiz-adv-x="566" unicode="Ў" d="M297 729q-50 0 -91 31t-70 74q-2 3 -3.5 8t6.5 11l19 17q9 5 12 3.5t10 -7.5q29 -32 60.5 -50t60.5 -18q22 0 51 13.5t70 57.5q7 7 11 7q3 0 8 -4l20 -16q8 -8 6.5 -13t-3.5 -8q-42 -57 -85.5 -81.5t-81.5 -24.5zM331 102q-14 -36 -29.5 -60t-35.5 -37.5t-45 -19 t-56 -5.5q-13 0 -34 2t-44 9q-10 3 -12.5 6t-0.5 10l10 50q2 8 5.5 9t11.5 0q22 -3 37 -4.5t29 -0.5q28 1 47.5 13.5t33.5 47.5l27 70h-16q-16 0 -27 4.5t-21 30.5l-193 462q-1 3 -1 5q0 7 11 7h70q10 0 13.5 -4t5.5 -10l105 -261l69 -174h7l67 181l97 256q3 8 7.5 10 t12.5 2h63q8 0 9.5 -3t1.5 -5t-1 -5z"/>
<glyph glyph-name="afii10145" horiz-adv-x="686" unicode="Џ" d="M166 80h353v606q0 9 4 11.5t12 2.5h59q9 0 12.5 -2.5t3.5 -11.5v-624q0 -62 -58 -62h-159q-2 -35 -4.5 -70t-4.5 -71q0 -9 -3.5 -12.5t-8.5 -3.5h-55q-12 0 -12 16q-2 36 -3.5 71t-3.5 70h-165q-26 0 -42 15t-16 47v624q0 9 3.5 11.5t11.5 2.5h60q9 0 12.5 -2.5 t3.5 -11.5v-606z"/>
<glyph glyph-name="afii10017" horiz-adv-x="618" unicode="А" d="M357 452l-47 147h-5l-45 -142l-68 -214h232zM524 0q-9 0 -14.5 2t-9.5 13l-50 147h-282l-50 -147q-5 -15 -21 -15h-68q-10 0 -12 4.5t-2 7.5t1 7l226 643q8 24 18 31.5t33 8.5h30q27 0 36.5 -9t17.5 -31l225 -643q2 -4 2 -7t-2 -7.5t-12 -4.5h-66z"/>
<glyph glyph-name="afii10018" horiz-adv-x="626" unicode="Б" d="M495 222q0 28 -9.5 52t-27.5 42t-45 28.5t-62 10.5h-183v-271h182q43 0 71 14t44.5 35t23 45t6.5 44zM126 0q-28 0 -39.5 12t-11.5 38v588q0 32 15.5 47t43.5 15h367q10 0 12.5 -4t2.5 -13v-48q0 -8 -2.5 -12t-12.5 -4h-333v-186h181q82 0 129.5 -24t72 -58t31.5 -71.5 t7 -64.5q0 -47 -17.5 -86.5t-48.5 -68t-73 -44.5t-90 -16h-234z"/>
<glyph glyph-name="afii10019" horiz-adv-x="645" unicode="В" d="M475 384q31 -11 53 -29.5t35.5 -42t20 -50.5t6.5 -54q0 -47 -17.5 -85t-48 -65.5t-72 -42.5t-89.5 -15h-237q-27 0 -39 12t-12 38v600q0 26 11 38.5t40 12.5l223 1q46 0 84.5 -9.5t66.5 -30.5t44 -53.5t16 -78.5q0 -45 -23 -82.5t-62 -56.5v-7zM167 419h184q16 0 36 4.5 t37.5 16t29 32t11.5 52.5q0 42 -28.5 68t-77.5 26h-192v-199zM496 215q0 57 -36.5 92t-106.5 35h-186v-258h186q43 0 71 13t44 32.5t22 42.5t6 43z"/>
<glyph glyph-name="afii10020" horiz-adv-x="542" unicode="Г" d="M166 19q0 -12 -4.5 -15.5t-15.5 -3.5h-50q-11 0 -16 3.5t-5 15.5v510q0 34 8.5 65.5t28 55t52 37.5t80.5 14h268q12 0 15.5 -5t3.5 -16v-41q0 -12 -3.5 -16.5t-15.5 -4.5h-267q-42 0 -60.5 -18t-18.5 -57v-524z"/>
<glyph glyph-name="afii10021" horiz-adv-x="717" unicode="Д" d="M107 0l-10 -149q-1 -15 -13 -15h-49q-6 0 -9 3t-4 12l-13 194q-1 15 6.5 25t27.5 12l32 2q17 19 28.5 41t19.5 49t13.5 60.5t11.5 77.5l41 319q5 33 19.5 51.5t49.5 18.5h301q33 0 47.5 -15.5t14.5 -47.5v-556l34 -2q15 -1 25 -10t10 -29l-12 -190q-1 -9 -4 -12t-9 -3 h-49q-5 0 -8 3t-3 12l-6 149h-492zM230 261q-5 -41 -10.5 -68.5t-12 -47.5t-14 -34t-16.5 -28h352v535h-254z"/>
<glyph glyph-name="afii10022" horiz-adv-x="579" unicode="Е" d="M541 21q0 -11 -3.5 -16t-15.5 -5h-278q-49 0 -81.5 14t-52 37t-27.5 54t-8 66v358q0 34 9 65.5t29.5 55t52.5 37.5t78 14h273q11 0 14.5 -5t3.5 -16v-42q0 -11 -3.5 -15.5t-14.5 -4.5h-272q-42 0 -60.5 -18.5t-18.5 -57.5v-130h318q11 0 14.5 -5t3.5 -16v-38 q0 -10 -3.5 -15t-14.5 -5h-318v-174q0 -34 18 -54.5t61 -20.5h277q12 0 15.5 -5t3.5 -16v-42z"/>
<glyph glyph-name="afii10024" horiz-adv-x="960" unicode="Ж" d="M198 380q-34 17 -54 49t-31 75l-43 179q-2 5 -0.5 12t12.5 7h55q5 0 10.5 -2t7.5 -11l45 -173q9 -33 23 -53t30.5 -30.5t34.5 -14t35 -3.5h112v270q-1 10 2.5 12.5t12.5 2.5h59q8 0 12 -2.5t4 -12.5v-270h113q16 0 34 3.5t34.5 14t30.5 30.5t23 53l45 173q2 9 7.5 11 t10.5 2h56q11 0 12.5 -7t-0.5 -12l-44 -179q-10 -43 -30.5 -75t-53.5 -49v-5q26 -8 43 -20t28.5 -28t18.5 -35t13 -42l62 -232q1 -3 1 -6t-1 -7.5t-13 -4.5h-61q-5 0 -10.5 2t-7.5 11l-61 223q-8 29 -19 47.5t-27 29.5t-36 15t-46 4h-122v-317q0 -10 -4 -12.5t-12 -2.5h-58 q-9 0 -13 2.5t-4 12.5l1 317h-122q-26 0 -46 -4t-35.5 -15t-27 -29.5t-19.5 -47.5l-60 -223q-3 -9 -8 -11t-10 -2h-61q-12 0 -13.5 5t-1.5 8t1 5l63 232q6 23 13 42t18.5 35t28.5 28t43 20v5z"/>
<glyph glyph-name="afii10025" horiz-adv-x="582" unicode="З" d="M273 629q-48 0 -93 -11.5t-81 -26.5q-11 -5 -16 -1.5t-7 8.5l-16 40q-5 13 -3.5 17t8.5 8q48 28 103.5 38.5t109.5 10.5q52 0 95 -11.5t74.5 -33.5t49 -55t17.5 -76q0 -57 -33.5 -99t-87.5 -62v-5q31 -5 58 -19.5t47 -36t31 -49.5t11 -60q0 -47 -20 -86.5t-56 -68 t-87 -45t-113 -16.5q-25 0 -55.5 2t-62 7t-62 14.5t-55.5 23.5q-6 5 -7.5 8t-1.5 4q0 5 5 13l18 39q3 5 8 9t17 -1q18 -8 40 -14.5t46 -12t48.5 -8.5t47.5 -3q97 0 145.5 39t48.5 102q0 24 -10.5 45.5t-31.5 38t-53 26.5t-75 10h-55q-18 0 -26 6.5t-8 23.5v19q0 32 30 32h56 q70 0 109.5 32t39.5 86q0 27 -11.5 45.5t-31.5 30.5t-47 17.5t-57 5.5z"/>
<glyph glyph-name="afii10026" horiz-adv-x="696" unicode="И" d="M526 577l-87 -150l-232 -387q-13 -22 -23 -31t-32 -9h-28q-28 0 -38.5 12.5t-10.5 37.5v636q0 10 4 12.5t12 2.5h59q9 0 12.5 -2.5t3.5 -12.5v-559h3l81 137l239 397q13 22 23 31t32 9h28q29 0 39 -12.5t10 -37.5v-636q0 -10 -4 -12.5t-12 -2.5h-59q-9 0 -12.5 2.5 t-3.5 12.5v562h-4z"/>
<glyph glyph-name="afii10027" horiz-adv-x="696" unicode="Й" d="M339 733q-50 0 -91 31t-70 74q-2 3 -3.5 8t6.5 11l19 17q9 5 12 3.5t10 -7.5q29 -32 60.5 -50t60.5 -18q22 0 51 13.5t70 57.5q7 7 11 7q3 0 8 -4l20 -16q8 -8 6.5 -13t-3.5 -8q-42 -57 -85.5 -81.5t-81.5 -24.5zM526 577l-87 -150l-232 -387q-13 -22 -23 -31t-32 -9h-28 q-28 0 -38.5 12.5t-10.5 37.5v636q0 10 4 12.5t12 2.5h59q9 0 12.5 -2.5t3.5 -12.5v-559h3l81 137l239 397q13 22 23 31t32 9h28q29 0 39 -12.5t10 -37.5v-636q0 -10 -4 -12.5t-12 -2.5h-59q-9 0 -12.5 2.5t-3.5 12.5v562h-4z"/>
<glyph glyph-name="afii10028" horiz-adv-x="615" unicode="К" d="M422 375q26 -8 43 -20t28.5 -28t18.5 -35t13 -42l63 -232q1 -2 1 -5t-1.5 -8t-12.5 -5h-61q-5 0 -11 2t-8 11l-60 223q-8 29 -19 47.5t-27 29.5t-36 15t-46 4h-142v-317q0 -10 -3.5 -12.5t-12.5 -2.5h-58q-8 0 -12 2.5t-4 12.5v670q0 10 4 12.5t12 2.5h59q9 0 12.5 -2.5 t2.5 -12.5v-270h133q16 0 34 3.5t34.5 14t30.5 30.5t23 53l45 173q2 9 7.5 11t10.5 2h55q12 0 13.5 -7t-0.5 -12l-44 -179q-11 -43 -31 -74.5t-54 -49.5v-5z"/>
<glyph glyph-name="afii10029" horiz-adv-x="675" unicode="Л" d="M173 638q2 34 17.5 48.5t41.5 14.5h310q59 0 59 -63v-623q0 -10 -3.5 -12.5t-12.5 -2.5h-60q-8 0 -12 2.5t-4 12.5v604h-251l-8 -108q-8 -114 -16.5 -203t-29 -154t-58.5 -107t-106 -61q-3 -1 -6 -1l-6 1q-6 2 -10 13l-10 43q-2 6 -2 10q0 5 3.5 7.5t8.5 4.5 q46 19 71.5 50t39 82.5t20 128t14.5 187.5z"/>
<glyph glyph-name="afii10030" horiz-adv-x="810" unicode="М" d="M647 538h-5q-2 -3 -10 -23.5t-17.5 -44.5t-17.5 -45t-9 -24q-3 -8 -12 -29.5t-20.5 -50t-24.5 -60.5t-25 -60.5t-21 -50t-12 -28.5q-8 -23 -18 -31.5t-33 -8.5h-33q-23 0 -33.5 8.5t-18.5 31.5q-3 8 -12.5 29.5t-21 49.5t-25 60t-25 60t-21 49.5t-12.5 29.5l-51 128h-6 v-511q0 -11 -4 -14t-15 -3h-50q-10 0 -14.5 3t-4.5 14v634q0 23 10 36.5t39 13.5h27q22 0 33.5 -7.5t21.5 -32.5l138 -342q2 -4 10.5 -26.5t19 -49t19 -49t10.5 -26.5h4q1 4 10 26t19 47.5t18.5 47.5t10.5 26l15 37.5t25.5 63.5t31 76.5t30.5 75.5t24 60.5t13 32.5 q10 25 22 32.5t33 7.5h27q30 0 39.5 -13.5t9.5 -36.5v-634q0 -11 -4 -14t-15 -3h-50q-10 0 -14.5 3t-4.5 14v521z"/>
<glyph glyph-name="afii10031" horiz-adv-x="688" unicode="Н" d="M521 683q0 11 4.5 14t14.5 3h54q11 0 15 -3t4 -14v-666q0 -11 -4 -14t-15 -3h-54q-10 0 -14.5 3t-4.5 14v312h-353v-312q0 -11 -4 -14t-15 -3h-55q-9 0 -14 3t-5 14v666q0 11 5 14t14 3h55q11 0 15 -3t4 -14v-274h353v274z"/>
<glyph glyph-name="afii10032" horiz-adv-x="705" unicode="О" d="M556 349q0 55 -8.5 105.5t-31 89.5t-61.5 62t-100 23q-54 0 -93 -22t-64.5 -60t-38 -88t-12.5 -106q0 -62 10 -113.5t33.5 -89t62.5 -58.5t98 -21q58 0 97.5 23t63.5 62t34 89t10 104zM650 353q0 -176 -75.5 -270t-224.5 -94q-148 0 -221.5 93t-73.5 267q0 87 22.5 154.5 t62 113.5t94 70t118.5 24q73 0 129 -24.5t93.5 -71t56.5 -112.5t19 -150z"/>
<glyph glyph-name="afii10033" horiz-adv-x="686" unicode="П" d="M611 15q0 -10 -3.5 -12.5t-12.5 -2.5h-59q-8 0 -12.5 2.5t-4.5 12.5v604h-352v-604q0 -10 -3.5 -12.5t-12.5 -2.5h-60q-8 0 -12 2.5t-4 12.5v623q0 32 16.5 47.5t42.5 15.5h418q28 0 43.5 -15.5t15.5 -47.5v-623z"/>
<glyph glyph-name="afii10034" horiz-adv-x="605" unicode="Р" d="M478 489q0 21 -6.5 43.5t-22.5 41t-44 31t-70 12.5h-169v-255h171q71 0 106 33.5t35 93.5zM75 651q0 26 11 38.5t39 12.5h233q47 0 86.5 -15t68 -42.5t44.5 -66t16 -84.5q0 -27 -9 -64t-33.5 -70t-68 -56t-111.5 -23h-186v-264q0 -11 -4 -14t-15 -3h-52q-10 0 -14.5 3 t-4.5 14v634z"/>
<glyph glyph-name="afii10035" horiz-adv-x="598" unicode="С" d="M369 75q44 0 84 10t75 26q11 5 16 1t7 -9l19 -42q4 -9 4 -14q0 -2 -1 -4.5t-8 -7.5q-24 -14 -51.5 -23t-55 -14t-54.5 -7t-51 -2q-70 0 -125.5 21t-93.5 64t-58.5 109t-20.5 157q0 84 22 152.5t62 117t96.5 74.5t124.5 26q43 0 89 -7.5t97 -33.5q6 -3 8 -8t-3 -15 l-23 -46q-3 -6 -6.5 -8.5t-11.5 1.5q-70 31 -146 31q-57 0 -97.5 -24t-67 -63.5t-38.5 -91t-12 -105.5q0 -55 10.5 -103t36 -84t68 -57t105.5 -21z"/>
<glyph glyph-name="afii10036" horiz-adv-x="547" unicode="Т" d="M224 619h-195q-9 0 -11.5 3.5t-2.5 12.5v49q0 8 2.5 12t11.5 4h490q9 0 11.5 -4t2.5 -12v-49q0 -9 -2.5 -12.5t-11.5 -3.5h-201v-602q0 -11 -4 -14t-14 -3h-57q-10 0 -14.5 3t-4.5 14v602z"/>
<glyph glyph-name="afii10037" horiz-adv-x="566" unicode="У" d="M331 102q-14 -36 -29.5 -60t-35.5 -37.5t-45 -19t-56 -5.5q-13 0 -34 2t-44 9q-10 3 -12.5 6t-0.5 10l10 50q2 8 5.5 9t11.5 0q22 -3 37 -4.5t29 -0.5q28 1 47.5 13.5t33.5 47.5l27 70h-16q-16 0 -27 4.5t-21 30.5l-193 462q-1 3 -1 5q0 7 11 7h70q10 0 13.5 -4t5.5 -10 l105 -261l69 -174h7l67 181l97 256q3 8 7.5 10t12.5 2h63q8 0 9.5 -3t1.5 -5t-1 -5z"/>
<glyph glyph-name="afii10038" horiz-adv-x="831" unicode="Ф" d="M459 15q0 -10 -4 -12.5t-12 -2.5h-61q-8 0 -12 2.5t-4 12.5v43q-150 13 -230.5 92.5t-80.5 209.5q0 64 22.5 117t63.5 92t98.5 63t126.5 30v23q0 10 4 12.5t12 2.5h61q8 0 12 -2.5t4 -12.5v-23q76 -6 135 -29t99.5 -62t61.5 -92.5t21 -118.5t-23 -118t-65 -91.5 t-100.5 -62.5t-128.5 -30v-43zM366 586q-54 -5 -95.5 -24.5t-70 -49.5t-43 -69t-14.5 -83t13 -83t40.5 -68.5t69.5 -49t100 -24.5v451zM459 134q58 4 101.5 23t71.5 49t42 69.5t14 84.5t-13.5 84.5t-41.5 69.5t-71 49.5t-103 23.5v-453z"/>
<glyph glyph-name="afii10039" horiz-adv-x="561" unicode="Х" d="M549 13q1 -2 1 -5q0 -2 -1 -5t-8 -3h-73q-11 0 -16 3t-10 11l-163 275l-163 -275q-5 -8 -10.5 -11t-16.5 -3h-69q-8 0 -9 2.5t-1 4.5q0 3 2 6l215 348l-200 328q-2 3 -0.5 7.5t8.5 4.5h69q13 0 17.5 -2.5t9.5 -11.5l151 -251l149 251q5 8 10.5 11t16.5 3h66q7 0 8.5 -4.5 t-1.5 -9.5l-199 -324z"/>
<glyph glyph-name="afii10040" horiz-adv-x="704" unicode="Ц" d="M644 82q13 -1 20 -5t10 -10t3 -12.5v-12.5l-12 -191q-1 -10 -4.5 -13t-8.5 -3h-49q-11 0 -12 16l-5 149h-452q-26 0 -42.5 15t-16.5 47v624q0 10 4 12.5t12 2.5h60q9 0 12.5 -2.5t3.5 -12.5v-605h352v605q0 10 4.5 12.5t12.5 2.5h58q10 0 13.5 -2.5t3.5 -12.5v-602z"/>
<glyph glyph-name="afii10041" horiz-adv-x="626" unicode="Ч" d="M38 686q0 10 3.5 12.5t12.5 2.5h58q8 0 12.5 -2.5t4.5 -12.5v-178q0 -88 48 -125.5t157 -37.5q30 0 64 3t62 10v328q0 10 3.5 12.5t13.5 2.5h58q8 0 12 -2.5t4 -12.5v-671q0 -10 -4 -12.5t-12 -2.5h-58q-10 0 -13.5 2.5t-3.5 12.5v263q-29 -6 -64.5 -9t-67.5 -3 q-143 0 -216.5 54.5t-73.5 177.5v188z"/>
<glyph glyph-name="afii10042" horiz-adv-x="967" unicode="Ш" d="M169 80h273v606q0 10 4 12.5t12 2.5h58q9 0 12.5 -2.5t3.5 -12.5v-606h267v606q0 9 4.5 11.5t12.5 2.5h59q9 0 12.5 -2.5t3.5 -11.5v-624q0 -32 -15.5 -47t-39.5 -15h-708q-24 0 -38.5 15t-14.5 47v624q0 9 3.5 11.5t11.5 2.5h63q8 0 12 -2.5t4 -11.5v-606z"/>
<glyph glyph-name="afii10043" horiz-adv-x="985" unicode="Щ" d="M129 0q-24 0 -39 15t-15 47v624q0 10 4 12.5t12 2.5h62q9 0 12.5 -2.5t3.5 -12.5v-605h273v605q0 10 4 12.5t13 2.5h57q10 0 13.5 -2.5t3.5 -12.5v-605h267v605q0 10 4 12.5t12 2.5h60q9 0 12.5 -2.5t3.5 -12.5v-600l33 -2q13 -1 20 -5.5t10 -10t3 -12v-11.5l-12 -194 q-1 -10 -4.5 -13t-8.5 -3h-49q-11 0 -12 16l-5 149h-738z"/>
<glyph glyph-name="afii10044" horiz-adv-x="810" unicode="Ъ" d="M679 222q0 28 -9 52t-27 42t-45 28.5t-62 10.5h-181v-271h179q43 0 71.5 14t44.5 35t22.5 45t6.5 44zM296 700q28 0 43.5 -15.5t15.5 -47.5v-204h179q82 0 129.5 -24t72.5 -58t32 -71.5t7 -64.5q0 -47 -18 -86.5t-49 -68t-73 -44.5t-90 -16h-232q-29 0 -40.5 12t-11.5 38 v569h-241q-10 0 -12.5 3.5t-2.5 12.5v49q0 8 2.5 12t12.5 4h276z"/>
<glyph glyph-name="afii10045" horiz-adv-x="826" unicode="Ы" d="M751 15q0 -10 -4 -12.5t-13 -2.5h-60q-8 0 -12 2.5t-4 12.5v670q0 10 4 12.5t12 2.5h60q9 0 13 -2.5t4 -12.5v-670zM495 222q0 28 -9.5 52t-27.5 42t-44.5 28.5t-61.5 10.5h-184v-271h182q43 0 71 14t44.5 35t23 45t6.5 44zM126 0q-27 0 -39 12t-12 38v636q0 10 4 12.5 t12 2.5h61q9 0 12.5 -2.5t3.5 -12.5v-253h181q82 0 129.5 -24t72 -58t31.5 -71.5t7 -64.5q0 -47 -17.5 -86.5t-48.5 -68t-73 -44.5t-90 -16h-234z"/>
<glyph glyph-name="afii10046" horiz-adv-x="625" unicode="Ь" d="M495 222q0 28 -9.5 52t-27.5 42t-44.5 28.5t-61.5 10.5h-184v-271h182q43 0 71 14t44.5 35t23 45t6.5 44zM126 0q-27 0 -39 12t-12 38v636q0 10 4 12.5t12 2.5h61q9 0 12.5 -2.5t3.5 -12.5v-253h181q82 0 129.5 -24t72 -58t31.5 -71.5t7 -64.5q0 -47 -17.5 -86.5 t-48.5 -68t-73 -44.5t-90 -16h-234z"/>
<glyph glyph-name="afii10047" horiz-adv-x="604" unicode="Э" d="M235 75q61 0 101.5 19t66 52.5t37 80t14.5 102.5h-293q-9 0 -11.5 4t-2.5 12v47q0 9 2.5 12.5t11.5 3.5h292q-4 46 -17 85.5t-37.5 68.5t-61 45.5t-87.5 16.5q-39 0 -80 -8t-75 -23q-8 -4 -12 -1.5t-6 8.5l-20 46q-5 11 -3 15.5t8 7.5q51 26 101.5 33.5t92.5 7.5 q68 0 122.5 -21.5t92.5 -64.5t58 -107.5t20 -150.5q0 -189 -78 -283t-220 -94q-24 0 -51 2t-55 7t-55.5 14t-51.5 23q-6 5 -7 8t-1 4q0 5 4 14l19 42q2 5 7 9t16 -1q35 -16 75 -26t84 -10z"/>
<glyph glyph-name="afii10048" horiz-adv-x="911" unicode="Ю" d="M763 350q0 60 -9.5 111t-31.5 88t-58 58t-88 21q-51 0 -88.5 -21t-61.5 -58.5t-35.5 -88t-11.5 -110.5t10.5 -111t33.5 -88.5t59.5 -58.5t88.5 -21t88.5 21.5t59.5 59t33.5 88.5t10.5 110zM856 350q0 -84 -19 -151t-55.5 -113.5t-89.5 -71.5t-121 -25q-79 0 -132 28 t-85.5 75t-47.5 108t-18 128h-123v-313q0 -10 -3.5 -12.5t-12.5 -2.5h-58q-8 0 -12 2.5t-4 12.5v670q0 10 4 12.5t12 2.5h58q9 0 12.5 -2.5t3.5 -12.5v-276h125q6 70 28.5 126t59.5 95t87 60t111 21q69 0 121 -25.5t87.5 -73t53.5 -114t18 -148.5z"/>
<glyph glyph-name="afii10049" horiz-adv-x="634" unicode="Я" d="M289 617q-38 0 -63 -11.5t-40 -28.5t-21 -38.5t-6 -40.5q0 -50 32.5 -84t104.5 -34h168v237h-175zM464 301h-143q-50 0 -86.5 -19.5t-52.5 -78.5l-52 -191q-2 -9 -7.5 -10.5t-10.5 -1.5h-65q-8 0 -10.5 3.5t-2.5 8.5v5l55 202q11 37 31 63.5t62 42.5q-57 23 -86 69 t-29 108q0 43 15 79.5t43 63t67 41.5t87 15h228q29 0 40 -12t11 -38v-637q0 -9 -4 -11.5t-12 -2.5h-61q-9 0 -13 2.5t-4 11.5v287z"/>
<glyph glyph-name="afii10065" horiz-adv-x="538" unicode="а" d="M384 258h-116q-18 0 -41.5 -2.5t-44.5 -13t-35.5 -31t-14.5 -56.5q0 -27 10 -45.5t27 -29t40 -15t50 -4.5q9 0 23.5 0.5t32 3t35.5 6t34 9.5v178zM473 49q0 -20 -15 -26q-45 -20 -97.5 -27t-100.5 -7q-65 0 -106.5 13.5t-65.5 36.5t-33.5 53t-9.5 63q0 34 11.5 66.5 t37.5 57t67.5 39.5t101.5 15h122v22q0 24 -4.5 43t-17.5 33t-36.5 21.5t-60.5 7.5q-35 0 -74.5 -6t-64.5 -14q-8 -3 -13 -2t-7 9l-12 43q-2 5 -0.5 9.5t9.5 7.5q38 16 87 22.5t90 6.5q100 0 146 -44.5t46 -129.5v-313z"/>
<glyph glyph-name="afii10066" horiz-adv-x="557" unicode="б" d="M306 490q59 0 98.5 -20.5t63.5 -55t34 -79t10 -92.5q0 -42 -11.5 -87t-39.5 -82t-75 -61t-119 -24t-116 22.5t-68 59t-32 81.5t-8 90q0 95 7 169t29 129t63.5 92.5t109.5 58.5q20 6 44 11.5t48 10.5t46.5 9t40.5 8q6 1 10 1q2 0 4.5 -0.5t4.5 -8.5l9 -39q6 -20 -11 -24 q-77 -15 -131 -28q-48 -12 -79.5 -26.5t-50.5 -36t-29 -52t-16 -74.5q1 0 2 -1q38 26 82 37.5t80 11.5zM271 61q45 0 74 16.5t46.5 42.5t24.5 57.5t7 61.5q0 34 -6 66.5t-20.5 57.5t-39.5 40.5t-64 15.5q-37 0 -80 -14.5t-79 -41.5q-4 -46 -5 -73.5t-1 -53.5q0 -38 7 -70 t23.5 -55.5t44 -36.5t68.5 -13z"/>
<glyph glyph-name="afii10067" horiz-adv-x="553" unicode="в" d="M418 159q0 39 -25.5 63t-76.5 24h-164v-178h163q32 0 52 9t31.5 22.5t15.5 29.5t4 30zM152 314h169q10 0 23.5 3.5t24.5 11.5t19 21.5t8 34.5q0 27 -19 46t-51 19h-174v-136zM420 282q48 -16 68 -51.5t20 -76.5q0 -35 -13.5 -63t-36.5 -48.5t-54.5 -31.5t-68.5 -11h-228 q-21 0 -31.5 11t-10.5 29v445q0 19 11 29.5t31 10.5h218q70 0 115 -31.5t45 -99.5q0 -34 -17.5 -63t-46.5 -43z"/>
<glyph glyph-name="afii10068" horiz-adv-x="459" unicode="г" d="M225 450q-38 0 -55 -16.5t-17 -51.5v-364q0 -11 -4 -14.5t-15 -3.5h-48q-10 0 -15 3.5t-5 14.5v349q0 31 7 60t24.5 50.5t48 34.5t78.5 13h208q11 0 14 -5t3 -14v-38q0 -10 -3 -14t-14 -4h-207z"/>
<glyph glyph-name="afii10069" horiz-adv-x="608" unicode="д" d="M429 448h-195l-24 -165q-8 -54 -13.5 -89t-11 -58t-12.5 -37.5t-16 -27.5h272v377zM63 71q25 28 37 65t21 96l37 245q3 26 18 37t44 11h247q33 0 41 -13.5t8 -34.5v-407l29 -2q21 -2 25.5 -13.5t3.5 -20.5l-11 -177q0 -13 -11 -13h-55q-9 0 -10 13l-6 143h-378l-10 -146 q0 -7 -3.5 -9.5t-7.5 -2.5h-55q-4 0 -6.5 2t-3.5 10l-11 179q-1 12 5 22.5t26 12.5z"/>
<glyph glyph-name="afii10070" horiz-adv-x="538" unicode="е" d="M413 307q0 31 -6 59.5t-21.5 50t-42 34t-66.5 12.5q-33 0 -58.5 -13t-43 -34.5t-27.5 -49.5t-12 -59h277zM276 536q57 0 98.5 -16t68 -45.5t39.5 -70t13 -89.5q0 -24 -6 -39t-16.5 -23.5t-24 -12t-28.5 -3.5h-287q0 -47 13 -80t34.5 -53.5t50 -29.5t61.5 -9t65 8.5 t53 19.5q12 7 19 -5l21 -42q7 -14 -6 -20q-36 -22 -77.5 -29.5t-81.5 -7.5q-56 0 -100.5 16t-75.5 49t-47.5 84t-16.5 122q0 66 17.5 117.5t48.5 86.5t73 53.5t92 18.5z"/>
<glyph glyph-name="afii10072" horiz-adv-x="763" unicode="ж" d="M338 246h-78q-31 0 -59 -16t-39 -54l-49 -165q-2 -8 -7 -9.5t-9 -1.5h-58q-11 0 -12.5 6t-0.5 11l51 173q10 32 26 56.5t55 36.5l-1 2q-27 12 -42 36.5t-23 56.5l-38 131q-1 5 1 10.5t11 5.5h54q5 0 9.5 -2t6.5 -10l39 -125q7 -23 17 -37t22.5 -22t27 -10.5t29.5 -2.5h67 v194q0 10 3.5 12.5t12.5 2.5h55q8 0 12 -2.5t4 -12.5v-194h67q15 0 29.5 2.5t27 10.5t23 22t17.5 37l38 125q2 8 6.5 10t9.5 2h54q9 0 10.5 -5.5t0.5 -10.5l-37 -131q-8 -32 -23.5 -56.5t-41.5 -36.5l-1 -2q19 -6 32.5 -15t22.5 -21t15 -26.5t11 -30.5l50 -173q1 -3 1 -7 q0 -10 -12 -10h-59q-4 0 -9 1.5t-7 9.5l-49 165q-11 38 -39 54t-59 16h-78v-231q0 -10 -4 -12.5t-12 -2.5h-55q-9 0 -12.5 2.5t-3.5 12.5v231z"/>
<glyph glyph-name="afii10073" horiz-adv-x="476" unicode="з" d="M333 277q47 -12 75 -44.5t28 -77.5q0 -35 -14 -65t-41 -52t-67 -35t-93 -13q-49 0 -102.5 8t-90.5 28q-9 6 -9 13q0 3 1 5l22 45q3 6 8 5.5t11 -3.5q24 -11 65 -21t82 -10q77 0 110.5 28.5t33.5 69.5q0 38 -35.5 61.5t-117.5 23.5q-17 0 -25 5.5t-8 20.5v17q0 26 32 26 q136 3 136 77q0 33 -29 52t-86 19q-34 0 -72 -8.5t-64 -19.5q-5 -2 -10.5 -2.5t-8.5 7.5l-18 43q-4 11 6 16q36 19 82 29t97 10q85 0 137 -35.5t52 -101.5q0 -38 -24 -69t-63 -49v-3z"/>
<glyph glyph-name="afii10074" horiz-adv-x="574" unicode="и" d="M65 510q0 10 4 13t12 3h54q9 0 12.5 -3t3.5 -13v-386h4q24 38 43.5 69.5t44.5 67.5l151 233q10 17 19 24t29 7h26q17 0 28.5 -10t11.5 -30v-471q0 -9 -3.5 -11.5t-12.5 -2.5h-55q-8 0 -12 2.5t-4 11.5v382h-6q-12 -18 -21.5 -33.5l-19 -31t-19.5 -31.5t-22 -34l-156 -236 q-11 -17 -21.5 -23.5t-27.5 -6.5h-23q-18 0 -29 9.5t-11 29.5v471z"/>
<glyph glyph-name="afii10075" horiz-adv-x="574" unicode="й" d="M281 578q-50 0 -91 31t-70 74q-2 3 -3.5 8t6.5 11l19 17q9 5 12 3.5t10 -7.5q29 -32 60.5 -50t60.5 -18q22 0 51 13.5t70 57.5q7 7 11 7q3 0 8 -4l20 -16q8 -8 6.5 -13t-3.5 -8q-42 -57 -85.5 -81.5t-81.5 -24.5zM65 510q0 10 4 13t12 3h54q9 0 12.5 -3t3.5 -13v-386h4 q24 38 43.5 69.5t44.5 67.5l151 233q10 17 19 24t29 7h26q17 0 28.5 -10t11.5 -30v-471q0 -9 -3.5 -11.5t-12.5 -2.5h-55q-8 0 -12 2.5t-4 11.5v382h-6q-12 -18 -21.5 -33.5l-19 -31t-19.5 -31.5t-22 -34l-156 -236q-11 -17 -21.5 -23.5t-27.5 -6.5h-23q-18 0 -29 9.5 t-11 29.5v471z"/>
<glyph glyph-name="afii10076" horiz-adv-x="508" unicode="к" d="M151 15q0 -10 -3.5 -12.5t-12.5 -2.5h-54q-8 0 -12.5 2.5t-4.5 12.5v495q0 10 4.5 12.5t12.5 2.5h54q9 0 12.5 -2.5t3.5 -12.5v-194h86q15 0 29 2.5t26.5 10.5t23 22t17.5 37l39 125q2 8 6.5 10t9.5 2h55q8 0 10 -5.5t1 -10.5l-38 -131q-8 -32 -23 -56.5t-42 -36.5l-1 -2 q39 -12 55 -36.5t26 -56.5l51 -173v-5t-0.5 -7.5t-11.5 -4.5h-59q-4 0 -9 1.5t-7 9.5l-49 165q-11 38 -39 54t-59 16h-97v-231z"/>
<glyph glyph-name="afii10077" horiz-adv-x="557" unicode="л" d="M135 475q1 26 15 38t36 12h257q29 0 39 -13t10 -37v-460q0 -10 -4 -12.5t-15 -2.5h-49q-9 0 -13.5 2.5t-4.5 12.5v434h-193l-6 -75q-8 -100 -17 -167.5t-26 -111.5t-45.5 -68.5t-74.5 -38.5q-6 -2 -10 -2.5t-5 -0.5q-6 0 -9 9l-13 40q-1 3 -1 6q0 10 13 16q27 12 44.5 29 t29.5 50t19.5 88t14.5 144z"/>
<glyph glyph-name="afii10078" horiz-adv-x="696" unicode="м" d="M149 380v-365q0 -10 -3.5 -12.5t-12.5 -2.5h-52q-8 0 -12 2.5t-4 12.5v473q0 14 9 25.5t32 11.5h31q17 0 27 -5.5t19 -24.5l105 -217q1 -4 10 -23t19 -41.5t19 -41.5t11 -22h3q2 5 12.5 27.5t22.5 48.5t22.5 48.5t13.5 27.5q2 4 9 19t17 35t20.5 43t20.5 43t17 34.5 t9 18.5q10 18 19 24t27 6h31q23 0 31.5 -12t8.5 -25v-473q0 -10 -3.5 -12.5t-12.5 -2.5h-52q-8 0 -12 2.5t-4 12.5v373h-4l-50 -108q-2 -3 -12.5 -25.5l-24.5 -52.5t-29 -61t-24 -50q-8 -17 -16.5 -23.5t-26.5 -6.5h-23q-18 0 -27 6.5t-17 23.5q-4 8 -16.5 34t-26.5 55.5 t-27 55.5l-17 34q-1 2 -9 18.5t-17.5 36t-17 36.5t-8.5 19h-5z"/>
<glyph glyph-name="afii10079" horiz-adv-x="565" unicode="н" d="M154 18q0 -11 -4.5 -14.5t-14.5 -3.5h-49q-10 0 -15 3.5t-5 14.5v490q0 11 5 14t15 3h49q10 0 14.5 -3t4.5 -14v-189h258v189q0 11 4.5 14t14.5 3h49q11 0 14.5 -3t3.5 -14v-490q0 -11 -3.5 -14.5t-14.5 -3.5h-49q-10 0 -14.5 3.5t-4.5 14.5v227h-258v-227z"/>
<glyph glyph-name="afii10080" horiz-adv-x="557" unicode="о" d="M424 262q0 39 -6 75.5t-22 64t-44 44.5t-72 17q-38 0 -66 -16t-46 -43t-27 -63t-9 -76q0 -45 7 -82.5t24 -64t44.5 -41.5t69.5 -15t70.5 17t45.5 45t24 64t7 74zM512 265q0 -134 -60.5 -205t-175.5 -71q-113 0 -172 69t-59 204q0 66 17.5 117t49 86t74.5 53t93 18 q114 0 173.5 -72t59.5 -199z"/>
<glyph glyph-name="afii10081" horiz-adv-x="573" unicode="п" d="M152 15q0 -10 -4 -12.5t-12 -2.5h-55q-8 0 -12 2.5t-4 12.5v469q0 11 9 26t33 15h359q24 0 33 -15t9 -26v-469q0 -10 -3.5 -12.5t-12.5 -2.5h-55q-8 0 -12 2.5t-4 12.5v434h-269v-434z"/>
<glyph glyph-name="afii10082" horiz-adv-x="559" unicode="р" d="M423 263q0 55 -11 93t-31.5 61t-49 33.5t-64.5 10.5q-26 0 -59 -5t-56 -14v-360q38 -11 65.5 -14.5t50.5 -3.5q34 0 62.5 10.5t49 34t32 61.5t11.5 93zM514 263q0 -57 -14.5 -106.5t-43 -87t-72.5 -59t-102 -21.5q-28 0 -60.5 3t-69.5 14v-194q0 -9 -3.5 -11.5 t-11.5 -2.5h-56q-8 0 -12 2.5t-4 11.5v670q0 13 12 17q50 22 103 29.5t101 7.5q60 0 104 -20.5t72.5 -57t42.5 -86.5t14 -109z"/>
<glyph glyph-name="afii10083" horiz-adv-x="478" unicode="с" d="M284 64q34 0 66.5 9t54.5 20q9 5 13 2.5t7 -7.5l20 -42q3 -5 3 -9q0 -7 -8 -12q-38 -21 -83 -28.5t-86 -7.5q-110 0 -168 67.5t-58 200.5q0 64 16.5 115.5t47 88t74.5 56t99 19.5q40 0 76.5 -8t70.5 -27q14 -8 6 -21l-21 -41q-3 -6 -6.5 -8.5t-12.5 2.5q-24 11 -52 18 t-60 7q-40 0 -68.5 -16.5t-47 -44.5t-27 -64t-8.5 -76t7 -75t24.5 -61.5t46.5 -41.5t74 -15z"/>
<glyph glyph-name="afii10084" horiz-adv-x="458" unicode="т" d="M268 18q0 -11 -4 -14.5t-14 -3.5h-49q-10 0 -14 3.5t-4 14.5v432h-155q-11 0 -14.5 4.5t-3.5 12.5v39q0 9 3.5 14t14.5 5h402q12 0 15 -5t3 -14v-39q0 -8 -3 -12.5t-15 -4.5h-162v-432z"/>
<glyph glyph-name="afii10085" horiz-adv-x="490" unicode="у" d="M277 -86q-23 -69 -59 -96t-92 -27q-14 0 -35 2t-46 9q-16 4 -12 16l11 44q2 8 6 9.5t11 -0.5q19 -5 28.5 -6.5t22.5 -1.5q34 0 55 13.5t34 53.5q1 3 5 14t8.5 23.5t8 23.5t4.5 14h-19q-14 0 -24.5 4.5t-18.5 30.5l-154 474q-1 2 -1 4q0 7 10 7h67q11 0 14 -10 q2 -7 8.5 -27.5t15.5 -48t19 -59t19 -59t15.5 -48.5t8.5 -27l51 -176h6q3 8 12 36t18.5 59.5t18 57t9.5 27.5t6.5 18.5t14 41.5t18.5 54.5t19.5 58.5t18 53.5t13.5 38.5q3 10 14 10h64q10 0 10 -7q0 -2 -1 -4z"/>
<glyph glyph-name="afii10086" horiz-adv-x="705" unicode="ф" d="M128 261q0 -38 11 -72.5t33.5 -62t56 -45t79.5 -21.5v398q-90 -5 -135 -57.5t-45 -139.5zM576 261q0 87 -45 139.5t-135 57.5v-398q49 4 83 22t55.5 45t31.5 61.5t10 72.5zM396 531q58 -2 107 -20t83.5 -52t54 -83.5t19.5 -112.5q0 -58 -16.5 -106.5t-49.5 -84.5 t-82.5 -57.5t-115.5 -25.5v-177q0 -9 -3.5 -11.5t-12.5 -2.5h-56q-8 0 -12 2.5t-4 11.5v177q-65 4 -114.5 25.5t-82.5 57.5t-49.5 84.5t-16.5 106.5q0 63 19.5 112.5t55 83.5t83.5 52t105 20v185q0 10 4 12.5t12 2.5h56q9 0 12.5 -2.5t3.5 -12.5v-185z"/>
<glyph glyph-name="afii10087" horiz-adv-x="469" unicode="х" d="M284 282l175 -268q2 -4 2 -9t-8 -5h-73q-11 0 -15 3.5t-7 8.5l-125 202l-128 -201q-4 -6 -8.5 -9.5t-14.5 -3.5h-64q-10 0 -10 6q0 3 3 9l174 263l-151 232q-3 4 -2 9.5t9 5.5h67q10 0 14.5 -3.5t7.5 -8.5l107 -172l108 172q4 5 8.5 8.5t12.5 3.5h65q9 0 9.5 -5t-1.5 -8z "/>
<glyph glyph-name="afii10088" horiz-adv-x="588" unicode="ц" d="M499 73l29 -3q21 -2 25.5 -13t3.5 -20l-11 -181q-1 -8 -4 -10.5t-8 -2.5h-55q-9 0 -10 13l-5 144h-352q-22 0 -34.5 14t-12.5 39v455q0 11 5 14t14 3h49q11 0 15 -3t4 -14v-437h260v437q0 11 4.5 14t15.5 3h49q9 0 13.5 -3t4.5 -14v-435z"/>
<glyph glyph-name="afii10089" horiz-adv-x="523" unicode="ч" d="M35 510q0 10 4 12.5t12 2.5h56q8 0 12 -2.5t4 -12.5v-117q0 -38 7.5 -62t23 -37.5t40 -19t57.5 -5.5q26 0 60 4.5t60 14.5v222q0 10 3.5 12.5t12.5 2.5h55q8 0 12 -2.5t4 -12.5v-495q0 -10 -4 -12.5t-12 -2.5h-55q-9 0 -12.5 2.5t-3.5 12.5v199q-29 -10 -67.5 -15.5 t-66.5 -5.5q-106 0 -154 49.5t-48 152.5v115z"/>
<glyph glyph-name="afii10090" horiz-adv-x="838" unicode="ш" d="M773 54q0 -26 -12 -40t-35 -14h-614q-22 0 -34.5 14t-12.5 40v454q0 11 4.5 14t14.5 3h49q11 0 15 -3t4 -14v-437h225v437q0 11 4 14t15 3h47q11 0 15.5 -3t4.5 -14v-437h224v437q0 11 4.5 14t14.5 3h49q9 0 13.5 -3t4.5 -14v-454z"/>
<glyph glyph-name="afii10091" horiz-adv-x="862" unicode="щ" d="M802 69q21 -2 25.5 -13t3.5 -20l-12 -180q-1 -8 -3.5 -10.5t-7.5 -2.5h-55q-9 0 -10 13l-5 144h-626q-22 0 -34.5 14t-12.5 39v455q0 11 5 14t14 3h49q11 0 15 -3t4 -14v-437h225v437q0 11 4 14t15 3h47q11 0 15.5 -3t4.5 -14v-437h224v437q0 11 4.5 14t14.5 3h49 q9 0 13.5 -3t4.5 -14v-436z"/>
<glyph glyph-name="afii10092" horiz-adv-x="671" unicode="ъ" d="M549 173q0 20 -6.5 38t-20 32t-34 22.5t-47.5 8.5h-159v-203h158q34 0 55.5 11t33.5 26.5t16 33t4 31.5zM444 346q60 0 97.5 -19.5t58.5 -46.5t28 -56.5t7 -50.5q0 -36 -14 -67.5t-38 -55t-56 -37t-69 -13.5h-215q-28 0 -38 16.5t-10 36.5v397h-170q-10 0 -12.5 4 t-2.5 12v43q0 8 2.5 12t12.5 4h217q17 0 29 -9.5t12 -32.5l-1 -137h162z"/>
<glyph glyph-name="afii10093" horiz-adv-x="716" unicode="ы" d="M151 274v-203h158q34 0 55.5 10.5t33.5 26.5t16 33.5t4 31.5q0 20 -6.5 38t-20 32t-34 22.5t-47.5 8.5h-159zM312 345q61 0 98.5 -19t58 -46t27.5 -56.5t7 -50.5q0 -36 -13.5 -68t-37.5 -55t-56 -36.5t-69 -13.5h-215q-28 0 -37.5 16t-9.5 36v455q0 11 4 14.5t13 3.5h50 q11 0 15 -3.5t4 -14.5v-162h161zM564 507q0 11 4 14.5t14 3.5h49q10 0 14.5 -3.5t4.5 -14.5v-490q0 -11 -4.5 -14t-14.5 -3h-49q-10 0 -14 3t-4 14v490z"/>
<glyph glyph-name="afii10094" horiz-adv-x="541" unicode="ь" d="M151 274v-203h158q34 0 55.5 10.5t33.5 26.5t16 33.5t4 31.5q0 20 -6.5 38t-20 32t-34 22.5t-47.5 8.5h-159zM312 345q61 0 98.5 -19t58 -46t27.5 -56.5t7 -50.5q0 -36 -13.5 -68t-37.5 -55t-56 -36.5t-69 -13.5h-215q-28 0 -37.5 16t-9.5 36v455q0 11 4 14.5t13 3.5h50 q11 0 15 -3.5t4 -14.5v-162h161z"/>
<glyph glyph-name="afii10095" horiz-adv-x="474" unicode="э" d="M205 536q109 0 168 -66t59 -195q0 -141 -60 -213.5t-177 -72.5q-40 0 -83.5 7t-78.5 27q-9 4 -9 12q0 4 3 9l20 44q3 5 7 7.5t12 -2.5q23 -10 55.5 -19.5t66.5 -9.5q41 0 70.5 13t48 36.5t27.5 56.5t10 73h-200q-4 0 -7 2.5t-3 10.5v48q0 5 1.5 8t7.5 3h197 q-4 66 -37 104.5t-102 38.5q-33 0 -64 -7.5t-55 -17.5q-9 -5 -13 -2.5t-6 7.5l-17 41q-4 9 -3 13t7 8q34 19 74.5 27.5t80.5 8.5z"/>
<glyph glyph-name="afii10096" horiz-adv-x="737" unicode="ю" d="M605 262q0 41 -6.5 77.5t-22.5 64t-41.5 43.5t-64.5 16q-35 0 -61.5 -15t-44.5 -41t-27 -62.5t-9 -79.5q0 -45 6.5 -82.5t23 -64t43 -41.5t67.5 -15q38 0 64.5 16.5t42.5 44t23 64t7 75.5zM692 265q0 -131 -58.5 -203.5t-167.5 -72.5t-164.5 65.5t-60.5 185.5h-89v-222 q0 -11 -4 -14.5t-16 -3.5h-48q-9 0 -14 3.5t-5 14.5v490q0 11 5 14t14 3h48q12 0 16 -3t4 -14v-195h92q13 106 72 164.5t152 58.5q110 0 167 -72.5t57 -198.5z"/>
<glyph glyph-name="afii10097" horiz-adv-x="544" unicode="я" d="M232 451q-26 0 -43.5 -7.5t-28.5 -19.5t-16 -26.5t-5 -28.5q0 -35 22 -59.5t78 -24.5h152v166h-159zM435 525q18 0 30.5 -10t12.5 -31v-471q0 -9 -5 -11t-13 -2h-53q-9 0 -12.5 2.5t-3.5 11.5v201h-128q-40 0 -66.5 -12.5t-40.5 -57.5l-40 -132q-2 -8 -7.5 -10.5 t-10.5 -2.5h-59q-8 0 -10.5 3t-2.5 7v6l46 143q8 27 23 48.5t50 30.5q-1 0 -1 1q-49 14 -70 50t-21 81q0 33 11.5 61t34 49t54.5 33t73 12h209z"/>
<glyph glyph-name="afii10071" horiz-adv-x="538" unicode="ё" d="M241 677q0 -21 -17 -37.5t-37 -16.5q-21 0 -38 16.5t-17 37.5q0 20 17 36.5t38 16.5q20 0 37 -16.5t17 -36.5zM422 677q0 -21 -17 -37.5t-37 -16.5q-22 0 -38.5 16.5t-16.5 37.5q0 20 16.5 36.5t37.5 16.5t38 -16t17 -37zM413 307q0 31 -6 59.5t-21.5 50t-42 34 t-66.5 12.5q-33 0 -58.5 -13t-43 -34.5t-27.5 -49.5t-12 -59h277zM276 536q57 0 98.5 -16t68 -45.5t39.5 -70t13 -89.5q0 -24 -6 -39t-16.5 -23.5t-24 -12t-28.5 -3.5h-287q0 -47 13 -80t34.5 -53.5t50 -29.5t61.5 -9t65 8.5t53 19.5q12 7 19 -5l21 -42q7 -14 -6 -20 q-36 -22 -77.5 -29.5t-81.5 -7.5q-56 0 -100.5 16t-75.5 49t-47.5 84t-16.5 122q0 66 17.5 117.5t48.5 86.5t73 53.5t92 18.5z"/>
<glyph glyph-name="afii10099" horiz-adv-x="553" unicode="ђ" d="M73 647v69q0 10 4 12.5t12 2.5h54q9 0 12.5 -2.5t3.5 -12.5v-69h205q9 0 11 -3.5t2 -10.5v-26q0 -8 -2 -11t-11 -3h-205v-108q34 12 70 17t65 5q63 0 106 -22.5t68.5 -58.5t36.5 -82.5t11 -94.5q0 -46 -11.5 -91t-33 -85.5t-53 -74t-71.5 -55.5q-6 -3 -9.5 -3t-8.5 6 l-27 38q-7 9 4 15q53 36 87 96t34 147q0 91 -34.5 140t-115.5 49q-23 0 -54.5 -4t-63.5 -17v-395q0 -10 -3.5 -12.5t-12.5 -2.5h-54q-8 0 -12 2.5t-4 12.5v578h-42q-8 0 -9.5 3t-1.5 11v26q0 7 1.5 10.5t9.5 3.5h42z"/>
<glyph glyph-name="afii10100" horiz-adv-x="459" unicode="ѓ" d="M206 610q-7 2 -8.5 5t3.5 12l66 154q2 5 5.5 7.5t9.5 2.5h4l69 -18q8 -2 9 -6.5t-3 -9.5l-106 -150q-5 -8 -9 -9t-12 1zM225 450q-38 0 -55 -16.5t-17 -51.5v-364q0 -11 -4 -14.5t-15 -3.5h-48q-10 0 -15 3.5t-5 14.5v349q0 31 7 60t24.5 50.5t48 34.5t78.5 13h208 q11 0 14 -5t3 -14v-38q0 -10 -3 -14t-14 -4h-207z"/>
<glyph glyph-name="afii10101" horiz-adv-x="478" unicode="є" d="M284 64q34 0 66.5 9t54.5 20q9 5 13 2.5t7 -7.5l20 -42q3 -5 3 -9q0 -7 -8 -12q-38 -21 -83 -28.5t-86 -7.5q-110 0 -168 67.5t-58 200.5q0 64 16.5 115t47 87t74.5 56t99 21h8q76 0 139 -35q14 -8 6 -21l-21 -41q-3 -6 -6.5 -8.5t-12.5 2.5q-24 11 -50.5 18t-54.5 7h-7 q-68 -2 -104 -44.5t-43 -105.5h197q7 0 8 -3t1 -8v-48q0 -13 -9 -13h-200q1 -36 9 -67.5t26 -55t46 -36.5t70 -13z"/>
<glyph glyph-name="afii10102" horiz-adv-x="464" unicode="ѕ" d="M426 142q0 -39 -14.5 -67.5t-40 -47.5t-60 -28.5t-73.5 -9.5q-47 0 -100 9t-94 31q-6 3 -7.5 6.5t-1.5 5.5q0 4 2 9l19 41q3 8 7.5 10t14.5 -2q40 -19 82.5 -27.5t77.5 -8.5q48 0 76 19.5t28 55.5q0 37 -32 58t-91 42q-42 15 -72.5 30t-50 32.5t-28.5 39.5t-9 52 q0 63 45.5 103.5t132.5 40.5q41 0 79.5 -6.5t77.5 -22.5q12 -6 8 -19l-19 -47q-3 -6 -6.5 -6t-8.5 2q-40 15 -69.5 20t-63.5 5q-45 0 -68 -19t-23 -46q0 -17 6.5 -29.5t20.5 -23t37 -20.5t55 -22q31 -12 60.5 -25t52 -31.5t36.5 -43.5t14 -60z"/>
<glyph glyph-name="afii10103" horiz-adv-x="259" unicode="і" d="M172 15q0 -10 -3.5 -12.5t-12.5 -2.5h-54q-8 0 -12.5 2.5t-4.5 12.5v495q0 10 4.5 12.5t12.5 2.5h54q9 0 12.5 -2.5t3.5 -12.5v-495zM188 665q0 -24 -17 -41t-41 -17t-41.5 17t-17.5 41q0 25 17.5 42t41.5 17t41 -17t17 -42z"/>
<glyph glyph-name="afii10104" horiz-adv-x="267" unicode="ї" d="M177 15q0 -10 -4 -12.5t-12 -2.5h-55q-8 0 -12 2.5t-4 12.5v495q0 10 4 12.5t12 2.5h55q8 0 12 -2.5t4 -12.5v-495zM98 670q0 -21 -17 -37.5t-37 -16.5q-21 0 -38 16.5t-17 37.5q0 20 17 36.5t38 16.5q20 0 37 -16.5t17 -36.5zM279 670q0 -21 -17 -37.5t-37 -16.5 q-22 0 -38.5 16.5t-16.5 37.5q0 20 16.5 36.5t37.5 16.5t38 -16t17 -37z"/>
<glyph glyph-name="afii10105" horiz-adv-x="274" unicode="ј" d="M184 70q0 -70 -13.5 -119t-36.5 -83t-55 -54.5t-68 -33.5q-3 -1 -6 -1q-8 0 -10 9l-18 52q-1 3 -1 5q0 3 2.5 6t8.5 6q35 16 56.5 37t33 46.5t15.5 54t4 59.5v456q0 10 4.5 12.5t12.5 2.5h55q9 0 12.5 -2.5t3.5 -12.5v-440zM198 665q0 -24 -17 -41t-41 -17t-41 17t-17 41 q0 25 17 42t41 17t41 -17t17 -42z"/>
<glyph glyph-name="afii10106" horiz-adv-x="827" unicode="љ" d="M705 173q0 42 -26.5 71.5t-81.5 29.5h-158v-203h158q34 0 55 10.5t33 26t16 33t4 32.5zM213 449l-6 -75q-8 -100 -17 -167.5t-26 -111.5t-45.5 -68.5t-74.5 -38.5q-6 -2 -10 -2.5t-5 -0.5q-6 0 -9 9l-13 40q-1 3 -1 6q0 10 13 16q27 12 44.5 29t29.5 50t19.5 88t14.5 144 l8 108q1 26 15 38t36 12h210q25 0 34 -12.5t9 -27.5v-139h161q61 0 99 -19.5t58 -46.5t27 -56.5t7 -50.5q0 -36 -13.5 -67.5t-37 -55t-55.5 -37t-70 -13.5h-216q-28 0 -38 16.5t-10 36.5v396h-138z"/>
<glyph glyph-name="afii10107" horiz-adv-x="841" unicode="њ" d="M461 250v-179h156q32 0 52 9t31 23t14.5 30t3.5 30q0 40 -25 63.5t-76 23.5h-156zM619 321q58 0 94 -17t56.5 -41.5t27.5 -51.5t7 -48q0 -36 -13 -66t-35.5 -51.5t-53.5 -33.5t-68 -12h-211q-28 0 -38 16t-10 36v197h-223v-232q0 -11 -4.5 -14t-14.5 -3h-49 q-10 0 -14.5 3t-4.5 14v490q0 11 4.5 14t14.5 3h49q10 0 14.5 -3t4.5 -14v-186h223v186q0 11 4.5 14.5t13.5 3.5h50q10 0 14 -3.5t4 -14.5v-186h158z"/>
<glyph glyph-name="afii10108" horiz-adv-x="562" unicode="ћ" d="M24 594q-8 0 -10 3t-2 10v27q0 7 2 10.5t10 3.5h41v68q0 10 4 12.5t12 2.5h55q8 0 12 -2.5t4 -12.5v-68h210q8 0 10 -3.5t2 -10.5v-27q0 -7 -2 -10t-10 -3h-210v-111q32 12 70 17t67 5q56 0 95.5 -16.5t65 -47t37 -74t11.5 -97.5v-255q0 -10 -4 -12.5t-12 -2.5h-56 q-9 0 -12.5 2.5t-3.5 12.5v254q0 81 -33 120.5t-103 39.5q-29 0 -63 -5t-59 -16v-393q0 -10 -4 -12.5t-12 -2.5h-55q-8 0 -12 2.5t-4 12.5v579h-41z"/>
<glyph glyph-name="afii10109" horiz-adv-x="508" unicode="ќ" d="M151 15q0 -10 -3.5 -12.5t-12.5 -2.5h-54q-8 0 -12.5 2.5t-4.5 12.5v495q0 10 4.5 12.5t12.5 2.5h54q9 0 12.5 -2.5t3.5 -12.5v-194h86q15 0 29 2.5t26.5 10.5t23 22t17.5 37l39 125q2 8 6.5 10t9.5 2h55q8 0 10 -5.5t1 -10.5l-38 -131q-8 -32 -23 -56.5t-42 -36.5l-1 -2 q39 -12 55 -36.5t26 -56.5l51 -173v-5t-0.5 -7.5t-11.5 -4.5h-59q-4 0 -9 1.5t-7 9.5l-49 165q-11 38 -39 54t-59 16h-97v-231zM206 595q-9 3 -9 7q0 3 4 10l66 154q2 5 5.5 7.5t9.5 2.5h4l69 -18q9 -2 9 -8q0 -4 -3 -8l-106 -150q-5 -8 -7.5 -8.5t-4.5 -0.5q-4 0 -9 1z"/>
<glyph glyph-name="afii10110" horiz-adv-x="490" unicode="ў" d="M250 585q-50 0 -91 31t-70 74q-2 3 -3.5 8t6.5 11l19 17q9 5 12 3.5t10 -7.5q29 -32 60.5 -50t60.5 -18q22 0 51 13.5t70 57.5q7 7 11 7q3 0 8 -4l20 -16q8 -8 6.5 -13t-3.5 -8q-42 -57 -85.5 -81.5t-81.5 -24.5zM277 -86q-23 -69 -59 -96t-92 -27q-14 0 -35 2t-46 9 q-16 4 -12 16l11 44q2 8 6 9.5t11 -0.5q19 -5 28.5 -6.5t22.5 -1.5q34 0 55 13.5t34 53.5q1 3 5 14t8.5 23.5t8 23.5t4.5 14h-19q-14 0 -24.5 4.5t-18.5 30.5l-154 474q-1 2 -1 4q0 7 10 7h67q11 0 14 -10q2 -7 8.5 -27.5t15.5 -48t19 -59t19 -59t15.5 -48.5t8.5 -27 l51 -176h6q3 8 12 36t18.5 59.5t18 57t9.5 27.5t6.5 18.5t14 41.5t18.5 54.5t19.5 58.5t18 53.5t13.5 38.5q3 10 14 10h64q10 0 10 -7q0 -2 -1 -4z"/>
<glyph glyph-name="afii10193" horiz-adv-x="572" unicode="џ" d="M420 71v437q0 11 4.5 14t15.5 3h48q10 0 14.5 -3t4.5 -14v-454q0 -26 -12.5 -40t-35.5 -14h-126l-8 -144q0 -15 -11 -15h-55q-12 0 -12 15l-7 144h-128q-22 0 -34.5 14t-12.5 40v454q0 11 4.5 14t14.5 3h49q11 0 15 -3t4 -14v-437h268z"/>
<glyph glyph-name="afii10050" horiz-adv-x="551" unicode="Ґ" d="M166 19q0 -12 -4.5 -15.5t-15.5 -3.5h-50q-11 0 -16 3.5t-5 15.5v510q0 34 8.5 65.5t28 55t52 37.5t80.5 14l205 1v118q0 10 3.5 12.5t11.5 2.5h50q8 0 12 -2.5t4 -12.5v-143q0 -27 -15 -43t-47 -16h-223q-42 0 -60.5 -18t-18.5 -57v-524z"/>
<glyph glyph-name="afii10098" horiz-adv-x="474" unicode="ґ" d="M153 18q0 -11 -4 -14.5t-15 -3.5h-48q-10 0 -15 3.5t-5 14.5v349q0 31 7.5 60t26 50.5t49 34.5t75.5 13l162 1v116q0 8 3 10.5t11 2.5h49q8 0 11.5 -2.5t3.5 -10.5v-137q0 -25 -14 -40t-44 -15h-181q-38 0 -55 -16.5t-17 -51.5v-364z"/>
<glyph glyph-name="schwacyrillic" horiz-adv-x="538" unicode="ә" d="M127 219q0 -32 6 -60t21 -49.5t41.5 -34t67.5 -12.5q33 0 58 13t43 34.5t27.5 49.5t11.5 59h-276zM264 -10q-57 0 -98.5 16t-68 45.5t-39.5 70t-13 89.5q0 47 22 62.5t52 15.5h288q-1 47 -13.5 80t-34 53.5t-50 29.5t-61.5 9t-65 -8.5t-53 -19.5q-14 -7 -19 5l-22 42 q-6 15 6 20q37 22 78.5 29.5t81.5 7.5q56 0 100.5 -16t75.5 -49t47.5 -84t16.5 -122q0 -66 -17.5 -117.5t-48.5 -86.5t-73.5 -53.5t-91.5 -18.5z"/>
<glyph glyph-name="endash" horiz-adv-x="500" unicode="–" d="M40 259q-9 0 -11.5 4t-2.5 12v48q0 8 2.5 12t11.5 4h419q10 0 12.5 -4t2.5 -12v-48q0 -8 -2.5 -12t-12.5 -4h-419z"/>
<glyph glyph-name="emdash" horiz-adv-x="1000" unicode="—" d="M38 259q-10 0 -12.5 4t-2.5 12v48q0 8 2.5 12t12.5 4h925q9 0 11.5 -4t2.5 -12v-48q0 -8 -2.5 -12t-11.5 -4h-925z"/>
<glyph glyph-name="quoteleft" horiz-adv-x="290" unicode="‘" d="M59 478q17 56 33.5 111t32.5 111q3 10 6.5 14t13.5 4h30q18 0 18 -15l-16 -225q-1 -6 -4.5 -11.5t-12.5 -5.5h-84q-8 0 -12.5 3.5t-4.5 8.5v5z"/>
<glyph glyph-name="quotesinglbase" horiz-adv-x="238" unicode="‚" d="M192 114q-17 -56 -33.5 -110t-33.5 -111q-3 -10 -6 -13.5t-13 -3.5h-30q-18 0 -18 14l16 224q1 6 4.5 11.5t12.5 5.5h84q17 0 17 -13v-4z"/>
<glyph glyph-name="quotedblleft" horiz-adv-x="425" unicode="“" d="M298 700q3 10 5.5 14t13.5 4h30q17 0 17 -12v-3l-15 -225q-1 -6 -4 -11.5t-13 -5.5h-84q-9 0 -13.5 4.5t-4.5 9.5v3zM59 478q17 56 33.5 111t32.5 111q3 10 6.5 14t13.5 4h30q18 0 18 -15l-16 -225q-1 -6 -4.5 -11.5t-12.5 -5.5h-84q-8 0 -12.5 3.5t-4.5 8.5v5z"/>
<glyph glyph-name="quotedblright" horiz-adv-x="425" unicode="”" d="M125 478q-3 -10 -5.5 -13.5t-13.5 -3.5h-30q-17 0 -17 13q0 3 0.5 5.5t0.5 6.5q4 54 7 107t8 107q1 6 4 12t12 6h85q8 0 12.5 -4.5t4.5 -9.5v-4zM364 700q-17 -56 -33.5 -111t-32.5 -111q-3 -10 -6.5 -13.5t-13.5 -3.5h-29q-19 0 -19 14l16 225q1 6 4.5 12t12.5 6h84 q18 0 18 -13q0 -2 -0.5 -2.5t-0.5 -1.5v-1z"/>
<glyph glyph-name="dagger" horiz-adv-x="560" unicode="†" d="M521 417q0 -8 -2.5 -11.5t-12.5 -3.5h-175v-494q0 -10 -3 -12.5t-11 -2.5h-60q-8 0 -12 2.5t-4 12.5v494h-172q-10 0 -12.5 3.5t-2.5 11.5v47q0 8 2.5 12t12.5 4h172v207q0 10 4 12.5t12 2.5h60q8 0 11 -2.5t3 -12.5v-207h175q10 0 12.5 -4t2.5 -12v-47z"/>
<glyph glyph-name="daggerdbl" horiz-adv-x="560" unicode="‡" d="M241 418h-172q-10 0 -12.5 4t-2.5 12v47q0 8 2.5 12t12.5 4h172v190q0 10 4 12.5t12 2.5h60q8 0 11 -2.5t3 -12.5v-190h175q10 0 12.5 -4t2.5 -12v-47q0 -8 -2.5 -12t-12.5 -4h-175v-139h175q10 0 12.5 -4t2.5 -12v-47q0 -8 -2.5 -12t-12.5 -4h-175v-292q0 -10 -3 -12.5 t-11 -2.5h-60q-8 0 -12 2.5t-4 12.5v292h-172q-10 0 -12.5 4t-2.5 12v47q0 8 2.5 12t12.5 4h172v139z"/>
<glyph glyph-name="ellipsis" horiz-adv-x="740" unicode="…" d="M198 59q0 -30 -20.5 -50.5t-50.5 -20.5t-51 20t-21 51q0 30 21 50.5t51 20.5t50.5 -20t20.5 -51zM441 59q0 -30 -20.5 -50.5t-50.5 -20.5t-50.5 20t-20.5 51q0 30 20.5 50.5t50.5 20.5q31 0 51 -20t20 -51zM684 59q0 -30 -20 -50.5t-50 -20.5q-31 0 -51.5 20t-20.5 51 q0 30 20.5 50.5t51.5 20.5q30 0 50 -20t20 -51z"/>
<glyph glyph-name="perthousand" horiz-adv-x="1285" unicode="‰" d="M1171 202q0 27 -4.5 53.5t-16.5 47.5t-32 34t-50 13q-29 0 -48.5 -13t-31 -34t-16.5 -47t-5 -53t4.5 -54t16 -48.5t31.5 -34.5t51 -13q30 0 49.5 13.5t31 34.5t16 47.5t4.5 53.5zM1245 203q0 -95 -43 -152t-134 -57q-89 0 -132 55.5t-43 152.5q0 94 44 151t133 57 q47 0 80 -14.5t54 -41.5t31 -65.5t10 -85.5zM271 -8q-8 -14 -21 -14h-31q-7 0 -10.5 3t1.5 11l409 690q5 8 8 11t11 3h35q5 0 9 -3t-1 -11zM318 469q0 27 -4.5 54t-16.5 48t-32 34t-50 13q-29 0 -48.5 -13t-31 -34t-16.5 -47.5t-5 -53.5t4.5 -54t16 -48.5t31.5 -34.5t51 -13 q30 0 49.5 13.5t31 34.5t16 47.5t4.5 53.5zM392 470q0 -94 -43 -151.5t-134 -57.5q-89 0 -132 56t-43 152q0 47 11 85.5t33 66t55 42.5t78 15q47 0 80 -14.5t54 -41.5t31 -65.5t10 -86.5zM777 202q0 27 -4.5 53.5t-16.5 47.5t-32 34t-50 13q-29 0 -48.5 -13t-31 -34 t-16.5 -47t-5 -53t4.5 -54t16 -48.5t31.5 -34.5t51 -13q30 0 49.5 13.5t31 34.5t16 47.5t4.5 53.5zM851 203q0 -95 -43 -152t-134 -57q-89 0 -132 55.5t-43 152.5q0 94 44 151t133 57q47 0 80 -14.5t54 -41.5t31 -65.5t10 -85.5z"/>
<glyph glyph-name="guilsinglleft" horiz-adv-x="320" unicode="‹" d="M149 242l122 -192q3 -5 3 -9q0 -3 -2.5 -6.5t-12.5 -3.5h-51q-16 0 -22 5t-11 13l-100 158q-4 7 -8.5 18t-4.5 19q0 13 5 23t10 18l96 157q5 8 11.5 13t21.5 5h50q9 0 12.5 -6t-1.5 -14z"/>
<glyph glyph-name="guilsinglright" horiz-adv-x="320" unicode="›" d="M52 440q-5 8 -1.5 14t12.5 6h50q16 0 22 -5t11 -13l96 -157q5 -8 10.5 -18t5.5 -23q0 -8 -4.5 -19t-9.5 -18l-100 -158q-5 -8 -11 -13t-21 -5h-52q-10 0 -12.5 3.5t-2.5 6.5q0 4 3 9l122 192z"/>
<glyph glyph-name="fraction" horiz-adv-x="184" unicode="⁄" d="M-91 -8q-8 -14 -21 -14h-31q-7 0 -9.5 2t-2.5 4q0 3 3 8l409 690q5 8 8 11t11 3h35q5 0 8 -2t3 -5t-3 -7z"/>
<glyph glyph-name="Euro" d="M457 310q9 0 11.5 -4t2.5 -12v-27q0 -9 -2.5 -12.5t-11.5 -3.5h-272q8 -84 55 -132.5t144 -48.5q33 0 70.5 9.5t68.5 23.5q11 5 15 1t6 -9l18 -40q3 -8 3 -12q0 -2 -1.5 -5t-6.5 -7q-42 -26 -92.5 -34t-95.5 -8q-116 0 -187 63.5t-84 198.5h-47q-10 0 -12.5 3.5 t-2.5 12.5v27q0 8 2.5 12t12.5 4h406zM51 369q-10 0 -12.5 3.5t-2.5 12.5v27q0 8 2.5 12t12.5 4h50q8 58 31.5 105t59.5 80.5t82.5 51.5t100.5 18q37 0 79 -7.5t86 -30.5q5 -2 6.5 -4.5t1.5 -4.5q0 -4 -3 -12l-20 -44q-4 -7 -7 -8t-11 1q-27 13 -60.5 20t-67.5 7 q-40 0 -72 -13t-55 -36t-38 -54.5t-22 -68.5h265q9 0 11.5 -4t2.5 -12v-27q0 -9 -2.5 -12.5t-11.5 -3.5h-406z" unicode="€"/>
<glyph glyph-name="trademark" horiz-adv-x="814" unicode="™" d="M210 648v-329q0 -8 -3 -10t-9 -2h-36q-6 0 -9 2t-3 10v329h-110q-11 0 -11 12v29q0 12 11 12h285q11 0 11 -12v-29q0 -12 -11 -12h-115zM695 604l-23 -61l-67 -164q-5 -13 -10.5 -18t-19.5 -5h-20q-14 0 -20 5t-11 18l-64 156l-26 70h-2v-287q0 -8 -2.5 -9.5t-9.5 -1.5 h-35q-6 0 -8.5 1.5t-2.5 9.5v354q0 12 5.5 20.5t22.5 8.5h20q15 0 24 -6t15 -21q1 -1 6.5 -14.5t13 -33t17 -42t17 -42.5t13 -33.5t6.5 -14.5q8 -19 14.5 -36t14.5 -36h4q7 19 14.5 38.5t14.5 36.5l72 177q5 15 14.5 21t23.5 6h22q17 0 22.5 -8.5t5.5 -20.5v-354 q0 -8 -3.5 -9.5t-8.5 -1.5h-35q-7 0 -9 1.5t-2 9.5v286h-3z"/>
<glyph glyph-name="arrowleft" horiz-adv-x="840" unicode="←" d="M213 290q-4 0 -5 -3t2 -5l131 -130q7 -7 -1 -15l-33 -32q-3 -2 -5 -2l-2 1q-2 0 -3 1l-210 211q-3 2 -3 5q0 2 3 5l208 210q2 2 4 3t3 1q3 0 6 -3l33 -32q5 -5 3.5 -8.5t-4.5 -6.5l-129 -128q-2 -2 -1.5 -5.5t3.5 -3.5h560q7 0 7 -6v-52q0 -2 -1 -4t-6 -2z"/>
<glyph glyph-name="arrowup" horiz-adv-x="485" unicode="↑" d="M215 564q0 4 -2.5 5t-4.5 -2l-130 -128q-7 -7 -15 1l-32 33q-2 3 -2 5q0 3 2 5l211 210q4 4 5 4q2 0 5 -4l210 -208q4 -4 4 -7t-3 -6l-32 -33q-5 -5 -8.5 -3.5t-6.5 4.5l-129 126q-2 2 -5 1.5t-3 -3.5v-556q0 -7 -6 -7h-52q-2 0 -4 1.5t-2 6.5v555z"/>
<glyph glyph-name="arrowright" horiz-adv-x="840" unicode="→" d="M91 289q-5 0 -6 2t-1 4v52q0 6 7 6h558q3 0 3.5 3.5t-1.5 5.5l-129 128q-3 3 -4.5 6.5t3.5 8.5l33 32q4 3 6 3q1 0 3 -1t4 -3l208 -210q4 -4 4 -5t-4 -5l-210 -211q-1 -1 -3 -1l-2 -1l-5 2l-33 32q-8 8 -1 15l131 130q3 2 2 5t-5 3z"/>
<glyph glyph-name="arrowdown" horiz-adv-x="485" unicode="↓" d="M280 136q0 -4 2.5 -5t4.5 2l130 128q7 7 15 -1l32 -33q2 -3 2 -5q0 -3 -2 -5l-211 -210q-4 -4 -5 -4q-2 0 -5 4l-210 208q-4 4 -4 7t3 6l32 33q5 5 8.5 3.5t6.5 -4.5l129 -126q2 -2 5 -1.5t3 3.5v556q0 7 6 7h52q2 0 4 -1.5t2 -6.5v-555z"/>
<glyph glyph-name="carriagereturn" horiz-adv-x="840" unicode="↵" d="M213 290q-4 0 -5 -3t2 -5l131 -130q7 -7 -1 -15l-30 -30q-4 -4 -7 -4q-1 0 -3 0.5t-3 1.5l-210 211q-4 4 -4 5q0 2 4 5l208 210q2 2 5 3.5t8 -2.5l33 -32q5 -5 3.5 -8.5t-4.5 -6.5l-129 -128q-2 -2 -1.5 -5.5t3.5 -3.5h479q6 0 12.5 2.5t6.5 15.5v313q0 8 7 8h51 q7 0 7 -8v-373q0 -22 -24 -22z"/>
<glyph glyph-name="partialdiff" horiz-adv-x="555" unicode="∂" d="M267 457q31 0 70.5 -10.5t71.5 -40.5q-6 122 -60 180.5t-161 63.5q-11 0 -12 7l3 50q0 12 11 12q76 -1 133.5 -23.5t96.5 -68t59 -115.5t20 -166q0 -180 -63.5 -268.5t-172.5 -88.5q-39 0 -76 12.5t-66 40t-46.5 71.5t-17.5 107q0 55 17 99t45.5 74.5t66.5 47t81 16.5z M143 215q0 -42 10 -71.5t26.5 -47.5t38 -26.5t44.5 -8.5q34 0 62 15t47.5 47t29.5 82t10 121q-21 19 -41 30t-38.5 17t-34.5 7.5t-29 1.5q-29 0 -52 -14.5t-39.5 -37.5t-25 -53.5t-8.5 -61.5z"/>
<glyph glyph-name="gradient" horiz-adv-x="618" unicode="∇" d="M245 268q14 -42 31.5 -91t28.5 -84h4q16 42 30 83l28 82l130 358l-2 3h-373l-3 -3zM563 702q14 0 24.5 -9.5t10.5 -29.5v-10q0 -11 -3 -21.5t-7 -20.5q-53 -144 -105.5 -286t-106.5 -286q-4 -11 -7.5 -18.5t-9 -12t-14.5 -6.5t-22 -2h-30q-23 0 -32.5 8t-18.5 31 l-217 574q-4 11 -6.5 20t-2.5 21v9q0 17 8 28t31 11h508z"/>
<glyph glyph-name="product" horiz-adv-x="686" unicode="∏" d="M611 -70q0 -9 -3.5 -11.5t-12.5 -2.5h-59q-8 0 -12.5 2.5t-4.5 11.5v689h-352v-689q0 -9 -3.5 -11.5t-12.5 -2.5h-60q-8 0 -12 2.5t-4 11.5v708q0 32 16.5 47.5t42.5 15.5h418q28 0 43.5 -15.5t15.5 -47.5v-708z"/>
<glyph glyph-name="summation" horiz-adv-x="577" unicode="∑" d="M68 576q-12 17 -18 27.5t-6 26.5v22q0 27 14 37.5t36 10.5h425q10 0 12.5 -4t2.5 -12v-50q0 -8 -2.5 -12t-12.5 -4h-373l-2 -4q46 -59 90.5 -117t89.5 -117q13 -17 22.5 -29t9.5 -25q1 -12 -7 -25.5t-21 -31.5l-184 -267l2 -3h395q9 0 11.5 -3.5t2.5 -12.5v-51 q0 -8 -2.5 -12t-11.5 -4h-473q-17 0 -28 8.5t-11 28.5v17q0 6 1 8q4 17 14.5 32.5t19.5 31.5l192 280z"/>
<glyph glyph-name="minus" d="M67 302q-10 0 -12.5 3.5t-2.5 12.5v52q0 8 2.5 12.5t12.5 4.5h456q9 0 11.5 -4.5t2.5 -12.5v-52q0 -9 -2.5 -12.5t-11.5 -3.5h-456z" unicode="−"/>
<glyph glyph-name="radical" horiz-adv-x="644" unicode="√" d="M46 241q-2 -1 -5 -1q-4 0 -6 2.5t-4 4.5q-4 14 -8.5 27.5t-8.5 27.5q0 1 -0.5 2t-0.5 2q0 7 9 10l164 61q2 1 5 1q11 0 14 -13l135 -401q0 -1 2 -1q0 1 1 1l1 1q52 205 102.5 409t102.5 410q3 9 7.5 10.5t11.5 1.5h54q9 0 9 -6q0 -3 -1 -4q-2 -8 -4 -16.5t-5 -17.5 l-231 -882q-4 -15 -17.5 -25t-29.5 -10q-15 0 -27.5 6t-18.5 23l-154 414z"/>
<glyph glyph-name="infinity" horiz-adv-x="723" unicode="∞" d="M530 359q-18 0 -35.5 -8t-33 -20.5t-28.5 -28t-23 -30.5q23 -36 54 -60t67 -24q34 0 58.5 25.5t24.5 61.5q0 18 -7 33.5t-19 26.5t-27 17.5t-31 6.5zM190 359q-17 0 -32 -6.5t-26.5 -18t-18.5 -27t-7 -33.5q0 -36 24.5 -61t57.5 -25q36 0 69.5 25.5t53.5 58.5 q-10 15 -23 30.5t-28.5 28t-33 20.5t-36.5 8zM189 431q26 0 49.5 -9t45 -23.5t40.5 -32.5t37 -36q19 20 38 38t40 32t45 22.5t54 8.5q33 0 61 -11.5t49 -32t32.5 -49.5t11.5 -63q0 -32 -12.5 -61t-34 -51t-51.5 -34.5t-65 -12.5q-24 0 -46.5 8t-43 22t-40 31.5t-38.5 37.5 q-22 -20 -42 -38t-41 -31.5t-44.5 -21.5t-50.5 -8q-33 0 -61 11.5t-49 32.5t-33 50t-12 64q0 32 12.5 60.5t34 50t51 34t63.5 12.5z"/>
<glyph glyph-name="logicaland" horiz-adv-x="554" unicode="∧" d="M277 401q-38 -97 -74.5 -193t-74.5 -193q-2 -6 -7 -10.5t-13 -4.5h-67q-8 0 -8 7q0 4 1 6l199 506q3 7 7.5 12t15.5 5h42q9 0 13.5 -3.5t8.5 -12.5q51 -128 103 -253.5t104 -252.5v-1q2 -4 2 -6q0 -7 -11 -7h-69q-9 0 -12.5 3.5t-6.5 11.5q-38 97 -75.5 193t-75.5 193h-2 z"/>
<glyph glyph-name="logicalor" horiz-adv-x="554" unicode="∨" d="M279 134q38 97 75.5 193t75.5 193q3 8 6.5 12t12.5 4h69q11 0 11 -8q0 -3 -2 -7q-52 -127 -104 -253t-103 -253q-4 -9 -8.5 -12t-13.5 -3h-42q-11 0 -15.5 5t-7.5 11l-199 506q-1 2 -1 6q0 8 8 8h67q8 0 13 -5t7 -11q38 -97 74.5 -193t74.5 -193h2z"/>
<glyph glyph-name="intersection" horiz-adv-x="554" unicode="∩" d="M496 18q0 -18 -17 -18h-48q-10 0 -14 3.5t-4 14.5v316q0 27 -10.5 51t-29 41.5t-43.5 28t-55 10.5q-60 0 -97.5 -36.5t-37.5 -94.5v-316q0 -10 -3.5 -14t-14.5 -4h-48q-8 0 -12 3.5t-4 14.5v319q0 42 15 78.5t43.5 64.5t68.5 44t90 16q49 0 89.5 -14.5t70 -41.5 t45.5 -64.5t16 -82.5v-319z"/>
<glyph glyph-name="union" horiz-adv-x="554" unicode="∪" d="M496 202q0 -45 -16 -82t-45 -64t-70 -41.5t-90 -14.5q-50 0 -90 16t-68.5 43.5t-43.5 64t-15 78.5v320q0 11 4.5 14.5t12.5 3.5h48q17 0 17 -18v-316q0 -58 37.5 -94.5t97.5 -36.5q30 0 55 10.5t43.5 28t29 41.5t10.5 51v316q0 11 4 14.5t14 3.5h48q17 0 17 -18v-320z "/>
<glyph glyph-name="approxequal" d="M521 276q-25 -42 -55 -63t-74 -21q-26 0 -52.5 9.5t-52 21.5t-49.5 21.5t-46 9.5q-24 0 -44.5 -11.5t-38.5 -31.5q-9 -9 -18 -2l-26 20q-6 5 -6 10q0 4 3 7q32 41 63.5 59.5t68.5 18.5q26 0 53 -10t53 -22t50.5 -22t45.5 -10q26 0 41 14.5t32 38.5q7 11 19 2l29 -19 q6 -5 6 -12q0 -4 -2 -8zM521 429q-25 -42 -55 -63t-74 -21q-26 0 -52.5 9.5t-52 21.5t-49.5 21.5t-46 9.5q-24 0 -44.5 -11.5t-38.5 -31.5q-9 -9 -18 -2l-26 20q-6 5 -6 10q0 4 3 7q32 41 63.5 59.5t68.5 18.5q26 0 53 -10t53 -22t50.5 -22t45.5 -10q26 0 41 14.5t32 38.5 q7 11 19 2l29 -19q6 -5 6 -12q0 -4 -2 -8z" unicode="≈"/>
<glyph glyph-name="notequal" d="M519 229q0 -9 -2.5 -12.5t-12.5 -3.5h-270l-89 -111q-11 -16 -24 -16h-35q-8 0 -9.5 3.5t-1.5 5.5q0 4 3 10l87 108h-74q-9 0 -11.5 3.5t-2.5 12.5v48q0 8 2.5 12t11.5 4h138l78 97h-216q-9 0 -11.5 4t-2.5 12v49q0 8 2.5 11.5t11.5 3.5h281l82 102q6 8 10.5 12.5 t13.5 4.5h37q11 0 11 -8q0 -5 -4 -12l-80 -99h62q10 0 12.5 -3.5t2.5 -11.5v-49q0 -8 -2.5 -12t-12.5 -4h-127l-78 -97h205q10 0 12.5 -4t2.5 -12v-48z" unicode="≠"/>
<glyph glyph-name="lessequal" d="M521 582q4 2 7 2q6 0 6 -10v-60q0 -9 -3.5 -12.5t-9.5 -6.5l-348 -137v-3l354 -138q7 -2 10 -5.5t3 -12.5v-63q0 -15 -13 -8l-459 187q-5 2 -9 6t-4 14v41q0 8 3 12t9 7zM67 0q-11 0 -13 4t-2 12v52q0 8 2 12t13 4h456q10 0 12 -4t2 -12v-52q0 -8 -2 -12t-12 -4h-456z " unicode="≤"/>
<glyph glyph-name="greaterequal" d="M526 395q6 -3 9 -7t3 -12v-41q0 -10 -4 -14t-9 -6l-459 -187q-5 -3 -9.5 -1t-4.5 9v63q0 9 3.5 12.5t10.5 5.5l353 138v3l-347 137q-6 3 -9.5 6.5t-3.5 12.5v60q0 10 6 10q3 0 7 -2zM70 0q-10 0 -12 4t-2 12v52q0 8 2 12t12 4h456q10 0 12 -4t2 -12v-52q0 -8 -2 -12 t-12 -4h-456z" unicode="≥"/>
<glyph glyph-name="lozenge" horiz-adv-x="404" unicode="◊" d="M240 12q-2 -7 -5.5 -9.5t-12.5 -2.5h-39q-14 0 -18 11l-140 297q-2 4 -2 6t2 9l140 302q5 11 18 11h39q9 0 12 -2t6 -10l139 -300q3 -8 3 -9q0 -2 -2 -6zM207 528q-2 4 -4.5 4t-4.5 -5l-93 -203q-2 -6 -2 -8t2 -7l93 -200q2 -5 4.5 -5t4.5 4l91 202q2 4 2 6.5t-2 7.5z "/>
</font>
</defs>
</svg>
