<?xml version="1.0" encoding="UTF-8" standalone="no"?>
<!DOCTYPE svg  PUBLIC '-//W3C//DTD SVG 1.1//EN'  'http://www.w3.org/Graphics/SVG/1.1/DTD/svg11.dtd'>
<svg xmlns="http://www.w3.org/2000/svg">
<defs>
<font id="PFBeauSansPro-Bold" horiz-adv-x="653">
<font-face underline-position="-50" font-weight="700" descent="-200" panose-1="2 0 8 0 0 0 0 2 0 4" units-per-em="1000" unicode-range="U+0020-25CA" bbox="-168 -253 1350 953" x-height="525" underline-thickness="50" font-family="PFBeauSansPro" ascent="800" cap-height="701"/>
<missing-glyph horiz-adv-x="1000"/>
<glyph glyph-name=".notdef" horiz-adv-x="1000"/>
<glyph glyph-name=".null" horiz-adv-x="0"/>
<glyph glyph-name="nonmarkingreturn" horiz-adv-x="333"/>
<glyph glyph-name="space" horiz-adv-x="287" unicode=" "/>
<glyph glyph-name="exclam" horiz-adv-x="301" unicode="!" d="M241 77q0 -36 -26 -61.5t-64 -25.5t-64 25t-26 62q0 18 7 34t19.5 27.5t29 18.5t34.5 7q38 0 64 -25t26 -62zM203 246q0 -12 -5.5 -15.5t-17.5 -3.5h-60q-14 0 -18.5 3.5t-5.5 14.5l-22 434q-1 10 4 15.5t19 5.5h106q16 0 20 -6.5t3 -14.5z"/>
<glyph glyph-name="quotedbl" horiz-adv-x="480" unicode='&quot;' d="M192 417q-1 -12 -6 -15t-17 -3h-53q-14 0 -18.5 3t-5.5 14l-24 263q-3 22 23 22h102q17 0 20.5 -6.5t2.5 -15.5zM387 417q-1 -12 -6 -15t-18 -3h-53q-13 0 -18 3t-6 14l-24 263q-2 22 24 22h102q17 0 20.5 -6.5t2.5 -15.5z"/>
<glyph glyph-name="numbersign" d="M289 365l-30 -141h117l30 141h-117zM597 381q-2 -10 -5.5 -13t-11.5 -3h-78l-29 -141h79q14 0 11 -17l-13 -54q-2 -9 -5.5 -12t-10.5 -3h-78l-27 -124q-2 -8 -4.5 -11t-13.5 -3h-64q-8 0 -12 2.5t-2 12.5l26 123h-117l-26 -124q-2 -8 -4.5 -11t-13.5 -3h-63q-9 0 -13 2.5 t-2 12.5l26 123h-76q-13 0 -13 10q0 2 1 5l11 56q2 8 4.5 11.5t13.5 3.5h76l29 141h-77q-10 0 -12.5 4t-0.5 12l12 54q2 7 4.5 11.5t13.5 4.5h78l27 124q2 8 5.5 10.5t14.5 2.5h58q11 0 15 -2.5t2 -13.5l-25 -121h117l26 124q2 8 5.5 10.5t14.5 2.5h58q11 0 14.5 -2.5 t1.5 -13.5l-25 -121h79q9 0 11 -3.5t2 -7.5q0 -3 -1 -6z" unicode="#"/>
<glyph glyph-name="dollar" d="M223 499q0 -16 7.5 -29t26.5 -26v104q-18 -8 -26 -21.5t-8 -27.5zM446 187q0 20 -11 35.5t-35 30.5v-128q23 9 34 25.5t12 36.5zM346 763q0 11 4.5 12t13.5 1h18q10 0 14 -1t4 -12v-86q34 -5 69 -14.5t62 -23.5q8 -4 9.5 -10t-3.5 -17l-26 -73q-4 -12 -8 -13.5t-14 0.5 q-21 7 -45 12.5t-44 9.5v-164q36 -17 68 -35.5t56 -42.5t38 -54t14 -68q0 -85 -48.5 -131t-127.5 -58v-95q0 -11 -4 -12t-14 -1h-18q-9 0 -13.5 1t-4.5 12v863zM313 -100q0 -11 -4 -12t-14 -1h-22q-8 0 -12 1t-4 12v94q-45 5 -92 19t-86 38q-8 4 -8 14q0 6 3 13q2 6 6 16 t8.5 21.5t9 22.5t6.5 17q5 10 10 11.5t14 -1.5q27 -12 60.5 -22t68.5 -17v184q-36 16 -67 33t-53.5 38.5t-35.5 49t-13 67.5q0 66 40.5 116t128.5 64v85q0 11 4 12t12 1h22q10 0 14 -1t4 -12v-863z" unicode="$"/>
<glyph glyph-name="percent" horiz-adv-x="970" unicode="%" d="M328 -14q-5 -9 -12.5 -13.5t-21.5 -4.5h-51q-11 0 -13.5 5.5t2.5 13.5l414 704q5 8 9 11.5t15 3.5h59q9 0 12.5 -5t-2.5 -15zM302 469q0 51 -16.5 85t-59.5 34q-41 0 -57.5 -33.5t-16.5 -84.5q0 -25 4 -46.5t13 -37.5t23.5 -25t35.5 -9q41 0 57.5 33.5t16.5 83.5z M418 470q0 -47 -12 -85t-36 -66t-60 -43t-84 -15q-95 0 -142.5 56.5t-47.5 151.5q0 48 12 86.5t36 66.5t60 43t84 15q97 0 143.5 -57t46.5 -153zM818 202q0 51 -16.5 85t-59.5 34q-41 0 -57.5 -33.5t-16.5 -84.5q0 -25 4 -46.5t13 -37.5t23.5 -25t35.5 -9q41 0 57.5 33.5 t16.5 83.5zM934 203q0 -47 -12 -85t-36 -66t-60 -43t-84 -15q-95 0 -142.5 56.5t-47.5 151.5q0 48 12 86.5t36 66.5t60 43t84 15q97 0 143.5 -57t46.5 -153z"/>
<glyph glyph-name="ampersand" horiz-adv-x="767" unicode="&amp;" d="M383 539q0 21 -13 38t-37 17q-26 0 -41 -15t-15 -39q0 -22 13 -44t30 -41q23 14 43 35.5t20 48.5zM279 114q15 0 30.5 5t30 14t27.5 20.5t22 24.5q-27 32 -52.5 63t-51.5 63q-34 -22 -58.5 -51.5t-24.5 -67.5q0 -30 17.5 -50.5t59.5 -20.5zM705 333q1 -8 -2.5 -10.5 t-11.5 -4.5q-31 -6 -54 -18t-41 -28t-31.5 -36.5t-24.5 -42.5q16 -18 42 -47t51 -57q29 -33 61 -68q5 -5 3.5 -13t-14.5 -8h-109q-14 0 -24 3t-18 12q-14 14 -25 27l-20 22t-15 17q-37 -40 -86 -66.5t-118 -26.5q-46 0 -83.5 13t-64.5 37t-41.5 59t-14.5 79q0 36 11.5 68.5 t31 60.5t45 51.5t54.5 41.5q-25 29 -43.5 66.5t-18.5 76.5t15 71t40.5 54t60 34t72.5 12q39 0 72.5 -11t58 -31.5t38.5 -49.5t14 -65q0 -35 -11 -63.5t-28 -51.5t-39 -41.5t-44 -32.5q18 -24 33 -41t31 -35q27 45 66.5 80.5t92.5 49.5q33 10 61 11q8 0 10.5 -2.5t4.5 -8.5z "/>
<glyph glyph-name="quotesingle" horiz-adv-x="285" unicode="&apos;" d="M192 417q-1 -12 -6 -15t-17 -3h-53q-14 0 -18.5 3t-5.5 14l-24 263q-2 22 23 22h102q17 0 20.5 -6.5t2.5 -15.5z"/>
<glyph glyph-name="parenleft" horiz-adv-x="349" unicode="(" d="M317 -15q11 -15 -4 -25l-53 -38q-8 -6 -13 -6q-2 0 -5 1.5t-12 11.5q-37 39 -70 81t-58 90t-39.5 102.5t-14.5 117.5q0 64 14.5 120.5t39 107t57.5 94t70 82.5q10 11 15 11t16 -9l53 -36q9 -7 9 -11t-5 -10q-60 -78 -91 -160t-31 -183q0 -53 8 -98.5t23.5 -86.5t38 -79.5 t52.5 -76.5z"/>
<glyph glyph-name="parenright" horiz-adv-x="357" unicode=")" d="M53 -16q30 39 53 78t38.5 80t23 85.5t7.5 95.5q0 53 -8 99t-23.5 88t-38 81t-52.5 78q-5 7 -5 10q0 4 9 10l53 37q11 8 14 8l3 1q5 0 14 -10q37 -39 69.5 -83t57.5 -94t39.5 -106t14.5 -119q0 -64 -14.5 -119t-39 -103t-57.5 -90.5t-70 -80.5q-9 -11 -12.5 -12t-4.5 -1 q-5 0 -14 5l-53 37q-15 12 -4 25z"/>
<glyph glyph-name="asterisk" horiz-adv-x="507" unicode="*" d="M436 532q1 -5 1 -8q0 -12 -13 -13l-112 -27q5 -5 16 -16.5t22.5 -24.5t22 -25t15.5 -17q8 -9 6 -15t-11 -13l-49 -36q-9 -7 -14 -7q-1 0 -3 1t-8 12l-59 98l-56 -99q-6 -11 -9 -11.5t-4 -0.5q-6 0 -14 7q-4 3 -11 8t-14.5 11t-14.5 11t-11 8q-8 7 -9.5 12t6.5 13l76 86 l-108 27q-11 3 -12.5 5t-1.5 5q0 4 2 13l18 57q4 15 14 15q4 0 9 -3l105 -46l-12 113q-3 17 20 17h62q11 0 14.5 -3t1.5 -14l-11 -115l101 46q11 5 16.5 1.5t8.5 -14.5z"/>
<glyph glyph-name="plus" d="M580 305q0 -12 -3.5 -16.5t-14.5 -4.5h-168v-176q0 -11 -3.5 -14.5t-17.5 -3.5h-93q-11 0 -16 3.5t-5 14.5v176h-168q-11 0 -14.5 4.5t-3.5 16.5v77q0 14 3.5 18t14.5 4h168v176q0 11 5 14.5t16 3.5h93q14 0 17.5 -3.5t3.5 -14.5v-176h168q11 0 14.5 -4t3.5 -18v-77z" unicode="+"/>
<glyph glyph-name="comma" horiz-adv-x="282" unicode="," d="M163 -113q-3 -11 -7 -14.5t-15 -3.5h-54q-24 0 -23 17l12 256q1 11 5.5 16.5t18.5 5.5h114q17 0 19.5 -5t2.5 -10q0 -3 -1 -7z"/>
<glyph glyph-name="hyphen" horiz-adv-x="397" unicode="-" d="M341 251q0 -11 -3.5 -16t-14.5 -5h-254q-11 0 -14.5 5t-3.5 16v90q0 13 3.5 17t14.5 4h254q11 0 14.5 -4t3.5 -17v-90z"/>
<glyph glyph-name="period" horiz-adv-x="298" unicode="." d="M243 78q0 -38 -26.5 -64t-65.5 -26q-19 0 -36 7t-29.5 19t-20 28.5t-7.5 35.5t7.5 35.5t20 28.5t29.5 19t36 7q39 0 65.5 -26t26.5 -64z"/>
<glyph glyph-name="slash" horiz-adv-x="461" unicode="/" d="M140 -79q-4 -10 -10.5 -13.5t-21.5 -3.5h-80q-17 0 -17 11q0 3 1 7l313 840q3 9 8.5 12.5t19.5 3.5h84q9 0 13 -2.5t4 -7.5q0 -3 -2 -8z"/>
<glyph glyph-name="zero" d="M463 335q0 49 -7.5 90.5t-24 71.5t-42.5 47t-64 17t-63.5 -16.5t-41.5 -46.5t-23 -71t-7 -90q0 -48 7 -89t23 -71.5t42.5 -47.5t64.5 -17t64 17t42 47t23 70.5t7 88.5zM612 337q0 -78 -17.5 -142t-53.5 -110t-90 -71t-126 -25t-125.5 24.5t-89 70t-53 109.5t-17.5 142 q0 79 18 143t54 110t89.5 71t125.5 25q73 0 126.5 -24.5t89 -70t52.5 -109.5t17 -143z" unicode="0"/>
<glyph glyph-name="one" d="M535 20q0 -11 -3.5 -15.5t-14.5 -4.5h-366q-11 0 -14.5 4.5t-3.5 15.5v79q0 14 3.5 17t14.5 3h106v420l-106 -18q-12 -2 -16 1.5t-4 14.5v73q0 9 2.5 15t15.5 10l166 45q17 5 25.5 5.5t10.5 0.5q14 0 25.5 -5.5t18.5 -17.5t7 -31v-513h115q11 0 14.5 -3t3.5 -17v-79z" unicode="1"/>
<glyph glyph-name="two" d="M570 20q0 -11 -3.5 -15.5t-14.5 -4.5h-391q-44 0 -67.5 18.5t-23.5 74.5q0 37 25.5 80t69.5 85q41 40 85 71t77 52q29 18 47.5 32.5t29 27t14.5 24.5t4 26q0 12 -5 24t-16 21t-29.5 15t-46.5 6q-38 0 -76.5 -12.5t-79.5 -39.5q-8 -5 -15 -5t-13 8l-46 70q-10 16 4 26 q107 80 238 80q50 0 93 -11.5t75 -35t50 -58.5t18 -82q0 -37 -12 -67.5t-34 -56t-51.5 -47t-65.5 -42.5q-25 -14 -51 -32.5t-49.5 -39.5t-43 -44.5t-29.5 -48.5h315q11 0 14.5 -3t3.5 -17v-79z" unicode="2"/>
<glyph glyph-name="three" d="M447 354q65 -17 93.5 -60.5t28.5 -94.5q0 -48 -19.5 -87t-54 -66.5t-83.5 -42t-107 -14.5q-70 0 -129 16t-107 54q-9 9 -9 13t5 13l44 72q7 11 13.5 12.5t19.5 -6.5q36 -26 77 -36.5t76 -10.5q60 0 91.5 27.5t31.5 75.5q0 32 -26 56.5t-81 24.5h-26q-24 0 -30 6t-6 27v40 q0 23 5.5 29.5t22.5 6.5h29q47 0 72.5 22t25.5 56q0 19 -8 32t-21.5 21t-30.5 12t-35 4q-35 0 -75.5 -11t-74.5 -34q-13 -8 -19.5 -7t-12.5 12l-40 67q-6 9 -6 14.5t8 12.5q24 19 52.5 33t59 23t61.5 13.5t60 4.5q45 0 86.5 -9.5t73.5 -30.5t51 -54.5t19 -80.5 q0 -24 -7.5 -47t-21.5 -43t-33.5 -35.5t-42.5 -24.5v-5z" unicode="3"/>
<glyph glyph-name="four" d="M385 493l-4 3l-189 -241l2 -5h191v243zM617 153q0 -11 -5 -15t-16 -4h-65v-115q0 -11 -4 -15t-18 -4h-102q-21 0 -21 19v114h-280q-12 0 -23.5 2t-20 8t-14 17t-5.5 29v25q0 19 5.5 38.5t19.5 36.5l270 346q7 9 15 18t18.5 16.5t24 12t31.5 4.5h48q31 0 43.5 -14 t12.5 -49v-372h64q11 0 16.5 -3t5.5 -17v-78z" unicode="4"/>
<glyph glyph-name="five" d="M591 228q0 -59 -21.5 -104t-59 -75t-88.5 -45.5t-109 -15.5q-65 0 -129.5 13.5t-121.5 59.5q-9 7 -9 15q0 4 3 9q4 6 11 17t14.5 23t14.5 22.5l11 16.5q7 10 14.5 9.5t19.5 -8.5q37 -26 79.5 -37t80.5 -11q68 0 104.5 28.5t36.5 78.5q0 47 -31 71t-76 24q-22 0 -39 -3 t-32.5 -7.5t-30.5 -11t-31 -13.5q-12 -5 -28 -6.5t-30 3.5l-35 10q-23 8 -29.5 20t-6.5 29v9l26 250q4 39 23 56.5t51 17.5h349q13 0 17.5 -3t4.5 -19v-79q0 -13 -5 -17.5t-17 -4.5h-292l-15 -130q33 11 67 14.5t64 3.5q53 0 98 -14.5t77.5 -41.5t51 -66t18.5 -88z" unicode="5"/>
<glyph glyph-name="six" d="M461 218q0 47 -28.5 73.5t-85.5 26.5q-39 0 -72.5 -5.5t-74.5 -16.5v-23q0 -74 38 -117t103 -43q52 0 86 26.5t34 78.5zM610 223q0 -60 -22.5 -104t-60 -73t-86 -43t-100.5 -14q-74 0 -128.5 22t-90.5 63.5t-54 100t-18 130.5q0 81 20 150.5t61.5 121t104.5 80.5t150 29 q33 0 72 -4.5t70 -15.5q7 -2 11 -6.5t-1 -20.5l-22 -79q-4 -12 -11 -12.5t-15 1.5q-22 6 -47.5 9.5t-50.5 3.5q-75 0 -122 -37.5t-62 -108.5q14 4 32.5 7.5t38 6.5t39 4.5t35.5 1.5q53 0 100 -12t82 -38t55 -66t20 -97z" unicode="6"/>
<glyph glyph-name="seven" d="M522 674q52 0 52 -45v-31q0 -31 -16 -63l-283 -513q-8 -13 -16 -17.5t-25 -4.5h-110q-12 0 -16 8t1 17l291 525h-319q-12 0 -16.5 4.5t-4.5 18.5v77q0 15 4 19.5t17 4.5h441z" unicode="7"/>
<glyph glyph-name="eight" d="M419 481q0 33 -23.5 57t-74.5 24t-73.5 -25.5t-22.5 -58.5q0 -30 26.5 -51.5t68.5 -21.5q44 0 71.5 23t27.5 53zM440 207q0 46 -33.5 71.5t-84.5 25.5t-84.5 -27t-33.5 -72q0 -17 6 -34.5t20 -31t36 -22t55 -8.5q34 0 56.5 9t36.5 23t20 31.5t6 34.5zM480 361 q30 -10 50.5 -27.5t34 -39.5t19.5 -46t6 -46q0 -46 -18 -85t-52.5 -67.5t-84.5 -44.5t-114 -16q-63 0 -112.5 15t-84 42t-52.5 65t-18 85q0 27 8 52.5t23 47.5t35 39t44 26v3q-24 9 -40 24t-25.5 32.5t-14 35t-4.5 32.5q0 48 20 85t53.5 62t77.5 38t92 13q56 0 100.5 -13.5 t76 -38t48 -59.5t16.5 -77q0 -15 -4.5 -33.5t-14.5 -37t-26 -35.5t-39 -29v-2z" unicode="8"/>
<glyph glyph-name="nine" d="M45 453q0 60 22.5 103.5t60 72.5t85.5 43t100 14q73 0 127.5 -22t91 -63.5t54.5 -100t18 -130.5q0 -81 -20 -150.5t-61.5 -120.5t-105 -80.5t-150.5 -29.5q-32 0 -70.5 4.5t-69.5 15.5q-7 3 -11.5 7t0.5 20l22 80q3 11 10 12t16 -1q20 -5 47 -9t51 -4q74 0 121.5 37.5 t62.5 108.5q-14 -5 -31.5 -8.5t-36.5 -6.5t-38 -4.5t-35 -1.5q-53 0 -100.5 12t-83 38t-56 66.5t-20.5 97.5zM194 458q0 -47 29.5 -73.5t83.5 -26.5q40 0 73.5 5t72.5 16q2 9 2 14v10q0 36 -11 65.5t-29.5 50.5t-44.5 32.5t-56 11.5q-24 0 -45.5 -7t-38 -20t-26.5 -33 t-10 -45z" unicode="9"/>
<glyph glyph-name="colon" horiz-adv-x="298" unicode=":" d="M243 79q0 -19 -7 -35t-19.5 -28t-29.5 -19t-36 -7t-36 6.5t-29.5 18.5t-20 28.5t-7.5 35.5q0 18 7.5 34.5t20 28.5t29.5 19t36 7q39 0 65.5 -25.5t26.5 -63.5zM243 434q0 -19 -7 -35t-19.5 -28t-29.5 -19t-36 -7t-36 6.5t-29.5 18.5t-20 28.5t-7.5 35.5t7.5 35t20 28 t29.5 19t36 7q39 0 65.5 -25.5t26.5 -63.5z"/>
<glyph glyph-name="semicolon" horiz-adv-x="296" unicode=";" d="M166 -111q-3 -11 -7 -15.5t-16 -4.5h-53q-25 0 -24 19l13 252q1 11 5.5 17.5t18.5 6.5h114q17 0 19.5 -7.5t0.5 -16.5zM248 434q0 -38 -26.5 -63.5t-65.5 -25.5t-65.5 25.5t-26.5 63.5t26.5 63.5t65.5 25.5t65.5 -25.5t26.5 -63.5z"/>
<glyph glyph-name="less" d="M253 346l302 -139q17 -9 21 -15t3 -22v-79q0 -11 -4 -17q-2 -3 -6 -2q-5 0 -13 4l-447 210q-17 8 -25 16t-10 22v33q0 21 9 29t26 17l447 211q8 4 13 4q4 0 6 -3q4 -7 4 -18v-77q0 -14 -3 -20t-19 -15z" unicode="&lt;"/>
<glyph glyph-name="equal" d="M569 197q0 -11 -3.5 -16.5t-14.5 -5.5h-448q-19 0 -19 20v79q0 11 3 15t14 4h451q11 0 14 -4.5t3 -15.5v-76zM568 404q0 -11 -3.5 -16t-14.5 -5h-447q-19 0 -19 21v77q0 13 3.5 17t15.5 4h447q11 0 14.5 -4t3.5 -17v-77z" unicode="="/>
<glyph glyph-name="greater" d="M96 485q-15 9 -18 15t-3 20v77q0 11 4 18q2 3 6 3q5 0 13 -4l446 -211q16 -9 26 -17t10 -29v-33q-2 -14 -10 -22t-26 -16l-447 -210q-8 -4 -12 -4t-6 2q-4 6 -4 17v79q-1 16 3 22t21 15l301 139z" unicode="&gt;"/>
<glyph glyph-name="question" horiz-adv-x="579" unicode="?" d="M355 70q0 -37 -26.5 -61.5t-64.5 -24.5t-65 24t-27 62q0 18 7.5 34t20 28t29.5 19t36 7q16 0 32 -5.5t29 -16.5t21 -27.5t8 -38.5zM296 707q46 0 88.5 -9.5t75 -30.5t52 -54t19.5 -80q0 -26 -8.5 -48.5t-22 -42.5t-30.5 -38.5t-35 -35.5q-18 -18 -35.5 -34.5t-31 -32.5 t-22 -32.5t-8.5 -34.5v-23q0 -8 -3 -11.5t-13 -3.5h-109q-11 0 -13 4.5t-2 12.5v32q0 28 9.5 51.5t24 43.5t32.5 37.5t36 34.5q26 24 45.5 49t19.5 57q0 23 -20 40.5t-62 17.5q-74 0 -153 -48q-8 -5 -14 -5.5t-12 8.5l-44 77q-4 6 -4 11q0 6 10 13q27 20 56.5 34t59.5 23 t59 13.5t55 4.5z"/>
<glyph glyph-name="at" horiz-adv-x="982" unicode="@" d="M540 319h-63q-11 0 -22.5 -1.5t-22 -7.5t-17 -16.5t-6.5 -28.5q0 -26 17.5 -35.5t42.5 -9.5q11 0 33 4t38 15v80zM657 254q0 -7 1.5 -16.5t7 -18.5t16 -15t29.5 -6q50 0 74 41.5t24 106.5q0 66 -20.5 120t-59 93t-93 60t-122.5 21q-77 0 -139.5 -24.5t-106.5 -67.5 t-68.5 -100t-24.5 -123q0 -69 23 -126t65.5 -98t102 -63.5t133.5 -22.5q25 0 59.5 5.5t72.5 19.5q8 3 13 3t8 -8l21 -57q3 -8 0.5 -12t-10.5 -9q-18 -9 -40 -16t-44.5 -11t-44 -6t-38.5 -2q-98 0 -176 29.5t-132.5 83t-84 127t-29.5 162.5q0 88 33.5 163t93 129.5t140 85.5 t173.5 31q91 0 164 -27t124 -77.5t78.5 -121.5t27.5 -158q0 -56 -15.5 -101t-43.5 -76.5t-67 -48.5t-87 -17q-50 0 -83 16.5t-44 42.5q-24 -17 -56.5 -28t-64.5 -11q-77 0 -117 32.5t-40 98.5q0 61 41 101.5t126 40.5h84v10q0 10 -2 20t-9 17t-19.5 11.5t-34.5 4.5 q-23 0 -52.5 -4t-53.5 -9q-14 -3 -19 -1.5t-7 11.5l-11 53q-3 11 0 15.5t14 9.5q33 10 68.5 15.5t76.5 5.5q86 0 125.5 -37t39.5 -109v-158z"/>
<glyph glyph-name="A" horiz-adv-x="655" unicode="A" d="M248 270h157l-38 127l-37 143h-6l-38 -143zM441 146h-229l-39 -127q-3 -10 -8.5 -14.5t-19.5 -4.5h-117q-11 0 -13 4.5t-2 8.5q0 3 1 7l208 627q5 17 11.5 27.5t15 16.5t20 8.5t26.5 2.5h60q17 0 29 -1.5t21 -7.5t15.5 -17t12.5 -29l208 -627q1 -3 1 -6t-1.5 -8.5 t-12.5 -5.5h-119q-11 0 -18.5 2.5t-10.5 13.5z"/>
<glyph glyph-name="B" horiz-adv-x="680" unicode="B" d="M227 435h136q12 0 25.5 3t24.5 10.5t18 21t7 34.5q0 30 -19 47t-51 17h-141v-133zM468 223q0 40 -24.5 65t-72.5 25h-144v-179h144q28 0 47 8.5t30 21.5t15.5 29t4.5 30zM518 383q28 -11 48.5 -29.5t33.5 -41t19 -48.5t6 -51q0 -48 -18.5 -87t-51 -67t-76 -43.5 t-93.5 -15.5h-251q-36 0 -48 14.5t-12 46.5v578q0 32 12 47t48 15h245q45 0 84.5 -10t68.5 -31.5t45.5 -55t16.5 -80.5q0 -42 -21.5 -78.5t-55.5 -55.5v-7z"/>
<glyph glyph-name="C" horiz-adv-x="643" unicode="C" d="M388 127q48 0 85 11.5t69 23.5q14 6 20 2.5t11 -14.5l34 -72q5 -11 5 -18q0 -9 -11 -15q-54 -33 -113.5 -44.5t-117.5 -11.5q-82 0 -141.5 24.5t-98 70.5t-57 112.5t-18.5 149.5q0 82 23.5 149t65.5 115t101.5 74t131.5 26q51 0 100 -8.5t96 -34.5q11 -6 13 -12t-5 -23 l-31 -69q-5 -14 -10.5 -17t-19.5 2q-36 13 -67 19.5t-69 6.5q-41 0 -72.5 -17.5t-53 -48t-32.5 -72t-11 -90.5t8.5 -89t29 -69t53.5 -45t82 -16z"/>
<glyph glyph-name="D" horiz-adv-x="697" unicode="D" d="M485 354q0 46 -8 85t-28.5 67.5t-55.5 45t-88 16.5h-78v-434h81q52 0 86.5 16.5t54.5 45.5t28 69.5t8 88.5zM135 0q-36 0 -48 14.5t-12 46.5v578q0 32 12 47t48 15h187q88 0 149 -28t99 -75t55 -110.5t17 -133.5q0 -69 -15 -133t-51 -113t-95.5 -78.5t-147.5 -29.5h-198z "/>
<glyph glyph-name="E" horiz-adv-x="613" unicode="E" d="M576 23q0 -12 -4 -17.5t-16 -5.5h-296q-56 0 -91.5 16t-56.5 42t-29 59t-8 67v332q0 36 10 69t31.5 59t56.5 41.5t86 15.5h287q12 0 15.5 -5t3.5 -19v-85q0 -13 -4 -17.5t-15 -4.5h-254q-39 0 -52 -18t-13 -44v-77h287q12 0 15.5 -5t3.5 -19v-78q0 -12 -3.5 -17.5 t-15.5 -5.5h-287v-114q0 -35 16.5 -47.5t48.5 -12.5h264q13 0 16.5 -4.5t3.5 -19.5v-85z"/>
<glyph glyph-name="F" horiz-adv-x="591" unicode="F" d="M227 21q0 -14 -4 -17.5t-19 -3.5h-106q-12 0 -17.5 4.5t-5.5 16.5v495q0 36 9.5 69t31 59t56.5 41.5t87 15.5h292q13 0 16.5 -5t3.5 -19v-85q0 -13 -4.5 -17.5t-15.5 -4.5h-259q-39 0 -52 -17.5t-13 -44.5v-92h284q12 0 15.5 -4.5t3.5 -19.5v-78q0 -12 -4 -17.5t-15 -5.5 h-284v-270z"/>
<glyph glyph-name="G" horiz-adv-x="692" unicode="G" d="M384 126q19 0 48 2.5t56 12.5l1 148q-9 1 -17 1l-44 -6q-44 -5 -77 -19q-14 -5 -19.5 -5t-10.5 11l-26 81q-3 8 -2 14t12 11q35 17 82.5 28.5t95.5 11.5q26 0 48 -1.5t39 -5.5q22 -5 35 -14.5t20 -24t9 -33t2 -40.5v-210q0 -14 -4 -25.5t-20 -21.5q-30 -18 -65 -28 t-68.5 -15.5t-62.5 -7t-46 -1.5q-82 0 -141.5 24.5t-98 71t-57 112.5t-18.5 150q0 82 21 149t62.5 114.5t102 73.5t138.5 26q52 0 103 -8.5t98 -34.5q11 -6 13 -12t-6 -23l-31 -71q-5 -14 -10.5 -17t-19.5 2q-36 13 -69.5 19t-71.5 6q-44 0 -76 -17t-53 -47t-31 -71t-10 -90 q0 -50 8 -90.5t27.5 -69t52 -44.5t81.5 -16z"/>
<glyph glyph-name="H" horiz-adv-x="726" unicode="H" d="M651 21q0 -13 -4.5 -17t-19.5 -4h-105q-13 0 -18 4.5t-5 16.5v280h-271v-280q0 -13 -4.5 -17t-19.5 -4h-106q-12 0 -17.5 4.5t-5.5 16.5v658q0 12 5.5 16.5t17.5 4.5h106q15 0 19.5 -4t4.5 -17v-249h271v249q0 12 5 16.5t18 4.5h105q15 0 19.5 -4t4.5 -17v-658z"/>
<glyph glyph-name="I" horiz-adv-x="329" unicode="I" d="M241 21q0 -13 -4.5 -17t-19.5 -4h-106q-12 0 -17.5 4.5t-5.5 16.5v658q0 12 5.5 16.5t17.5 4.5h106q15 0 19.5 -4t4.5 -17v-658z"/>
<glyph glyph-name="J" horiz-adv-x="590" unicode="J" d="M240 -11q-21 0 -49.5 2.5t-59 8.5t-60 16t-53.5 24q-10 6 -10 11t5 16l36 82q5 11 9.5 11.5t14.5 -3.5q34 -14 74 -23t80 -9q42 0 68 12t41 34.5t20 54t5 69.5v385q0 14 6 17t17 3h106q13 0 18 -3t5 -17v-410q0 -65 -14.5 -116.5t-46.5 -88.5t-84 -56.5t-128 -19.5z"/>
<glyph glyph-name="K" horiz-adv-x="683" unicode="K" d="M436 446l233 -421q5 -8 5 -13q0 -2 -2 -7t-13 -5h-116q-21 0 -30.5 2.5t-19.5 20.5l-161 299l-106 -127v-174q0 -14 -4 -17.5t-19 -3.5h-105q-12 0 -17.5 4.5t-5.5 16.5v658q0 12 5.5 16.5t17.5 4.5h105q15 0 19 -3.5t4 -17.5v-268l4 -2l94 119l125 156q9 10 18 13t29 3 h129q9 0 12.5 -5.5t-3.5 -13.5z"/>
<glyph glyph-name="L" horiz-adv-x="578" unicode="L" d="M260 0q-56 0 -91.5 16t-56.5 42t-29 59t-8 67v496q0 12 5.5 16.5t17.5 4.5h106q15 0 19.5 -4t4.5 -17v-485q0 -38 18.5 -51t48.5 -13h254q11 0 15 -3.5t4 -17.5v-89q0 -21 -19 -21h-289z"/>
<glyph glyph-name="M" horiz-adv-x="870" unicode="M" d="M651 403h-6l-41 -93l-83 -184q-11 -26 -22.5 -35t-34.5 -9h-55q-25 0 -34.5 9t-21.5 35l-62 130l-62 135h-6v-371q0 -14 -5 -17t-18 -3h-102q-11 0 -17 3t-6 17v611q0 38 14.5 54t49.5 16h58q28 0 41.5 -10.5t25.5 -36.5l109 -244l62 -142h4l68 156l102 228 q12 27 26.5 38t46.5 11h49q32 0 48 -13.5t16 -51.5v-616q0 -14 -5 -17t-18 -3h-99q-11 0 -16.5 3t-5.5 17v383z"/>
<glyph glyph-name="N" horiz-adv-x="744" unicode="N" d="M226 435v-414q0 -13 -4.5 -17t-18.5 -4h-105q-12 0 -17.5 4.5t-5.5 16.5v610q0 39 14 54.5t51 15.5h42q15 0 25.5 -1.5t18.5 -6.5t15 -14t16 -23l170 -259l86 -135h5v418q0 12 4.5 16.5t18.5 4.5h105q23 0 23 -21v-611q0 -32 -13 -50.5t-52 -18.5h-42q-15 0 -25.5 1.5 t-18.5 6.5t-15 13.5t-16 22.5l-160 242l-96 149h-5z"/>
<glyph glyph-name="O" horiz-adv-x="730" unicode="O" d="M516 349q0 45 -6.5 86t-23.5 72t-46 49.5t-75 18.5q-38 0 -66.5 -17.5t-47.5 -47.5t-28 -70t-9 -85q0 -53 7.5 -95t25 -72t46.5 -46t73 -16q43 0 72 18.5t46 49t24.5 71t7.5 84.5zM675 352q0 -86 -18.5 -153t-57.5 -114t-98 -71.5t-140 -24.5q-155 0 -230.5 94t-75.5 266 q0 84 21.5 151.5t61.5 114t97 71.5t129 25q78 0 136.5 -25t97 -71.5t58 -113t19.5 -149.5z"/>
<glyph glyph-name="P" horiz-adv-x="644" unicode="P" d="M457 472q0 14 -4 30.5t-15.5 31t-31 24t-49.5 9.5h-130v-190h131q51 0 75 27.5t24 67.5zM227 21q0 -14 -4.5 -17.5t-19.5 -3.5h-105q-12 0 -17.5 4.5t-5.5 16.5v619q0 28 12 44.5t48 16.5h245q54 0 97.5 -16.5t74 -45.5t46.5 -69t16 -88q0 -26 -8 -64.5t-34.5 -75 t-77 -62.5t-134.5 -26h-133v-233z"/>
<glyph glyph-name="Q" horiz-adv-x="730" unicode="Q" d="M332 -163q-11 0 -14 4.5t-3 14.5v77q0 11 3 15t14 4h113q89 0 155.5 -19t101.5 -45q8 -6 9.5 -9t1.5 -5q0 -4 -4 -11l-37 -68q-5 -10 -9 -11t-5 -1q-6 0 -17 6q-39 20 -94 34t-130 14h-85zM516 349q0 45 -6.5 86t-23.5 72t-46 49.5t-75 18.5q-38 0 -66.5 -17.5 t-47.5 -47.5t-28 -70t-9 -85q0 -53 7.5 -95t25 -72t46.5 -46t73 -16q43 0 72 18.5t46 49t24.5 71t7.5 84.5zM675 352q0 -86 -18.5 -153t-57.5 -114t-98 -71.5t-140 -24.5q-155 0 -230.5 94t-75.5 266q0 84 21.5 151.5t61.5 114t97 71.5t129 25q78 0 136.5 -25t97 -71.5 t58 -113t19.5 -149.5z"/>
<glyph glyph-name="R" horiz-adv-x="669" unicode="R" d="M452 488q0 13 -4 27t-13.5 25.5t-26.5 19t-43 7.5h-136v-160h133q44 0 67 22.5t23 58.5zM516 328q34 -15 48 -42.5t23 -62.5l51 -200q1 -3 1 -6q0 -4 -2 -10.5t-14 -6.5h-105q-11 0 -23 2.5t-17 17.5l-44 177q-13 49 -38.5 68t-70.5 19h-97v-263q0 -14 -4 -17.5t-19 -3.5 h-107q-12 0 -17.5 4.5t-5.5 16.5v619q0 30 12 45.5t48 15.5h245q109 0 168.5 -55t59.5 -148q0 -51 -24 -96t-69 -69z"/>
<glyph glyph-name="S" horiz-adv-x="600" unicode="S" d="M62 509q0 42 14.5 79t43.5 64.5t74 43.5t106 16q28 0 58.5 -3t60 -9t56.5 -14.5t49 -19.5q12 -6 13.5 -11.5t-3.5 -20.5l-26 -75q-5 -14 -10 -16t-17 1q-47 14 -93.5 23t-87.5 9q-44 0 -62 -16t-18 -39q0 -13 6 -24t19.5 -21.5t36 -21.5t55.5 -24q51 -20 94 -40.5 t73.5 -46.5t48 -61t17.5 -84q0 -53 -19 -92t-53 -65t-82.5 -39t-106.5 -13q-32 0 -67 3.5t-69.5 11t-67.5 19.5t-61 29q-10 6 -10 14q0 6 4 16l34 80q5 12 11 14t17 -3q20 -8 44 -16.5t49.5 -15t52 -11t52.5 -4.5q31 0 52 6t34 15.5t18 22t5 26.5q0 15 -5.5 27t-18 23.5 t-34 22t-53.5 22.5q-53 20 -96 41t-74 46.5t-47.5 57t-16.5 73.5z"/>
<glyph glyph-name="T" horiz-adv-x="574" unicode="T" d="M563 590q0 -20 -20 -20h-181v-549q0 -13 -4.5 -17t-19.5 -4h-107q-12 0 -17.5 4.5t-5.5 16.5v549h-177q-19 0 -19 20v89q0 13 4 17t15 4h512q12 0 16 -4t4 -17v-89z"/>
<glyph glyph-name="U" horiz-adv-x="717" unicode="U" d="M642 97q0 -35 -15.5 -60t-57.5 -36q-20 -5 -44 -7.5t-48 -3.5t-45 -1.5t-34 -0.5q-86 0 -147.5 14.5t-100.5 49.5t-57 93t-18 146l-1 388q0 12 6 16.5t17 4.5h107q15 0 19.5 -4t4.5 -17v-397q0 -41 7 -71.5t25 -50.5t48.5 -29.5t78.5 -9.5q7 0 19 0.5t26.5 1t30 2 t28.5 4.5v550q0 12 5.5 16.5t17.5 4.5h106q15 0 18.5 -4t3.5 -17v-582z"/>
<glyph glyph-name="V" horiz-adv-x="664" unicode="V" d="M329 167h7l47 175l107 344q3 10 9.5 12.5t17.5 2.5h122q10 0 11 -4.5t1 -6.5q0 -3 -1 -6l-215 -631q-6 -18 -12.5 -28t-15 -15.5t-19.5 -7.5t-25 -2h-62q-15 0 -26 2t-19.5 8t-15.5 16.5t-13 27.5l-213 630q-1 3 -1 6t2 7t11 4h120q14 0 19 -4.5t8 -13.5l105 -339z"/>
<glyph glyph-name="W" horiz-adv-x="904" unicode="W" d="M452 503l-42 -184l-61 -266q-8 -35 -22.5 -45t-44.5 -10h-58q-14 0 -25 1t-19 6t-14 15t-10 29l-142 633q-1 6 -1 10q0 5 3 7.5t14 2.5h122q14 0 21.5 -3.5t10.5 -18.5l50 -290l30 -179h7l38 181l54 252q8 32 21 44.5t45 12.5h58q30 0 40.5 -12.5t17.5 -40.5l56 -263 l36 -170h6l28 170l51 293q2 15 7.5 19t18.5 4h129q9 0 12 -2.5t3 -6.5t-2 -11l-142 -630q-5 -19 -10.5 -29.5t-13.5 -16t-19 -6.5t-25 -1h-55q-15 0 -26 1.5t-19 7.5t-14 17t-11 29l-58 266l-39 184h-6z"/>
<glyph glyph-name="X" horiz-adv-x="618" unicode="X" d="M308 240l-121 -217q-9 -14 -17 -18.5t-27 -4.5h-123q-9 0 -10.5 4.5t-1.5 7.5q0 4 2 8l213 344l-195 318q-5 6 -2 12.5t14 6.5h117q20 0 27.5 -4t15.5 -18l110 -195l109 195q8 14 15.5 18t27.5 4h115q11 0 13.5 -6.5t-2.5 -13.5l-193 -316l213 -345q2 -4 2 -8 q0 -3 -2 -7.5t-10 -4.5h-125q-18 0 -26.5 4.5t-16.5 18.5z"/>
<glyph glyph-name="Y" horiz-adv-x="625" unicode="Y" d="M316 397l66 148l66 137q5 10 10.5 14.5t16.5 4.5h127q15 0 15 -8q0 -5 -3 -10l-223 -425v-238q0 -11 -4 -15.5t-18 -4.5h-109q-21 0 -21 20v236l-229 426q-2 3 -2 6t2 8t13 5h126q14 0 19.5 -5t10.5 -17l67 -139l64 -143h6z"/>
<glyph glyph-name="Z" horiz-adv-x="629" unicode="Z" d="M592 611q0 -23 -11 -42.5t-24 -35.5l-326 -396l2 -7h344q11 0 14.5 -4t3.5 -18v-87q0 -12 -3.5 -16.5t-14.5 -4.5h-489q-29 0 -43.5 12.5t-14.5 41.5v24q0 24 8.5 41.5t23.5 35.5l338 410l-1 6h-304q-19 0 -19 21v87q0 14 3.5 18t15.5 4h437q32 0 46 -12t14 -45v-33z"/>
<glyph glyph-name="bracketleft" horiz-adv-x="365" unicode="[" d="M328 -73q0 -10 -2.5 -13.5t-12.5 -3.5h-218q-11 0 -15 5.5t-4 15.5v768q0 10 4 15.5t15 5.5h218q10 0 12.5 -4t2.5 -12v-76q0 -8 -2.5 -11.5t-14.5 -3.5h-97v-596h99q10 0 12.5 -3.5t2.5 -11.5v-75z"/>
<glyph glyph-name="backslash" horiz-adv-x="461" unicode="\" d="M451 -77q1 -4 1 -7q0 -12 -17 -12h-80q-14 0 -21 3.5t-11 14.5l-311 837q-2 5 -2 8q0 4 4 7.5t13 3.5h83q14 0 19.5 -4.5t9.5 -13.5z"/>
<glyph glyph-name="bracketright" horiz-adv-x="371" unicode="]" d="M319 -69q0 -10 -4.5 -15.5t-16.5 -5.5h-217q-10 0 -12.5 3.5t-2.5 14.5v74q0 8 3 11.5t13 3.5h98v596h-98q-10 0 -13 3.5t-3 11.5v74q0 11 3 14.5t13 3.5h216q12 0 16.5 -5.5t4.5 -15.5v-768z"/>
<glyph glyph-name="asciicircum" horiz-adv-x="583" unicode="^" d="M536 399q4 -5 4 -10q0 -3 -3 -6.5t-11 -3.5h-94q-10 0 -17 3t-12 12l-114 198h-3l-111 -194q-7 -12 -13.5 -16t-19.5 -4h-92q-10 0 -11.5 3.5t-1.5 5.5q0 4 3 10l183 301q7 11 17.5 20.5t27.5 9.5h38q23 0 31.5 -7.5t16.5 -21.5z"/>
<glyph glyph-name="underscore" horiz-adv-x="500" unicode="_" d="M518 -126q0 -11 -3.5 -16t-14.5 -5h-500q-11 0 -14 5t-3 16v33q0 14 3 18t14 4h500q11 0 14.5 -4t3.5 -18v-33z"/>
<glyph glyph-name="grave" horiz-adv-x="547" unicode="`" d="M335 611q3 -6 3 -10q0 -1 -1 -3q-3 -4 -11 -6l-55 -20q-5 -1 -8 -1q-3 1 -5 1q-4 2 -10 9l-116 172q-3 4 -3 8q0 8 10 10l104 26q4 1 8 1q5 0 7 -2q4 -3 8 -10z"/>
<glyph glyph-name="a" horiz-adv-x="576" unicode="a" d="M365 238h-79q-14 0 -30 -2t-29.5 -9.5t-22.5 -21.5t-9 -38q0 -35 23.5 -49t63.5 -14q6 0 16 0.5t21.5 2t23.5 4t22 6.5v121zM511 65q0 -13 -3.5 -22t-17.5 -17q-23 -11 -49.5 -18t-54 -11t-55.5 -6t-53 -2q-68 0 -112.5 13t-71.5 35.5t-38 53t-11 65.5q0 39 13 71.5 t39 56.5t65.5 37.5t93.5 13.5h110v16q0 14 -3 27t-12.5 22.5t-26.5 15.5t-45 6q-15 0 -34 -1.5t-38 -4t-37 -6t-32 -7.5q-13 -3 -18 0t-7 13l-16 70q-3 11 -0.5 15.5t10.5 7.5q45 16 94.5 23t98.5 7q109 0 160 -46.5t51 -137.5v-290z"/>
<glyph glyph-name="b" horiz-adv-x="604" unicode="b" d="M408 264q0 76 -29 113t-81 37q-13 0 -38 -2.5t-49 -10.5v-278q20 -6 42 -8t36 -2q55 0 87 34t32 117zM559 267q0 -58 -14.5 -108.5t-46 -88t-81.5 -59.5t-120 -22q-54 0 -111 9t-103 30q-12 5 -15 12t-3 18v653q0 12 5 16t17 4h103q11 0 16 -3.5t5 -16.5v-188q26 8 57 12 t61 4q61 0 104.5 -21t71.5 -57.5t41 -86.5t13 -107z"/>
<glyph glyph-name="c" horiz-adv-x="511" unicode="c" d="M308 119q32 0 62.5 7.5t52.5 15.5q13 5 17.5 3.5t8.5 -12.5l28 -75q5 -9 5 -15q0 -7 -12 -13q-44 -24 -94 -32.5t-91 -8.5q-118 0 -179 68t-61 204q0 64 17.5 115.5t49.5 87.5t78.5 55t103.5 19q42 0 83 -8.5t75 -25.5q13 -6 14.5 -11t-3.5 -17l-28 -77q-5 -11 -11 -12 t-20 3q-26 8 -51 13t-48 5q-30 0 -50.5 -12t-33.5 -32t-19 -46.5t-6 -56.5q0 -31 5 -57t18 -45t34.5 -29.5t54.5 -10.5z"/>
<glyph glyph-name="d" horiz-adv-x="604" unicode="d" d="M196 256q0 -80 31.5 -112t87.5 -32q14 0 37.5 3t39.5 9v279q-26 6 -46 8t-36 2q-51 0 -82.5 -37t-31.5 -120zM45 258q0 56 14 107t43 89.5t75 61t109 22.5q26 0 50.5 -2t55.5 -9v183q0 12 4.5 16t17.5 4h102q11 0 16.5 -3.5t5.5 -16.5v-616v-22.5t-2 -22.5 q-1 -11 -15 -20t-35.5 -15.5t-48 -11.5t-52.5 -7.5t-49 -4t-38 -1.5q-72 0 -120.5 20t-78 56t-42 85t-12.5 108z"/>
<glyph glyph-name="e" horiz-adv-x="568" unicode="e" d="M296 418q-41 0 -67 -29t-30 -74h187q0 22 -4.5 41t-14.5 32.5t-27 21.5t-44 8zM293 538q117 0 175.5 -58.5t58.5 -167.5q0 -52 -20 -71t-55 -19h-256q1 -32 10.5 -53t25.5 -34t37.5 -18t46.5 -5q29 0 59 7t56 18q12 4 16.5 2.5t8.5 -9.5l32 -72q4 -9 1.5 -14t-10.5 -10 q-37 -24 -86 -34.5t-91 -10.5q-131 0 -194 65t-63 206q0 66 17.5 117.5t50 87.5t78 54.5t102.5 18.5z"/>
<glyph glyph-name="f" horiz-adv-x="404" unicode="f" d="M386 621q-2 -9 -6.5 -11t-12.5 0q-17 3 -36.5 5t-31.5 2q-34 0 -44.5 -13.5t-10.5 -33.5v-45h120q9 0 12 -3t3 -13v-77q0 -8 -2.5 -12t-14.5 -4h-118v-398q0 -12 -4.5 -15t-15.5 -3h-104q-10 0 -15.5 3t-5.5 16v397h-73q-11 0 -13 4.5t-2 12.5v57q0 9 3.5 13.5t14.5 7.5 l70 16v57q0 69 38.5 113t124.5 44q7 0 22 -0.5t33 -2t37.5 -5t37.5 -8.5q12 -4 12 -12q0 -4 -1 -9z"/>
<glyph glyph-name="g" horiz-adv-x="604" unicode="g" d="M196 266q0 -77 29.5 -109t81.5 -32q12 0 37 2.5t49 10.5v264q-20 6 -41.5 8.5t-35.5 2.5q-27 0 -49.5 -8t-38 -25t-24 -45t-8.5 -69zM539 54q0 -71 -18.5 -120.5t-54 -82.5t-87.5 -52t-119 -28q-5 -1 -8 -1q-4 0 -7.5 2t-5.5 12l-13 96q-2 11 1.5 13.5t11.5 4.5 q28 5 55.5 12t49 19.5t35 32t13.5 48.5v6q-26 -8 -56.5 -11.5t-60.5 -3.5q-60 0 -103.5 19t-71.5 53.5t-41.5 82.5t-13.5 107q0 57 15.5 107t47.5 87t81.5 58t118.5 21q54 0 109.5 -8.5t101.5 -29.5q13 -7 16.5 -13.5t3.5 -17.5v-413z"/>
<glyph glyph-name="h" horiz-adv-x="609" unicode="h" d="M545 18q0 -12 -4 -15t-18 -3h-104q-11 0 -16 3.5t-5 14.5v280q0 26 -4.5 47.5t-16 36.5t-30.5 23.5t-48 8.5q-20 0 -45 -3t-44 -10v-383q0 -12 -3.5 -15t-17.5 -3h-103q-11 0 -16 3.5t-5 14.5v694q0 19 20 19h104q14 0 17.5 -4t3.5 -15v-189q26 8 59.5 12t57.5 4 q109 0 163.5 -58t54.5 -164v-299z"/>
<glyph glyph-name="i" horiz-adv-x="312" unicode="i" d="M229 18q0 -11 -4 -14.5t-18 -3.5h-102q-11 0 -16 3.5t-5 14.5v489q0 11 5 14.5t16 3.5h102q14 0 18 -3.5t4 -14.5v-489zM242 662q0 -35 -24.5 -58.5t-59.5 -23.5q-34 0 -58.5 23.5t-24.5 58.5q0 18 6.5 33t18 26t26.5 17.5t32 6.5t32.5 -6.5t27 -17.5t18 -26t6.5 -33z "/>
<glyph glyph-name="j" horiz-adv-x="319" unicode="j" d="M247 662q0 -35 -24 -58.5t-59 -23.5t-59.5 23.5t-24.5 58.5q0 18 6.5 33t18 26t27 17.5t32.5 6.5q35 0 59 -24t24 -59zM234 76q0 -72 -15 -122t-41.5 -84.5t-61.5 -55.5t-74 -34q-12 -4 -18 -4q-2 0 -5.5 1t-7.5 11l-33 86q-3 8 -3 13q0 3 2 6t13 9q30 15 49 32t30.5 38 t15.5 46t4 57v432q0 11 4.5 14.5t15.5 3.5h105q14 0 17 -3.5t3 -14.5v-431z"/>
<glyph glyph-name="k" horiz-adv-x="552" unicode="k" d="M387 348l155 -328q2 -5 2 -9q0 -11 -17 -11h-116q-12 0 -18.5 3.5t-11.5 15.5l-95 214l-76 -86v-25.5v-35t-0.5 -36.5t-0.5 -31q0 -11 -3.5 -15t-17.5 -4h-103q-21 0 -21 19v694q0 11 5 14.5t16 3.5h104q14 0 17 -3t3 -15v-370l4 -2l143 170q8 8 13.5 11t19.5 3h122 q14 0 15.5 -6.5t-5.5 -14.5z"/>
<glyph glyph-name="l" horiz-adv-x="330" unicode="l" d="M318 27q1 -4 1 -8q0 -5 -2.5 -7.5t-13.5 -7.5q-21 -8 -51.5 -11.5t-53.5 -3.5q-30 0 -53.5 6.5t-39.5 22t-24.5 42.5t-8.5 68v584q0 14 5.5 16.5t16.5 2.5h102q11 0 16.5 -3.5t5.5 -14.5v-555q0 -25 7 -35.5t30 -10.5q8 0 19 1t18 2q9 1 12.5 -1.5t4.5 -10.5z"/>
<glyph glyph-name="m" horiz-adv-x="932" unicode="m" d="M210 18q0 -11 -3.5 -14.5t-17.5 -3.5h-103q-11 0 -16 3.5t-5 14.5v427q0 34 11 54t51 29q9 2 25.5 3.5t36 3t39.5 2.5t34 1q62 0 107.5 -11t79.5 -36q33 22 80.5 35t95.5 13q65 0 111 -18t75 -51t42.5 -78.5t13.5 -99.5v-274q0 -11 -4 -14.5t-18 -3.5h-102q-11 0 -16 3.5 t-5 14.5v257q0 68 -24 104t-89 36q-19 0 -46.5 -5t-43.5 -13q9 -25 12.5 -53.5t3.5 -61.5v-264q0 -11 -4 -14.5t-18 -3.5h-103q-11 0 -16 3.5t-5 14.5v270q0 31 -5 55t-17.5 40.5t-35 25.5t-57.5 9q-11 0 -30.5 -1t-33.5 -4v-395z"/>
<glyph glyph-name="n" horiz-adv-x="609" unicode="n" d="M278 418q-10 0 -28.5 -0.5t-39.5 -4.5v-395q0 -11 -3.5 -14.5t-17.5 -3.5h-103q-11 0 -16 3.5t-5 14.5v429q0 34 12 53.5t50 27.5q10 2 28.5 3.5t39.5 3t41.5 2.5t35.5 1q70 0 121 -14t84.5 -44.5t50 -80t16.5 -120.5v-261q0 -11 -3.5 -14.5t-17.5 -3.5h-104 q-11 0 -16 3.5t-5 14.5v270q0 33 -5.5 57t-19 40.5t-37 24.5t-58.5 8z"/>
<glyph glyph-name="o" horiz-adv-x="595" unicode="o" d="M399 262q0 34 -5 62t-17 48t-31 31.5t-47 11.5q-53 0 -78.5 -40.5t-25.5 -109.5q0 -75 23.5 -114t77.5 -39q28 0 47.5 11.5t32 32t18 47.5t5.5 59zM550 265q0 -132 -63 -204t-192 -72q-130 0 -190 72t-60 202q0 64 17.5 115.5t50 86.5t79 54t105.5 19q126 0 189.5 -72.5 t63.5 -200.5z"/>
<glyph glyph-name="p" horiz-adv-x="604" unicode="p" d="M407 266q0 41 -8 69t-23.5 45t-38 24t-50.5 7q-14 0 -36.5 -3t-39.5 -8v-273q26 -7 46.5 -9t36.5 -2q50 0 81.5 34t31.5 116zM211 -187q0 -11 -3.5 -14t-17.5 -3h-104q-11 0 -16 3t-5 14v652q0 11 3.5 17.5t16.5 13.5q48 22 107.5 31t113.5 9q71 0 119.5 -21.5t78 -58 t42.5 -86.5t13 -107q0 -56 -14 -105.5t-43 -86.5t-73.5 -58.5t-104.5 -21.5q-30 0 -55.5 2.5t-57.5 9.5v-190z"/>
<glyph glyph-name="q" horiz-adv-x="604" unicode="q" d="M196 263q0 -77 29.5 -112t81.5 -35q12 0 37 2.5t49 10.5v272q-20 6 -41.5 8.5t-35.5 2.5q-55 -1 -87.5 -34t-32.5 -115zM539 -187q0 -11 -3.5 -15t-17.5 -4h-104q-21 0 -21 19v194q-26 -8 -57 -12t-61 -4q-61 0 -104.5 19.5t-71.5 55t-41 84t-13 105.5q0 60 15 111 t46.5 89t81.5 59.5t120 21.5q54 0 109.5 -9t101.5 -30q13 -6 16.5 -13t3.5 -17v-654z"/>
<glyph glyph-name="r" horiz-adv-x="467" unicode="r" d="M217 18q0 -12 -4 -15t-18 -3h-102q-11 0 -16 3.5t-5 14.5v426q0 39 13.5 59.5t57.5 27.5q18 2 37 3.5t39 1.5q66 0 130.5 -17t114.5 -54q8 -6 8 -11t-4 -12l-52 -83q-6 -10 -11 -9t-16 8q-28 21 -60 34.5t-72 14.5q-21 0 -40 -3v-386z"/>
<glyph glyph-name="s" horiz-adv-x="497" unicode="s" d="M461 150q0 -81 -57.5 -121t-150.5 -40q-52 0 -109.5 11.5t-101.5 37.5q-10 6 -10 13q0 5 4 13l29 69q5 11 10.5 13.5t16.5 -2.5q16 -7 36 -13.5t41.5 -11.5t41.5 -8t36 -3q36 0 50.5 12.5t14.5 31.5q0 20 -20.5 34t-70.5 33q-40 15 -70.5 31t-51.5 34.5t-32 42t-11 54.5 q0 33 12 61.5t36 49.5t60.5 33.5t86.5 12.5q45 0 91.5 -8.5t84.5 -25.5q11 -5 12 -10.5t-3 -17.5l-25 -64q-4 -11 -9 -12.5t-16 2.5q-37 11 -68 17t-64 6q-27 0 -39 -12.5t-12 -25.5q0 -20 18.5 -33t64.5 -30q36 -14 68 -28.5t55.5 -34t37.5 -46.5t14 -65z"/>
<glyph glyph-name="t" horiz-adv-x="421" unicode="t" d="M409 26q1 -7 1 -11.5t-11 -8.5q-37 -11 -74 -14t-63 -3q-86 0 -123 36.5t-37 107.5v285h-70q-11 0 -14 5.5t-3 13.5v54q0 10 2.5 13.5t13.5 6.5l74 17l7 94q1 12 6.5 17t16.5 8l92 30q3 1 6 1q5 0 9.5 -3.5t4.5 -15.5v-134h110q11 0 13.5 -4.5t2.5 -12.5v-71 q0 -10 -2 -14.5t-14 -4.5h-110v-254q0 -29 14.5 -40t43.5 -11q7 0 17 1t20.5 2t20.5 2t17 2q16 3 17 -10z"/>
<glyph glyph-name="u" horiz-adv-x="600" unicode="u" d="M322 108q10 0 28.5 1t39.5 4v394q0 11 3.5 15t17.5 4h103q21 0 21 -19v-427q0 -34 -13.5 -54t-48.5 -28q-12 -2 -30 -4t-38.5 -3.5t-40.5 -2t-35 -0.5q-72 0 -122.5 14t-82 45t-45.5 80.5t-14 120.5v259q0 11 3.5 15t17.5 4h104q21 0 21 -19v-268q0 -33 4 -57.5t16 -41 t34 -24.5t57 -8z"/>
<glyph glyph-name="v" horiz-adv-x="557" unicode="v" d="M387 48q-11 -34 -26 -43.5t-43 -9.5h-75q-24 0 -38.5 10t-26.5 43l-164 459q-2 6 -2 10q0 3 2.5 5.5t12.5 2.5h113q16 0 21 -3.5t9 -14.5l64 -205l46 -169h6l46 170l61 203q3 11 7.5 15t20.5 4h111q13 0 13 -9q0 -3 -2 -7z"/>
<glyph glyph-name="w" horiz-adv-x="794" unicode="w" d="M396 327l-41 -138l-45 -142q-12 -32 -24.5 -42t-39.5 -10h-55q-24 0 -38.5 10t-23.5 44l-114 459q-1 5 -1 8q0 4 3 7t13 3h113q12 0 17.5 -2t8.5 -14l34 -178l27 -162h6l35 126l45 156q8 25 20 36.5t40 11.5h52q26 0 35 -13t17 -35l46 -154l36 -129h6l24 159l33 181 q2 11 6 13.5t16 2.5l117 1q10 0 13 -3t3 -8q0 -3 -1 -7l-115 -459q-9 -34 -24 -44t-39 -10h-52q-14 0 -23.5 1.5t-17 7t-13 16t-11.5 27.5l-44 144l-39 136h-5z"/>
<glyph glyph-name="x" horiz-adv-x="523" unicode="x" d="M261 176l-89 -154q-6 -11 -13.5 -16.5t-22.5 -5.5h-114q-11 0 -13 4t-2 6q0 5 4 12l169 255l-151 230q-4 5 -2.5 11.5t11.5 6.5h120q14 0 21.5 -4t12.5 -15l70 -129l71 129q6 11 13 15t21 4h118q11 0 12 -6t-1 -11l-154 -229l170 -258q4 -6 4 -11q0 -2 -1.5 -6t-13.5 -4 h-117q-17 0 -23.5 5.5t-12.5 16.5z"/>
<glyph glyph-name="y" horiz-adv-x="559" unicode="y" d="M348 -88q-23 -68 -66 -98t-114 -29q-20 0 -46.5 3t-52.5 11q-12 3 -15.5 7t-0.5 15l17 79q3 12 7 13t15 -1q16 -3 27 -4t22 -1q35 0 55 11.5t31 46.5l18 54h-29q-23 0 -33 8t-19 35l-152 444q-2 5 -2 9t3.5 7t11.5 3h117q15 0 20.5 -3.5t8.5 -14.5l57 -202l47 -174h6 l51 177l60 197q3 11 8 15.5t20 4.5h119q13 0 13 -9q0 -3 -2 -7z"/>
<glyph glyph-name="z" horiz-adv-x="504" unicode="z" d="M473 450q0 -15 -4.5 -29.5t-15.5 -27.5l-240 -270l2 -5h244q11 0 15 -3.5t4 -14.5v-81q0 -11 -3.5 -15t-14.5 -4h-389q-25 0 -36.5 11.5t-11.5 31.5v30q0 15 4.5 30t19.5 32l239 270l-2 4h-218q-12 0 -15 4t-3 15v78q0 19 19 19h356q25 0 37.5 -7.5t12.5 -32.5v-35z"/>
<glyph glyph-name="braceleft" horiz-adv-x="420" unicode="{" d="M366 -82q0 -14 -13 -14q-110 2 -163.5 49t-53.5 147v102q0 36 -15.5 53.5t-39.5 19.5q-8 2 -11.5 4.5t-3.5 10.5v68q0 7 3 9.5t12 4.5q24 2 39.5 19t15.5 54v80q0 100 51.5 146t164.5 48h2q12 0 12 -13v-77q0 -13 -13 -15q-27 -1 -43 -7.5t-24.5 -18t-10.5 -27t-2 -35.5 v-68q0 -110 -73 -137v-3q37 -14 55 -46t18 -89v-84q0 -20 2.5 -35.5t11 -27t24 -18.5t41.5 -8q14 -1 14 -12v-80z"/>
<glyph glyph-name="bar" horiz-adv-x="268" unicode="|" d="M196 -144q0 -12 -3.5 -16.5t-17.5 -4.5h-77q-20 0 -20 21v914q0 21 20 21h77q14 0 17.5 -4.5t3.5 -16.5v-914z"/>
<glyph glyph-name="braceright" horiz-adv-x="420" unicode="}" d="M368 291q0 -14 -15 -15q-23 -2 -39 -20t-16 -54v-102q0 -100 -53.5 -146t-164.5 -49q-8 0 -10 3t-2 11v80q0 11 13 12q26 1 41.5 8t24 18.5t11 27t2.5 35.5v84q0 57 18.5 89t55.5 46v3q-74 26 -74 137v68q0 20 -2 36t-10 27t-24 17.5t-43 8.5q-13 0 -13 14v77q0 13 13 13 q114 -2 165.5 -48t51.5 -146v-80q0 -37 15.5 -54.5t38.5 -19.5q10 -1 13 -4t3 -10v-67z"/>
<glyph glyph-name="asciitilde" d="M580 305q-26 -42 -66.5 -68t-86.5 -26q-27 0 -53 9t-51 20t-49 20t-45 9q-23 0 -40.5 -8.5t-35.5 -28.5q-5 -6 -9.5 -8t-11.5 3l-56 42q-6 5 -6 9.5t4 10.5q32 47 68.5 68.5t81.5 21.5q28 0 54.5 -9t51.5 -20t48 -20t44 -9q23 0 39.5 12t34.5 33q9 13 21 5l60 -44 q7 -5 7 -10t-4 -12z" unicode="~"/>
<glyph glyph-name="exclamdown" horiz-adv-x="301" unicode="¡" d="M243 440q0 -37 -26 -62t-64 -25t-64 25t-26 62t26 62t64 25t64 -25t26 -62zM227 -160q1 -9 -2.5 -16t-19.5 -7h-105q-15 0 -20 6.5t-4 16.5l22 429q1 12 6.5 16.5t19.5 4.5h60q20 0 21 -19z"/>
<glyph glyph-name="cent" d="M248 261q0 -53 16 -90t61 -48v280q-42 -12 -59.5 -51.5t-17.5 -90.5zM325 -11q-112 4 -170 71.5t-58 200.5q0 123 61 195.5t167 80.5v82q0 9 3.5 11.5t10.5 2.5h31q8 0 10.5 -2.5t2.5 -11.5v-83q32 -3 63.5 -11t57.5 -21q13 -6 14.5 -11t-3.5 -17l-28 -77q-5 -11 -11 -12 t-20 3q-19 6 -37.5 10t-35.5 6v-286q26 2 50 8.5t42 13.5q13 5 17.5 3.5t8.5 -12.5l28 -75q5 -9 5 -15q0 -7 -12 -13q-32 -18 -68.5 -27t-70.5 -12v-86q0 -9 -2.5 -11.5t-10.5 -2.5h-31q-7 0 -10.5 2.5t-3.5 11.5v84z" unicode="¢"/>
<glyph glyph-name="sterling" d="M388 553q-40 0 -69 -18t-29 -56q0 -17 4 -43.5t12 -53.5h157q11 0 14 -3t3 -17v-55q0 -11 -3 -14.5t-14 -3.5h-150q1 -13 1 -25t-1 -23q-2 -29 -8.5 -60.5t-27.5 -57.5h283q11 0 14.5 -3t3.5 -17v-85q0 -11 -3.5 -14.5t-14.5 -3.5h-429q-21 0 -35 9.5t-14 29.5v29 q0 20 6 32.5t22 29.5q28 26 38 53t14 56q2 14 2 35v15h-67q-11 0 -14.5 3.5t-3.5 14.5v55q0 11 3.5 15.5t14.5 4.5h54q-5 23 -11.5 51.5t-6.5 57.5q0 49 19 85t52 59t78.5 34.5t98.5 11.5q51 0 96 -10t83 -31q13 -8 13 -13.5t-7 -20.5l-27 -62q-5 -13 -10.5 -15.5t-20.5 2.5 q-32 11 -60.5 16.5t-59.5 5.5z" unicode="£"/>
<glyph glyph-name="currency" horiz-adv-x="526" unicode="¤" d="M256 383q-22 0 -41.5 -8.5t-34 -23t-22.5 -34t-8 -41.5t8.5 -41.5t22.5 -34t33.5 -23t41.5 -8.5t41.5 8.5t34 23t23 34t8.5 41.5t-8.5 41.5t-23 34t-34 23t-41.5 8.5zM257 498q61 0 110 -29q4 5 12 12.5t15.5 15.5t14 14t8.5 8q8 9 17 9t19 -10l44 -41q10 -11 10 -21 q0 -8 -7 -16l-54 -53q29 -49 29 -108q0 -61 -29 -110q3 -4 10.5 -11t15.5 -14.5t15 -15t11 -11.5q9 -7 9 -16q0 -10 -11 -21l-43 -44q-8 -8 -17 -8l-19 10l-51 51q-24 -14 -52 -22t-57 -8t-55 7.5t-49 20.5l-11.5 -11.5t-15.5 -16t-15.5 -16.5t-11.5 -11q-8 -8 -17 -8 t-18 10l-8.5 8.5t-14 13.5t-14 13.5t-7.5 8.5q-10 9 -10 17q0 9 10 19l51 50q-17 25 -25 54t-8 61t7 60t23 51l-46 47q-9 9 -10.5 17.5t9.5 19.5q4 3 16.5 15.5l28.5 28.5q10 10 18 10t16 -8l48 -50q50 28 109 28z"/>
<glyph glyph-name="yen" d="M573 270q11 0 13 -4.5t2 -13.5v-44q0 -10 -2 -14t-13 -4h-170v-173q0 -11 -3.5 -14t-17.5 -3h-106q-20 0 -20 17v173h-169q-11 0 -13 4t-2 14v44q0 9 2 13.5t13 4.5h486zM87 318q-11 0 -13 4t-2 14v44q0 9 2 13.5t13 4.5h87l-130 256q-2 3 -2 6t2 7.5t14 4.5h120 q15 0 20 -4t10 -15l62 -138l55 -134h5l55 135l61 139q4 9 9.5 13t16.5 4h125q14 0 14 -8q0 -5 -3 -10l-128 -256h93q11 0 13 -4.5t2 -13.5v-44q0 -10 -2 -14t-13 -4h-486z" unicode="¥"/>
<glyph glyph-name="brokenbar" horiz-adv-x="268" unicode="¦" d="M196 356q0 -11 -3.5 -15.5t-17.5 -4.5h-77q-20 0 -20 20v411q0 20 20 20h77q14 0 17.5 -4.5t3.5 -15.5v-411zM196 -144q0 -12 -3.5 -16.5t-17.5 -4.5h-77q-20 0 -20 21v409q0 19 20 19h77q14 0 17.5 -4t3.5 -15v-409z"/>
<glyph glyph-name="section" horiz-adv-x="623" unicode="§" d="M263 -12q43 0 61.5 16t18.5 35q0 21 -24 46t-56 51q-37 28 -71 55.5t-59.5 55t-40.5 56.5t-15 60q0 35 19.5 73.5t62.5 63.5q-12 18 -19.5 37.5t-7.5 39.5q0 31 12 60t36.5 51t61 35t86.5 13q42 0 83.5 -6t82.5 -25q10 -5 11 -10.5t-4 -17.5l-24 -60q-4 -11 -8.5 -13.5 t-16.5 2.5q-26 10 -53 15.5t-51 5.5q-78 0 -78 -45q0 -13 8.5 -26.5t22 -27t30.5 -27.5t35 -29q41 -33 74.5 -62t57 -56t36.5 -54t13 -56q0 -35 -21.5 -70t-59.5 -59q14 -21 22 -40.5t8 -41.5q0 -30 -12.5 -58.5t-39 -50.5t-68.5 -35t-101 -13q-44 0 -84 8t-78 28 q-15 9 -6 25l28 65q4 10 8.5 12t15.5 -3q23 -8 46 -15.5t58 -7.5zM237 423q-10 -8 -16.5 -21t-6.5 -28q0 -13 5.5 -25t18 -26t32 -31.5t47.5 -41.5q15 -14 36 -32.5t36 -29.5q21 21 21 44q0 16 -6 29.5t-18 27.5t-30.5 30.5t-42.5 37.5q-22 20 -40.5 35.5t-35.5 30.5z"/>
<glyph glyph-name="dieresis" horiz-adv-x="565" unicode="¨" d="M269 666q0 -15 -6 -28t-16.5 -23t-24 -16t-28.5 -6t-28 6t-23.5 16t-16.5 23t-6 28t6 28.5t16.5 23.5t23.5 16t28 6t28.5 -6t24 -16t16.5 -23.5t6 -28.5zM474 666q0 -15 -6 -28t-16.5 -23t-23.5 -16t-28 -6t-28.5 6t-24 16t-16.5 23t-6 28q0 30 22.5 52t52.5 22 q15 0 28 -6t23.5 -16t16.5 -23.5t6 -28.5z"/>
<glyph glyph-name="copyright" horiz-adv-x="836" unicode="©" d="M710 350q0 63 -22 116.5t-61 92.5t-92.5 61t-116.5 22t-116.5 -22t-92.5 -61t-61 -92.5t-22 -116.5q0 -64 22 -118t61 -93t92.5 -60.5t116.5 -21.5t116.5 21.5t92.5 60.5t61 93t22 118zM782 350q0 -77 -28 -143t-76.5 -114.5t-115 -76t-144.5 -27.5t-144 27.5t-115 76 t-76.5 114.5t-27.5 143t27.5 143t76.5 114.5t115 76t144 27.5t144.5 -27.5t115 -76t76.5 -114.5t28 -143zM423 121q-45 0 -80.5 16.5t-61 46.5t-39 70.5t-13.5 88.5q0 50 14 91t39.5 70.5t61 45.5t78.5 16q45 0 83.5 -18t59.5 -44q4 -7 4 -10q0 -2 -7 -9l-30 -32 q-5 -5 -9.5 -7t-12.5 6q-18 16 -40.5 26t-46.5 10q-52 0 -77 -39.5t-25 -105.5q0 -63 25 -103t76 -40q25 0 46.5 10t37.5 25q10 10 13.5 8.5t11.5 -8.5l35 -32q4 -4 4 -9t-4 -10q-20 -24 -58.5 -43.5t-84.5 -19.5z"/>
<glyph glyph-name="ordfeminine" horiz-adv-x="398" unicode="ª" d="M243 418h-47q-8 0 -17.5 -1t-18 -5t-14 -12t-5.5 -21q0 -18 14 -25t39 -7q6 0 21 0.5t28 4.5v66zM356 314q0 -11 -3 -18t-15 -13q-32 -14 -72 -19.5t-76 -5.5q-47 0 -78.5 9t-50.5 24t-26.5 36t-7.5 45q0 53 36.5 85t112.5 32h67v5q0 18 -9.5 28.5t-41.5 10.5 q-19 0 -47 -2.5t-47 -7.5q-9 -2 -15.5 -1t-9.5 11l-11 50q-2 9 1 13.5t13 8.5q28 10 62 14t68 4q77 0 113.5 -31.5t36.5 -92.5v-185z"/>
<glyph glyph-name="guillemotleft" horiz-adv-x="576" unicode="«" d="M269 254q0 12 5 23t11 22l89 149q8 13 16 18t29 5h91q10 0 13.5 -6.5t-2.5 -15.5l-115 -196l123 -203q4 -7 4 -11q0 -3 -3 -7t-14 -4h-92q-20 0 -28 5t-14 16l-97 162q-6 11 -11 22.5t-5 20.5zM58 254q0 12 4.5 23t11.5 22l88 149q8 13 16 18t29 5h92q9 0 12.5 -6.5 t-1.5 -15.5l-116 -196l123 -203q4 -7 4 -11q0 -3 -3 -7t-14 -4h-91q-21 0 -29 5t-14 16l-97 162q-6 11 -10.5 22.5t-4.5 20.5z"/>
<glyph glyph-name="logicalnot" d="M580 110q0 -11 -4 -15.5t-18 -4.5h-82q-21 0 -21 20v174h-362q-11 0 -15.5 4.5t-4.5 16.5v77q0 14 4.5 18t15.5 4h467q10 0 15 -4t5 -18v-272z" unicode="¬"/>
<glyph glyph-name="sfthyphen" horiz-adv-x="397" unicode="­" d="M341 251q0 -11 -3.5 -16t-14.5 -5h-254q-11 0 -14.5 5t-3.5 16v90q0 13 3.5 17t14.5 4h254q11 0 14.5 -4t3.5 -17v-90z"/>
<glyph glyph-name="registered" horiz-adv-x="582" unicode="®" d="M333 532q0 11 -6.5 20t-24.5 9h-49v-57h48q16 0 24 8t8 20zM405 361q1 -4 0.5 -7t-6.5 -3h-43q-5 0 -8.5 1t-5.5 8q-1 4 -3.5 13t-5 18.5t-5 18.5t-3.5 14q-8 32 -39 32h-33v-96q0 -6 -2 -7.5t-8 -1.5h-41q-9 0 -9 9v229q0 25 26 25h88q42 0 64 -21.5t22 -56.5 q0 -20 -10 -38t-29 -26v-1q16 -5 22.5 -15t9.5 -23zM474 479q0 39 -14 73.5t-38.5 59.5t-58 39.5t-72.5 14.5t-72.5 -14.5t-58.5 -39.5t-39 -59.5t-14 -73.5t14 -73t38.5 -59t58.5 -39.5t73 -14.5t72.5 14t58 38.5t38.5 58.5t14 75zM529 478q0 -50 -19 -92.5t-51 -74 t-75.5 -49t-92.5 -17.5q-51 0 -94.5 17.5t-75.5 49t-50 74t-18 92.5q0 51 18.5 94t51 75t76.5 50t94 18q51 0 94 -18t74.5 -50t49.5 -75.5t18 -93.5z"/>
<glyph glyph-name="macron" horiz-adv-x="397" unicode="¯" d="M356 604q0 -21 -20 -21h-271q-20 0 -20 21v60q0 14 4.5 17.5t15.5 3.5h271q11 0 15.5 -3.5t4.5 -17.5v-60z"/>
<glyph glyph-name="degree" horiz-adv-x="461" unicode="°" d="M315 539q0 36 -23 59t-59 23q-35 0 -58 -23t-23 -59q0 -38 23 -61.5t58 -23.5q36 0 59 23.5t23 61.5zM400 539q0 -36 -13 -66t-35.5 -52t-53.5 -34t-66 -12t-65.5 12t-53 34t-35 52t-12.5 66q0 35 12.5 65t35 51.5t53 34t66.5 12.5q35 0 65.5 -12.5t53 -34t35.5 -51.5 t13 -65z"/>
<glyph glyph-name="plusminus" d="M581 368q0 -21 -21 -21h-165v-173q0 -12 -4 -16.5t-18 -4.5h-92q-21 0 -21 21v173h-166q-20 0 -20 21v78q0 14 4.5 18t15.5 4h166v173q0 21 21 21h92q14 0 18 -4.5t4 -16.5v-173h165q12 0 16.5 -4t4.5 -18v-78zM577 19q0 -20 -20 -20h-463q-21 0 -21 20v81q0 13 4.5 16.5 t16.5 3.5h463q11 0 15.5 -3.5t4.5 -16.5v-81z" unicode="±"/>
<glyph glyph-name="twosuperior" horiz-adv-x="425" unicode="²" d="M377 376q0 -11 -3 -15t-14 -4h-258q-29 0 -45.5 12.5t-16.5 46.5q0 23 17.5 51.5t46.5 53.5q26 23 51.5 40t46.5 30q35 19 45.5 31.5t10.5 25.5q0 11 -10.5 19.5t-35.5 8.5t-51 -8.5t-51 -22.5q-8 -5 -14.5 -5t-11.5 9l-27 47q-5 8 -4.5 14t9.5 12q32 23 73.5 35.5 t80.5 12.5q34 0 63.5 -7t51 -21t33.5 -36t12 -52q0 -46 -30.5 -76t-75.5 -56q-25 -14 -51.5 -34t-42.5 -42h182q14 0 16.5 -3t2.5 -14v-53z"/>
<glyph glyph-name="threesuperior" horiz-adv-x="425" unicode="³" d="M316 572q34 -13 46.5 -39t12.5 -52q0 -60 -48.5 -94.5t-128.5 -34.5q-38 0 -80.5 9.5t-72.5 29.5q-12 8 -12 14q0 5 5 14l28 51q5 6 10 6t16 -5q23 -12 47.5 -19t47.5 -7q37 0 54.5 13.5t17.5 34.5q0 17 -12 28t-43 11h-22q-17 0 -21.5 4.5t-4.5 20.5v28q0 13 5.5 17.5 t18.5 4.5h21q50 0 50 37q0 17 -15 24t-34 7q-43 0 -89 -22q-14 -6 -20.5 -8t-12.5 9l-25 46q-5 9 -4 14t10 13q33 23 75.5 33t79.5 10q30 0 57 -6t48 -19.5t33.5 -34t12.5 -50.5q0 -24 -12.5 -47.5t-38.5 -37.5v-3z"/>
<glyph glyph-name="acute" horiz-adv-x="525" unicode="´" d="M181 591q-10 3 -10 10q0 4 2 10l70 174q5 14 13 14t18 -3l95 -25q11 -3 11 -10q0 -4 -3 -8l-117 -172q-6 -9 -10 -10h-4q-4 0 -9 1z"/>
<glyph glyph-name="mu" horiz-adv-x="600" unicode="µ" d="M189 526q14 0 17.5 -4t3.5 -15v-312q0 -24 4.5 -41t17 -27t35.5 -14.5t60 -4.5q10 0 26 1t37 4v394q0 11 3.5 15t17.5 4h103q21 0 21 -19v-423q0 -22 -3.5 -37t-12 -24.5t-22 -15.5t-33.5 -10q-13 -2 -30 -4t-34 -3t-33.5 -1.5t-27.5 -0.5q-31 0 -69 3.5t-64 11.5v-189 q0 -11 -4 -14.5t-16 -3.5h-100q-11 0 -16 3.5t-5 14.5v693q0 11 4.5 15t16.5 4h103z"/>
<glyph glyph-name="mu" horiz-adv-x="600" unicode="μ" d="M189 526q14 0 17.5 -4t3.5 -15v-312q0 -24 4.5 -41t17 -27t35.5 -14.5t60 -4.5q10 0 26 1t37 4v394q0 11 3.5 15t17.5 4h103q21 0 21 -19v-423q0 -22 -3.5 -37t-12 -24.5t-22 -15.5t-33.5 -10q-13 -2 -30 -4t-34 -3t-33.5 -1.5t-27.5 -0.5q-31 0 -69 3.5t-64 11.5v-189 q0 -11 -4 -14.5t-16 -3.5h-100q-11 0 -16 3.5t-5 14.5v693q0 11 4.5 15t16.5 4h103z"/>
<glyph glyph-name="paragraph" horiz-adv-x="584" unicode="¶" d="M248 321q-45 0 -81 14.5t-60.5 40t-37.5 60t-13 74.5q0 39 13.5 74t38.5 61t60.5 41.5t79.5 15.5h85q14 0 14 -15v-351q0 -9 -3 -12t-11 -3h-85zM520 54q0 -106 -60 -154.5t-169 -55.5q-7 0 -11.5 1.5t-6.5 12.5l-10 77q-2 14 13 17q37 4 60.5 13.5t37.5 24t19.5 34 t5.5 45.5v619q0 7 5 10.5t12 3.5h87q17 0 17 -14v-634z"/>
<glyph glyph-name="periodcentered" horiz-adv-x="296" unicode="·" d="M240 293q0 -37 -26.5 -63t-65.5 -26q-19 0 -36 7t-29.5 19t-19.5 28t-7 35t7 35.5t19.5 28.5t29.5 19t36 7q39 0 65.5 -26t26.5 -64z"/>
<glyph glyph-name="cedilla" horiz-adv-x="515" unicode="¸" d="M282 -54q37 -2 61.5 -11t39.5 -22t21 -28.5t6 -31.5q0 -20 -7.5 -39t-24 -34t-42.5 -24t-64 -9q-16 0 -33 2t-33 5t-30 7t-24 8q-9 3 -9 8q0 4 3 13l12 36q4 11 7 11.5t11 -1.5q20 -7 37 -10.5t36 -3.5q24 0 38 8t14 26q0 17 -17 24t-42 7q-17 0 -22.5 0.5t-10.5 5.5 q-6 5 -5 13t4 17l41 105q2 2 4 5t9 3h46q8 0 8 -3.5t-2 -5.5z"/>
<glyph glyph-name="onesuperior" horiz-adv-x="425" unicode="¹" d="M355 376q0 -11 -3 -15t-16 -4h-238q-12 0 -15 3.5t-3 14.5v54q0 11 3 14t15 3h59v218l-59 -11q-12 -2 -16 2t-4 12v51q0 9 2.5 14.5t14.5 8.5l112 28q15 4 27 4q10 0 23.5 -4.5t13.5 -35.5v-287h65q13 0 16 -3t3 -14v-53z"/>
<glyph glyph-name="ordmasculine" horiz-adv-x="411" unicode="º" d="M266 440q0 40 -13 64.5t-47 24.5q-32 0 -47 -23.5t-15 -63.5q0 -44 14 -67t46 -23q34 0 48 25t14 63zM384 441q0 -87 -44.5 -135t-135.5 -48q-92 0 -134.5 47.5t-42.5 135.5q0 85 47 133.5t131 48.5q88 0 133.5 -48.5t45.5 -133.5z"/>
<glyph glyph-name="guillemotright" horiz-adv-x="576" unicode="»" d="M309 254q0 -9 -5 -20.5t-11 -22.5l-97 -162q-5 -11 -13.5 -16t-28.5 -5h-92q-11 0 -14 4t-3 7q0 5 4 11l124 203l-116 196q-6 9 -2.5 15.5t13.5 6.5h92q20 0 28 -5t16 -18l89 -149q6 -11 11 -22t5 -23zM521 254q0 -9 -5 -20.5t-11 -22.5l-97 -162q-6 -11 -14 -16t-28 -5 h-92q-11 0 -14 4t-3 7q0 5 4 11l123 203l-115 196q-6 9 -2.5 15.5t13.5 6.5h91q21 0 29 -5t16 -18l88 -149q7 -11 12 -22t5 -23z"/>
<glyph glyph-name="onequarter" horiz-adv-x="970" unicode="¼" d="M708 275l-89 -106l1 -4h92v109zM368 286q0 -11 -3 -15t-16 -4h-238q-12 0 -15 3.5t-3 14.5v54q0 11 3 14t15 3h59v218l-59 -11q-12 -2 -16 2t-4 12v51q0 9 2.5 14.5t14.5 8.5l112 28q15 4 27 4q10 0 23.5 -4.5t13.5 -35.5v-287h65q13 0 16 -3t3 -14v-53zM326 -14 q-5 -9 -12.5 -13.5t-21.5 -4.5h-51q-11 0 -12.5 3.5t-1.5 5.5q0 4 3 10l414 704q5 8 9 11.5t15 3.5h59q9 0 12.5 -5t-2.5 -15zM879 94q0 -8 -2 -12.5t-14 -4.5h-38v-59q0 -13 -5 -15.5t-15 -2.5h-75q-9 0 -13.5 3.5t-4.5 14.5v58h-171q-8 0 -16 0.5t-14.5 4.5t-10.5 11.5 t-4 21.5v21q0 25 17 45l171 201q11 12 24.5 22t39.5 10h36q23 0 32 -8.5t9 -31.5v-208h37q13 0 15 -4t2 -13v-54z"/>
<glyph glyph-name="onehalf" horiz-adv-x="970" unicode="½" d="M897 19q0 -11 -3 -15t-14 -4h-258q-29 0 -45.5 12.5t-16.5 46.5q0 23 17.5 51.5t46.5 53.5q26 23 51.5 40t46.5 30q35 19 45.5 31.5t10.5 25.5q0 11 -10.5 19.5t-35.5 8.5t-51 -8.5t-51 -22.5q-8 -5 -14.5 -5t-11.5 9l-27 47q-5 8 -4.5 14t9.5 12q32 23 73.5 35.5 t80.5 12.5q34 0 63.5 -7t51 -21t33.5 -36t12 -52q0 -46 -30.5 -76t-75.5 -56q-25 -14 -51.5 -34t-42.5 -42h182q14 0 16.5 -3t2.5 -14v-53zM311 -14q-5 -9 -12.5 -13.5t-21.5 -4.5h-51q-11 0 -13.5 5.5t2.5 13.5l414 704q5 8 9 11.5t15 3.5h59q9 0 11.5 -3.5t2.5 -5.5 q0 -4 -4 -11zM349 286q0 -11 -3 -15t-16 -4h-238q-12 0 -15 3.5t-3 14.5v54q0 11 3 14t15 3h59v218l-59 -11q-12 -2 -16 2t-4 12v51q0 9 2.5 14.5t14.5 8.5l112 28q15 4 27 4q10 0 23.5 -4.5t13.5 -35.5v-287h65q13 0 16 -3t3 -14v-53z"/>
<glyph glyph-name="threequarters" horiz-adv-x="970" unicode="¾" d="M745 275l-89 -106l1 -4h92v109zM339 -14q-5 -9 -12.5 -13.5t-21.5 -4.5h-51q-11 0 -13.5 5.5t2.5 13.5l414 704q5 8 9 11.5t15 3.5h59q9 0 12.5 -5t-2.5 -15zM336 482q34 -13 46.5 -39t12.5 -52q0 -60 -48.5 -94.5t-128.5 -34.5q-38 0 -80.5 9.5t-72.5 29.5q-12 8 -12 14 q0 5 5 14l28 51q5 6 10 6t16 -5q23 -12 47.5 -19t47.5 -7q37 0 54.5 13.5t17.5 34.5q0 17 -12 28t-43 11h-22q-17 0 -21.5 4.5t-4.5 20.5v28q0 13 5.5 17.5t18.5 4.5h21q50 0 50 37q0 17 -15 24t-34 7q-43 0 -89 -22q-14 -6 -20.5 -8t-12.5 9l-25 46q-5 9 -4 14t10 13 q33 23 75.5 33t79.5 10q30 0 57 -6t48 -19.5t33.5 -34t12.5 -50.5q0 -24 -12.5 -47.5t-38.5 -37.5v-3zM916 94q0 -8 -2 -12.5t-14 -4.5h-38v-59q0 -13 -5 -15.5t-15 -2.5h-75q-9 0 -13.5 3.5t-4.5 14.5v58h-171q-8 0 -16 0.5t-14.5 4.5t-10.5 11.5t-4 21.5v21q0 25 17 45 l171 201q11 12 24.5 22t39.5 10h36q23 0 32 -8.5t9 -31.5v-208h37q13 0 15 -4t2 -13v-54z"/>
<glyph glyph-name="questiondown" horiz-adv-x="567" unicode="¿" d="M227 440q0 18 7 34t19.5 27.5t29.5 18t36 6.5q38 0 64.5 -24t26.5 -62q0 -19 -7.5 -35t-20 -28t-29.5 -18.5t-36 -6.5q-16 0 -32 5.5t-29 16.5t-21 27.5t-8 38.5zM287 -197q-46 0 -88.5 9.5t-75.5 30.5t-52.5 54t-19.5 80q0 27 9 50t23.5 44t33 39.5l36.5 36.5 q18 16 34.5 32t29 32t20.5 32t8 33v22q0 9 3 12t13 3h108q11 0 13.5 -4t2.5 -11v-32q0 -29 -9.5 -53t-24.5 -44t-33.5 -37.5t-36.5 -33.5q-26 -25 -44.5 -49.5t-18.5 -56.5q0 -22 20 -40t62 -18q38 0 73.5 11t75.5 37q9 5 15.5 6.5t11.5 -7.5l47 -79q4 -6 4 -11 q0 -6 -10 -13q-27 -20 -56.5 -34t-59.5 -23t-59.5 -13.5t-54.5 -4.5z"/>
<glyph glyph-name="Agrave" horiz-adv-x="655" unicode="À" d="M403 810q8 -7 7.5 -11t-5.5 -10l-38 -46q-5 -5 -9.5 -6.5t-14.5 3.5l-193 99q-6 2 -7 7.5t5 11.5l69 79q6 6 11 6q1 0 4 -1t9 -6zM248 270h157l-38 127l-37 143h-6l-38 -143zM441 146h-229l-39 -127q-3 -10 -8.5 -14.5t-19.5 -4.5h-117q-11 0 -13 4.5t-2 8.5q0 3 1 7 l208 627q5 17 11.5 27.5t15 16.5t20 8.5t26.5 2.5h60q17 0 29 -1.5t21 -7.5t15.5 -17t12.5 -29l208 -627q1 -3 1 -6t-1.5 -8.5t-12.5 -5.5h-119q-11 0 -18.5 2.5t-10.5 13.5z"/>
<glyph glyph-name="Aacute" horiz-adv-x="655" unicode="Á" d="M248 270h157l-38 127l-37 143h-6l-38 -143zM417 936q6 5 9 6t4 1q4 0 11 -6l69 -79q6 -6 5 -11.5t-7 -7.5l-193 -99q-10 -5 -14.5 -3.5t-9.5 6.5l-38 46q-5 6 -5.5 10t7.5 11zM441 146h-229l-39 -127q-3 -10 -8.5 -14.5t-19.5 -4.5h-117q-11 0 -13 4.5t-2 8.5q0 3 1 7 l208 627q5 17 11.5 27.5t15 16.5t20 8.5t26.5 2.5h60q17 0 29 -1.5t21 -7.5t15.5 -17t12.5 -29l208 -627q1 -3 1 -6t-1.5 -8.5t-12.5 -5.5h-119q-11 0 -18.5 2.5t-10.5 13.5z"/>
<glyph glyph-name="Acircumflex" horiz-adv-x="655" unicode="Â" d="M515 796q9 -8 9 -13.5t-7 -12.5l-28 -31q-6 -7 -13 -5.5t-15 6.5l-142 77l-138 -75q-8 -5 -14 -5.5t-13 7.5l-26 27q-6 8 -6.5 12.5t6.5 11.5l133 115q14 12 29.5 19t28.5 7q29 0 61 -26zM248 270h157l-38 127l-37 143h-6l-38 -143zM441 146h-229l-39 -127 q-3 -10 -8.5 -14.5t-19.5 -4.5h-117q-11 0 -13 4.5t-2 8.5q0 3 1 7l208 627q5 17 11.5 27.5t15 16.5t20 8.5t26.5 2.5h60q17 0 29 -1.5t21 -7.5t15.5 -17t12.5 -29l208 -627q1 -3 1 -6t-1.5 -8.5t-12.5 -5.5h-119q-11 0 -18.5 2.5t-10.5 13.5z"/>
<glyph glyph-name="Atilde" horiz-adv-x="655" unicode="Ã" d="M394 747q-18 0 -36 6.5t-35 14t-34 14t-35 6.5q-27 0 -47 -31q-6 -9 -10.5 -11.5t-12.5 2.5l-44 25q-9 5 -9.5 10t3.5 13q19 38 46.5 61.5t72.5 23.5q19 0 36 -6.5t33.5 -14t32.5 -13.5t32 -6t26.5 7.5t20.5 24.5q6 11 8 11.5t3 0.5q3 0 10 -2l50 -17q10 -3 11 -7.5 t-3 -14.5q-19 -42 -46.5 -69.5t-72.5 -27.5zM248 270h157l-38 127l-37 143h-6l-38 -143zM441 146h-229l-39 -127q-3 -10 -8.5 -14.5t-19.5 -4.5h-117q-11 0 -13 4.5t-2 8.5q0 3 1 7l208 627q5 17 11.5 27.5t15 16.5t20 8.5t26.5 2.5h60q17 0 29 -1.5t21 -7.5t15.5 -17 t12.5 -29l208 -627q1 -3 1 -6t-1.5 -8.5t-12.5 -5.5h-119q-11 0 -18.5 2.5t-10.5 13.5z"/>
<glyph glyph-name="Adieresis" horiz-adv-x="655" unicode="Ä" d="M298 812q0 -15 -6 -28t-16.5 -23t-24 -16t-28.5 -6t-28 6t-23.5 16t-16.5 23t-6 28t6 28.5t16.5 23.5t23.5 16t28 6t28.5 -6t24 -16t16.5 -23.5t6 -28.5zM503 812q0 -15 -6 -28t-16.5 -23t-23.5 -16t-28 -6t-28.5 6t-24 16t-16.5 23t-6 28q0 30 22.5 52t52.5 22 q15 0 28 -6t23.5 -16t16.5 -23.5t6 -28.5zM248 270h157l-38 127l-37 143h-6l-38 -143zM441 146h-229l-39 -127q-3 -10 -8.5 -14.5t-19.5 -4.5h-117q-11 0 -13 4.5t-2 8.5q0 3 1 7l208 627q5 17 11.5 27.5t15 16.5t20 8.5t26.5 2.5h60q17 0 29 -1.5t21 -7.5t15.5 -17 t12.5 -29l208 -627q1 -3 1 -6t-1.5 -8.5t-12.5 -5.5h-119q-11 0 -18.5 2.5t-10.5 13.5z"/>
<glyph glyph-name="Aring" horiz-adv-x="655" unicode="Å" d="M450 835q0 -26 -9.5 -47.5t-26 -37.5t-39.5 -24.5t-49 -8.5q-52 0 -87.5 32.5t-35.5 85.5q0 25 9.5 47t26 37.5t39 24.5t48.5 9t49 -8.5t39.5 -24.5t26 -37.5t9.5 -47.5zM375 835q0 21 -14 35t-35 14t-34.5 -14t-13.5 -35q0 -23 13.5 -36.5t34.5 -13.5q20 0 34.5 13.5 t14.5 36.5zM248 270h157l-38 127l-37 143h-6l-38 -143zM441 146h-229l-39 -127q-3 -10 -8.5 -14.5t-19.5 -4.5h-117q-11 0 -13 4.5t-2 8.5q0 3 1 7l208 627q5 17 11.5 27.5t15 16.5t20 8.5t26.5 2.5h60q17 0 29 -1.5t21 -7.5t15.5 -17t12.5 -29l208 -627q1 -3 1 -6 t-1.5 -8.5t-12.5 -5.5h-119q-11 0 -18.5 2.5t-10.5 13.5z"/>
<glyph glyph-name="AE" horiz-adv-x="925" unicode="Æ" d="M252 266h157v251q0 17 1.5 33.5t6.5 27.5q-41 0 -57.5 -13.5t-23.5 -34.5l-35 -106zM893 21q0 -11 -3.5 -16t-14.5 -5h-290q-46 0 -78 8.5t-52.5 26.5t-31.5 46t-14 66h-192l-42 -128q-3 -10 -8 -14.5t-18 -4.5h-121q-8 0 -11.5 3.5t-3.5 7.5t3 9l184 541 q13 39 30.5 65.5t42 43t56.5 24t74 7.5h460q11 0 14.5 -4t3.5 -18v-89q0 -11 -3.5 -15.5t-14.5 -4.5h-236q-40 0 -53.5 -18.5t-13.5 -46.5v-74h273q11 0 14.5 -4t3.5 -18v-82q0 -11 -3.5 -16t-14.5 -5h-273v-111q0 -35 17.5 -49t49.5 -14h248q11 0 14.5 -4t3.5 -18v-89z"/>
<glyph glyph-name="Ccedilla" horiz-adv-x="643" unicode="Ç" d="M388 127q48 0 85 11.5t69 23.5q14 6 20 2.5t11 -14.5l34 -72q5 -11 5 -18q0 -9 -11 -15q-49 -30 -102.5 -42t-106.5 -14l-17 -43q37 -2 61.5 -11t39.5 -22t21 -28.5t6 -31.5q0 -20 -7.5 -39t-24 -34t-42.5 -24t-64 -9q-16 0 -33 2t-33 5t-30 7t-24 8q-8 3 -8.5 7t2.5 14 l12 36q4 11 7 11.5t11 -1.5q20 -7 37 -10.5t36 -3.5q24 0 38 8t14 26q0 17 -17 24t-42 7q-17 0 -22.5 0.5t-10.5 5.5q-6 5 -5 13t4 17l26 68q-71 6 -122 33.5t-84.5 73t-49.5 108t-16 140.5q0 82 23.5 149t65.5 115t101.5 74t131.5 26q51 0 100 -8.5t96 -34.5q11 -6 13 -12 t-5 -23l-31 -69q-5 -14 -10.5 -17t-19.5 2q-36 13 -67 19.5t-69 6.5q-41 0 -72.5 -17.5t-53 -48t-32.5 -72t-11 -90.5t8.5 -89t29 -69t53.5 -45t82 -16z"/>
<glyph glyph-name="Egrave" horiz-adv-x="613" unicode="È" d="M430 810q8 -7 7.5 -11t-5.5 -10l-38 -46q-5 -5 -9.5 -6.5t-14.5 3.5l-193 99q-6 2 -7 7.5t5 11.5l69 79q6 6 11 6q1 0 4 -1t9 -6zM576 23q0 -12 -4 -17.5t-16 -5.5h-296q-56 0 -91.5 16t-56.5 42t-29 59t-8 67v332q0 36 10 69t31.5 59t56.5 41.5t86 15.5h287 q12 0 15.5 -5t3.5 -19v-85q0 -13 -4 -17.5t-15 -4.5h-254q-39 0 -52 -18t-13 -44v-77h287q12 0 15.5 -5t3.5 -19v-78q0 -12 -3.5 -17.5t-15.5 -5.5h-287v-114q0 -35 16.5 -47.5t48.5 -12.5h264q13 0 16.5 -4.5t3.5 -19.5v-85z"/>
<glyph glyph-name="Eacute" horiz-adv-x="613" unicode="É" d="M421 936q6 5 9 6t4 1q4 0 11 -6l69 -79q6 -6 5 -11.5t-7 -7.5l-193 -99q-10 -5 -14.5 -3.5t-9.5 6.5l-38 46q-5 6 -5.5 10t7.5 11zM576 23q0 -12 -4 -17.5t-16 -5.5h-296q-56 0 -91.5 16t-56.5 42t-29 59t-8 67v332q0 36 10 69t31.5 59t56.5 41.5t86 15.5h287 q12 0 15.5 -5t3.5 -19v-85q0 -13 -4 -17.5t-15 -4.5h-254q-39 0 -52 -18t-13 -44v-77h287q12 0 15.5 -5t3.5 -19v-78q0 -12 -3.5 -17.5t-15.5 -5.5h-287v-114q0 -35 16.5 -47.5t48.5 -12.5h264q13 0 16.5 -4.5t3.5 -19.5v-85z"/>
<glyph glyph-name="Ecircumflex" horiz-adv-x="613" unicode="Ê" d="M539 796q9 -8 9 -13.5t-7 -12.5l-28 -31q-6 -7 -13 -5.5t-15 6.5l-142 77l-138 -75q-8 -5 -14 -5.5t-13 7.5l-26 27q-6 8 -6.5 12.5t6.5 11.5l133 115q14 12 29.5 19t28.5 7q29 0 61 -26zM576 23q0 -12 -4 -17.5t-16 -5.5h-296q-56 0 -91.5 16t-56.5 42t-29 59t-8 67v332 q0 36 10 69t31.5 59t56.5 41.5t86 15.5h287q12 0 15.5 -5t3.5 -19v-85q0 -13 -4 -17.5t-15 -4.5h-254q-39 0 -52 -18t-13 -44v-77h287q12 0 15.5 -5t3.5 -19v-78q0 -12 -3.5 -17.5t-15.5 -5.5h-287v-114q0 -35 16.5 -47.5t48.5 -12.5h264q13 0 16.5 -4.5t3.5 -19.5v-85z"/>
<glyph glyph-name="Edieresis" horiz-adv-x="613" unicode="Ë" d="M326 812q0 -15 -6 -28t-16.5 -23t-24 -16t-28.5 -6t-28 6t-23.5 16t-16.5 23t-6 28t6 28.5t16.5 23.5t23.5 16t28 6t28.5 -6t24 -16t16.5 -23.5t6 -28.5zM531 812q0 -15 -6 -28t-16.5 -23t-23.5 -16t-28 -6t-28.5 6t-24 16t-16.5 23t-6 28q0 30 22.5 52t52.5 22 q15 0 28 -6t23.5 -16t16.5 -23.5t6 -28.5zM576 23q0 -12 -4 -17.5t-16 -5.5h-296q-56 0 -91.5 16t-56.5 42t-29 59t-8 67v332q0 36 10 69t31.5 59t56.5 41.5t86 15.5h287q12 0 15.5 -5t3.5 -19v-85q0 -13 -4 -17.5t-15 -4.5h-254q-39 0 -52 -18t-13 -44v-77h287 q12 0 15.5 -5t3.5 -19v-78q0 -12 -3.5 -17.5t-15.5 -5.5h-287v-114q0 -35 16.5 -47.5t48.5 -12.5h264q13 0 16.5 -4.5t3.5 -19.5v-85z"/>
<glyph glyph-name="Igrave" horiz-adv-x="329" unicode="Ì" d="M232 810q8 -7 7.5 -11t-5.5 -10l-38 -46q-5 -5 -9.5 -6.5t-14.5 3.5l-193 99q-7 2 -7 9q0 5 5 10l69 79q6 6 11 6q1 0 4 -1t9 -6zM241 21q0 -13 -4.5 -17t-19.5 -4h-106q-12 0 -17.5 4.5t-5.5 16.5v658q0 12 5.5 16.5t17.5 4.5h106q15 0 19.5 -4t4.5 -17v-658z"/>
<glyph glyph-name="Iacute" horiz-adv-x="329" unicode="Í" d="M251 936q6 5 9 6t4 1q4 0 11 -6l69 -79q5 -5 5 -10q0 -7 -7 -9l-193 -99q-10 -5 -14.5 -3.5t-9.5 6.5l-38 46q-6 7 -6 10q0 4 8 11zM241 21q0 -13 -4.5 -17t-19.5 -4h-106q-12 0 -17.5 4.5t-5.5 16.5v658q0 12 5.5 16.5t17.5 4.5h106q15 0 19.5 -4t4.5 -17v-658z"/>
<glyph glyph-name="Icircumflex" horiz-adv-x="329" unicode="Î" d="M360 796q9 -8 9 -13.5t-7 -12.5l-28 -31q-6 -7 -13 -5.5t-15 6.5l-142 77l-138 -75q-8 -5 -14 -5.5t-13 7.5l-26 27q-7 9 -7 13t7 11l133 115q14 12 29.5 19t28.5 7q29 0 61 -26zM241 21q0 -13 -4.5 -17t-19.5 -4h-106q-12 0 -17.5 4.5t-5.5 16.5v658q0 12 5.5 16.5 t17.5 4.5h106q15 0 19.5 -4t4.5 -17v-658z"/>
<glyph glyph-name="Idieresis" horiz-adv-x="329" unicode="Ï" d="M138 815q0 -15 -6 -28t-16.5 -23t-24 -16t-28.5 -6t-28 6t-23.5 16t-16.5 23t-6 28t6 28.5t16.5 23.5t23.5 16t28 6t28.5 -6t24 -16t16.5 -23.5t6 -28.5zM343 815q0 -15 -6 -28t-16.5 -23t-23.5 -16t-28 -6t-28.5 6t-24 16t-16.5 23t-6 28q0 30 22.5 52t52.5 22 q15 0 28 -6t23.5 -16t16.5 -23.5t6 -28.5zM241 21q0 -13 -4.5 -17t-19.5 -4h-106q-12 0 -17.5 4.5t-5.5 16.5v658q0 12 5.5 16.5t17.5 4.5h106q15 0 19.5 -4t4.5 -17v-658z"/>
<glyph glyph-name="Eth" horiz-adv-x="697" unicode="Ð" d="M485 354q0 46 -8 85t-28.5 67.5t-55.5 45t-88 16.5h-77v-165h116q11 0 15 -4t4 -17v-54q0 -21 -19 -21h-116v-173h80q52 0 86.5 16.5t54.5 45.5t28 69.5t8 88.5zM141 0q-36 0 -51 14.5t-15 46.5v246h-41q-20 0 -20 21v54q0 13 4.5 17t15.5 4h41v236q0 32 15 47t51 15h181 q88 0 149 -28t99 -75t55 -110.5t17 -133.5q0 -69 -15 -133t-51 -113t-95.5 -78.5t-147.5 -29.5h-192z"/>
<glyph glyph-name="Ntilde" horiz-adv-x="744" unicode="Ñ" d="M443 754q-18 0 -36 6.5t-35 14t-34 14t-35 6.5q-27 0 -47 -31q-6 -9 -10.5 -11.5t-12.5 2.5l-44 25q-9 5 -9.5 10t3.5 13q19 38 46.5 61.5t72.5 23.5q19 0 36 -6.5t33.5 -14t32.5 -13.5t32 -6t26.5 7.5t20.5 24.5q6 11 8 11.5t3 0.5q3 0 10 -2l50 -17q10 -3 11 -7.5 t-3 -14.5q-19 -42 -46.5 -69.5t-72.5 -27.5zM226 435v-414q0 -13 -4.5 -17t-18.5 -4h-105q-12 0 -17.5 4.5t-5.5 16.5v610q0 39 14 54.5t51 15.5h42q15 0 25.5 -1.5t18.5 -6.5t15 -14t16 -23l170 -259l86 -135h5v418q0 12 4.5 16.5t18.5 4.5h105q23 0 23 -21v-611 q0 -32 -13 -50.5t-52 -18.5h-42q-15 0 -25.5 1.5t-18.5 6.5t-15 13.5t-16 22.5l-160 242l-96 149h-5z"/>
<glyph glyph-name="Ograve" horiz-adv-x="730" unicode="Ò" d="M446 813q8 -7 7.5 -11t-5.5 -10l-38 -46q-5 -5 -9.5 -6.5t-14.5 3.5l-193 99q-6 2 -7 7.5t5 11.5l69 79q6 6 11 6q1 0 4 -1t9 -6zM516 349q0 45 -6.5 86t-23.5 72t-46 49.5t-75 18.5q-38 0 -66.5 -17.5t-47.5 -47.5t-28 -70t-9 -85q0 -53 7.5 -95t25 -72t46.5 -46t73 -16 q43 0 72 18.5t46 49t24.5 71t7.5 84.5zM675 352q0 -86 -18.5 -153t-57.5 -114t-98 -71.5t-140 -24.5q-155 0 -230.5 94t-75.5 266q0 84 21.5 151.5t61.5 114t97 71.5t129 25q78 0 136.5 -25t97 -71.5t58 -113t19.5 -149.5z"/>
<glyph glyph-name="Oacute" horiz-adv-x="730" unicode="Ó" d="M468 942q6 5 9 6t4 1q4 0 11 -6l69 -79q6 -6 5 -11.5t-7 -7.5l-193 -99q-10 -5 -14.5 -3.5t-9.5 6.5l-38 46q-5 6 -5.5 10t7.5 11zM516 349q0 45 -6.5 86t-23.5 72t-46 49.5t-75 18.5q-38 0 -66.5 -17.5t-47.5 -47.5t-28 -70t-9 -85q0 -53 7.5 -95t25 -72t46.5 -46 t73 -16q43 0 72 18.5t46 49t24.5 71t7.5 84.5zM675 352q0 -86 -18.5 -153t-57.5 -114t-98 -71.5t-140 -24.5q-155 0 -230.5 94t-75.5 266q0 84 21.5 151.5t61.5 114t97 71.5t129 25q78 0 136.5 -25t97 -71.5t58 -113t19.5 -149.5z"/>
<glyph glyph-name="Ocircumflex" horiz-adv-x="730" unicode="Ô" d="M555 796q9 -8 9 -13.5t-7 -12.5l-28 -31q-6 -7 -13 -5.5t-15 6.5l-142 77l-138 -75q-8 -5 -14 -5.5t-13 7.5l-26 27q-6 8 -6.5 12.5t6.5 11.5l133 115q14 12 29.5 19t28.5 7q29 0 61 -26zM516 349q0 45 -6.5 86t-23.5 72t-46 49.5t-75 18.5q-38 0 -66.5 -17.5 t-47.5 -47.5t-28 -70t-9 -85q0 -53 7.5 -95t25 -72t46.5 -46t73 -16q43 0 72 18.5t46 49t24.5 71t7.5 84.5zM675 352q0 -86 -18.5 -153t-57.5 -114t-98 -71.5t-140 -24.5q-155 0 -230.5 94t-75.5 266q0 84 21.5 151.5t61.5 114t97 71.5t129 25q78 0 136.5 -25t97 -71.5 t58 -113t19.5 -149.5z"/>
<glyph glyph-name="Otilde" horiz-adv-x="730" unicode="Õ" d="M438 753q-18 0 -36 6.5t-35 14t-34 14t-35 6.5q-27 0 -47 -31q-6 -9 -10.5 -11.5t-12.5 2.5l-44 25q-9 5 -9.5 10t3.5 13q19 38 46.5 61.5t72.5 23.5q19 0 36 -6.5t33.5 -14t32.5 -13.5t32 -6t26.5 7.5t20.5 24.5q6 11 8 11.5t3 0.5q3 0 10 -2l50 -17q10 -3 11 -7.5 t-3 -14.5q-19 -42 -46.5 -69.5t-72.5 -27.5zM516 349q0 45 -6.5 86t-23.5 72t-46 49.5t-75 18.5q-38 0 -66.5 -17.5t-47.5 -47.5t-28 -70t-9 -85q0 -53 7.5 -95t25 -72t46.5 -46t73 -16q43 0 72 18.5t46 49t24.5 71t7.5 84.5zM675 352q0 -86 -18.5 -153t-57.5 -114 t-98 -71.5t-140 -24.5q-155 0 -230.5 94t-75.5 266q0 84 21.5 151.5t61.5 114t97 71.5t129 25q78 0 136.5 -25t97 -71.5t58 -113t19.5 -149.5z"/>
<glyph glyph-name="Odieresis" horiz-adv-x="730" unicode="Ö" d="M338 817q0 -15 -6 -28t-16.5 -23t-24 -16t-28.5 -6t-28 6t-23.5 16t-16.5 23t-6 28t6 28.5t16.5 23.5t23.5 16t28 6t28.5 -6t24 -16t16.5 -23.5t6 -28.5zM543 817q0 -15 -6 -28t-16.5 -23t-23.5 -16t-28 -6t-28.5 6t-24 16t-16.5 23t-6 28q0 30 22.5 52t52.5 22 q15 0 28 -6t23.5 -16t16.5 -23.5t6 -28.5zM516 349q0 45 -6.5 86t-23.5 72t-46 49.5t-75 18.5q-38 0 -66.5 -17.5t-47.5 -47.5t-28 -70t-9 -85q0 -53 7.5 -95t25 -72t46.5 -46t73 -16q43 0 72 18.5t46 49t24.5 71t7.5 84.5zM675 352q0 -86 -18.5 -153t-57.5 -114t-98 -71.5 t-140 -24.5q-155 0 -230.5 94t-75.5 266q0 84 21.5 151.5t61.5 114t97 71.5t129 25q78 0 136.5 -25t97 -71.5t58 -113t19.5 -149.5z"/>
<glyph glyph-name="multiply" d="M105 179q-7 7 -7 14t7 15l136 136l-134 134q-7 8 -7 15t7 14l55 55q10 10 15 10h1q6 0 14 -9l134 -135l135 136q7 7 14 7t15 -7l57 -56q9 -10 9 -16t-9 -14l-135 -135l133 -133q9 -9 9 -15t-10 -16l-54 -55q-8 -7 -15 -7t-14 7l-134 134l-136 -136q-8 -8 -14 -8l-1 -1 q-6 0 -15 10z" unicode="×"/>
<glyph glyph-name="Oslash" horiz-adv-x="730" unicode="Ø" d="M214 355q0 -35 3.5 -65t12.5 -55l238 297q-17 20 -42.5 31.5t-60.5 11.5q-38 0 -66.5 -17.5t-47.5 -47.5t-28 -70t-9 -85zM516 349q-1 35 -5 68t-15 61l-241 -301q18 -25 45.5 -38t67.5 -13q43 0 71.5 18.5t45.5 49t24 71t7 84.5zM112 4q-7 -8 -11 -8.5t-9 4.5l-22 18 q-7 5 -7 9t7 13l48 59q-63 91 -63 250q0 84 21.5 151.5t61.5 114t97 71.5t129 25q63 0 112.5 -16.5t87.5 -47.5l42 52q12 16 23 5l21 -17q6 -5 7 -9.5t-7 -12.5l-47 -58q36 -47 54 -111t18 -144q0 -86 -18.5 -153t-57.5 -114t-98 -71.5t-140 -24.5q-131 0 -205 68z"/>
<glyph glyph-name="Ugrave" horiz-adv-x="717" unicode="Ù" d="M444 810q8 -7 7.5 -11t-5.5 -10l-38 -46q-5 -5 -9.5 -6.5t-14.5 3.5l-193 99q-6 2 -7 7.5t5 11.5l69 79q6 6 11 6q1 0 4 -1t9 -6zM642 97q0 -35 -15.5 -60t-57.5 -36q-20 -5 -44 -7.5t-48 -3.5t-45 -1.5t-34 -0.5q-86 0 -147.5 14.5t-100.5 49.5t-57 93t-18 146l-1 388 q0 12 6 16.5t17 4.5h107q15 0 19.5 -4t4.5 -17v-397q0 -41 7 -71.5t25 -50.5t48.5 -29.5t78.5 -9.5q7 0 19 0.5t26.5 1t30 2t28.5 4.5v550q0 12 5.5 16.5t17.5 4.5h106q15 0 18.5 -4t3.5 -17v-582z"/>
<glyph glyph-name="Uacute" horiz-adv-x="717" unicode="Ú" d="M451 936q6 5 9 6t4 1q4 0 11 -6l69 -79q6 -6 5 -11.5t-7 -7.5l-193 -99q-10 -5 -14.5 -3.5t-9.5 6.5l-38 46q-5 6 -5.5 10t7.5 11zM642 97q0 -35 -15.5 -60t-57.5 -36q-20 -5 -44 -7.5t-48 -3.5t-45 -1.5t-34 -0.5q-86 0 -147.5 14.5t-100.5 49.5t-57 93t-18 146l-1 388 q0 12 6 16.5t17 4.5h107q15 0 19.5 -4t4.5 -17v-397q0 -41 7 -71.5t25 -50.5t48.5 -29.5t78.5 -9.5q7 0 19 0.5t26.5 1t30 2t28.5 4.5v550q0 12 5.5 16.5t17.5 4.5h106q15 0 18.5 -4t3.5 -17v-582z"/>
<glyph glyph-name="Ucircumflex" horiz-adv-x="717" unicode="Û" d="M557 796q9 -8 9 -13.5t-7 -12.5l-28 -31q-6 -7 -13 -5.5t-15 6.5l-142 77l-138 -75q-8 -5 -14 -5.5t-13 7.5l-26 27q-6 8 -6.5 12.5t6.5 11.5l133 115q14 12 29.5 19t28.5 7q29 0 61 -26zM642 97q0 -35 -15.5 -60t-57.5 -36q-20 -5 -44 -7.5t-48 -3.5t-45 -1.5t-34 -0.5 q-86 0 -147.5 14.5t-100.5 49.5t-57 93t-18 146l-1 388q0 12 6 16.5t17 4.5h107q15 0 19.5 -4t4.5 -17v-397q0 -41 7 -71.5t25 -50.5t48.5 -29.5t78.5 -9.5q7 0 19 0.5t26.5 1t30 2t28.5 4.5v550q0 12 5.5 16.5t17.5 4.5h106q15 0 18.5 -4t3.5 -17v-582z"/>
<glyph glyph-name="Udieresis" horiz-adv-x="717" unicode="Ü" d="M338 812q0 -15 -6 -28t-16.5 -23t-24 -16t-28.5 -6t-28 6t-23.5 16t-16.5 23t-6 28t6 28.5t16.5 23.5t23.5 16t28 6t28.5 -6t24 -16t16.5 -23.5t6 -28.5zM543 812q0 -15 -6 -28t-16.5 -23t-23.5 -16t-28 -6t-28.5 6t-24 16t-16.5 23t-6 28q0 30 22.5 52t52.5 22 q15 0 28 -6t23.5 -16t16.5 -23.5t6 -28.5zM642 97q0 -35 -15.5 -60t-57.5 -36q-20 -5 -44 -7.5t-48 -3.5t-45 -1.5t-34 -0.5q-86 0 -147.5 14.5t-100.5 49.5t-57 93t-18 146l-1 388q0 12 6 16.5t17 4.5h107q15 0 19.5 -4t4.5 -17v-397q0 -41 7 -71.5t25 -50.5t48.5 -29.5 t78.5 -9.5q7 0 19 0.5t26.5 1t30 2t28.5 4.5v550q0 12 5.5 16.5t17.5 4.5h106q15 0 18.5 -4t3.5 -17v-582z"/>
<glyph glyph-name="Yacute" horiz-adv-x="625" unicode="Ý" d="M405 936q6 5 9 6t4 1q4 0 11 -6l69 -79q6 -6 5 -11.5t-7 -7.5l-193 -99q-10 -5 -14.5 -3.5t-9.5 6.5l-38 46q-5 6 -5.5 10t7.5 11zM316 397l66 148l66 137q5 10 10.5 14.5t16.5 4.5h127q15 0 15 -8q0 -5 -3 -10l-223 -425v-238q0 -11 -4 -15.5t-18 -4.5h-109 q-21 0 -21 20v236l-229 426q-2 3 -2 6t2 8t13 5h126q14 0 19.5 -5t10.5 -17l67 -139l64 -143h6z"/>
<glyph glyph-name="Thorn" horiz-adv-x="644" unicode="Þ" d="M456 363q0 14 -4 30.5t-15 31t-30.5 24t-50.5 9.5h-128v-189h130q51 0 74.5 27t23.5 67zM380 592q54 0 97 -16.5t73.5 -45.5t46.5 -69t16 -87q0 -24 -7 -60.5t-30 -71t-65.5 -61.5t-112.5 -33q-26 -3 -54 -3h-116v-126q0 -11 -3.5 -15t-16.5 -4h-107q-9 0 -18.5 2.5 t-7.5 16.5v667q0 20 20 20h104q14 0 18 -4.5t4 -15.5v-94h159z"/>
<glyph glyph-name="germandbls" horiz-adv-x="604" unicode="ß" d="M447 401q24 -9 44.5 -26t35.5 -41t23.5 -53t8.5 -61q0 -69 -21.5 -117t-57.5 -78t-79 -42t-84 -12h-13q-20 1 -24 4t-4 15v79q0 10 3 14t15 6q56 3 84.5 38t28.5 92q0 23 -5 44.5t-16.5 38t-30.5 27t-47 11.5q-21 2 -29.5 9.5t-8.5 25.5v35q0 17 9 28.5t29 11.5 q34 0 53 22.5t19 60.5q0 13 -4 27.5t-14 26.5t-25.5 19.5t-38.5 7.5t-39.5 -9t-27 -23.5t-15.5 -33.5t-5 -39v-485q0 -13 -4 -18.5t-20 -5.5h-102q-13 0 -16 6t-3 18v468q0 55 16.5 100t47 76t73.5 48t94 17q57 0 99.5 -14.5t71.5 -40t43.5 -60.5t14.5 -75q0 -16 -4 -35 t-13.5 -38.5t-24.5 -36.5t-37 -28v-4z"/>
<glyph glyph-name="agrave" horiz-adv-x="576" unicode="à" d="M368 611q5 -10 2 -13.5t-11 -5.5l-55 -20q-8 -2 -12.5 -0.5t-10.5 9.5l-116 172q-4 5 -2.5 10.5t9.5 7.5l104 26q4 1 8 1q5 0 8.5 -2.5t6.5 -9.5zM365 238h-79q-14 0 -30 -2t-29.5 -9.5t-22.5 -21.5t-9 -38q0 -35 23.5 -49t63.5 -14q6 0 16 0.5t21.5 2t23.5 4t22 6.5v121 zM511 65q0 -13 -3.5 -22t-17.5 -17q-23 -11 -49.5 -18t-54 -11t-55.5 -6t-53 -2q-68 0 -112.5 13t-71.5 35.5t-38 53t-11 65.5q0 39 13 71.5t39 56.5t65.5 37.5t93.5 13.5h110v16q0 14 -3 27t-12.5 22.5t-26.5 15.5t-45 6q-15 0 -34 -1.5t-38 -4t-37 -6t-32 -7.5 q-13 -3 -18 0t-7 13l-16 70q-3 11 -0.5 15.5t10.5 7.5q45 16 94.5 23t98.5 7q109 0 160 -46.5t51 -137.5v-290z"/>
<glyph glyph-name="aacute" horiz-adv-x="576" unicode="á" d="M250 591q-9 3 -10 7.5t2 12.5l70 174q5 14 12.5 14t18.5 -3l95 -25q16 -4 8 -18l-117 -172q-6 -9 -10.5 -10t-12.5 1zM365 238h-79q-14 0 -30 -2t-29.5 -9.5t-22.5 -21.5t-9 -38q0 -35 23.5 -49t63.5 -14q6 0 16 0.5t21.5 2t23.5 4t22 6.5v121zM511 65q0 -13 -3.5 -22 t-17.5 -17q-23 -11 -49.5 -18t-54 -11t-55.5 -6t-53 -2q-68 0 -112.5 13t-71.5 35.5t-38 53t-11 65.5q0 39 13 71.5t39 56.5t65.5 37.5t93.5 13.5h110v16q0 14 -3 27t-12.5 22.5t-26.5 15.5t-45 6q-15 0 -34 -1.5t-38 -4t-37 -6t-32 -7.5q-13 -3 -18 0t-7 13l-16 70 q-3 11 -0.5 15.5t10.5 7.5q45 16 94.5 23t98.5 7q109 0 160 -46.5t51 -137.5v-290z"/>
<glyph glyph-name="acircumflex" horiz-adv-x="576" unicode="â" d="M494 622q8 -8 7.5 -13.5t-8.5 -13.5l-29 -28q-7 -5 -12.5 -5t-15.5 7l-139 98l-134 -100q-8 -5 -13.5 -5t-13.5 7l-30 28q-6 7 -5.5 11.5t5.5 12.5l131 137q14 14 29 22.5t30 8.5q22 0 36 -7t29 -24zM365 238h-79q-14 0 -30 -2t-29.5 -9.5t-22.5 -21.5t-9 -38 q0 -35 23.5 -49t63.5 -14q6 0 16 0.5t21.5 2t23.5 4t22 6.5v121zM511 65q0 -13 -3.5 -22t-17.5 -17q-23 -11 -49.5 -18t-54 -11t-55.5 -6t-53 -2q-68 0 -112.5 13t-71.5 35.5t-38 53t-11 65.5q0 39 13 71.5t39 56.5t65.5 37.5t93.5 13.5h110v16q0 14 -3 27t-12.5 22.5 t-26.5 15.5t-45 6q-15 0 -34 -1.5t-38 -4t-37 -6t-32 -7.5q-13 -3 -18 0t-7 13l-16 70q-3 11 -0.5 15.5t10.5 7.5q45 16 94.5 23t98.5 7q109 0 160 -46.5t51 -137.5v-290z"/>
<glyph glyph-name="atilde" horiz-adv-x="576" unicode="ã" d="M362 605q-18 0 -36 6.5t-35 14t-34 14t-35 6.5q-27 0 -47 -31q-6 -9 -10.5 -11.5t-12.5 2.5l-44 25q-9 5 -9.5 10t3.5 13q19 38 46.5 61.5t72.5 23.5q19 0 36 -6.5t33.5 -14t32.5 -13.5t32 -6t26.5 7.5t20.5 24.5q6 11 8 11.5t3 0.5q3 0 10 -2l50 -17q10 -3 11 -7.5 t-3 -14.5q-19 -42 -46.5 -69.5t-72.5 -27.5zM365 238h-79q-14 0 -30 -2t-29.5 -9.5t-22.5 -21.5t-9 -38q0 -35 23.5 -49t63.5 -14q6 0 16 0.5t21.5 2t23.5 4t22 6.5v121zM511 65q0 -13 -3.5 -22t-17.5 -17q-23 -11 -49.5 -18t-54 -11t-55.5 -6t-53 -2q-68 0 -112.5 13 t-71.5 35.5t-38 53t-11 65.5q0 39 13 71.5t39 56.5t65.5 37.5t93.5 13.5h110v16q0 14 -3 27t-12.5 22.5t-26.5 15.5t-45 6q-15 0 -34 -1.5t-38 -4t-37 -6t-32 -7.5q-13 -3 -18 0t-7 13l-16 70q-3 11 -0.5 15.5t10.5 7.5q45 16 94.5 23t98.5 7q109 0 160 -46.5t51 -137.5 v-290z"/>
<glyph glyph-name="adieresis" horiz-adv-x="576" unicode="ä" d="M271 671q0 -15 -6 -28t-16.5 -23t-24 -16t-28.5 -6t-28 6t-23.5 16t-16.5 23t-6 28t6 28.5t16.5 23.5t23.5 16t28 6t28.5 -6t24 -16t16.5 -23.5t6 -28.5zM476 671q0 -15 -6 -28t-16.5 -23t-23.5 -16t-28 -6t-28.5 6t-24 16t-16.5 23t-6 28q0 30 22.5 52t52.5 22 q15 0 28 -6t23.5 -16t16.5 -23.5t6 -28.5zM365 238h-79q-14 0 -30 -2t-29.5 -9.5t-22.5 -21.5t-9 -38q0 -35 23.5 -49t63.5 -14q6 0 16 0.5t21.5 2t23.5 4t22 6.5v121zM511 65q0 -13 -3.5 -22t-17.5 -17q-23 -11 -49.5 -18t-54 -11t-55.5 -6t-53 -2q-68 0 -112.5 13 t-71.5 35.5t-38 53t-11 65.5q0 39 13 71.5t39 56.5t65.5 37.5t93.5 13.5h110v16q0 14 -3 27t-12.5 22.5t-26.5 15.5t-45 6q-15 0 -34 -1.5t-38 -4t-37 -6t-32 -7.5q-13 -3 -18 0t-7 13l-16 70q-3 11 -0.5 15.5t10.5 7.5q45 16 94.5 23t98.5 7q109 0 160 -46.5t51 -137.5 v-290z"/>
<glyph glyph-name="aring" horiz-adv-x="576" unicode="å" d="M426 687q0 -26 -9.5 -47.5t-26 -37.5t-39.5 -24.5t-49 -8.5q-52 0 -87.5 32.5t-35.5 85.5q0 25 9.5 47t26 37.5t39 24.5t48.5 9t49 -8.5t39.5 -24.5t26 -37.5t9.5 -47.5zM351 687q0 21 -14 35t-35 14t-34.5 -14t-13.5 -35q0 -23 13.5 -36.5t34.5 -13.5q20 0 34.5 13.5 t14.5 36.5zM365 238h-79q-14 0 -30 -2t-29.5 -9.5t-22.5 -21.5t-9 -38q0 -35 23.5 -49t63.5 -14q6 0 16 0.5t21.5 2t23.5 4t22 6.5v121zM511 65q0 -13 -3.5 -22t-17.5 -17q-23 -11 -49.5 -18t-54 -11t-55.5 -6t-53 -2q-68 0 -112.5 13t-71.5 35.5t-38 53t-11 65.5 q0 39 13 71.5t39 56.5t65.5 37.5t93.5 13.5h110v16q0 14 -3 27t-12.5 22.5t-26.5 15.5t-45 6q-15 0 -34 -1.5t-38 -4t-37 -6t-32 -7.5q-13 -3 -18 0t-7 13l-16 70q-3 11 -0.5 15.5t10.5 7.5q45 16 94.5 23t98.5 7q109 0 160 -46.5t51 -137.5v-290z"/>
<glyph glyph-name="ae" horiz-adv-x="881" unicode="æ" d="M609 419q-41 0 -67.5 -26.5t-30.5 -70.5h187q-1 17 -5 34.5t-14 31.5t-27 22.5t-43 8.5zM279 103q17 0 46 4t53 17q-18 45 -21 107h-77q-14 0 -29 -2.5t-27.5 -9.5t-20.5 -20.5t-8 -35.5q0 -32 22 -46t62 -14zM606 539q115 0 173.5 -59t58.5 -166q0 -51 -19.5 -69 t-54.5 -19h-256q1 -36 10.5 -58.5t25.5 -35t37.5 -16.5t46.5 -4q29 0 59 7t56 17q11 5 16 4t9 -10l31 -72q4 -9 2 -14t-10 -10q-37 -24 -86.5 -34.5t-91.5 -10.5q-49 0 -89.5 10.5t-70.5 37.5q-44 -26 -97.5 -37t-98.5 -11q-62 0 -103 13.5t-65 36t-34 52t-10 61.5 q0 37 12 68.5t36.5 54.5t62.5 36.5t91 13.5h114q2 7 3 13.5t1 13.5q0 69 -91 69q-31 0 -71.5 -5t-69.5 -13q-11 -2 -16.5 -0.5t-7.5 12.5l-16 71q-2 10 0 14.5t10 7.5q45 16 93.5 23.5t98.5 7.5q110 0 158 -57q30 29 70 43t83 14z"/>
<glyph glyph-name="ccedilla" horiz-adv-x="511" unicode="ç" d="M308 119q32 0 62.5 7.5t52.5 15.5q13 5 17.5 3.5t8.5 -12.5l28 -75q5 -9 5 -15q0 -7 -12 -13q-39 -22 -84.5 -30.5t-83.5 -10.5l-17 -43q37 -2 61.5 -11t39.5 -22t21 -28.5t6 -31.5q0 -20 -7.5 -39t-24 -34t-42.5 -24t-64 -9q-16 0 -33 2t-33 5t-30 7t-24 8q-8 3 -8.5 7 t2.5 14l12 36q4 11 7 11.5t11 -1.5q20 -7 37 -10.5t36 -3.5q24 0 38 8t14 26q0 17 -17 24t-42 7q-17 0 -22.5 0.5t-10.5 5.5q-6 5 -5 13t4 17l27 70q-95 13 -144 80t-49 188q0 64 17.5 115.5t49.5 87.5t78.5 55t103.5 19q42 0 83 -8.5t75 -25.5q13 -6 14.5 -11t-3.5 -17 l-28 -77q-5 -11 -11 -12t-20 3q-26 8 -51 13t-48 5q-30 0 -50.5 -12t-33.5 -32t-19 -46.5t-6 -56.5q0 -31 5 -57t18 -45t34.5 -29.5t54.5 -10.5z"/>
<glyph glyph-name="egrave" horiz-adv-x="568" unicode="è" d="M296 418q-41 0 -67 -29t-30 -74h187q0 22 -4.5 41t-14.5 32.5t-27 21.5t-44 8zM352 611q5 -10 2 -13.5t-11 -5.5l-55 -20q-8 -2 -12.5 -0.5t-10.5 9.5l-116 172q-4 5 -2.5 10.5t9.5 7.5l104 26q4 1 8 1q5 0 8.5 -2.5t6.5 -9.5zM293 538q117 0 175.5 -58.5t58.5 -167.5 q0 -52 -20 -71t-55 -19h-256q1 -32 10.5 -53t25.5 -34t37.5 -18t46.5 -5q29 0 59 7t56 18q12 4 16.5 2.5t8.5 -9.5l32 -72q4 -9 1.5 -14t-10.5 -10q-37 -24 -86 -34.5t-91 -10.5q-131 0 -194 65t-63 206q0 66 17.5 117.5t50 87.5t78 54.5t102.5 18.5z"/>
<glyph glyph-name="eacute" horiz-adv-x="568" unicode="é" d="M296 418q-41 0 -67 -29t-30 -74h187q0 22 -4.5 41t-14.5 32.5t-27 21.5t-44 8zM244 591q-9 3 -10 7.5t2 12.5l70 174q5 14 12.5 14t18.5 -3l95 -25q16 -4 8 -18l-117 -172q-6 -9 -10.5 -10t-12.5 1zM293 538q117 0 175.5 -58.5t58.5 -167.5q0 -52 -20 -71t-55 -19h-256 q1 -32 10.5 -53t25.5 -34t37.5 -18t46.5 -5q29 0 59 7t56 18q12 4 16.5 2.5t8.5 -9.5l32 -72q4 -9 1.5 -14t-10.5 -10q-37 -24 -86 -34.5t-91 -10.5q-131 0 -194 65t-63 206q0 66 17.5 117.5t50 87.5t78 54.5t102.5 18.5z"/>
<glyph glyph-name="ecircumflex" horiz-adv-x="568" unicode="ê" d="M296 418q-41 0 -67 -29t-30 -74h187q0 22 -4.5 41t-14.5 32.5t-27 21.5t-44 8zM492 622q8 -8 7.5 -13.5t-8.5 -13.5l-29 -28q-7 -5 -12.5 -5t-15.5 7l-139 98l-134 -100q-8 -5 -13.5 -5t-13.5 7l-30 28q-6 7 -5.5 11.5t5.5 12.5l131 137q14 14 29 22.5t30 8.5q22 0 36 -7 t29 -24zM293 538q117 0 175.5 -58.5t58.5 -167.5q0 -52 -20 -71t-55 -19h-256q1 -32 10.5 -53t25.5 -34t37.5 -18t46.5 -5q29 0 59 7t56 18q12 4 16.5 2.5t8.5 -9.5l32 -72q4 -9 1.5 -14t-10.5 -10q-37 -24 -86 -34.5t-91 -10.5q-131 0 -194 65t-63 206q0 66 17.5 117.5 t50 87.5t78 54.5t102.5 18.5z"/>
<glyph glyph-name="edieresis" horiz-adv-x="568" unicode="ë" d="M296 418q-41 0 -67 -29t-30 -74h187q0 22 -4.5 41t-14.5 32.5t-27 21.5t-44 8zM272 671q0 -15 -6 -28t-16.5 -23t-24 -16t-28.5 -6t-28 6t-23.5 16t-16.5 23t-6 28t6 28.5t16.5 23.5t23.5 16t28 6t28.5 -6t24 -16t16.5 -23.5t6 -28.5zM477 671q0 -15 -6 -28t-16.5 -23 t-23.5 -16t-28 -6t-28.5 6t-24 16t-16.5 23t-6 28q0 30 22.5 52t52.5 22q15 0 28 -6t23.5 -16t16.5 -23.5t6 -28.5zM293 538q117 0 175.5 -58.5t58.5 -167.5q0 -52 -20 -71t-55 -19h-256q1 -32 10.5 -53t25.5 -34t37.5 -18t46.5 -5q29 0 59 7t56 18q12 4 16.5 2.5t8.5 -9.5 l32 -72q4 -9 1.5 -14t-10.5 -10q-37 -24 -86 -34.5t-91 -10.5q-131 0 -194 65t-63 206q0 66 17.5 117.5t50 87.5t78 54.5t102.5 18.5z"/>
<glyph glyph-name="igrave" horiz-adv-x="314" unicode="ì" d="M218 611q5 -10 2 -13.5t-11 -5.5l-55 -20q-8 -2 -12.5 -0.5t-10.5 9.5l-116 172q-3 4 -3 8q0 8 10 10l104 26q4 1 8 1q5 0 8.5 -2.5t6.5 -9.5zM230 18q0 -11 -3.5 -14.5t-17.5 -3.5h-103q-11 0 -16 3.5t-5 14.5v489q0 11 5 14.5t16 3.5h103q14 0 17.5 -3.5t3.5 -14.5 v-489z"/>
<glyph glyph-name="iacute" horiz-adv-x="314" unicode="í" d="M109 591q-9 3 -10 7.5t2 12.5l70 174q5 14 12.5 14t18.5 -3l95 -25q11 -3 11 -10q0 -4 -3 -8l-117 -172q-6 -9 -10.5 -10t-12.5 1zM230 18q0 -11 -3.5 -14.5t-17.5 -3.5h-103q-11 0 -16 3.5t-5 14.5v489q0 11 5 14.5t16 3.5h103q14 0 17.5 -3.5t3.5 -14.5v-489z"/>
<glyph glyph-name="icircumflex" horiz-adv-x="314" unicode="î" d="M356 622q8 -8 8 -13q0 -6 -9 -14l-29 -28q-7 -5 -12.5 -5t-15.5 7l-139 98l-134 -100q-8 -5 -13.5 -5t-13.5 7l-30 28q-6 6 -6 11q0 4 6 13l131 137q14 14 29 22.5t30 8.5q22 0 36 -7t29 -24zM230 18q0 -11 -3.5 -14.5t-17.5 -3.5h-103q-11 0 -16 3.5t-5 14.5v489 q0 11 5 14.5t16 3.5h103q14 0 17.5 -3.5t3.5 -14.5v-489z"/>
<glyph glyph-name="idieresis" horiz-adv-x="314" unicode="ï" d="M134 666q0 -15 -6 -28t-16.5 -23t-24 -16t-28.5 -6t-28 6t-23.5 16t-16.5 23t-6 28t6 28.5t16.5 23.5t23.5 16t28 6t28.5 -6t24 -16t16.5 -23.5t6 -28.5zM339 666q0 -15 -6 -28t-16.5 -23t-23.5 -16t-28 -6t-28.5 6t-24 16t-16.5 23t-6 28q0 30 22.5 52t52.5 22 q15 0 28 -6t23.5 -16t16.5 -23.5t6 -28.5zM230 18q0 -11 -3.5 -14.5t-17.5 -3.5h-103q-11 0 -16 3.5t-5 14.5v489q0 11 5 14.5t16 3.5h103q14 0 17.5 -3.5t3.5 -14.5v-489z"/>
<glyph glyph-name="eth" horiz-adv-x="597" unicode="ð" d="M297 361q-29 0 -48.5 -11t-31.5 -28t-17 -38.5t-5 -43.5q0 -20 2.5 -42.5t12.5 -41t29 -31t51 -12.5t52.5 13t32.5 34t16.5 48t4.5 55q0 21 -2 40t-4 33q-27 15 -51 20t-42 5zM385 466q-11 32 -27.5 60t-38.5 51l-70 -51q-11 -9 -19 3l-16 23q-5 6 -3.5 9.5t6.5 8.5 l60 45q-17 14 -34.5 27t-37.5 24q-11 7 -12 12t3 12l27 48q6 10 9.5 10.5t4.5 0.5q6 0 16 -5q32 -13 59.5 -29t53.5 -35l67 51q8 6 12.5 6t9.5 -7l17 -22q5 -7 4.5 -10t-6.5 -8l-59 -45q72 -66 106.5 -156t34.5 -191q0 -31 -4 -66t-14.5 -69t-29 -65t-47.5 -55t-70 -38 t-97 -14q-72 0 -119.5 21t-75.5 55t-39 77t-11 86q0 46 13.5 91t42.5 79.5t73 56t106 21.5q22 0 47.5 -3.5t52.5 -14.5z"/>
<glyph glyph-name="ntilde" horiz-adv-x="609" unicode="ñ" d="M346 599q-18 0 -36 6.5t-35 14t-34 14t-35 6.5q-27 0 -47 -31q-6 -9 -10.5 -11.5t-12.5 2.5l-44 25q-9 5 -9.5 10t3.5 13q19 38 46.5 61.5t72.5 23.5q19 0 36 -6.5t33.5 -14t32.5 -13.5t32 -6t26.5 7.5t20.5 24.5q6 11 8 11.5t3 0.5q3 0 10 -2l50 -17q10 -3 11 -7.5 t-3 -14.5q-19 -42 -46.5 -69.5t-72.5 -27.5zM278 418q-10 0 -28.5 -0.5t-39.5 -4.5v-395q0 -11 -3.5 -14.5t-17.5 -3.5h-103q-11 0 -16 3.5t-5 14.5v429q0 34 12 53.5t50 27.5q10 2 28.5 3.5t39.5 3t41.5 2.5t35.5 1q70 0 121 -14t84.5 -44.5t50 -80t16.5 -120.5v-261 q0 -11 -3.5 -14.5t-17.5 -3.5h-104q-11 0 -16 3.5t-5 14.5v270q0 33 -5.5 57t-19 40.5t-37 24.5t-58.5 8z"/>
<glyph glyph-name="ograve" horiz-adv-x="595" unicode="ò" d="M369 611q5 -10 2 -13.5t-11 -5.5l-55 -20q-8 -2 -12.5 -0.5t-10.5 9.5l-116 172q-4 5 -2.5 10.5t9.5 7.5l104 26q4 1 8 1q5 0 8.5 -2.5t6.5 -9.5zM399 262q0 34 -5 62t-17 48t-31 31.5t-47 11.5q-53 0 -78.5 -40.5t-25.5 -109.5q0 -75 23.5 -114t77.5 -39q28 0 47.5 11.5 t32 32t18 47.5t5.5 59zM550 265q0 -132 -63 -204t-192 -72q-130 0 -190 72t-60 202q0 64 17.5 115.5t50 86.5t79 54t105.5 19q126 0 189.5 -72.5t63.5 -200.5z"/>
<glyph glyph-name="oacute" horiz-adv-x="595" unicode="ó" d="M246 591q-9 3 -10 7.5t2 12.5l70 174q5 14 12.5 14t18.5 -3l95 -25q16 -4 8 -18l-117 -172q-6 -9 -10.5 -10t-12.5 1zM399 262q0 34 -5 62t-17 48t-31 31.5t-47 11.5q-53 0 -78.5 -40.5t-25.5 -109.5q0 -75 23.5 -114t77.5 -39q28 0 47.5 11.5t32 32t18 47.5t5.5 59z M550 265q0 -132 -63 -204t-192 -72q-130 0 -190 72t-60 202q0 64 17.5 115.5t50 86.5t79 54t105.5 19q126 0 189.5 -72.5t63.5 -200.5z"/>
<glyph glyph-name="ocircumflex" horiz-adv-x="595" unicode="ô" d="M496 622q8 -8 7.5 -13.5t-8.5 -13.5l-29 -28q-7 -5 -12.5 -5t-15.5 7l-139 98l-134 -100q-8 -5 -13.5 -5t-13.5 7l-30 28q-6 7 -5.5 11.5t5.5 12.5l131 137q14 14 29 22.5t30 8.5q22 0 36 -7t29 -24zM399 262q0 34 -5 62t-17 48t-31 31.5t-47 11.5q-53 0 -78.5 -40.5 t-25.5 -109.5q0 -75 23.5 -114t77.5 -39q28 0 47.5 11.5t32 32t18 47.5t5.5 59zM550 265q0 -132 -63 -204t-192 -72q-130 0 -190 72t-60 202q0 64 17.5 115.5t50 86.5t79 54t105.5 19q126 0 189.5 -72.5t63.5 -200.5z"/>
<glyph glyph-name="otilde" horiz-adv-x="595" unicode="õ" d="M371 605q-18 0 -36 6.5t-35 14t-34 14t-35 6.5q-27 0 -47 -31q-6 -9 -10.5 -11.5t-12.5 2.5l-44 25q-9 5 -9.5 10t3.5 13q19 38 46.5 61.5t72.5 23.5q19 0 36 -6.5t33.5 -14t32.5 -13.5t32 -6t26.5 7.5t20.5 24.5q6 11 8 11.5t3 0.5q3 0 10 -2l50 -17q10 -3 11 -7.5 t-3 -14.5q-19 -42 -46.5 -69.5t-72.5 -27.5zM399 262q0 34 -5 62t-17 48t-31 31.5t-47 11.5q-53 0 -78.5 -40.5t-25.5 -109.5q0 -75 23.5 -114t77.5 -39q28 0 47.5 11.5t32 32t18 47.5t5.5 59zM550 265q0 -132 -63 -204t-192 -72q-130 0 -190 72t-60 202q0 64 17.5 115.5 t50 86.5t79 54t105.5 19q126 0 189.5 -72.5t63.5 -200.5z"/>
<glyph glyph-name="odieresis" horiz-adv-x="595" unicode="ö" d="M269 671q0 -15 -6 -28t-16.5 -23t-24 -16t-28.5 -6t-28 6t-23.5 16t-16.5 23t-6 28t6 28.5t16.5 23.5t23.5 16t28 6t28.5 -6t24 -16t16.5 -23.5t6 -28.5zM474 671q0 -15 -6 -28t-16.5 -23t-23.5 -16t-28 -6t-28.5 6t-24 16t-16.5 23t-6 28q0 30 22.5 52t52.5 22 q15 0 28 -6t23.5 -16t16.5 -23.5t6 -28.5zM399 262q0 34 -5 62t-17 48t-31 31.5t-47 11.5q-53 0 -78.5 -40.5t-25.5 -109.5q0 -75 23.5 -114t77.5 -39q28 0 47.5 11.5t32 32t18 47.5t5.5 59zM550 265q0 -132 -63 -204t-192 -72q-130 0 -190 72t-60 202q0 64 17.5 115.5 t50 86.5t79 54t105.5 19q126 0 189.5 -72.5t63.5 -200.5z"/>
<glyph glyph-name="divide" d="M580 305q0 -21 -20 -21h-467q-20 0 -20 20v80q0 12 4 16t15 4h469q19 0 19 -20v-79zM422 140q0 -19 -7 -35.5t-20 -28.5t-30 -19t-36 -7t-35.5 7t-29 19t-20 28.5t-7.5 35.5q0 18 7.5 34.5t20 28.5t29 19t35.5 7q40 0 66.5 -25.5t26.5 -63.5zM422 542q0 -38 -27 -64 t-66 -26q-38 0 -65 25.5t-27 64.5q0 37 27 62.5t65 25.5q40 0 66.5 -25t26.5 -63z" unicode="÷"/>
<glyph glyph-name="oslash" horiz-adv-x="595" unicode="ø" d="M399 262q0 20 -1.5 37.5t-6.5 33.5l-168 -189q24 -32 73 -32q28 0 47.5 11.5t32 32t18 47.5t5.5 59zM195 265q0 -45 9 -78l168 191q-23 37 -73 37q-53 0 -78.5 -40.5t-25.5 -109.5zM550 265q0 -132 -63 -204t-192 -72q-54 0 -95.5 13t-71.5 37l-40 -44q-10 -10 -17 -2 l-15 13q-6 5 -5 9t6 9l41 46q-28 35 -40.5 83.5t-12.5 109.5q0 64 17.5 115.5t50 86.5t79 54t105.5 19q107 0 171 -55l39 45q6 6 9.5 6.5t8.5 -4.5l15 -13q5 -5 5.5 -8.5t-4.5 -9.5l-43 -48q52 -70 52 -186z"/>
<glyph glyph-name="ugrave" horiz-adv-x="600" unicode="ù" d="M370 611q5 -10 2 -13.5t-11 -5.5l-55 -20q-8 -2 -12.5 -0.5t-10.5 9.5l-116 172q-4 5 -2.5 10.5t9.5 7.5l104 26q4 1 8 1q5 0 8.5 -2.5t6.5 -9.5zM322 108q10 0 28.5 1t39.5 4v394q0 11 3.5 15t17.5 4h103q21 0 21 -19v-427q0 -34 -13.5 -54t-48.5 -28q-12 -2 -30 -4 t-38.5 -3.5t-40.5 -2t-35 -0.5q-72 0 -122.5 14t-82 45t-45.5 80.5t-14 120.5v259q0 11 3.5 15t17.5 4h104q21 0 21 -19v-268q0 -33 4 -57.5t16 -41t34 -24.5t57 -8z"/>
<glyph glyph-name="uacute" horiz-adv-x="600" unicode="ú" d="M249 591q-9 3 -10 7.5t2 12.5l70 174q5 14 12.5 14t18.5 -3l95 -25q16 -4 8 -18l-117 -172q-6 -9 -10.5 -10t-12.5 1zM322 108q10 0 28.5 1t39.5 4v394q0 11 3.5 15t17.5 4h103q21 0 21 -19v-427q0 -34 -13.5 -54t-48.5 -28q-12 -2 -30 -4t-38.5 -3.5t-40.5 -2t-35 -0.5 q-72 0 -122.5 14t-82 45t-45.5 80.5t-14 120.5v259q0 11 3.5 15t17.5 4h104q21 0 21 -19v-268q0 -33 4 -57.5t16 -41t34 -24.5t57 -8z"/>
<glyph glyph-name="ucircumflex" horiz-adv-x="600" unicode="û" d="M504 622q8 -8 7.5 -13.5t-8.5 -13.5l-29 -28q-7 -5 -12.5 -5t-15.5 7l-139 98l-134 -100q-8 -5 -13.5 -5t-13.5 7l-30 28q-6 7 -5.5 11.5t5.5 12.5l131 137q14 14 29 22.5t30 8.5q22 0 36 -7t29 -24zM322 108q10 0 28.5 1t39.5 4v394q0 11 3.5 15t17.5 4h103q21 0 21 -19 v-427q0 -34 -13.5 -54t-48.5 -28q-12 -2 -30 -4t-38.5 -3.5t-40.5 -2t-35 -0.5q-72 0 -122.5 14t-82 45t-45.5 80.5t-14 120.5v259q0 11 3.5 15t17.5 4h104q21 0 21 -19v-268q0 -33 4 -57.5t16 -41t34 -24.5t57 -8z"/>
<glyph glyph-name="udieresis" horiz-adv-x="600" unicode="ü" d="M282 672q0 -15 -6 -28t-16.5 -23t-24 -16t-28.5 -6t-28 6t-23.5 16t-16.5 23t-6 28t6 28.5t16.5 23.5t23.5 16t28 6t28.5 -6t24 -16t16.5 -23.5t6 -28.5zM487 672q0 -15 -6 -28t-16.5 -23t-23.5 -16t-28 -6t-28.5 6t-24 16t-16.5 23t-6 28q0 30 22.5 52t52.5 22 q15 0 28 -6t23.5 -16t16.5 -23.5t6 -28.5zM322 108q10 0 28.5 1t39.5 4v394q0 11 3.5 15t17.5 4h103q21 0 21 -19v-427q0 -34 -13.5 -54t-48.5 -28q-12 -2 -30 -4t-38.5 -3.5t-40.5 -2t-35 -0.5q-72 0 -122.5 14t-82 45t-45.5 80.5t-14 120.5v259q0 11 3.5 15t17.5 4h104 q21 0 21 -19v-268q0 -33 4 -57.5t16 -41t34 -24.5t57 -8z"/>
<glyph glyph-name="yacute" horiz-adv-x="559" unicode="ý" d="M245 591q-9 3 -10 7.5t2 12.5l70 174q5 14 12.5 14t18.5 -3l95 -25q16 -4 8 -18l-117 -172q-6 -9 -10.5 -10t-12.5 1zM348 -88q-23 -68 -66 -98t-114 -29q-20 0 -46.5 3t-52.5 11q-12 3 -15.5 7t-0.5 15l17 79q3 12 7 13t15 -1q16 -3 27 -4t22 -1q35 0 55 11.5t31 46.5 l18 54h-29q-23 0 -33 8t-19 35l-152 444q-2 5 -2 9t3.5 7t11.5 3h117q15 0 20.5 -3.5t8.5 -14.5l57 -202l47 -174h6l51 177l60 197q3 11 8 15.5t20 4.5h119q13 0 13 -9q0 -3 -2 -7z"/>
<glyph glyph-name="thorn" horiz-adv-x="604" unicode="þ" d="M407 266q0 41 -8 69t-23.5 45t-38 24t-50.5 7q-14 0 -36.5 -3t-39.5 -8v-273q26 -7 46.5 -9t36.5 -2q50 0 81.5 34t31.5 116zM211 -187q0 -11 -3.5 -14t-17.5 -3h-104q-11 0 -16 3t-5 14v887q0 11 4.5 15.5t16.5 4.5h104q14 0 17.5 -5t3.5 -16v-171q24 4 48 6t47 2 q71 0 119.5 -21.5t78 -58t42.5 -86.5t13 -107q0 -56 -14 -105.5t-43 -86.5t-73.5 -58.5t-104.5 -21.5q-30 0 -55.5 2.5t-57.5 9.5v-190z"/>
<glyph glyph-name="OE" horiz-adv-x="955" unicode="Œ" d="M433 516q0 20 5 38q-26 19 -67 19q-37 0 -65 -17t-46.5 -46.5t-27.5 -70t-9 -86.5q0 -51 7.5 -93.5t25.5 -72.5t47 -46.5t72 -16.5q36 0 64 17q-5 15 -5.5 31t-0.5 32v312zM919 20q0 -11 -3 -15.5t-14 -4.5h-285q-31 0 -54.5 5t-43.5 14q-32 -14 -68.5 -22t-80.5 -8 q-83 0 -141 27t-95 75t-53.5 114t-16.5 144q0 82 20.5 149t60 114t97 73t130.5 26q42 0 78.5 -8.5t67.5 -23.5q20 10 44 15.5t54 5.5h276q11 0 14 -4t3 -18v-89q0 -11 -3 -15.5t-14 -4.5h-240q-41 0 -54 -18.5t-13 -46.5v-74h275q11 0 14.5 -4t3.5 -18v-82q0 -11 -3.5 -16 t-14.5 -5h-275v-111q0 -35 17.5 -49t49.5 -14h250q11 0 14 -3.5t3 -17.5v-90z"/>
<glyph glyph-name="oe" horiz-adv-x="926" unicode="œ" d="M654 418q-41 0 -67.5 -29t-29.5 -74h187q0 22 -4.5 41t-14.5 32.5t-27.5 21.5t-43.5 8zM399 262q0 34 -5 62t-17 48t-31 31.5t-47 11.5q-53 0 -78.5 -40.5t-25.5 -109.5q0 -75 23.5 -114t77.5 -39q28 0 47.5 11.5t32 32t18 47.5t5.5 59zM650 538q118 0 176 -58.5 t58 -167.5q0 -52 -19.5 -71t-54.5 -19h-256q1 -32 10.5 -53t25 -34t37 -18t47.5 -5q30 0 64 8.5t54 17.5q11 5 14.5 2t7.5 -11l31 -68q4 -9 3.5 -14.5t-7.5 -10.5q-18 -13 -41 -22t-47 -14.5t-48.5 -8t-45.5 -2.5q-62 0 -109.5 16.5t-76.5 51.5q-30 -33 -75 -50.5 t-103 -17.5q-130 0 -190 72t-60 202q0 64 17.5 115.5t50 86.5t79 54t105.5 19q60 0 106 -19t75 -54q32 35 75.5 54t96.5 19z"/>
<glyph glyph-name="Scaron" horiz-adv-x="600" unicode="Š" d="M511 901q6 -7 6.5 -10.5t-8.5 -11.5l-136 -113q-21 -17 -33.5 -23t-29.5 -6q-10 0 -22.5 3.5t-23.5 13.5l-144 124q-8 6 -8 10.5t6 10.5l31 34q7 7 12 5.5t13 -6.5l136 -77l147 80q8 4 11 5h3q5 0 10 -7zM62 509q0 42 14.5 79t43.5 64.5t74 43.5t106 16q28 0 58.5 -3 t60 -9t56.5 -14.5t49 -19.5q12 -6 13.5 -11.5t-3.5 -20.5l-26 -75q-5 -14 -10 -16t-17 1q-47 14 -93.5 23t-87.5 9q-44 0 -62 -16t-18 -39q0 -13 6 -24t19.5 -21.5t36 -21.5t55.5 -24q51 -20 94 -40.5t73.5 -46.5t48 -61t17.5 -84q0 -53 -19 -92t-53 -65t-82.5 -39 t-106.5 -13q-32 0 -67 3.5t-69.5 11t-67.5 19.5t-61 29q-10 6 -10 14q0 6 4 16l34 80q5 12 11 14t17 -3q20 -8 44 -16.5t49.5 -15t52 -11t52.5 -4.5q31 0 52 6t34 15.5t18 22t5 26.5q0 15 -5.5 27t-18 23.5t-34 22t-53.5 22.5q-53 20 -96 41t-74 46.5t-47.5 57t-16.5 73.5z "/>
<glyph glyph-name="scaron" horiz-adv-x="497" unicode="š" d="M244 692l140 99q8 6 10.5 7t3.5 1q4 0 11 -6l35 -29q8 -7 6.5 -13t-9.5 -14l-144 -145q-8 -9 -20.5 -13.5t-26.5 -5.5h-5q-13 0 -27.5 4.5t-25.5 16.5l-139 145q-10 12 1 23l31 30q7 7 12.5 6t13.5 -7zM461 150q0 -81 -57.5 -121t-150.5 -40q-52 0 -109.5 11.5 t-101.5 37.5q-10 6 -10 13q0 5 4 13l29 69q5 11 10.5 13.5t16.5 -2.5q16 -7 36 -13.5t41.5 -11.5t41.5 -8t36 -3q36 0 50.5 12.5t14.5 31.5q0 20 -20.5 34t-70.5 33q-40 15 -70.5 31t-51.5 34.5t-32 42t-11 54.5q0 33 12 61.5t36 49.5t60.5 33.5t86.5 12.5q45 0 91.5 -8.5 t84.5 -25.5q11 -5 12 -10.5t-3 -17.5l-25 -64q-4 -11 -9 -12.5t-16 2.5q-37 11 -68 17t-64 6q-27 0 -39 -12.5t-12 -25.5q0 -20 18.5 -33t64.5 -30q36 -14 68 -28.5t55.5 -34t37.5 -46.5t14 -65z"/>
<glyph glyph-name="Ydieresis" horiz-adv-x="625" unicode="Ÿ" d="M284 819q0 -15 -6 -28t-16.5 -23t-24 -16t-28.5 -6t-28 6t-23.5 16t-16.5 23t-6 28t6 28.5t16.5 23.5t23.5 16t28 6t28.5 -6t24 -16t16.5 -23.5t6 -28.5zM489 819q0 -15 -6 -28t-16.5 -23t-23.5 -16t-28 -6t-28.5 6t-24 16t-16.5 23t-6 28q0 30 22.5 52t52.5 22 q15 0 28 -6t23.5 -16t16.5 -23.5t6 -28.5zM316 397l66 148l66 137q5 10 10.5 14.5t16.5 4.5h127q15 0 15 -8q0 -5 -3 -10l-223 -425v-238q0 -11 -4 -15.5t-18 -4.5h-109q-21 0 -21 20v236l-229 426q-2 3 -2 6t2 8t13 5h126q14 0 19.5 -5t10.5 -17l67 -139l64 -143h6z"/>
<glyph glyph-name="circumflex" horiz-adv-x="586" unicode="ˆ" d="M487 622q8 -8 8 -13q0 -6 -9 -14l-29 -28q-7 -5 -12.5 -5t-15.5 7l-139 98l-134 -100q-8 -5 -13.5 -5t-13.5 7l-30 28q-6 6 -6 11q0 4 6 13l131 137q14 14 29 22.5t30 8.5q22 0 36 -7t29 -24z"/>
<glyph glyph-name="tilde" horiz-adv-x="581" unicode="˜" d="M362 594q-18 0 -36 6.5t-35 14t-34 14t-35 6.5q-27 0 -47 -31q-6 -9 -9 -10.5t-5 -1.5q-4 0 -9 3l-44 25q-10 5 -10 11q0 5 4 12q19 38 46.5 61.5t72.5 23.5q19 0 36 -6.5t33.5 -14t32.5 -13.5t32 -6t26.5 7.5t20.5 24.5q6 11 8 11.5t3 0.5q3 0 10 -2l50 -17 q11 -3 11 -10q0 -4 -3 -12q-19 -42 -46.5 -69.5t-72.5 -27.5z"/>
<glyph glyph-name="Alpha" horiz-adv-x="655" unicode="Α" d="M248 270h157l-38 127l-37 143h-6l-38 -143zM441 146h-229l-39 -127q-3 -10 -8.5 -14.5t-19.5 -4.5h-117q-11 0 -13 4.5t-2 8.5q0 3 1 7l208 627q5 17 11.5 27.5t15 16.5t20 8.5t26.5 2.5h60q17 0 29 -1.5t21 -7.5t15.5 -17t12.5 -29l208 -627q1 -3 1 -6t-1.5 -8.5 t-12.5 -5.5h-119q-11 0 -18.5 2.5t-10.5 13.5z"/>
<glyph glyph-name="Beta" horiz-adv-x="680" unicode="Β" d="M227 435h136q12 0 25.5 3t24.5 10.5t18 21t7 34.5q0 30 -19 47t-51 17h-141v-133zM468 223q0 40 -24.5 65t-72.5 25h-144v-179h144q28 0 47 8.5t30 21.5t15.5 29t4.5 30zM518 383q28 -11 48.5 -29.5t33.5 -41t19 -48.5t6 -51q0 -48 -18.5 -87t-51 -67t-76 -43.5 t-93.5 -15.5h-251q-36 0 -48 14.5t-12 46.5v578q0 32 12 47t48 15h245q45 0 84.5 -10t68.5 -31.5t45.5 -55t16.5 -80.5q0 -42 -21.5 -78.5t-55.5 -55.5v-7z"/>
<glyph glyph-name="Gamma" horiz-adv-x="576" unicode="Γ" d="M227 21q0 -14 -4 -17.5t-19 -3.5h-106q-12 0 -17.5 4.5t-5.5 16.5v495q0 36 9.5 69t31 59t56.5 41.5t87 15.5h288q13 0 16.5 -5t3.5 -19v-85q0 -13 -4 -17.5t-16 -4.5h-255q-39 0 -52 -17.5t-13 -44.5v-487z"/>
<glyph glyph-name="Epsilon" horiz-adv-x="613" unicode="Ε" d="M576 23q0 -12 -4 -17.5t-16 -5.5h-296q-56 0 -91.5 16t-56.5 42t-29 59t-8 67v332q0 36 10 69t31.5 59t56.5 41.5t86 15.5h287q12 0 15.5 -5t3.5 -19v-85q0 -13 -4 -17.5t-15 -4.5h-254q-39 0 -52 -18t-13 -44v-77h287q12 0 15.5 -5t3.5 -19v-78q0 -12 -3.5 -17.5 t-15.5 -5.5h-287v-114q0 -35 16.5 -47.5t48.5 -12.5h264q13 0 16.5 -4.5t3.5 -19.5v-85z"/>
<glyph glyph-name="Zeta" horiz-adv-x="629" unicode="Ζ" d="M592 611q0 -23 -11 -42.5t-24 -35.5l-326 -396l2 -7h344q11 0 14.5 -4t3.5 -18v-87q0 -12 -3.5 -16.5t-14.5 -4.5h-489q-29 0 -43.5 12.5t-14.5 41.5v24q0 24 8.5 41.5t23.5 35.5l338 410l-1 6h-304q-19 0 -19 21v87q0 14 3.5 18t15.5 4h437q32 0 46 -12t14 -45v-33z"/>
<glyph glyph-name="Eta" horiz-adv-x="726" unicode="Η" d="M651 21q0 -13 -4.5 -17t-19.5 -4h-105q-13 0 -18 4.5t-5 16.5v280h-271v-280q0 -13 -4.5 -17t-19.5 -4h-106q-12 0 -17.5 4.5t-5.5 16.5v658q0 12 5.5 16.5t17.5 4.5h106q15 0 19.5 -4t4.5 -17v-249h271v249q0 12 5 16.5t18 4.5h105q15 0 19.5 -4t4.5 -17v-658z"/>
<glyph glyph-name="Theta" horiz-adv-x="745" unicode="Θ" d="M276 298q-11 0 -14 5t-3 16v76q0 14 3 18t14 4h196q11 0 14.5 -4t3.5 -18v-76q0 -11 -3.5 -16t-14.5 -5h-196zM531 349q0 46 -7.5 87t-25.5 72t-48.5 49t-76.5 18q-38 0 -67.5 -17t-50 -46.5t-31 -70t-10.5 -86.5q0 -54 8.5 -96.5t27.5 -72t49.5 -45t74.5 -15.5t74 17.5 t48.5 48t26.5 71t8 86.5zM690 352q0 -85 -19 -152t-59 -114t-100.5 -72t-142.5 -25q-158 0 -236 94.5t-78 265.5q0 84 22 151.5t63.5 114t100 71.5t131.5 25q79 0 139 -25t99.5 -71.5t59.5 -113t20 -149.5z"/>
<glyph glyph-name="Iota" horiz-adv-x="329" unicode="Ι" d="M241 21q0 -13 -4.5 -17t-19.5 -4h-106q-12 0 -17.5 4.5t-5.5 16.5v658q0 12 5.5 16.5t17.5 4.5h106q15 0 19.5 -4t4.5 -17v-658z"/>
<glyph glyph-name="Kappa" horiz-adv-x="683" unicode="Κ" d="M436 446l233 -421q5 -8 5 -13q0 -2 -2 -7t-13 -5h-116q-21 0 -30.5 2.5t-19.5 20.5l-161 299l-106 -127v-174q0 -14 -4 -17.5t-19 -3.5h-105q-12 0 -17.5 4.5t-5.5 16.5v658q0 12 5.5 16.5t17.5 4.5h105q15 0 19 -3.5t4 -17.5v-268l4 -2l94 119l125 156q9 10 18 13t29 3 h129q9 0 12.5 -5.5t-3.5 -13.5z"/>
<glyph glyph-name="Lambda" horiz-adv-x="658" unicode="Λ" d="M367 397l-37 143h-6l-38 -143l-113 -378q-3 -10 -8.5 -14.5t-19.5 -4.5h-117q-11 0 -13 4.5t-2 8.5q0 3 1 7l208 627q5 17 11.5 27.5t15 16.5t20 8.5t26.5 2.5h60q17 0 29 -1.5t21 -7.5t15.5 -17t12.5 -29l208 -627q1 -3 1 -6t-1.5 -8.5t-12.5 -5.5h-119q-11 0 -18.5 2.5 t-10.5 13.5z"/>
<glyph glyph-name="Mu" horiz-adv-x="870" unicode="Μ" d="M651 403h-6l-41 -93l-83 -184q-11 -26 -22.5 -35t-34.5 -9h-55q-25 0 -34.5 9t-21.5 35l-62 130l-62 135h-6v-371q0 -14 -5 -17t-18 -3h-102q-11 0 -17 3t-6 17v611q0 38 14.5 54t49.5 16h58q28 0 41.5 -10.5t25.5 -36.5l109 -244l62 -142h4l68 156l102 228 q12 27 26.5 38t46.5 11h49q32 0 48 -13.5t16 -51.5v-616q0 -14 -5 -17t-18 -3h-99q-11 0 -16.5 3t-5.5 17v383z"/>
<glyph glyph-name="Nu" horiz-adv-x="744" unicode="Ν" d="M226 435v-414q0 -13 -4.5 -17t-18.5 -4h-105q-12 0 -17.5 4.5t-5.5 16.5v610q0 39 14 54.5t51 15.5h42q15 0 25.5 -1.5t18.5 -6.5t15 -14t16 -23l170 -259l86 -135h5v418q0 12 4.5 16.5t18.5 4.5h105q23 0 23 -21v-611q0 -32 -13 -50.5t-52 -18.5h-42q-15 0 -25.5 1.5 t-18.5 6.5t-15 13.5t-16 22.5l-160 242l-96 149h-5z"/>
<glyph glyph-name="Xi" horiz-adv-x="616" unicode="Ξ" d="M576 21q0 -11 -3 -16t-14 -5h-501q-11 0 -14.5 5t-3.5 16v91q0 14 3.5 18t14.5 4h501q11 0 14 -4t3 -18v-91zM514 322q0 -12 -3 -17t-14 -5h-380q-11 0 -14.5 5t-3.5 17v85q0 14 3.5 17.5t14.5 3.5h380q11 0 14 -3.5t3 -17.5v-85zM564 589q0 -12 -3 -16t-14 -4h-479 q-11 0 -15 4t-4 16v90q0 14 4 18t15 4h479q11 0 14 -4t3 -18v-90z"/>
<glyph glyph-name="Omicron" horiz-adv-x="730" unicode="Ο" d="M516 349q0 45 -6.5 86t-23.5 72t-46 49.5t-75 18.5q-38 0 -66.5 -17.5t-47.5 -47.5t-28 -70t-9 -85q0 -53 7.5 -95t25 -72t46.5 -46t73 -16q43 0 72 18.5t46 49t24.5 71t7.5 84.5zM675 352q0 -86 -18.5 -153t-57.5 -114t-98 -71.5t-140 -24.5q-155 0 -230.5 94t-75.5 266 q0 84 21.5 151.5t61.5 114t97 71.5t129 25q78 0 136.5 -25t97 -71.5t58 -113t19.5 -149.5z"/>
<glyph glyph-name="Pi" horiz-adv-x="725" unicode="Π" d="M650 19q0 -11 -4 -15t-18 -4h-109q-21 0 -21 19v549h-270v-549q0 -11 -4 -15t-18 -4h-110q-21 0 -21 19v614q0 35 14.5 51.5t49.5 16.5h447q36 0 50 -16.5t14 -51.5v-614z"/>
<glyph glyph-name="Rho" horiz-adv-x="644" unicode="Ρ" d="M457 472q0 14 -4 30.5t-15.5 31t-31 24t-49.5 9.5h-130v-190h131q51 0 75 27.5t24 67.5zM227 21q0 -14 -4.5 -17.5t-19.5 -3.5h-105q-12 0 -17.5 4.5t-5.5 16.5v619q0 28 12 44.5t48 16.5h245q54 0 97.5 -16.5t74 -45.5t46.5 -69t16 -88q0 -26 -8 -64.5t-34.5 -75 t-77 -62.5t-134.5 -26h-133v-233z"/>
<glyph glyph-name="Sigma" horiz-adv-x="606" unicode="Σ" d="M547 702q11 0 14.5 -4t3.5 -17v-89q0 -11 -3.5 -15.5t-14.5 -4.5h-313l-1 -8l139 -147q27 -28 28 -51q0 -14 -6.5 -27t-18.5 -27l-145 -174l2 -6h330q11 0 15 -4t4 -18v-89q0 -12 -4 -16.5t-15 -4.5h-479q-26 0 -39.5 11t-13.5 39v26q0 25 10 44.5t26 37.5l169 207 l-162 174q-16 17 -22 31.5t-6 34.5v40q0 33 14.5 45t44.5 12h443z"/>
<glyph glyph-name="Tau" horiz-adv-x="574" unicode="Τ" d="M563 590q0 -20 -20 -20h-181v-549q0 -13 -4.5 -17t-19.5 -4h-107q-12 0 -17.5 4.5t-5.5 16.5v549h-177q-19 0 -19 20v89q0 13 4 17t15 4h512q12 0 16 -4t4 -17v-89z"/>
<glyph glyph-name="Upsilon" horiz-adv-x="625" unicode="Υ" d="M316 397l66 148l66 137q5 10 10.5 14.5t16.5 4.5h127q15 0 15 -8q0 -5 -3 -10l-223 -425v-238q0 -11 -4 -15.5t-18 -4.5h-109q-21 0 -21 20v236l-229 426q-2 3 -2 6t2 8t13 5h126q14 0 19.5 -5t10.5 -17l67 -139l64 -143h6z"/>
<glyph glyph-name="Phi" horiz-adv-x="868" unicode="Φ" d="M355 540q-38 -6 -66.5 -24t-47.5 -43t-28.5 -55t-9.5 -60q0 -35 8.5 -66t26.5 -55.5t47 -41t70 -22.5v367zM667 359q0 31 -8.5 61t-27.5 54.5t-49.5 42.5t-75.5 24v-368q43 7 74 24.5t50 43t28 56t9 62.5zM507 19q0 -11 -3.5 -15t-17.5 -4h-110q-21 0 -21 19v36 q-147 14 -224 92t-77 207q0 61 21.5 113.5t61 92t95 65.5t123.5 35v21q0 19 21 19h110q14 0 17.5 -4t3.5 -15v-21q148 -17 227.5 -95t79.5 -207q0 -64 -22 -117t-62 -92t-96.5 -63.5t-126.5 -31.5v-35z"/>
<glyph glyph-name="Chi" horiz-adv-x="618" unicode="Χ" d="M308 240l-121 -217q-9 -14 -17 -18.5t-27 -4.5h-123q-9 0 -10.5 4.5t-1.5 7.5q0 4 2 8l213 344l-195 318q-5 6 -2 12.5t14 6.5h117q20 0 27.5 -4t15.5 -18l110 -195l109 195q8 14 15.5 18t27.5 4h115q11 0 13.5 -6.5t-2.5 -13.5l-193 -316l213 -345q2 -4 2 -8 q0 -3 -2 -7.5t-10 -4.5h-125q-18 0 -26.5 4.5t-16.5 18.5z"/>
<glyph glyph-name="Psi" horiz-adv-x="839" unicode="Ψ" d="M782 448q0 -66 -22 -118t-60.5 -88t-91 -57t-114.5 -26v-135q0 -14 -3.5 -19t-17.5 -5h-110q-14 0 -17.5 4.5t-3.5 17.5v137q-133 12 -209 85t-76 206v231q0 19 21 19h109q14 0 17.5 -4t3.5 -15v-239q0 -63 31.5 -104t102.5 -47v385q0 13 3.5 18.5t17.5 5.5h110 q12 0 16.5 -4t4.5 -18v-387q69 7 103.5 46t34.5 102v242q0 19 20 19h108q14 0 18 -4t4 -15v-233z"/>
<glyph glyph-name="alpha" horiz-adv-x="599" unicode="α" d="M314 415q-53 0 -85 -36.5t-32 -119.5q0 -81 28 -114.5t85 -33.5q15 0 38.5 3.5t39.5 8.5v283q-20 5 -40 7t-34 2zM295 -11q-70 0 -117.5 19t-77 54t-42.5 83.5t-13 108.5q0 57 14 108t45 90t81.5 61.5t124.5 22.5q32 0 85.5 -4.5t113.5 -19.5q18 -5 21.5 -12.5t3.5 -18.5 v-56v-76.5v-86.5v-86.5v-76.5v-55q0 -14 -13 -19q-26 -11 -57.5 -18t-62.5 -11t-59 -5.5t-47 -1.5z"/>
<glyph glyph-name="beta" horiz-adv-x="605" unicode="β" d="M407 233q0 49 -23.5 79.5t-80.5 35.5q-26 2 -35 12t-9 33v16q0 37 37 41q24 3 39 11.5t24 20.5t12.5 27t3.5 30t-5 29t-14.5 25.5t-24.5 18.5t-35 7q-24 0 -40.5 -9t-26 -23t-14 -33t-4.5 -38v-393q18 -7 42.5 -9t39.5 -2q57 0 85.5 34t28.5 87zM445 407 q58 -18 86.5 -66.5t28.5 -111.5q0 -52 -16.5 -96t-49.5 -76t-83.5 -50t-118.5 -18q-18 0 -42.5 1.5t-51.5 5.5t-54 10.5t-49 16.5t-26 19t-4 28v422q0 57 16 103t46 78t72.5 49t95.5 17q55 0 96.5 -14.5t70 -40t43 -59.5t14.5 -74q0 -15 -3.5 -33.5t-12 -37t-22.5 -36.5 t-36 -31v-6z"/>
<glyph glyph-name="gamma" horiz-adv-x="557" unicode="γ" d="M359 -186q0 -11 -4 -14.5t-18 -3.5h-103q-12 0 -16.5 3.5t-4.5 14.5l-1 169l-140 413q-6 14 -10 17t-22 3q-10 0 -14.5 1t-6.5 12l-13 59q-1 6 -1 9q0 5 3 8.5t11 8.5q27 12 51.5 17t44.5 5q21 0 34 -4.5t21 -13.5t13.5 -21.5t11.5 -28.5l50 -163l38 -138h5l42 142 l60 190q5 16 12.5 21t22.5 5h105q15 0 15 -10q0 -4 -2 -9l-184 -516v-176z"/>
<glyph glyph-name="delta" horiz-adv-x="595" unicode="δ" d="M306 626q-48 0 -48 -33q0 -23 31.5 -41t75.5 -40q31 -16 63.5 -37t59.5 -52.5t44 -75t17 -104.5q0 -55 -16.5 -101.5t-49 -80.5t-80.5 -53t-110 -19q-60 0 -106.5 17t-78 48t-47.5 75t-16 98q0 39 9 75t25.5 67.5t41 56.5t55.5 41v1q-33 22 -51 48.5t-18 64.5q0 33 13 62 t37.5 50.5t60.5 33.5t82 12q45 0 91 -8.5t84 -25.5q11 -5 12 -10.5t-3 -17.5l-24 -64q-4 -11 -9 -12.5t-16 2.5q-37 11 -66.5 17t-62.5 6zM191 248q0 -62 24.5 -100.5t80.5 -38.5q30 0 50.5 12t33 31t18.5 43.5t6 50.5q0 22 -4.5 46.5t-16.5 46.5t-33 40t-54 27 q-24 -6 -43.5 -22t-33 -38t-21 -47.5t-7.5 -50.5z"/>
<glyph glyph-name="epsilon" horiz-adv-x="486" unicode="ε" d="M291 223q-45 -2 -72 -16.5t-27 -47.5q0 -22 22 -37.5t64 -15.5q31 0 65 8t67 21q14 5 18.5 3t7.5 -10l27 -71q3 -7 3 -13t-10 -11q-23 -12 -48.5 -20.5t-51.5 -13.5t-50.5 -7.5t-44.5 -2.5q-43 0 -82 7.5t-68.5 25t-47 45.5t-17.5 70q0 20 6.5 41t18 39t27.5 32t35 20v4 q-41 12 -60.5 41.5t-19.5 65.5q0 69 52 113t149 45q44 0 90.5 -9t82.5 -28q11 -5 12.5 -11t-4.5 -18l-27 -67q-3 -8 -7.5 -9.5t-16.5 3.5q-34 11 -63.5 16t-49.5 5q-35 0 -54.5 -15t-19.5 -36q0 -27 22.5 -37.5t68.5 -14.5q18 -1 28 -6.5t10 -23.5v-31q0 -18 -9.5 -25 t-25.5 -8z"/>
<glyph glyph-name="zeta" horiz-adv-x="479" unicode="ζ" d="M196 234q0 -32 23 -49.5t73 -37.5q62 -27 99.5 -46.5t58 -35.5t27 -31t6.5 -32q0 -36 -31.5 -79t-84.5 -93q-8 -8 -13 -9.5t-7 -1.5q-7 0 -14 7l-54 42q-9 8 -10 12.5t6 14.5q6 7 14 17.5l16 21t13.5 19.5t5.5 15q0 10 -16 22t-65 32q-55 22 -93.5 43t-62.5 44t-34.5 49 t-10.5 59q0 47 24 97t63 100t89 98t102 90l-3 4h-216q-12 0 -15.5 4t-3.5 15v79q0 11 4 14.5t15 3.5h358q25 0 37.5 -8.5t12.5 -33.5v-30q0 -16 -4 -30.5t-18 -26.5q-48 -41 -99.5 -90t-94 -98.5t-70 -94.5t-27.5 -76z"/>
<glyph glyph-name="eta" horiz-adv-x="609" unicode="η" d="M278 418q-10 0 -28.5 -0.5t-39.5 -4.5v-395q0 -11 -3.5 -14.5t-17.5 -3.5h-103q-11 0 -16 3.5t-5 14.5v429q0 34 13.5 54t48.5 27q10 2 28.5 3.5t39.5 3t41.5 2.5t35.5 1q70 0 121 -14t84.5 -44.5t50 -80t16.5 -120.5v-261q0 -11 -3.5 -14.5t-17.5 -3.5h-104 q-11 0 -16 3.5t-5 14.5v270q0 33 -5.5 57t-19 40.5t-37 24.5t-58.5 8z"/>
<glyph glyph-name="theta" horiz-adv-x="594" unicode="θ" d="M296 616q-51 0 -76 -49t-27 -134h207q-2 83 -26 133t-78 50zM192 323q1 -113 25 -164t79 -51q103 0 104 215h-208zM549 366q0 -192 -63.5 -284.5t-191.5 -92.5q-131 0 -190 91.5t-59 284.5q0 189 64.5 279t186.5 90q253 0 253 -368z"/>
<glyph glyph-name="iota" horiz-adv-x="330" unicode="ι" d="M315 21q1 -7 -1 -9.5t-10 -6.5q-10 -4 -24.5 -7t-30 -5t-30.5 -3t-26 -1q-34 0 -57.5 7t-37.5 24.5t-20.5 46t-6.5 71.5v369q0 13 5 15.5t16 2.5h108q8 0 12 -3t4 -15v-345q0 -29 9 -38.5t31 -9.5q11 0 34 3q7 1 9.5 -0.5t3.5 -9.5z"/>
<glyph glyph-name="kappa" horiz-adv-x="550" unicode="κ" d="M209 19q0 -12 -4 -15.5t-18 -3.5h-102q-21 0 -21 19v488q0 11 5 14.5t16 3.5h104q14 0 17 -3.5t3 -14.5v-169q3 0 5 -2q12 14 30.5 38t38.5 49.5t38.5 49t30.5 37.5q8 8 13.5 11.5t19.5 3.5h126q14 0 15.5 -6.5t-5.5 -14.5l-150 -175l168 -310q2 -5 2 -9q0 -10 -17 -10 h-115q-12 0 -19 3.5t-12 14.5q-8 15 -22 42.5t-29.5 57.5t-29.5 57.5t-23 42.5l-64 -77v-24v-34.5t-0.5 -36t-0.5 -27.5z"/>
<glyph glyph-name="lambda" horiz-adv-x="582" unicode="λ" d="M525 18q0 -11 -5 -14.5t-16 -3.5h-103q-14 0 -18 3t-4 15v320q-18 6 -41.5 9.5t-42.5 3.5q-30 0 -50 -8t-32 -22.5t-16.5 -35t-4.5 -45.5v-222q0 -11 -5 -14.5t-16 -3.5h-104q-13 0 -17.5 3t-4.5 15v240q0 102 56 160t167 58q26 0 57.5 -4t54.5 -11v25q0 28 -9 50 t-31.5 39t-60 29.5t-93.5 21.5q-11 2 -13.5 5t-0.5 12l17 92q3 13 17 13h6q81 -8 140 -28.5t97.5 -56t57 -87t18.5 -122.5v-436z"/>
<glyph glyph-name="nu" horiz-adv-x="557" unicode="ν" d="M387 48q-11 -34 -26 -43.5t-43 -9.5h-75q-24 0 -38.5 10t-26.5 43l-164 459q-2 6 -2 10q0 3 2.5 5.5t12.5 2.5h113q16 0 21 -3.5t9 -14.5l64 -205l46 -169h6l46 170l61 203q3 11 7.5 15t20.5 4h111q13 0 13 -9q0 -3 -2 -7z"/>
<glyph glyph-name="xi" horiz-adv-x="447" unicode="ξ" d="M149 376q-31 13 -50.5 31t-30 38.5t-14.5 42t-4 41.5q0 46 17 83.5t47.5 64t74.5 40.5t98 14q45 0 92 -9.5t83 -26.5q8 -4 11.5 -11t-1.5 -18l-25 -68q-3 -8 -8 -9.5t-17 3.5q-35 11 -72 16t-57 5q-54 0 -79.5 -27t-25.5 -66q0 -27 11 -43t31.5 -25t50 -13t67.5 -7 q24 -2 38 -9.5t14 -30.5v-31q0 -23 -11 -30.5t-36 -9.5q-81 -5 -125 -30t-44 -87q0 -24 11 -41t30 -30.5t44.5 -24t54.5 -20.5q84 -31 118.5 -60.5t36.5 -66.5q1 -40 -28 -84t-77 -87q-12 -11 -15.5 -11.5t-4.5 -0.5q-6 0 -16 6l-56 47q-8 6 -10 11t5 13q6 8 14 18t16 20.5 t13 20t5 16.5q0 14 -16 24t-40 19q-45 18 -86.5 36t-74 43t-52 59.5t-19.5 84.5q0 23 7 49.5t21 51t35 45t49 31.5v3z"/>
<glyph glyph-name="omicron" horiz-adv-x="595" unicode="ο" d="M399 262q0 34 -5 62t-17 48t-31 31.5t-47 11.5q-53 0 -78.5 -40.5t-25.5 -109.5q0 -75 23.5 -114t77.5 -39q28 0 47.5 11.5t32 32t18 47.5t5.5 59zM550 265q0 -132 -63 -204t-192 -72q-130 0 -190 72t-60 202q0 64 17.5 115.5t50 86.5t79 54t105.5 19q126 0 189.5 -72.5 t63.5 -200.5z"/>
<glyph glyph-name="pi" horiz-adv-x="614" unicode="π" d="M549 19q0 -11 -4 -15t-18 -4h-104q-21 0 -21 19v388h-192v-388q0 -11 -3.5 -15t-17.5 -4h-103q-21 0 -21 19v450q0 24 11 40t46 16h370q35 0 46 -16t11 -40v-450z"/>
<glyph glyph-name="rho" horiz-adv-x="609" unicode="ρ" d="M410 268q0 78 -30 113t-79 35q-42 0 -67.5 -29t-25.5 -81v-179q19 -7 43 -9.5t38 -2.5q55 0 88 35t33 118zM564 262q0 -57 -15 -106.5t-45.5 -86t-77 -58t-109.5 -21.5q-22 0 -53 2.5t-56 10.5v-184q0 -12 -3 -17.5t-18 -5.5h-104q-14 0 -17.5 5.5t-3.5 17.5v463 q0 56 15.5 102.5t46.5 80.5t76 52.5t105 18.5q70 0 119.5 -20.5t80.5 -57t45 -87t14 -109.5z"/>
<glyph glyph-name="sigma1" horiz-adv-x="507" unicode="ς" d="M352 -179q-13 -11 -16.5 -11.5t-4.5 -0.5q-6 0 -15 7l-57 46q-8 7 -10 11.5t6 13.5q5 7 13 16.5t15.5 19t12.5 18.5t5 15q0 11 -13 19t-42 20q-53 22 -91 43.5t-62.5 51.5t-36 71.5t-11.5 103.5q0 63 18 113.5t51 86t80.5 54.5t106.5 19q38 0 81 -8.5t77 -24.5 q11 -5 12.5 -8.5t1.5 -6.5q0 -5 -3 -13l-28 -78q-4 -11 -10.5 -12t-20.5 3q-22 7 -47 13t-50 6h-7q-56 -1 -83.5 -42t-27.5 -104q0 -30 5 -51.5t16.5 -37t31.5 -28t50 -24.5q52 -21 83.5 -37t48.5 -30.5t23 -30t6 -31.5q0 -40 -30 -84.5t-78 -87.5z"/>
<glyph glyph-name="sigma" horiz-adv-x="619" unicode="σ" d="M399 260q0 70 -24 110t-78 40q-49 0 -75.5 -39t-26.5 -108q0 -76 24.5 -113.5t79.5 -37.5q51 0 75.5 40.5t24.5 107.5zM581 525q12 0 15 -5t3 -13v-82q0 -10 -3 -13.5t-15 -3.5h-79l-3 -4q26 -29 38.5 -68.5t12.5 -83.5q0 -60 -17 -109t-49 -83t-80 -52.5t-109 -18.5 q-130 0 -190 70.5t-60 195.5q0 64 18 114.5t52 85t81.5 52.5t106.5 18h278z"/>
<glyph glyph-name="tau" horiz-adv-x="455" unicode="τ" d="M274 408v-240q0 -29 14 -40t43 -11q15 0 38.5 2.5t37.5 4.5q15 3 16 -10l13 -88q1 -5 1 -8q0 -8 -12 -12q-37 -11 -73.5 -14t-62.5 -3q-86 0 -123 36.5t-37 107.5v275h-98q-11 0 -13.5 6t-2.5 14v77q0 9 2.5 14.5t13.5 5.5h364q12 0 14 -5t2 -14v-78q0 -10 -2 -15t-14 -5 h-121z"/>
<glyph glyph-name="upsilon" horiz-adv-x="608" unicode="υ" d="M211 205q0 -52 24 -76t69 -24t70 25.5t25 75.5v301q0 11 4 14.5t17 3.5h103q11 0 15.5 -3.5t4.5 -14.5v-280q0 -62 -16.5 -107t-47 -74t-74 -43t-97.5 -14q-121 0 -182 56t-61 176v286q0 11 4 14.5t17 3.5h104q11 0 16 -3.5t5 -14.5v-302z"/>
<glyph glyph-name="phi" horiz-adv-x="790" unicode="φ" d="M597 268q0 143 -109 143h-10t-11 -1v-301q64 5 97 47.5t33 111.5zM45 264q0 48 13 88.5t34.5 73t49.5 56t59 37.5q8 4 14 4t13 -10l50 -68q7 -10 3 -15t-12 -12q-34 -23 -54.5 -63t-20.5 -94q0 -67 30.5 -106.5t96.5 -45.5v323q0 17 3 32.5t11.5 28t23.5 22t38 13.5 t45.5 6t48.5 2q67 0 115.5 -20t79 -55.5t45 -84t14.5 -105.5q0 -60 -20 -110t-56.5 -87t-87.5 -58.5t-114 -25.5v-170q0 -13 -3 -17.5t-18 -4.5h-103q-14 0 -18 4t-4 16l-1 169q-135 8 -205 80t-70 197z"/>
<glyph glyph-name="chi" horiz-adv-x="523" unicode="χ" d="M261 176l-89 -154q-6 -11 -13.5 -16.5t-22.5 -5.5h-114q-11 0 -13 4t-2 6q0 5 4 12l169 255l-151 230q-4 5 -2.5 11.5t11.5 6.5h120q14 0 21.5 -4t12.5 -15l70 -129l71 129q6 11 13 15t21 4h118q11 0 12 -6t-1 -11l-154 -229l170 -258q4 -6 4 -11q0 -2 -1.5 -6t-13.5 -4 h-117q-17 0 -23.5 5.5t-12.5 16.5z"/>
<glyph glyph-name="psi" horiz-adv-x="779" unicode="ψ" d="M463 110q63 8 90.5 43t27.5 92v259q0 12 4 16.5t17 4.5h103q12 0 16.5 -5t4.5 -16v-258q0 -115 -68 -181.5t-195 -74.5v-174q0 -12 -4 -16t-18 -4h-103q-21 0 -21 20v175q-136 10 -199.5 77.5t-63.5 180.5v256q0 20 21 20h102q14 0 17.5 -4.5t3.5 -15.5v-256 q0 -55 27.5 -93t91.5 -45v394q0 20 21 20h103q14 0 18 -4.5t4 -15.5v-395z"/>
<glyph glyph-name="afii10023" horiz-adv-x="613" unicode="Ё" d="M318 817q0 -15 -6 -28t-16.5 -23t-24 -16t-28.5 -6t-28 6t-23.5 16t-16.5 23t-6 28t6 28.5t16.5 23.5t23.5 16t28 6t28.5 -6t24 -16t16.5 -23.5t6 -28.5zM523 817q0 -15 -6 -28t-16.5 -23t-23.5 -16t-28 -6t-28.5 6t-24 16t-16.5 23t-6 28q0 30 22.5 52t52.5 22 q15 0 28 -6t23.5 -16t16.5 -23.5t6 -28.5zM576 23q0 -12 -4 -17.5t-16 -5.5h-296q-56 0 -91.5 16t-56.5 42t-29 59t-8 67v332q0 36 10 69t31.5 59t56.5 41.5t86 15.5h287q12 0 15.5 -5t3.5 -19v-85q0 -13 -4 -17.5t-15 -4.5h-254q-39 0 -52 -18t-13 -44v-77h287 q12 0 15.5 -5t3.5 -19v-78q0 -12 -3.5 -17.5t-15.5 -5.5h-287v-114q0 -35 16.5 -47.5t48.5 -12.5h264q13 0 16.5 -4.5t3.5 -19.5v-85z"/>
<glyph glyph-name="afii10051" horiz-adv-x="806" unicode="Ђ" d="M354 434q41 11 84.5 17.5t83.5 6.5q54 0 98.5 -16t76.5 -47t49.5 -78t17.5 -108q0 -39 -9 -80.5t-27.5 -80.5t-48 -74t-69.5 -62q-11 -6 -16 -6t-13 9l-55 62q-10 13 1 25q47 42 68.5 93t21.5 111q0 59 -32 93.5t-96 34.5q-35 0 -68 -6t-67 -17v-292q0 -11 -3.5 -15 t-17.5 -4h-112q-21 0 -21 19v551h-169q-19 0 -19 20v89q0 13 4 17t15 4h548q11 0 15 -3.5t4 -17.5v-89q0 -20 -19 -20h-225v-136z"/>
<glyph glyph-name="afii10052" horiz-adv-x="576" unicode="Ѓ" d="M404 936q6 5 9 6t4 1q4 0 11 -6l69 -79q6 -6 5 -11.5t-7 -7.5l-193 -99q-10 -5 -14.5 -3.5t-9.5 6.5l-38 46q-5 6 -5.5 10t7.5 11zM227 21q0 -14 -4 -17.5t-19 -3.5h-106q-12 0 -17.5 4.5t-5.5 16.5v495q0 36 9.5 69t31 59t56.5 41.5t87 15.5h288q13 0 16.5 -5t3.5 -19 v-85q0 -13 -4 -17.5t-16 -4.5h-255q-39 0 -52 -17.5t-13 -44.5v-487z"/>
<glyph glyph-name="afii10053" horiz-adv-x="643" unicode="Є" d="M388 127q48 0 85 11.5t69 23.5q14 6 20 2.5t11 -14.5l34 -72q5 -11 5 -18q0 -9 -11 -15q-54 -33 -113.5 -44.5t-117.5 -11.5q-82 0 -141.5 25t-98 71.5t-57 113t-18.5 149.5q0 81 23.5 148t65.5 114.5t101.5 73.5t131.5 26q51 0 100 -8.5t96 -34.5q11 -6 13 -12t-5 -23 l-31 -69q-5 -14 -10.5 -17t-19.5 2q-36 13 -67 19.5t-69 6.5q-66 0 -107.5 -41.5t-53.5 -108.5h230q11 0 15 -4t4 -15v-85q0 -12 -4 -15t-15 -3h-236q3 -40 14 -72.5t31 -55t51 -35t75 -12.5z"/>
<glyph glyph-name="afii10054" horiz-adv-x="600" unicode="Ѕ" d="M62 509q0 42 14.5 79t43.5 64.5t74 43.5t106 16q28 0 58.5 -3t60 -9t56.5 -14.5t49 -19.5q12 -6 13.5 -11.5t-3.5 -20.5l-26 -75q-5 -14 -10 -16t-17 1q-47 14 -93.5 23t-87.5 9q-44 0 -62 -16t-18 -39q0 -13 6 -24t19.5 -21.5t36 -21.5t55.5 -24q51 -20 94 -40.5 t73.5 -46.5t48 -61t17.5 -84q0 -53 -19 -92t-53 -65t-82.5 -39t-106.5 -13q-32 0 -67 3.5t-69.5 11t-67.5 19.5t-61 29q-10 6 -10 14q0 6 4 16l34 80q5 12 11 14t17 -3q20 -8 44 -16.5t49.5 -15t52 -11t52.5 -4.5q31 0 52 6t34 15.5t18 22t5 26.5q0 15 -5.5 27t-18 23.5 t-34 22t-53.5 22.5q-53 20 -96 41t-74 46.5t-47.5 57t-16.5 73.5z"/>
<glyph glyph-name="afii10055" horiz-adv-x="329" unicode="І" d="M241 21q0 -13 -4.5 -17t-19.5 -4h-106q-12 0 -17.5 4.5t-5.5 16.5v658q0 12 5.5 16.5t17.5 4.5h106q15 0 19.5 -4t4.5 -17v-658z"/>
<glyph glyph-name="afii10056" horiz-adv-x="329" unicode="Ї" d="M133 820q0 -15 -6 -28t-16.5 -23t-24 -16t-28.5 -6t-28 6t-23.5 16t-16.5 23t-6 28t6 28.5t16.5 23.5t23.5 16t28 6t28.5 -6t24 -16t16.5 -23.5t6 -28.5zM338 820q0 -15 -6 -28t-16.5 -23t-23.5 -16t-28 -6t-28.5 6t-24 16t-16.5 23t-6 28q0 30 22.5 52t52.5 22 q15 0 28 -6t23.5 -16t16.5 -23.5t6 -28.5zM241 21q0 -13 -4.5 -17t-19.5 -4h-106q-12 0 -17.5 4.5t-5.5 16.5v658q0 12 5.5 16.5t17.5 4.5h106q15 0 19.5 -4t4.5 -17v-658z"/>
<glyph glyph-name="afii10057" horiz-adv-x="590" unicode="Ј" d="M240 -11q-21 0 -49.5 2.5t-59 8.5t-60 16t-53.5 24q-10 6 -10 11t5 16l36 82q5 11 9.5 11.5t14.5 -3.5q34 -14 74 -23t80 -9q42 0 68 12t41 34.5t20 54t5 69.5v385q0 14 6 17t17 3h106q13 0 18 -3t5 -17v-410q0 -65 -14.5 -116.5t-46.5 -88.5t-84 -56.5t-128 -19.5z"/>
<glyph glyph-name="afii10058" horiz-adv-x="1037" unicode="Љ" d="M842 228q0 40 -24.5 66t-71.5 26h-147v-186h145q28 0 47 9.5t30.5 23.5t16 30.5t4.5 30.5zM300 498q-8 -111 -16 -197t-29 -149.5t-62.5 -106t-115.5 -66.5q-7 -3 -13 -3q-3 0 -8 1.5t-10 13.5l-34 75q-3 6 -3 12q0 3 1.5 8t12.5 10q39 19 62.5 45t37 69t20 108.5 t12.5 162.5l9 153q2 35 15 51t49 16h307q36 0 50 -16.5t14 -51.5v-186h147q89 0 140 -25.5t76 -61.5t31 -74t6 -63q0 -48 -18.5 -89t-51 -70.5t-76 -46.5t-93.5 -17h-253q-36 0 -48 14.5t-12 46.5v507h-143z"/>
<glyph glyph-name="afii10059" horiz-adv-x="1052" unicode="Њ" d="M857 226q0 40 -24.5 64.5t-72.5 24.5h-146v-181h145q28 0 47 9t30.5 23t16 30t4.5 30zM522 0q-36 0 -48 14.5t-12 46.5q0 8 -0.5 41t-0.5 73v79v60h-233v-295q0 -11 -3.5 -15t-17.5 -4h-111q-21 0 -21 19v662q0 19 21 19h111q14 0 17.5 -4t3.5 -15v-241h233v242 q0 19 21 19h111q14 0 17.5 -4t3.5 -15v-240h146q60 0 102 -11.5t70 -30.5t44.5 -43.5t25 -49t10.5 -47.5t2 -40q0 -48 -18.5 -88t-51 -69.5t-76 -46t-93.5 -16.5h-253z"/>
<glyph glyph-name="afii10060" horiz-adv-x="800" unicode="Ћ" d="M595 590q0 -20 -19 -20h-222v-136q38 9 80.5 16t90.5 7q113 0 169 -58.5t56 -168.5v-205q0 -16 -6 -20.5t-21 -4.5h-98q-27 0 -27 25v195q0 25 -6 46t-19.5 36t-35.5 23.5t-55 8.5q-27 0 -61.5 -6.5t-66.5 -17.5v-291q0 -11 -3.5 -15t-17.5 -4h-111q-21 0 -21 19v551 h-170q-19 0 -19 20v89q0 13 4 17t15 4h545q11 0 15 -4t4 -17v-89z"/>
<glyph glyph-name="afii10061" horiz-adv-x="674" unicode="Ќ" d="M417 939q6 5 9 6t4 1q4 0 11 -6l69 -79q6 -6 5 -11.5t-7 -7.5l-193 -99q-10 -5 -14.5 -3.5t-9.5 6.5l-38 46q-5 6 -5.5 10t7.5 11zM481 373q26 -9 43 -20.5t28 -26.5t17.5 -33.5t12.5 -40.5l62 -232q1 -3 1 -7q0 -3 -1 -8t-14 -5h-116q-5 0 -11 2t-9 12l-61 215 q-8 26 -18.5 42.5t-25.5 25.5t-35 12.5t-46 3.5h-82l1 -297q0 -11 -4 -13.5t-14 -2.5h-116q-9 0 -13.5 2.5t-4.5 13.5v668q0 11 4.5 13.5t13.5 2.5h117q10 0 14 -2.5t2 -13.5v-255h80q15 0 31.5 2.5t32.5 11.5t29.5 27t21.5 49l45 169q2 10 8.5 12t11.5 2h112 q13 0 14.5 -7.5t-0.5 -12.5l-46 -179q-20 -86 -85 -125v-5z"/>
<glyph glyph-name="afii10062" horiz-adv-x="606" unicode="Ў" d="M304 729q-30 0 -56.5 9.5t-50 26t-43 37t-35.5 43.5q-2 3 -4 8.5t7 13.5l39 38q10 8 13.5 5.5t11.5 -8.5q32 -32 63.5 -50t60.5 -18q12 0 24.5 2.5t27.5 10t33 21t42 36.5q9 8 14 8q4 0 9 -6l38 -33q10 -9 8.5 -14t-4.5 -9q-91 -121 -198 -121zM583 703q14 0 14 -9 q0 -3 -2 -8l-205 -569q-14 -38 -31.5 -64t-41 -41.5t-53.5 -22.5t-69 -7q-20 0 -45 3t-51 11q-13 4 -16.5 7.5t-1.5 14.5l16 83q2 11 7 12t16 -1q17 -2 29.5 -3t25.5 -1q17 0 29.5 1.5t22.5 7t17 15t13 26.5l16 45h-26q-24 0 -34.5 8t-21.5 35l-176 438q-3 5 -3 9t4 7t13 3 h116q17 0 23 -4t10 -16l74 -203l56 -165h7l53 173l63 194q5 13 10 17t21 4h121z"/>
<glyph glyph-name="afii10145" horiz-adv-x="725" unicode="Џ" d="M650 67q0 -34 -14 -50.5t-50 -16.5h-151l-7 -150q0 -19 -19 -19h-85q-11 0 -15 4.5t-5 15.5q0 10 -1 31t-2.5 44t-2.5 43.5t-2 30.5h-157q-35 0 -49.5 16.5t-14.5 50.5v614q0 19 21 19h110q14 0 17.5 -3.5t3.5 -15.5v-550h271v550q0 19 20 19h110q14 0 18 -3.5t4 -15.5 v-614z"/>
<glyph glyph-name="afii10017" horiz-adv-x="655" unicode="А" d="M248 270h157l-38 127l-37 143h-6l-38 -143zM441 146h-229l-39 -127q-3 -10 -8.5 -14.5t-19.5 -4.5h-117q-11 0 -13 4.5t-2 8.5q0 3 1 7l208 627q5 17 11.5 27.5t15 16.5t20 8.5t26.5 2.5h60q17 0 29 -1.5t21 -7.5t15.5 -17t12.5 -29l208 -627q1 -3 1 -6t-1.5 -8.5 t-12.5 -5.5h-119q-11 0 -18.5 2.5t-10.5 13.5z"/>
<glyph glyph-name="afii10018" horiz-adv-x="665" unicode="Б" d="M469 228q0 39 -24.5 65t-71.5 26h-146v-186h145q28 0 47 9.5t30 23.5t15.5 31t4.5 31zM135 0q-37 0 -48.5 14t-11.5 46v572q0 35 14 51.5t50 16.5h390q11 0 14.5 -4.5t3.5 -17.5v-89q0 -11 -3.5 -15t-14.5 -4h-302v-124h146q59 0 101 -12t70.5 -31.5t45 -44t24.5 -49.5 t10.5 -48.5t2.5 -40.5q0 -48 -18.5 -88t-51 -69.5t-76 -46t-94.5 -16.5h-252z"/>
<glyph glyph-name="afii10019" horiz-adv-x="680" unicode="В" d="M227 435h136q12 0 25.5 3t24.5 10.5t18 21t7 34.5q0 30 -19 47t-51 17h-141v-133zM468 223q0 40 -24.5 65t-72.5 25h-144v-179h144q28 0 47 8.5t30 21.5t15.5 29t4.5 30zM518 383q28 -11 48.5 -29.5t33.5 -41t19 -48.5t6 -51q0 -48 -18.5 -87t-51 -67t-76 -43.5 t-93.5 -15.5h-251q-36 0 -48 14.5t-12 46.5v578q0 32 12 47t48 15h245q45 0 84.5 -10t68.5 -31.5t45.5 -55t16.5 -80.5q0 -42 -21.5 -78.5t-55.5 -55.5v-7z"/>
<glyph glyph-name="afii10020" horiz-adv-x="576" unicode="Г" d="M227 21q0 -14 -4 -17.5t-19 -3.5h-106q-12 0 -17.5 4.5t-5.5 16.5v495q0 36 9.5 69t31 59t56.5 41.5t87 15.5h288q13 0 16.5 -5t3.5 -19v-85q0 -13 -4 -17.5t-16 -4.5h-255q-39 0 -52 -17.5t-13 -44.5v-487z"/>
<glyph glyph-name="afii10021" horiz-adv-x="781" unicode="Д" d="M518 568h-185q-12 -107 -21 -181t-17.5 -124.5t-17.5 -81.5t-20 -51h261v438zM157 0q-2 -36 -5 -72l-6 -72q-1 -21 -22 -21h-81q-17 0 -19 20l-11 223q0 20 7 32.5t30 17.5l36 3q20 20 33 43t20.5 48.5t12 51.5t7.5 52l35 277q3 22 6.5 40t12 30.5t23.5 19.5t39 7h329 q39 0 52.5 -16.5t13.5 -50.5v-502l42 -3q23 -2 30.5 -12.5t6.5 -26.5l-13 -234q-1 -10 -4.5 -15t-13.5 -5h-86q-19 0 -19 21l-5 144h-451z"/>
<glyph glyph-name="afii10022" horiz-adv-x="613" unicode="Е" d="M576 23q0 -12 -4 -17.5t-16 -5.5h-296q-56 0 -91.5 16t-56.5 42t-29 59t-8 67v332q0 36 10 69t31.5 59t56.5 41.5t86 15.5h287q12 0 15.5 -5t3.5 -19v-85q0 -13 -4 -17.5t-15 -4.5h-254q-39 0 -52 -18t-13 -44v-77h287q12 0 15.5 -5t3.5 -19v-78q0 -12 -3.5 -17.5 t-15.5 -5.5h-287v-114q0 -35 16.5 -47.5t48.5 -12.5h264q13 0 16.5 -4.5t3.5 -19.5v-85z"/>
<glyph glyph-name="afii10024" horiz-adv-x="1012" unicode="Ж" d="M189 378q-35 18 -54.5 50.5t-29.5 74.5l-46 179q-2 5 -0.5 12.5t14.5 7.5h112q5 0 11.5 -2t8.5 -12l45 -169q8 -31 20.5 -49t27 -27t30.5 -11.5t31 -2.5h72v255q-2 11 2 13.5t14 2.5h116q9 0 13.5 -2.5t4.5 -13.5v-255h71q15 0 31 2.5t30.5 11.5t27 27t20.5 49l45 169 q2 10 8.5 12t11.5 2h113q13 0 14.5 -7.5t-0.5 -12.5l-45 -179q-20 -86 -85 -125v-5q26 -9 43 -20.5t28 -26.5t17.5 -33.5t12.5 -40.5l62 -232q1 -3 1 -7q0 -3 -1 -8t-14 -5h-120q-5 0 -11 2t-9 12l-58 215q-8 26 -17.5 42.5t-23.5 25.5t-33.5 12.5t-45.5 3.5h-73v-297 q0 -11 -4.5 -13.5t-13.5 -2.5h-114q-10 0 -14 2.5t-4 13.5v297h-73q-26 0 -45.5 -3.5t-34 -12.5t-24.5 -25.5t-17 -42.5l-58 -215q-3 -10 -9 -12t-11 -2h-119q-13 0 -14 5.5t-1 7.5q0 4 1 7l62 232q6 20 12.5 38.5t17.5 34t28 27.5t43 21v5z"/>
<glyph glyph-name="afii10025" horiz-adv-x="627" unicode="З" d="M309 712q48 0 94 -9.5t81 -31.5t56.5 -56.5t21.5 -85.5q0 -48 -28 -89.5t-76 -63.5v-5q57 -17 90 -61t33 -98q0 -52 -22.5 -93t-61.5 -69.5t-92 -44t-113 -16.5q-29 0 -63 3t-69 9.5t-68.5 17.5t-60.5 28q-11 7 -11 15q0 6 6 18l36 71q5 11 11 14.5t21 -2.5q18 -8 40 -15 t46 -12.5t48.5 -9t47.5 -3.5q74 0 109.5 28.5t35.5 74.5q0 34 -29 58.5t-96 26.5h-48q-21 0 -30.5 6t-9.5 29v44q0 20 7.5 29t27.5 9h56q51 1 77.5 22.5t26.5 57.5q0 37 -31 53.5t-77 16.5q-43 0 -86 -10t-80 -24q-17 -6 -23 -2.5t-11 17.5l-26 65q-8 17 -6.5 22.5 t13.5 13.5q45 26 108 39t125 13z"/>
<glyph glyph-name="afii10026" horiz-adv-x="743" unicode="И" d="M513 468l-89 -150l-169 -274q-9 -14 -16 -22.5t-15 -13.5t-18.5 -6.5t-25.5 -1.5h-40q-39 0 -52 18.5t-13 50.5v613q0 19 21 19h107q14 0 17.5 -4t3.5 -15v-450h6l85 140l173 284q9 14 16 23t15 14t18 6.5t25 1.5h41q37 0 51 -15.5t14 -54.5v-612q0 -19 -21 -19h-107 q-14 0 -18 4t-4 15v449h-5z"/>
<glyph glyph-name="afii10027" horiz-adv-x="743" unicode="Й" d="M366 726q-30 0 -56.5 9.5t-50 26t-43 37t-35.5 43.5q-2 3 -4 8.5t7 13.5l39 38q10 8 13.5 5.5t11.5 -8.5q32 -32 63.5 -50t60.5 -18q12 0 24.5 2.5t27.5 10t33 21t42 36.5q9 8 14 8q4 0 9 -6l38 -33q10 -9 8.5 -14t-4.5 -9q-91 -121 -198 -121zM513 468l-89 -150 l-169 -274q-9 -14 -16 -22.5t-15 -13.5t-18.5 -6.5t-25.5 -1.5h-40q-39 0 -52 18.5t-13 50.5v613q0 19 21 19h107q14 0 17.5 -4t3.5 -15v-450h6l85 140l173 284q9 14 16 23t15 14t18 6.5t25 1.5h41q37 0 51 -15.5t14 -54.5v-612q0 -19 -21 -19h-107q-14 0 -18 4t-4 15v449 h-5z"/>
<glyph glyph-name="afii10028" horiz-adv-x="674" unicode="К" d="M481 373q26 -9 43 -20.5t28 -26.5t17.5 -33.5t12.5 -40.5l62 -232q1 -3 1 -7q0 -3 -1 -8t-14 -5h-116q-5 0 -11 2t-9 12l-61 215q-8 26 -18.5 42.5t-25.5 25.5t-35 12.5t-46 3.5h-82l1 -297q0 -11 -4 -13.5t-14 -2.5h-116q-9 0 -13.5 2.5t-4.5 13.5v668q0 11 4.5 13.5 t13.5 2.5h117q10 0 14 -2.5t2 -13.5v-255h80q15 0 31.5 2.5t32.5 11.5t29.5 27t21.5 49l45 169q2 10 8.5 12t11.5 2h112q13 0 14.5 -7.5t-0.5 -12.5l-46 -179q-20 -86 -85 -125v-5z"/>
<glyph glyph-name="afii10029" horiz-adv-x="727" unicode="Л" d="M164 633q2 35 15 51t49 16h359q36 0 50 -16.5t14 -50.5v-615q0 -11 -3.5 -14.5t-17.5 -3.5h-111q-11 0 -15.5 3.5t-4.5 14.5v550h-195l-4 -70q-8 -111 -16 -197t-29 -149.5t-62.5 -106t-115.5 -66.5q-7 -3 -13 -3q-3 0 -8 1.5t-10 13.5l-34 75q-3 6 -3 12q0 3 1.5 8 t12.5 10q39 19 62.5 45t37 69t20 108.5t12.5 162.5z"/>
<glyph glyph-name="afii10030" horiz-adv-x="870" unicode="М" d="M651 403h-6l-41 -93l-83 -184q-11 -26 -22.5 -35t-34.5 -9h-55q-25 0 -34.5 9t-21.5 35l-62 130l-62 135h-6v-371q0 -14 -5 -17t-18 -3h-102q-11 0 -17 3t-6 17v611q0 38 14.5 54t49.5 16h58q28 0 41.5 -10.5t25.5 -36.5l109 -244l62 -142h4l68 156l102 228 q12 27 26.5 38t46.5 11h49q32 0 48 -13.5t16 -51.5v-616q0 -14 -5 -17t-18 -3h-99q-11 0 -16.5 3t-5.5 17v383z"/>
<glyph glyph-name="afii10031" horiz-adv-x="726" unicode="Н" d="M651 21q0 -13 -4.5 -17t-19.5 -4h-105q-13 0 -18 4.5t-5 16.5v280h-271v-280q0 -13 -4.5 -17t-19.5 -4h-106q-12 0 -17.5 4.5t-5.5 16.5v658q0 12 5.5 16.5t17.5 4.5h106q15 0 19.5 -4t4.5 -17v-249h271v249q0 12 5 16.5t18 4.5h105q15 0 19.5 -4t4.5 -17v-658z"/>
<glyph glyph-name="afii10032" horiz-adv-x="730" unicode="О" d="M516 349q0 45 -6.5 86t-23.5 72t-46 49.5t-75 18.5q-38 0 -66.5 -17.5t-47.5 -47.5t-28 -70t-9 -85q0 -53 7.5 -95t25 -72t46.5 -46t73 -16q43 0 72 18.5t46 49t24.5 71t7.5 84.5zM675 352q0 -86 -18.5 -153t-57.5 -114t-98 -71.5t-140 -24.5q-155 0 -230.5 94t-75.5 266 q0 84 21.5 151.5t61.5 114t97 71.5t129 25q78 0 136.5 -25t97 -71.5t58 -113t19.5 -149.5z"/>
<glyph glyph-name="afii10033" horiz-adv-x="725" unicode="П" d="M650 19q0 -11 -4 -15t-18 -4h-109q-21 0 -21 19v549h-270v-549q0 -11 -4 -15t-18 -4h-110q-21 0 -21 19v614q0 35 14.5 51.5t49.5 16.5h447q36 0 50 -16.5t14 -51.5v-614z"/>
<glyph glyph-name="afii10034" horiz-adv-x="644" unicode="Р" d="M457 472q0 14 -4 30.5t-15.5 31t-31 24t-49.5 9.5h-130v-190h131q51 0 75 27.5t24 67.5zM227 21q0 -14 -4.5 -17.5t-19.5 -3.5h-105q-12 0 -17.5 4.5t-5.5 16.5v619q0 28 12 44.5t48 16.5h245q54 0 97.5 -16.5t74 -45.5t46.5 -69t16 -88q0 -26 -8 -64.5t-34.5 -75 t-77 -62.5t-134.5 -26h-133v-233z"/>
<glyph glyph-name="afii10035" horiz-adv-x="643" unicode="С" d="M388 127q48 0 85 11.5t69 23.5q14 6 20 2.5t11 -14.5l34 -72q5 -11 5 -18q0 -9 -11 -15q-54 -33 -113.5 -44.5t-117.5 -11.5q-82 0 -141.5 24.5t-98 70.5t-57 112.5t-18.5 149.5q0 82 23.5 149t65.5 115t101.5 74t131.5 26q51 0 100 -8.5t96 -34.5q11 -6 13 -12t-5 -23 l-31 -69q-5 -14 -10.5 -17t-19.5 2q-36 13 -67 19.5t-69 6.5q-41 0 -72.5 -17.5t-53 -48t-32.5 -72t-11 -90.5t8.5 -89t29 -69t53.5 -45t82 -16z"/>
<glyph glyph-name="afii10036" horiz-adv-x="574" unicode="Т" d="M563 590q0 -20 -20 -20h-181v-549q0 -13 -4.5 -17t-19.5 -4h-107q-12 0 -17.5 4.5t-5.5 16.5v549h-177q-19 0 -19 20v89q0 13 4 17t15 4h512q12 0 16 -4t4 -17v-89z"/>
<glyph glyph-name="afii10037" horiz-adv-x="606" unicode="У" d="M583 703q14 0 14 -9q0 -3 -2 -8l-205 -569q-14 -38 -31.5 -64t-41 -41.5t-53.5 -22.5t-69 -7q-20 0 -45 3t-51 11q-13 4 -16.5 7.5t-1.5 14.5l16 83q2 11 7 12t16 -1q17 -2 29.5 -3t25.5 -1q17 0 29.5 1.5t22.5 7t17 15t13 26.5l16 45h-26q-24 0 -34.5 8t-21.5 35 l-176 438q-3 5 -3 9t4 7t13 3h116q17 0 23 -4t10 -16l74 -203l56 -165h7l53 173l63 194q5 13 10 17t21 4h121z"/>
<glyph glyph-name="afii10038" horiz-adv-x="868" unicode="Ф" d="M355 540q-38 -6 -66.5 -24t-47.5 -43t-28.5 -55t-9.5 -60q0 -35 8.5 -66t26.5 -55.5t47 -41t70 -22.5v367zM667 359q0 31 -8.5 61t-27.5 54.5t-49.5 42.5t-75.5 24v-368q43 7 74 24.5t50 43t28 56t9 62.5zM507 19q0 -11 -3.5 -15t-17.5 -4h-110q-21 0 -21 19v36 q-147 14 -224 92t-77 207q0 61 21.5 113.5t61 92t95 65.5t123.5 35v21q0 19 21 19h110q14 0 17.5 -4t3.5 -15v-21q148 -17 227.5 -95t79.5 -207q0 -64 -22 -117t-62 -92t-96.5 -63.5t-126.5 -31.5v-35z"/>
<glyph glyph-name="afii10039" horiz-adv-x="618" unicode="Х" d="M308 240l-121 -217q-9 -14 -17 -18.5t-27 -4.5h-123q-9 0 -10.5 4.5t-1.5 7.5q0 4 2 8l213 344l-195 318q-5 6 -2 12.5t14 6.5h117q20 0 27.5 -4t15.5 -18l110 -195l109 195q8 14 15.5 18t27.5 4h115q11 0 13.5 -6.5t-2.5 -13.5l-193 -316l213 -345q2 -4 2 -8 q0 -3 -2 -7.5t-10 -4.5h-125q-18 0 -26.5 4.5t-16.5 18.5z"/>
<glyph glyph-name="afii10040" horiz-adv-x="764" unicode="Ц" d="M650 134l50 -5q27 -2 32.5 -13t5.5 -26v-5l-11 -231q-2 -20 -19 -20h-84q-19 0 -20 21l-6 145h-459q-35 0 -49.5 16.5t-14.5 50.5v615q0 19 21 19h110q14 0 18 -4t4 -15v-551h270v551q0 19 20 19h110q14 0 18 -4t4 -15v-548z"/>
<glyph glyph-name="afii10041" horiz-adv-x="669" unicode="Ч" d="M594 19q0 -11 -4 -15t-18 -4h-109q-12 0 -16.5 4t-4.5 15v227q-29 -5 -59.5 -7t-59.5 -2q-78 0 -132 17.5t-87 50t-48 78.5t-15 104v195q0 19 21 19h110q13 0 17 -4t4 -15v-180q0 -71 36.5 -101t113.5 -30q24 0 49.5 2t49.5 7v302q0 11 4.5 15t16.5 4h109q14 0 18 -4 t4 -15v-663z"/>
<glyph glyph-name="afii10042" horiz-adv-x="1012" unicode="Ш" d="M137 0q-34 0 -48 16.5t-14 50.5v615q0 19 21 19h112q14 0 17.5 -4t3.5 -15v-550h203v550q0 19 21 19h109q14 0 18 -4t4 -15v-550h201v550q0 11 3.5 15t17.5 4h111q20 0 20 -19v-615q0 -34 -14 -50.5t-48 -16.5h-738z"/>
<glyph glyph-name="afii10043" horiz-adv-x="1051" unicode="Щ" d="M937 134l50 -4q26 -2 32.5 -14t5.5 -31l-11 -231q-1 -19 -19 -19h-84q-11 0 -15 4.5t-5 15.5l-6 145h-748q-34 0 -48 16.5t-14 50.5v615q0 19 21 19h112q14 0 17.5 -4t3.5 -15v-551h203v551q0 19 21 19h109q14 0 18 -4t4 -15v-551h201v551q0 19 20 19h111q14 0 17.5 -4 t3.5 -15v-548z"/>
<glyph glyph-name="afii10044" horiz-adv-x="843" unicode="Ъ" d="M648 228q0 40 -24.5 66t-71.5 26h-145v-186h144q28 0 47 9.5t30 23.5t15.5 30.5t4.5 30.5zM314 0q-36 0 -48 14.5t-12 46.5v510h-225q-11 0 -14.5 4t-3.5 15v89q0 14 3 17.5t15 3.5h313q36 0 50.5 -16.5t14.5 -49.5v-187h146q59 0 101 -12t70 -31t44 -43.5t24.5 -49.5 t10.5 -48t2 -40q0 -48 -18.5 -89t-51 -70.5t-76 -46.5t-93.5 -17h-252z"/>
<glyph glyph-name="afii10045" horiz-adv-x="920" unicode="Ы" d="M470 228q0 40 -24.5 66t-72.5 26h-146v-186h145q28 0 47 9.5t30.5 23.5t16 30.5t4.5 30.5zM845 19q0 -11 -3.5 -15t-17.5 -4h-111q-21 0 -21 19v662q0 19 21 19h111q14 0 17.5 -4t3.5 -15v-662zM135 0q-36 0 -48 14.5t-12 46.5v621q0 19 20 19h111q14 0 17.5 -4t3.5 -15 v-235h147q89 0 140 -25.5t76 -61.5t31 -74t6 -63q0 -48 -18.5 -89t-51 -70.5t-76 -46.5t-93.5 -17h-253z"/>
<glyph glyph-name="afii10046" horiz-adv-x="665" unicode="Ь" d="M470 228q0 40 -24.5 66t-72.5 26h-146v-186h145q28 0 47 9.5t30.5 23.5t16 30.5t4.5 30.5zM135 0q-36 0 -48 14.5t-12 46.5v621q0 19 20 19h111q14 0 17.5 -4t3.5 -15v-235h147q89 0 140 -25.5t76 -61.5t31 -74t6 -63q0 -48 -18.5 -89t-51 -70.5t-76 -46.5t-93.5 -17 h-253z"/>
<glyph glyph-name="afii10047" horiz-adv-x="645" unicode="Э" d="M257 127q43 0 73 12.5t50.5 35t31.5 55t15 72.5h-235q-11 0 -15 3.5t-4 14.5v85q0 12 4 16t15 4h233q-8 72 -48.5 110.5t-109.5 38.5q-38 0 -70 -6.5t-68 -19.5q-14 -5 -20 -2t-11 17l-27 69q-7 17 -5.5 23t13.5 12q47 24 99 33.5t103 9.5q148 0 228.5 -88.5t80.5 -255.5 q0 -85 -19 -154.5t-57.5 -119t-98 -76.5t-140.5 -27q-59 0 -119.5 11.5t-114.5 44.5q-11 6 -11 15q0 7 5 18l34 72q5 11 11 14.5t20 -2.5q33 -12 71 -23.5t86 -11.5z"/>
<glyph glyph-name="afii10048" horiz-adv-x="981" unicode="Ю" d="M770 350q0 48 -6.5 89t-23 71t-43.5 47t-68 17q-37 0 -64 -16.5t-45 -46t-27 -70t-9 -88.5q0 -51 8 -93t25 -72t45 -46.5t67 -16.5t66 17.5t43.5 48t24 71.5t7.5 88zM227 19q0 -11 -4 -15t-18 -4h-109q-21 0 -21 19v662q0 19 21 19h109q14 0 18 -4t4 -15v-252h107 q9 64 33 116t61.5 89t88 57t112.5 20q74 0 130 -26t93 -73.5t55.5 -114t18.5 -147.5q0 -82 -18.5 -148.5t-56 -114t-94 -73t-133.5 -25.5q-74 0 -127 24t-88.5 66t-54 99t-23.5 123h-104v-282z"/>
<glyph glyph-name="afii10049" horiz-adv-x="675" unicode="Я" d="M222 486q0 -36 22.5 -58t67.5 -22h133v160h-136q-26 0 -43 -7.5t-26.5 -19.5t-13.5 -26t-4 -27zM445 283h-93q-46 0 -71 -19t-38 -68q-4 -14 -10 -38t-13 -50t-13 -50t-9 -38q-4 -15 -16.5 -17.5t-23.5 -2.5h-110q-15 0 -15 11q0 4 2 12l51 194q9 38 28 64t63 39v2 q-59 20 -85 67t-26 104q0 46 15.5 84t44.5 65.5t72 42.5t97 15h244q36 0 48 -15.5t12 -45.5v-622q0 -11 -5 -14t-16 -3h-111q-14 0 -18 3t-4 14v266z"/>
<glyph glyph-name="afii10065" horiz-adv-x="576" unicode="а" d="M365 238h-79q-14 0 -30 -2t-29.5 -9.5t-22.5 -21.5t-9 -38q0 -35 23.5 -49t63.5 -14q6 0 16 0.5t21.5 2t23.5 4t22 6.5v121zM511 65q0 -13 -3.5 -22t-17.5 -17q-23 -11 -49.5 -18t-54 -11t-55.5 -6t-53 -2q-68 0 -112.5 13t-71.5 35.5t-38 53t-11 65.5q0 39 13 71.5 t39 56.5t65.5 37.5t93.5 13.5h110v16q0 14 -3 27t-12.5 22.5t-26.5 15.5t-45 6q-15 0 -34 -1.5t-38 -4t-37 -6t-32 -7.5q-13 -3 -18 0t-7 13l-16 70q-3 11 -0.5 15.5t10.5 7.5q45 16 94.5 23t98.5 7q109 0 160 -46.5t51 -137.5v-290z"/>
<glyph glyph-name="afii10066" horiz-adv-x="591" unicode="б" d="M294 110q32 0 53 11.5t33 30.5t17 42t5 47q0 22 -4 44.5t-14.5 40.5t-28.5 29.5t-47 11.5q-26 0 -55 -8t-52 -22q-4 -32 -5 -53.5t-1 -44.5q0 -27 4.5 -50.5t15.5 -41t30 -27.5t49 -10zM353 487q56 0 94 -19t62 -52t34.5 -77t10.5 -93q0 -48 -13.5 -93.5t-44.5 -81.5 t-80.5 -58.5t-122.5 -23.5q-82 0 -131.5 23.5t-76.5 62.5t-35.5 89.5t-8.5 105.5q0 83 8 153t32.5 124.5t69 92.5t117.5 57q35 10 83.5 19.5t103.5 20.5q5 1 10 1q2 0 5.5 -0.5t5.5 -11.5l21 -84q4 -13 -1 -16.5t-10 -5.5q-35 -9 -61 -14t-52 -11q-47 -10 -77 -21.5 t-48.5 -27.5t-27.5 -39.5t-12 -57.5q1 0 2 -1l2 -2q35 23 71.5 32t69.5 9z"/>
<glyph glyph-name="afii10067" horiz-adv-x="593" unicode="в" d="M208 327h121q16 0 30.5 10t14.5 34q0 17 -11 29.5t-31 12.5h-124v-86zM398 173q0 26 -15.5 42t-47.5 16h-127v-118h126q19 0 31.5 6t20 15t10 19.5t2.5 19.5zM466 286q46 -18 64 -52.5t18 -71.5q0 -36 -14.5 -66t-40 -51.5t-61 -33t-76.5 -11.5h-231q-35 0 -47.5 12.5 t-12.5 38.5v418q0 26 10.5 41t45.5 15h233q35 0 66 -7t54.5 -23t37 -41t13.5 -62q0 -29 -15 -56.5t-44 -43.5v-6z"/>
<glyph glyph-name="afii10068" horiz-adv-x="489" unicode="г" d="M210 20q0 -13 -4 -16.5t-19 -3.5h-99q-23 0 -23 20v350q0 30 6.5 58.5t24 50t48.5 34t81 12.5h235q12 0 15.5 -4.5t3.5 -18.5v-72q0 -12 -4 -17.5t-15 -5.5h-192q-35 0 -46.5 -14t-11.5 -40v-333z"/>
<glyph glyph-name="afii10069" horiz-adv-x="652" unicode="д" d="M74 114q28 26 40 68.5t17 95.5l27 190q4 26 17.5 41.5t53.5 15.5h263q38 0 49.5 -15.5t11.5 -45.5v-350l34 -3q20 -2 26.5 -13t6.5 -27l-12 -210q0 -15 -16 -15h-88q-9 0 -12 4t-4 12l-6 138h-335q-2 -35 -4 -69t-4 -69q-1 -9 -4 -12.5t-13 -3.5h-87q-15 0 -15 15 l-12 209q0 17 7 28t27 13zM407 406h-124q-14 -123 -28 -193.5t-31 -99.5h183v293z"/>
<glyph glyph-name="afii10070" horiz-adv-x="568" unicode="е" d="M296 418q-41 0 -67 -29t-30 -74h187q0 22 -4.5 41t-14.5 32.5t-27 21.5t-44 8zM293 538q117 0 175.5 -58.5t58.5 -167.5q0 -52 -20 -71t-55 -19h-256q1 -32 10.5 -53t25.5 -34t37.5 -18t46.5 -5q29 0 59 7t56 18q12 4 16.5 2.5t8.5 -9.5l32 -72q4 -9 1.5 -14t-10.5 -10 q-37 -24 -86 -34.5t-91 -10.5q-131 0 -194 65t-63 206q0 66 17.5 117.5t50 87.5t78 54.5t102.5 18.5z"/>
<glyph glyph-name="afii10072" horiz-adv-x="825" unicode="ж" d="M340 226h-40q-31 0 -53 -14t-31 -46l-47 -154q-2 -8 -7.5 -10t-9.5 -2h-116q-12 0 -13 5t-1 8t1 5l51 173q5 16 11 30.5t15.5 26t23.5 20.5t36 15l-1 2q-30 12 -46.5 36.5t-24.5 55.5l-37 131q-1 5 0.5 11t11.5 6h112q5 0 9.5 -2t7.5 -11l34 -110q14 -42 35.5 -55.5 t48.5 -13.5h30v176q0 11 4 13.5t14 2.5h109q9 0 13.5 -2.5t4.5 -13.5v-176h30q27 0 48.5 13.5t35.5 55.5l34 110q3 9 7.5 11t9.5 2h112q10 0 11.5 -6t0.5 -11l-37 -131q-8 -31 -24.5 -55.5t-46.5 -36.5l-1 -2q22 -6 36 -15t23.5 -20.5t15.5 -26t11 -30.5l51 -173v-5t-0.5 -8 t-12.5 -5h-116q-4 0 -9.5 2t-7.5 10l-46 154q-10 32 -32 46t-53 14h-40v-210q0 -11 -4.5 -13.5t-13.5 -2.5h-109q-10 0 -14 2.5t-4 13.5v210z"/>
<glyph glyph-name="afii10073" horiz-adv-x="510" unicode="з" d="M224 417q-20 0 -55 -6t-67 -16q-12 -5 -17 -3t-8 9l-24 67q-5 12 -4.5 17.5t12.5 10.5q38 19 89.5 30t102.5 11q93 0 148 -34.5t55 -106.5q0 -37 -22 -67t-54 -48v-4q43 -14 67.5 -45.5t24.5 -73.5t-19 -73.5t-51 -52.5t-75 -31.5t-91 -10.5q-24 0 -50.5 2t-53 6 t-51.5 11t-46 16q-12 5 -12 13q0 5 2 12l26 73q3 8 8 10t19 -2q36 -11 76.5 -17.5t66.5 -6.5q58 0 81 20t23 45q0 26 -26.5 40t-88.5 15q-19 1 -28.5 8t-9.5 24v30q0 17 10.5 23.5t28.5 7.5q50 3 73 16.5t23 36.5q0 26 -23.5 35t-59.5 9z"/>
<glyph glyph-name="afii10074" horiz-adv-x="625" unicode="и" d="M65 509q0 16 18 16h107q12 0 15.5 -3t3.5 -13v-306h5q19 32 31.5 52.5t20.5 34t14 22.5t12 19q19 29 43 68t57 93q7 10 13 16.5t12.5 10t15 5t21.5 1.5h49q28 0 42 -11.5t14 -44.5v-453q0 -10 -4 -13t-14 -3h-108q-11 0 -15 2.5t-4 13.5v300h-5q-23 -35 -43.5 -69.5 t-42.5 -68.5q-23 -36 -46 -72.5t-47 -72.5q-14 -21 -26 -27t-36 -6h-47q-35 0 -45.5 14t-10.5 42v453z"/>
<glyph glyph-name="afii10075" horiz-adv-x="625" unicode="й" d="M308 574q-30 0 -56.5 9.5t-50 26t-43 37t-35.5 43.5q-2 3 -4 8.5t7 13.5l39 38q10 8 13.5 5.5t11.5 -8.5q32 -32 63.5 -50t60.5 -18q12 0 24.5 2.5t27.5 10t33 21t42 36.5q9 8 14 8q4 0 9 -6l38 -33q10 -9 8.5 -14t-4.5 -9q-91 -121 -198 -121zM65 509q0 16 18 16h107 q12 0 15.5 -3t3.5 -13v-306h5q19 32 31.5 52.5t20.5 34t14 22.5t12 19q19 29 43 68t57 93q7 10 13 16.5t12.5 10t15 5t21.5 1.5h49q28 0 42 -11.5t14 -44.5v-453q0 -10 -4 -13t-14 -3h-108q-11 0 -15 2.5t-4 13.5v300h-5q-23 -35 -43.5 -69.5t-42.5 -68.5q-23 -36 -46 -72.5 t-47 -72.5q-14 -21 -26 -27t-36 -6h-47q-35 0 -45.5 14t-10.5 42v453z"/>
<glyph glyph-name="afii10076" horiz-adv-x="575" unicode="к" d="M210 16q0 -11 -4 -13.5t-14 -2.5h-109q-9 0 -13.5 2.5t-4.5 13.5v493q0 11 4.5 13.5t13.5 2.5h109q10 0 14 -2.5t4 -13.5v-174h47q26 0 47.5 12.5t35.5 54.5l35 110q2 9 7 11t10 2h111q10 0 11.5 -6t0.5 -11l-37 -131q-8 -31 -24.5 -55.5t-46.5 -36.5l-1 -2q22 -6 36 -15 t23.5 -20.5t15.5 -26t11 -30.5l51 -173q1 -2 1 -5t-1 -8t-13 -5h-115q-4 0 -9.5 2t-7.5 10l-47 154q-10 32 -31.5 44.5t-52.5 12.5h-57v-207z"/>
<glyph glyph-name="afii10077" horiz-adv-x="596" unicode="л" d="M471 525q35 0 47.5 -14.5t12.5 -46.5v-445q0 -12 -4.5 -15.5t-18.5 -3.5h-101q-14 0 -18.5 4.5t-4.5 15.5v387h-123l-3 -52q-5 -87 -13 -150t-27 -107.5t-54 -72.5t-93 -46q-8 -3 -14 -3q-4 0 -8 2.5t-8 12.5l-27 68q-4 10 -4 16q0 7 15 15q27 12 43.5 27t27 43 t16.5 74.5t11 122.5l7 109q2 33 15.5 46t46.5 13h279z"/>
<glyph glyph-name="afii10078" horiz-adv-x="757" unicode="м" d="M545 298l-41 -96l-49 -106q-9 -20 -21 -27t-32 -7h-49q-23 0 -33.5 7t-19.5 27l-48 104l-40 92h-4v-273q0 -13 -5 -16t-17 -3h-99q-11 0 -16.5 3t-5.5 16v448q0 58 60 58h62q21 0 36.5 -7t27.5 -33l72 -152l51 -115h6l57 125l67 137q12 26 27 35.5t44 9.5h57q60 0 60 -56 v-450q0 -13 -4.5 -16t-17.5 -3h-98q-11 0 -16.5 3t-5.5 16v279h-5z"/>
<glyph glyph-name="afii10079" horiz-adv-x="606" unicode="н" d="M210 20q0 -13 -4.5 -16.5t-18.5 -3.5h-100q-22 0 -22 20v486q0 19 22 19h100q14 0 18.5 -3.5t4.5 -15.5v-171h187v171q0 19 22 19h100q14 0 18 -3.5t4 -15.5v-486q0 -13 -4 -16.5t-18 -3.5h-100q-22 0 -22 20v201h-187v-201z"/>
<glyph glyph-name="afii10080" horiz-adv-x="595" unicode="о" d="M399 262q0 34 -5 62t-17 48t-31 31.5t-47 11.5q-53 0 -78.5 -40.5t-25.5 -109.5q0 -75 23.5 -114t77.5 -39q28 0 47.5 11.5t32 32t18 47.5t5.5 59zM550 265q0 -132 -63 -204t-192 -72q-130 0 -190 72t-60 202q0 64 17.5 115.5t50 86.5t79 54t105.5 19q126 0 189.5 -72.5 t63.5 -200.5z"/>
<glyph glyph-name="afii10081" horiz-adv-x="614" unicode="п" d="M549 19q0 -11 -4 -15t-18 -4h-104q-21 0 -21 19v388h-192v-388q0 -11 -3.5 -15t-17.5 -4h-103q-21 0 -21 19v450q0 24 11 40t46 16h370q35 0 46 -16t11 -40v-450z"/>
<glyph glyph-name="afii10082" horiz-adv-x="604" unicode="р" d="M407 266q0 41 -8 69t-23.5 45t-38 24t-50.5 7q-14 0 -36.5 -3t-39.5 -8v-273q26 -7 46.5 -9t36.5 -2q50 0 81.5 34t31.5 116zM211 -187q0 -11 -3.5 -14t-17.5 -3h-104q-11 0 -16 3t-5 14v652q0 11 3.5 17.5t16.5 13.5q48 22 107.5 31t113.5 9q71 0 119.5 -21.5t78 -58 t42.5 -86.5t13 -107q0 -56 -14 -105.5t-43 -86.5t-73.5 -58.5t-104.5 -21.5q-30 0 -55.5 2.5t-57.5 9.5v-190z"/>
<glyph glyph-name="afii10083" horiz-adv-x="511" unicode="с" d="M308 119q32 0 62.5 7.5t52.5 15.5q13 5 17.5 3.5t8.5 -12.5l28 -75q5 -9 5 -15q0 -7 -12 -13q-44 -24 -94 -32.5t-91 -8.5q-118 0 -179 68t-61 204q0 64 17.5 115.5t49.5 87.5t78.5 55t103.5 19q42 0 83 -8.5t75 -25.5q13 -6 14.5 -11t-3.5 -17l-28 -77q-5 -11 -11 -12 t-20 3q-26 8 -51 13t-48 5q-30 0 -50.5 -12t-33.5 -32t-19 -46.5t-6 -56.5q0 -31 5 -57t18 -45t34.5 -29.5t54.5 -10.5z"/>
<glyph glyph-name="afii10084" horiz-adv-x="492" unicode="т" d="M317 407v-387q0 -13 -4.5 -16.5t-18.5 -3.5h-99q-23 0 -23 20v387h-142q-20 0 -20 22v73q0 14 3.5 18.5t16.5 4.5h432q12 0 16 -4.5t4 -18.5v-73q0 -22 -20 -22h-145z"/>
<glyph glyph-name="afii10085" horiz-adv-x="559" unicode="у" d="M348 -88q-23 -68 -66 -98t-114 -29q-20 0 -46.5 3t-52.5 11q-12 3 -15.5 7t-0.5 15l17 79q3 12 7 13t15 -1q16 -3 27 -4t22 -1q35 0 55 11.5t31 46.5l18 54h-29q-23 0 -33 8t-19 35l-152 444q-2 5 -2 9t3.5 7t11.5 3h117q15 0 20.5 -3.5t8.5 -14.5l57 -202l47 -174h6 l51 177l60 197q3 11 8 15.5t20 4.5h119q13 0 13 -9q0 -3 -2 -7z"/>
<glyph glyph-name="afii10086" horiz-adv-x="769" unicode="ф" d="M582 258q0 69 -30.5 109t-93.5 45v-312q33 4 56.5 18t38.5 35t22 48t7 57zM188 259q0 -30 7.5 -57t23 -49t39 -36t55.5 -17v314q-61 -5 -93 -45.5t-32 -109.5zM458 -184q0 -11 -3.5 -14.5t-17.5 -3.5h-104q-11 0 -15.5 3.5t-4.5 14.5v173q-65 4 -115 26t-84 58t-51.5 85 t-17.5 107q0 64 21.5 113.5t58 84t85 53t103.5 20.5v177q0 11 4.5 14.5t15.5 3.5h104q14 0 17.5 -3t3.5 -15v-179q57 -2 105.5 -20t84 -52.5t56 -84t20.5 -112.5q0 -58 -17 -107t-50.5 -85.5t-83 -58.5t-115.5 -26v-172z"/>
<glyph glyph-name="afii10087" horiz-adv-x="523" unicode="х" d="M261 176l-89 -154q-6 -11 -13.5 -16.5t-22.5 -5.5h-114q-11 0 -13 4t-2 6q0 5 4 12l169 255l-151 230q-4 5 -2.5 11.5t11.5 6.5h120q14 0 21.5 -4t12.5 -15l70 -129l71 129q6 11 13 15t21 4h118q11 0 12 -6t-1 -11l-154 -229l170 -258q4 -6 4 -11q0 -2 -1.5 -6t-13.5 -4 h-117q-17 0 -23.5 5.5t-12.5 16.5z"/>
<glyph glyph-name="afii10088" horiz-adv-x="649" unicode="ц" d="M544 117l47 -4q21 -2 27 -13t5 -27l-11 -212q0 -15 -15 -15h-89q-9 0 -12 4t-4 12l-5 138h-363q-35 0 -47 17.5t-12 45.5v444q0 18 21 18h104q14 0 17 -3.5t3 -14.5v-391h188v391q0 18 21 18h105q12 0 16 -3.5t4 -14.5v-390z"/>
<glyph glyph-name="afii10089" horiz-adv-x="576" unicode="ч" d="M511 16q0 -10 -4 -13t-15 -3h-108q-18 0 -18 16v171q-26 -5 -53.5 -8.5t-51.5 -3.5q-62 0 -104.5 14t-68 40t-36.5 63.5t-11 84.5v132q0 16 18 16h109q11 0 14.5 -3t3.5 -13v-118q0 -30 5 -49t16 -30t30 -15.5t46 -4.5q19 0 40.5 2.5t42.5 8.5v206q0 16 18 16h108 q11 0 15 -3t4 -13v-493z"/>
<glyph glyph-name="afii10090" horiz-adv-x="884" unicode="ш" d="M124 0q-35 0 -47 17.5t-12 45.5v444q0 18 21 18h104q14 0 17 -3.5t3 -14.5v-391h161v391q0 18 20 18h105q13 0 17 -3.5t4 -14.5v-391h157v391q0 11 4 14.5t17 3.5h104q20 0 20 -18v-444q0 -28 -11.5 -45.5t-48.5 -17.5h-635z"/>
<glyph glyph-name="afii10091" horiz-adv-x="923" unicode="щ" d="M124 0q-35 0 -47 17.5t-12 45.5v444q0 18 21 18h104q14 0 17 -3.5t3 -14.5v-391h161v391q0 18 20 18h105q13 0 17 -3.5t4 -14.5v-391h157v391q0 18 21 18h103q12 0 16 -3.5t4 -14.5v-391l47 -4q21 -2 27.5 -13t5.5 -27l-11 -211q-2 -15 -16 -15h-88q-10 0 -13 4t-4 12 l-5 138h-637z"/>
<glyph glyph-name="afii10092" horiz-adv-x="707" unicode="ъ" d="M520 183q0 28 -17.5 47.5t-52.5 19.5h-118v-136h117q22 0 35.5 7t21.5 17.5t11 22.5t3 22zM277 525q31 0 43.5 -13t12.5 -39l-1 -112h124q73 0 115.5 -20.5t64.5 -49.5t27.5 -59.5t5.5 -50.5q0 -39 -15 -72t-41.5 -57t-62.5 -38t-78 -14h-222q-38 0 -50.5 15.5 t-12.5 42.5v349h-159q-11 0 -14.5 5.5t-3.5 17.5v74q0 13 3.5 17t14.5 4h249z"/>
<glyph glyph-name="afii10093" horiz-adv-x="812" unicode="ы" d="M747 20q0 -13 -4 -16.5t-18 -3.5h-100q-22 0 -22 20v486q0 19 22 19h100q14 0 18 -3.5t4 -15.5v-486zM398 183q0 28 -17.5 47.5t-52.5 19.5h-118v-136h117q21 0 35 7t22 17.5t11 22.5t3 22zM128 0q-39 0 -51 15.5t-12 42.5v448q0 19 22 19h101q14 0 18 -3.5t4 -15.5v-145 h124q73 0 115.5 -20.5t64.5 -49.5t27.5 -59.5t5.5 -50.5q0 -39 -15 -72t-41.5 -57t-62.5 -38t-78 -14h-222z"/>
<glyph glyph-name="afii10094" horiz-adv-x="584" unicode="ь" d="M398 183q0 28 -17.5 47.5t-52.5 19.5h-118v-136h117q21 0 35 7t22 17.5t11 22.5t3 22zM128 0q-39 0 -51 15.5t-12 42.5v448q0 19 22 19h100q14 0 18.5 -3.5t4.5 -15.5v-145h124q73 0 115.5 -20.5t64.5 -49.5t27.5 -59.5t5.5 -50.5q0 -39 -15 -72t-41.5 -57t-62.5 -38 t-78 -14h-222z"/>
<glyph glyph-name="afii10095" horiz-adv-x="511" unicode="э" d="M201 119q54 0 80 26.5t31 75.5h-146q-5 0 -9 2.5t-4 10.5v77q0 5 2.5 8.5t10.5 3.5h143q-5 41 -29.5 63t-69.5 22q-23 0 -49.5 -5t-52.5 -13q-14 -4 -20 -3t-11 12l-24 77q-4 12 -3 17t15 11q34 16 76 25t84 9q115 0 178.5 -67.5t63.5 -195.5q0 -140 -62.5 -213 t-183.5 -73q-42 0 -89.5 7.5t-92.5 32.5q-12 5 -12 12q0 6 4 16l30 76q4 11 8.5 12t16.5 -3q23 -8 53 -15.5t62 -7.5z"/>
<glyph glyph-name="afii10096" horiz-adv-x="819" unicode="ю" d="M622 263q0 69 -21.5 110.5t-71.5 41.5q-47 0 -72 -39.5t-25 -110.5q0 -75 22 -113.5t73 -38.5q25 0 43 11t29.5 31t17 47.5t5.5 60.5zM210 20q0 -13 -4 -16.5t-19 -3.5h-100q-22 0 -22 20v486q0 19 22 19h100q15 0 19 -3.5t4 -15.5v-174h76q17 97 79 152t163 55 q61 0 107.5 -19t77 -54.5t46 -86t15.5 -114.5q0 -129 -61 -202.5t-187 -73.5q-117 0 -175.5 60.5t-67.5 169.5h-73v-199z"/>
<glyph glyph-name="afii10097" horiz-adv-x="592" unicode="я" d="M208 355q0 -27 17.5 -43t53.5 -16h104v118h-107q-20 0 -33 -5.5t-20.5 -14.5t-11 -19.5t-3.5 -19.5zM383 199h-78q-35 0 -57 -11.5t-33 -47.5q-8 -29 -17.5 -59t-18.5 -60q-4 -14 -13.5 -17.5t-19.5 -3.5h-100q-15 0 -15 10v4q0 3 1 4l22 68l22 68q8 24 23 46.5t54 33.5 v2q-52 17 -71 52.5t-19 79.5q0 33 12.5 62t36 50t57.5 33t76 12h224q26 0 40 -10.5t16 -28.5q1 -9 1 -18v-18v-434q0 -16 -20 -16h-103q-13 0 -16.5 3.5t-3.5 12.5v183z"/>
<glyph glyph-name="afii10071" horiz-adv-x="568" unicode="ё" d="M296 418q-41 0 -67 -29t-30 -74h187q0 22 -4.5 41t-14.5 32.5t-27 21.5t-44 8zM265 669q0 -15 -6 -28t-16.5 -23t-24 -16t-28.5 -6t-28 6t-23.5 16t-16.5 23t-6 28t6 28.5t16.5 23.5t23.5 16t28 6t28.5 -6t24 -16t16.5 -23.5t6 -28.5zM470 669q0 -15 -6 -28t-16.5 -23 t-23.5 -16t-28 -6t-28.5 6t-24 16t-16.5 23t-6 28q0 30 22.5 52t52.5 22q15 0 28 -6t23.5 -16t16.5 -23.5t6 -28.5zM293 538q117 0 175.5 -58.5t58.5 -167.5q0 -52 -20 -71t-55 -19h-256q1 -32 10.5 -53t25.5 -34t37.5 -18t46.5 -5q29 0 59 7t56 18q12 4 16.5 2.5t8.5 -9.5 l32 -72q4 -9 1.5 -14t-10.5 -10q-37 -24 -86 -34.5t-91 -10.5q-131 0 -194 65t-63 206q0 66 17.5 117.5t50 87.5t78 54.5t102.5 18.5z"/>
<glyph glyph-name="afii10099" horiz-adv-x="605" unicode="ђ" d="M219 646h173q12 0 12 -15v-35q0 -9 -3 -12t-9 -3h-173v-91q27 8 56 11.5t55 3.5q109 0 171.5 -65.5t62.5 -190.5q0 -51 -12 -97.5t-33.5 -86.5t-51 -72.5t-64.5 -54.5q-9 -6 -15 -6q-1 0 -5.5 1t-12.5 11l-51 60q-5 8 -3 13.5t10 12.5q46 46 67.5 97.5t21.5 108.5 q0 32 -6 58.5t-19.5 45.5t-35.5 29.5t-55 10.5q-17 0 -37.5 -2.5t-42.5 -9.5v-349q0 -11 -4 -15t-18 -4h-102q-11 0 -16 3.5t-5 14.5v563h-42q-7 0 -9.5 2.5t-2.5 10.5v39q0 13 12 13h42v66q0 19 20 19h103q14 0 18 -4t4 -15v-66z"/>
<glyph glyph-name="afii10100" horiz-adv-x="489" unicode="ѓ" d="M216 606q-9 3 -10 7.5t2 12.5l70 174q5 14 12.5 14t18.5 -3l95 -25q16 -4 8 -18l-117 -172q-6 -9 -10.5 -10t-12.5 1zM210 20q0 -13 -4 -16.5t-19 -3.5h-99q-23 0 -23 20v350q0 30 6.5 58.5t24 50t48.5 34t81 12.5h235q12 0 15.5 -4.5t3.5 -18.5v-72q0 -12 -4 -17.5 t-15 -5.5h-192q-35 0 -46.5 -14t-11.5 -40v-333z"/>
<glyph glyph-name="afii10101" horiz-adv-x="511" unicode="є" d="M308 119q32 0 62.5 7.5t52.5 15.5q13 5 17.5 3.5t8.5 -12.5l28 -75q5 -9 5 -15q0 -7 -12 -13q-44 -24 -94 -32.5t-91 -8.5q-118 0 -179 68t-61 204q0 64 17.5 115t49.5 87t78.5 55.5t103.5 19.5h8q38 0 77 -8.5t73 -25.5q13 -6 14.5 -11t-3.5 -17l-28 -77q-5 -11 -11 -12 t-20 3q-26 8 -51 13t-48 5q-45 -1 -70 -25.5t-33 -62.5h144q8 0 10 -3.5t2 -8.5v-78q0 -8 -4 -10.5t-8 -2.5h-146q6 -44 30.5 -71t77.5 -27z"/>
<glyph glyph-name="afii10102" horiz-adv-x="497" unicode="ѕ" d="M461 150q0 -81 -57.5 -121t-150.5 -40q-52 0 -109.5 11.5t-101.5 37.5q-10 6 -10 13q0 5 4 13l29 69q5 11 10.5 13.5t16.5 -2.5q16 -7 36 -13.5t41.5 -11.5t41.5 -8t36 -3q36 0 50.5 12.5t14.5 31.5q0 20 -20.5 34t-70.5 33q-40 15 -70.5 31t-51.5 34.5t-32 42t-11 54.5 q0 33 12 61.5t36 49.5t60.5 33.5t86.5 12.5q45 0 91.5 -8.5t84.5 -25.5q11 -5 12 -10.5t-3 -17.5l-25 -64q-4 -11 -9 -12.5t-16 2.5q-37 11 -68 17t-64 6q-27 0 -39 -12.5t-12 -25.5q0 -20 18.5 -33t64.5 -30q36 -14 68 -28.5t55.5 -34t37.5 -46.5t14 -65z"/>
<glyph glyph-name="afii10103" horiz-adv-x="312" unicode="і" d="M229 18q0 -11 -4 -14.5t-18 -3.5h-102q-11 0 -16 3.5t-5 14.5v489q0 11 5 14.5t16 3.5h102q14 0 18 -3.5t4 -14.5v-489zM242 662q0 -35 -24.5 -58.5t-59.5 -23.5q-34 0 -58.5 23.5t-24.5 58.5q0 18 6.5 33t18 26t26.5 17.5t32 6.5t32.5 -6.5t27 -17.5t18 -26t6.5 -33z "/>
<glyph glyph-name="afii10104" horiz-adv-x="314" unicode="ї" d="M230 18q0 -11 -3.5 -14.5t-17.5 -3.5h-103q-11 0 -16 3.5t-5 14.5v489q0 11 5 14.5t16 3.5h103q14 0 17.5 -3.5t3.5 -14.5v-489zM133 672q0 -15 -6 -28t-16.5 -23t-24 -16t-28.5 -6t-28 6t-23.5 16t-16.5 23t-6 28t6 28.5t16.5 23.5t23.5 16t28 6t28.5 -6t24 -16 t16.5 -23.5t6 -28.5zM338 672q0 -15 -6 -28t-16.5 -23t-23.5 -16t-28 -6t-28.5 6t-24 16t-16.5 23t-6 28q0 30 22.5 52t52.5 22q15 0 28 -6t23.5 -16t16.5 -23.5t6 -28.5z"/>
<glyph glyph-name="afii10105" horiz-adv-x="319" unicode="ј" d="M247 662q0 -35 -24 -58.5t-59 -23.5t-59.5 23.5t-24.5 58.5q0 18 6.5 33t18 26t27 17.5t32.5 6.5q35 0 59 -24t24 -59zM234 76q0 -72 -15 -122t-41.5 -84.5t-61.5 -55.5t-74 -34q-12 -4 -18 -4q-2 0 -5.5 1t-7.5 11l-33 86q-3 8 -3 13q0 3 2 6t13 9q30 15 49 32t30.5 38 t15.5 46t4 57v432q0 11 4.5 14.5t15.5 3.5h105q14 0 17 -3.5t3 -14.5v-431z"/>
<glyph glyph-name="afii10106" horiz-adv-x="872" unicode="љ" d="M685 180q0 29 -18 46.5t-51 17.5h-118v-130h118q21 0 34.5 6.5t21 16.5t10.5 21.5t3 21.5zM258 355q-5 -87 -13 -150t-27 -107.5t-54 -72.5t-93 -46q-8 -3 -14 -3q-4 0 -8 2.5t-8 12.5l-27 68q-4 10 -4 16q0 7 15 15q27 12 43.5 27t27 43t16.5 74.5t11 122.5l7 109 q2 33 15.5 46t46.5 13h250q33 0 45 -14.5t12 -41.5v-113h124q73 0 115.5 -20.5t63.5 -49t26.5 -58.5t5.5 -50q0 -39 -14.5 -71.5t-41 -56t-62 -37t-77.5 -13.5h-223q-39 0 -51 15.5t-12 42.5v349h-92z"/>
<glyph glyph-name="afii10107" horiz-adv-x="879" unicode="њ" d="M692 176q0 29 -17 43.5t-47 14.5h-114v-120h113q20 0 32.5 6t20 15.5t10 20.5t2.5 20zM432 0q-39 0 -51 15.5t-12 42.5v171h-159v-209q0 -13 -4.5 -16.5t-18.5 -3.5h-100q-22 0 -22 20v486q0 19 22 19h100q14 0 18.5 -3.5t4.5 -15.5v-165h159v165q0 19 22 19h100 q14 0 18 -3.5t4 -15.5v-162h121q70 0 111 -19t62.5 -46t27.5 -56t6 -49q0 -38 -14.5 -70t-40 -55t-60.5 -36t-76 -13h-218z"/>
<glyph glyph-name="afii10108" horiz-adv-x="609" unicode="ћ" d="M23 584q-8 0 -10 2.5t-2 10.5v39q0 8 2 10.5t10 2.5h42v63q0 19 20 19h104q14 0 17.5 -4t3.5 -15v-63h176q12 0 12 -15v-35q0 -10 -3 -12.5t-9 -2.5h-176v-96q26 8 59.5 12.5t57.5 4.5q109 0 163.5 -58.5t54.5 -164.5v-264q0 -12 -4 -15t-18 -3h-104q-11 0 -16 3.5 t-5 14.5v246q0 26 -4.5 47.5t-16 36.5t-30.5 23.5t-48 8.5q-20 0 -45 -3t-44 -11v-348q0 -12 -3.5 -15t-17.5 -3h-103q-11 0 -16 3.5t-5 14.5v566h-42z"/>
<glyph glyph-name="afii10109" horiz-adv-x="575" unicode="ќ" d="M210 16q0 -11 -4 -13.5t-14 -2.5h-109q-9 0 -13.5 2.5t-4.5 13.5v493q0 11 4.5 13.5t13.5 2.5h109q10 0 14 -2.5t4 -13.5v-174h47q26 0 47.5 12.5t35.5 54.5l35 110q2 9 7 11t10 2h111q10 0 11.5 -6t0.5 -11l-37 -131q-8 -31 -24.5 -55.5t-46.5 -36.5l-1 -2q22 -6 36 -15 t23.5 -20.5t15.5 -26t11 -30.5l51 -173q1 -2 1 -5t-1 -8t-13 -5h-115q-4 0 -9.5 2t-7.5 10l-47 154q-10 32 -31.5 44.5t-52.5 12.5h-57v-207zM227 591q-10 3 -10 10q0 4 2 10l70 174q5 14 12.5 14t18.5 -3l95 -25q11 -3 11 -10q0 -4 -3 -8l-117 -172q-6 -9 -9 -9.5t-5 -0.5 q-4 0 -9 1z"/>
<glyph glyph-name="afii10110" horiz-adv-x="559" unicode="ў" d="M282 576q-30 0 -56.5 9.5t-50 26t-43 37t-35.5 43.5q-2 3 -4 8.5t7 13.5l39 38q10 8 13.5 5.5t11.5 -8.5q32 -32 63.5 -50t60.5 -18q12 0 24.5 2.5t27.5 10t33 21t42 36.5q9 8 14 8q4 0 9 -6l38 -33q10 -9 8.5 -14t-4.5 -9q-91 -121 -198 -121zM348 -88q-23 -68 -66 -98 t-114 -29q-20 0 -46.5 3t-52.5 11q-12 3 -15.5 7t-0.5 15l17 79q3 12 7 13t15 -1q16 -3 27 -4t22 -1q35 0 55 11.5t31 46.5l18 54h-29q-23 0 -33 8t-19 35l-152 444q-2 5 -2 9t3.5 7t11.5 3h117q15 0 20.5 -3.5t8.5 -14.5l57 -202l47 -174h6l51 177l60 197q3 11 8 15.5 t20 4.5h119q13 0 13 -9q0 -3 -2 -7z"/>
<glyph glyph-name="afii10193" horiz-adv-x="628" unicode="џ" d="M124 0q-35 0 -47 17.5t-12 45.5v444q0 18 21 18h104q14 0 17 -3.5t3 -14.5v-391h208v391q0 11 3.5 14.5t17.5 3.5h104q20 0 20 -18v-444q0 -28 -12 -45.5t-47 -17.5h-119l-7 -150q0 -17 -16 -17h-92q-16 0 -17 18l-8 149h-121z"/>
<glyph glyph-name="afii10050" horiz-adv-x="580" unicode="Ґ" d="M292 570q-39 0 -52 -17.5t-13 -44.5v-487q0 -14 -4 -17.5t-19 -3.5h-106q-12 0 -17.5 4.5t-5.5 16.5v495q0 36 9.5 69t31 59t56.5 41.5t87 15.5h170v117q0 19 20 19h97q13 0 17 -4t4 -15v-183q0 -32 -14 -48.5t-52 -16.5h-209z"/>
<glyph glyph-name="afii10098" horiz-adv-x="497" unicode="ґ" d="M268 407q-35 0 -46.5 -14t-11.5 -40v-333q0 -13 -4 -16.5t-19 -3.5h-99q-23 0 -23 20v350q0 30 6.5 58.5t24.5 50t49 34t80 12.5l134 1v114q0 18 20 18h87q13 0 17 -3.5t4 -14.5v-169q0 -31 -13.5 -47.5t-51.5 -16.5h-154z"/>
<glyph glyph-name="schwacyrillic" horiz-adv-x="568" unicode="ә" d="M275 110q41 0 67.5 29t30.5 74h-188q1 -22 5 -40.5t14.5 -32.5t27.5 -22t43 -8zM279 -10q-118 0 -176 58.5t-58 167.5q0 53 19.5 71.5t55.5 19.5h255q-1 32 -10.5 53t-25.5 33.5t-37 17.5t-46 5q-29 0 -59.5 -7t-56.5 -17q-11 -5 -16 -3.5t-9 9.5l-31 72q-4 9 -2 14 t10 10q38 24 87 34.5t91 10.5q131 0 194 -65t63 -206q0 -66 -17.5 -117.5t-50 -87.5t-78 -54.5t-102.5 -18.5z"/>
<glyph glyph-name="endash" horiz-adv-x="500" unicode="–" d="M479 264q0 -14 -4.5 -17.5t-15.5 -3.5h-418q-11 0 -15.5 3.5t-4.5 17.5v63q0 21 20 21h418q20 0 20 -21v-63z"/>
<glyph glyph-name="emdash" horiz-adv-x="1000" unicode="—" d="M980 264q0 -14 -4.5 -17.5t-15.5 -3.5h-920q-11 0 -15.5 3.5t-4.5 17.5v63q0 21 20 21h920q20 0 20 -21v-63z"/>
<glyph glyph-name="quoteleft" horiz-adv-x="339" unicode="‘" d="M221 452q-1 -10 -5.5 -16.5t-18.5 -6.5h-114q-17 0 -19 5.5t-2 8.5q0 4 2 9l72 239q3 11 7 16t15 5h54q24 0 23 -19z"/>
<glyph glyph-name="quotesinglbase" horiz-adv-x="282" unicode="‚" d="M163 -111q-3 -11 -7 -15.5t-15 -4.5h-54q-24 0 -23 19l12 252q1 11 5.5 17.5t18.5 6.5h114q17 0 19.5 -6t2.5 -11q0 -3 -1 -7z"/>
<glyph glyph-name="quotedblleft" horiz-adv-x="514" unicode="“" d="M221 452q-1 -10 -5.5 -16.5t-18.5 -6.5h-114q-17 0 -19 5.5t-2 8.5q0 4 2 9l72 239q3 11 7 16t15 5h54q24 0 23 -19zM439 452q-1 -10 -5 -16.5t-18 -6.5h-115q-16 0 -18.5 6t-2.5 11q0 3 1 6l73 239q3 11 7 16t15 5h54q24 0 23 -19z"/>
<glyph glyph-name="quotedblright" horiz-adv-x="514" unicode="”" d="M163 450q-3 -12 -7.5 -16.5t-15.5 -4.5h-53q-14 0 -19 4.5t-4 14.5l14 241q1 10 5 16.5t18 6.5h114q17 0 20 -7.5t0 -15.5zM381 450q-4 -12 -7.5 -16.5t-14.5 -4.5h-54q-25 0 -24 19l15 241q0 10 5 16.5t19 6.5h113q17 0 19 -5.5t2 -9.5t-1 -8z"/>
<glyph glyph-name="dagger" horiz-adv-x="579" unicode="†" d="M533 389q0 -14 -3 -17.5t-15 -3.5h-155v-453q0 -11 -3.5 -14.5t-17.5 -3.5h-96q-11 0 -15.5 3.5t-4.5 14.5v453h-155q-11 0 -15 3.5t-4 17.5v84q0 21 19 21h155v189q0 11 4.5 14.5t15.5 3.5h96q14 0 17.5 -3.5t3.5 -14.5v-189h155q11 0 14.5 -5t3.5 -16v-84z"/>
<glyph glyph-name="daggerdbl" horiz-adv-x="579" unicode="‡" d="M223 280v108h-156q-11 0 -14.5 3.5t-3.5 16.5v84q0 11 3.5 16t14.5 5h156v170q0 11 4.5 14.5t15.5 3.5h96q14 0 17.5 -3.5t3.5 -14.5v-170h156q11 0 14 -5t3 -16v-84q0 -13 -3 -16.5t-14 -3.5h-156v-108h156q11 0 14 -4.5t3 -15.5v-84q0 -14 -3 -17.5t-14 -3.5h-156v-240 q0 -11 -3.5 -14.5t-17.5 -3.5h-96q-11 0 -15.5 3.5t-4.5 14.5v240h-156q-11 0 -14.5 3.5t-3.5 17.5v84q0 11 3.5 15.5t14.5 4.5h156z"/>
<glyph glyph-name="ellipsis" horiz-adv-x="857" unicode="…" d="M242 78q0 -38 -26.5 -64t-66.5 -26q-38 0 -65 26t-27 64q0 19 7 35.5t19.5 28.5t29.5 19t36 7q40 0 66.5 -26t26.5 -64zM523 78q0 -19 -7 -35.5t-20 -28.5t-30 -19t-36 -7t-35.5 7t-29 19t-20 28.5t-7.5 35.5q0 38 27 64t65 26q40 0 66.5 -26t26.5 -64zM799 78 q0 -38 -26.5 -64t-65.5 -26t-66 26t-27 64q0 19 7 35.5t20 28.5t29.5 19t36.5 7q39 0 65.5 -26t26.5 -64z"/>
<glyph glyph-name="perthousand" horiz-adv-x="1386" unicode="‰" d="M1234 202q0 51 -16.5 85t-59.5 34q-41 0 -57.5 -33.5t-16.5 -84.5q0 -25 4 -46.5t13 -37.5t23.5 -25t35.5 -9q41 0 57.5 33.5t16.5 83.5zM1350 203q0 -47 -12 -85t-36 -66t-60 -43t-84 -15q-95 0 -142.5 56.5t-47.5 151.5q0 48 12 86.5t36 66.5t60 43t84 15 q97 0 143.5 -57t46.5 -153zM324 -14q-5 -9 -12.5 -13.5t-21.5 -4.5h-51q-11 0 -13.5 5.5t2.5 13.5l414 704q5 8 9 11.5t15 3.5h59q9 0 12.5 -5t-2.5 -15zM302 469q0 51 -16.5 85t-59.5 34q-41 0 -57.5 -33.5t-16.5 -84.5q0 -25 4 -46.5t13 -37.5t23.5 -25t35.5 -9 q41 0 57.5 33.5t16.5 83.5zM418 470q0 -47 -12 -85t-36 -66t-60 -43t-84 -15q-95 0 -142.5 56.5t-47.5 151.5q0 48 12 86.5t36 66.5t60 43t84 15q97 0 143.5 -57t46.5 -153zM818 202q0 51 -16.5 85t-59.5 34q-41 0 -57.5 -33.5t-16.5 -84.5q0 -25 4 -46.5t13 -37.5t23.5 -25 t35.5 -9q41 0 57.5 33.5t16.5 83.5zM934 203q0 -47 -12 -85t-36 -66t-60 -43t-84 -15q-95 0 -142.5 56.5t-47.5 151.5q0 48 12 86.5t36 66.5t60 43t84 15q97 0 143.5 -57t46.5 -153z"/>
<glyph glyph-name="guilsinglleft" horiz-adv-x="377" unicode="‹" d="M58 254q0 12 4.5 23t11.5 22l88 149q8 13 16 18t29 5h92q9 0 12.5 -6.5t-1.5 -15.5l-116 -196l123 -203q4 -7 4 -11q0 -3 -3 -7t-14 -4h-91q-21 0 -29 5t-14 16l-97 162q-6 11 -10.5 22.5t-4.5 20.5z"/>
<glyph glyph-name="guilsinglright" horiz-adv-x="377" unicode="›" d="M314 254q0 -9 -5 -20.5t-11 -22.5l-96 -162q-6 -11 -14.5 -16t-28.5 -5h-92q-11 0 -14 4t-3 7q0 5 4 11l124 203l-116 196q-5 9 -1.5 15.5t12.5 6.5h92q20 0 28 -5t16 -18l89 -149q6 -11 11 -22t5 -23z"/>
<glyph glyph-name="fraction" horiz-adv-x="183" unicode="⁄" d="M-69 -14q-5 -9 -12.5 -13.5t-21.5 -4.5h-51q-11 0 -12.5 3.5t-1.5 5.5q0 4 3 10l414 704q5 8 9 11.5t15 3.5h59q9 0 11.5 -3.5t2.5 -5.5q0 -4 -4 -11z"/>
<glyph glyph-name="Euro" d="M481 316q11 0 12.5 -4.5t1.5 -13.5v-43q0 -10 -1.5 -14t-12.5 -4h-219q12 -57 48.5 -86.5t103.5 -29.5q44 0 75 9.5t63 21.5q14 5 19 3t10 -11l37 -76q4 -7 4 -12q0 -3 -2.5 -7.5t-10.5 -9.5q-48 -30 -102 -40t-110 -10q-131 0 -203 63.5t-90 184.5h-48q-11 0 -13 4 t-2 14v43q0 9 2 13.5t13 4.5h425zM56 361q-11 0 -13 4t-2 14v43q0 9 2 13.5t13 4.5h53q11 56 37.5 101t65 76.5t87.5 48.5t105 17q49 0 94 -8.5t87 -29.5q14 -7 14 -16q0 -6 -4 -16l-32 -75q-5 -10 -10 -12t-19 3q-35 12 -63.5 17t-60.5 5q-54 0 -90 -30t-52 -81h213 q11 0 12.5 -4.5t1.5 -13.5v-43q0 -10 -1.5 -14t-12.5 -4h-425z" unicode="€"/>
<glyph glyph-name="trademark" horiz-adv-x="873" unicode="™" d="M363 637q0 -13 -14 -13h-104v-306q0 -7 -2.5 -10t-12.5 -3h-69q-14 0 -14 13v306h-101q-14 0 -14 13v50q0 14 14 14h303q14 0 14 -14v-50zM720 544h-4l-23 -69l-37 -95q-6 -15 -13.5 -20.5t-21.5 -5.5h-35q-15 0 -21.5 5.5t-12.5 20.5l-36 90l-25 71h-4v-223 q0 -8 -3 -9.5t-10 -1.5h-68q-7 0 -10.5 1.5t-3.5 9.5v343q0 39 44 39h34q19 0 28.5 -6t16.5 -22l52 -129l35 -89h3q1 4 6.5 17.5t11.5 28.5t11.5 28.5t6.5 16.5l51 126q7 16 17.5 22.5t31.5 6.5h29q20 0 31.5 -8t11.5 -31v-343q0 -8 -3.5 -9.5t-10.5 -1.5h-65q-8 0 -11 1.5 t-3 9.5v226z"/>
<glyph glyph-name="arrowleft" horiz-adv-x="829" unicode="←" d="M769 372v-99h-532l120 -116l-71 -71l-236 237l236 238l71 -71l-120 -118h532z"/>
<glyph glyph-name="arrowup" horiz-adv-x="518" unicode="↑" d="M310 0h-99v516l-116 -119l-71 71l237 236l238 -236l-71 -71l-118 119v-516z"/>
<glyph glyph-name="arrowright" horiz-adv-x="829" unicode="→" d="M584 372l-120 118l70 71l236 -238l-236 -237l-70 71l120 116h-533v99h533z"/>
<glyph glyph-name="arrowdown" horiz-adv-x="518" unicode="↓" d="M310 187l118 120l71 -71l-238 -236l-237 236l71 71l117 -120v517h98v-517z"/>
<glyph glyph-name="carriagereturn" horiz-adv-x="854" unicode="↵" d="M717 693h98v-419h-552l119 -118l-69 -69l-235 236l235 236l69 -69l-119 -119h454v322z"/>
<glyph glyph-name="partialdiff" horiz-adv-x="590" unicode="∂" d="M284 469q22 0 51 -6t55 -24q-8 91 -62 133.5t-140 50.5q-10 2 -14 4t-4 13l5 67q2 18 18 18q84 0 147 -22t105.5 -68t64 -118t21.5 -174q0 -91 -17.5 -158t-50 -111.5t-79 -66t-103.5 -21.5q-44 0 -84 12.5t-70.5 40.5t-49 73.5t-18.5 111.5q0 57 17.5 102.5t48.5 77 t71.5 48.5t87.5 17zM197 219q0 -35 7.5 -58.5t20 -37.5t28 -20.5t31.5 -6.5q24 0 44.5 11t34.5 37t22 70t8 110q-31 23 -56 29.5t-48 6.5t-40 -12t-28.5 -32t-17.5 -45t-6 -52z"/>
<glyph glyph-name="gradient" horiz-adv-x="661" unicode="∇" d="M472 583h-287l-3 -4q24 -71 48.5 -140.5t47.5 -140.5l48 -148h6l47 147q6 17 19 55.5t27.5 82.5t28.5 84l21 60zM434 54q-6 -18 -12.5 -28.5t-15.5 -16.5t-20.5 -7.5t-28.5 -1.5h-60q-26 0 -39.5 7t-24.5 30l-208 555q-4 12 -6 23t-2 23v15q0 26 12 37t41 11h520 q25 0 38.5 -13t13.5 -35v-16q0 -12 -2.5 -23.5t-7.5 -24.5q-6 -16 -21 -57.5t-35 -95.5t-42.5 -114.5t-42.5 -114.5t-35.5 -95.5t-21.5 -57.5z"/>
<glyph glyph-name="product" horiz-adv-x="725" unicode="∏" d="M650 -103q0 -12 -4 -15.5t-18 -3.5h-109q-21 0 -21 19v671h-270v-671q0 -12 -4 -15.5t-18 -3.5h-110q-21 0 -21 19v736q0 35 14.5 51.5t49.5 16.5h447q36 0 50 -16.5t14 -51.5v-736z"/>
<glyph glyph-name="summation" horiz-adv-x="606" unicode="∑" d="M538 702q12 0 15.5 -4t3.5 -17v-89q0 -20 -19 -20h-307l-1 -8l152 -209q11 -17 18.5 -28.5t6.5 -25.5q1 -11 -5.5 -23t-17.5 -29l-154 -234l2 -7h330q11 0 15 -3.5t4 -17.5v-89q0 -12 -4 -16.5t-15 -4.5h-479q-26 0 -39.5 10.5t-13.5 39.5v22q0 24 11.5 44.5t24.5 40.5 l176 269l-172 236q-14 19 -21 35t-7 35v36q0 33 14.5 45t44.5 12h437z"/>
<glyph glyph-name="minus" d="M580 305q0 -21 -20 -21h-467q-20 0 -20 20v80q0 12 4 16t15 4h469q19 0 19 -20v-79z" unicode="−"/>
<glyph glyph-name="radical" horiz-adv-x="644" unicode="√" d="M279 -127q-35 97 -70 193t-70 193l-90 -32q-6 -2 -12.5 -1t-8.5 8q-5 17 -11 34t-11 35q-2 6 -2 10q0 5 13 9q45 17 88 33.5t86 33.5q7 3 12 3q13 0 18 -16q29 -85 56.5 -170t55.5 -170h5q44 187 88 372t89 371q3 13 9 15.5t17 2.5h78q14 0 15 -4t1 -7q0 -4 -1 -10 l-233 -898q-5 -22 -23.5 -32.5t-38.5 -10.5q-17 0 -34.5 6.5t-25.5 31.5z"/>
<glyph glyph-name="infinity" horiz-adv-x="767" unicode="∞" d="M553 348q-14 0 -28.5 -6.5t-28 -16.5t-26 -23.5t-22.5 -26.5q23 -31 49.5 -52t55.5 -21q27 0 46 22t19 53t-19.5 51t-45.5 20zM210 348q-27 0 -46.5 -21t-19.5 -51q0 -31 19.5 -52.5t46.5 -21.5q29 0 57 21.5t48 50.5q-20 28 -47.5 51t-57.5 23zM208 445q25 0 48.5 -8 t45.5 -21t42 -29.5t38 -32.5q18 19 36.5 35.5t40 29t46 19.5t54.5 7q37 0 69 -12.5t54.5 -35t35.5 -53t13 -67.5q0 -35 -13.5 -66t-37.5 -54t-57 -37t-72 -14q-48 0 -90.5 28t-78.5 64q-20 -19 -39.5 -36t-40.5 -29.5t-45 -19.5t-53 -7q-36 0 -67.5 12.5t-55 35t-36.5 54 t-13 68.5q0 34 13 65t36.5 54t55.5 36.5t71 13.5z"/>
<glyph glyph-name="logicaland" horiz-adv-x="619" unicode="∧" d="M58 0q-11 0 -13 5t-2 8q0 4 2 8l189 492q3 7 11 17t31 10h75q11 0 21.5 -4.5t16.5 -19.5l189 -494q2 -4 2 -8q0 -3 -2 -8.5t-16 -5.5h-98q-12 0 -16 4t-8 14l-129 350q-33 -88 -65.5 -175t-64.5 -175q-3 -7 -9 -12.5t-18 -5.5h-96z"/>
<glyph glyph-name="logicalor" horiz-adv-x="619" unicode="∨" d="M154 540q12 0 18 -5.5t9 -13.5q32 -88 64.5 -174.5t65.5 -174.5l129 348q4 10 8.5 15t15.5 5h98q15 0 16.5 -5t1.5 -8q0 -5 -2 -10l-189 -493q-6 -16 -16.5 -20t-21.5 -4h-75q-23 0 -31 9.5t-11 16.5l-189 492q-2 4 -2 8q0 3 2 8.5t13 5.5h96z"/>
<glyph glyph-name="intersection" horiz-adv-x="585" unicode="∩" d="M403 311q0 27 -9 48.5t-24 36t-35 22t-42 7.5q-47 0 -78.5 -28.5t-31.5 -85.5v-286q0 -16 -3.5 -20.5t-16.5 -4.5h-89q-11 0 -15.5 4t-4.5 21v306q0 51 19.5 91t52 67.5t75.5 42t90 14.5q49 0 93 -14t76.5 -41t51.5 -67t19 -93v-306q0 -16 -4 -20.5t-15 -4.5h-89 q-11 0 -15.5 4t-4.5 21v286z"/>
<glyph glyph-name="union" horiz-adv-x="585" unicode="∪" d="M403 522q0 17 4.5 21t15.5 4h89q11 0 15 -4.5t4 -20.5v-307q0 -53 -19 -93t-51.5 -67t-76.5 -41t-93 -14q-47 0 -90 14.5t-75.5 42t-52 67.5t-19.5 91v307q0 17 4.5 21t15.5 4h89q13 0 16.5 -4.5t3.5 -20.5v-286q0 -57 31.5 -85.5t78.5 -28.5q22 0 42 7.5t35 22t24 36 t9 48.5v286z"/>
<glyph glyph-name="approxequal" d="M580 435q-26 -42 -66.5 -68t-86.5 -26q-27 0 -52.5 9t-50.5 19.5t-48 19.5t-45 9q-45 0 -78 -37q-6 -6 -11 -8t-12 3l-54 43q-6 5 -6 11q0 4 3 9q32 47 69 68.5t82 21.5q28 0 54.5 -9t51.5 -19.5t48 -19.5t44 -9q23 0 40 11t34 33q10 13 23 4l57 -42q7 -5 7 -13 q0 -4 -3 -10zM580 240q-26 -42 -66.5 -68.5t-86.5 -26.5q-27 0 -52.5 9t-50.5 20t-48 20t-45 9q-44 0 -78 -38q-6 -6 -11 -7.5t-12 3.5l-54 42q-6 5 -6 12q0 4 3 9q32 47 69 68.5t82 21.5q28 0 54.5 -9t51.5 -20t48 -20t44 -9q23 0 40 11t34 33q10 13 23 4l57 -42 q7 -5 7 -12q0 -5 -3 -10z" unicode="≈"/>
<glyph glyph-name="notequal" d="M585 197q0 -11 -3.5 -16.5t-14.5 -5.5h-305l-68 -86q-6 -8 -13 -12.5t-17 -4.5h-59q-9 0 -10.5 4t-1.5 6q0 5 4 10l66 83h-45q-11 0 -14.5 4.5t-3.5 15.5v79q0 11 3 15t14 4h141l72 90h-212q-11 0 -14.5 5t-3.5 16v77q0 13 3.5 17t14.5 4h307l64 80q7 9 12.5 14t16.5 5 h60q15 0 15 -8q0 -4 -5 -11l-64 -80h41q12 0 15.5 -4t3.5 -17v-77q0 -21 -19 -21h-136l-72 -90h210q11 0 14.5 -4.5t3.5 -15.5v-76z" unicode="≠"/>
<glyph glyph-name="lessequal" d="M92 0q-20 0 -20 19v81q0 11 3.5 15t15.5 4h469q11 0 14.5 -4t3.5 -16v-78q0 -21 -19 -21h-467zM552 630q7 3 12 3q3 0 6.5 -2t3.5 -16v-83q0 -14 -3 -20.5t-18 -11.5q-24 -8 -64.5 -22.5t-85 -30.5t-85 -30t-64.5 -22v-2q75 -27 150.5 -54t151.5 -53q15 -5 18.5 -12 t3.5 -21v-83q0 -14 -4 -16t-7 -2q-4 0 -11 2l-454 181q-30 13 -30 36v39q0 18 8 26t22 14z" unicode="≤"/>
<glyph glyph-name="greaterequal" d="M91 0q-19 0 -19 21v78q0 12 4 16t15 4h469q11 0 14.5 -4t3.5 -15v-81q0 -19 -20 -19h-467zM578 371q0 -13 -6.5 -21t-23.5 -15l-454 -181q-6 -2 -11 -2q-3 0 -7 2t-4 16v83q0 18 5.5 24t30.5 14q31 11 71 25.5t80.5 28.5t77 27t59.5 21v2l-299 105q-14 5 -17.5 11.5 t-3.5 20.5v83q0 14 4 16t6 2q5 0 12 -3q113 -45 225.5 -89.5t225.5 -90.5q14 -5 21.5 -13.5t7.5 -26.5v-39z" unicode="≥"/>
<glyph glyph-name="lozenge" horiz-adv-x="530" unicode="◊" d="M253 520q-5 -10 -19 -39t-30.5 -61.5t-31 -61.5t-18.5 -39q4 -10 19 -39t32 -62t31.5 -62.5t18.5 -38.5q5 10 19.5 38.5t30.5 61.5t30 62t19 39zM294 -18h-82q-4 8 -17.5 34t-31.5 60.5t-38 73t-38 73t-31.5 60.5t-17.5 35l175 337h82l172 -337z"/>
</font>
</defs>
</svg>
